<?xml version="1.0" encoding="utf-8"?>
<!-- Generator: Adobe Illustrator 17.0.0, SVG Export Plug-In . SVG Version: 6.00 Build 0)  -->
<!DOCTYPE svg PUBLIC "-//W3C//DTD SVG 1.1//EN" "http://www.w3.org/Graphics/SVG/1.1/DTD/svg11.dtd">
<svg version="1.1" id="line4" xmlns="http://www.w3.org/2000/svg" xmlns:xlink="http://www.w3.org/1999/xlink" x="0px" y="0px"
	 width="126.863px" height="4.8px" viewBox="0 0 126.863 4.8" enable-background="new 0 0 126.863 4.8" xml:space="preserve">
<g>
	<path d="M126.063,4.284c-1.403,0-2.126-0.758-2.707-1.366c-0.499-0.523-0.86-0.901-1.621-0.901s-1.122,0.378-1.621,0.901
		c-0.581,0.608-1.304,1.366-2.707,1.366c-1.402,0-2.125-0.758-2.706-1.366c-0.499-0.523-0.859-0.901-1.619-0.901
		c-0.759,0-1.119,0.378-1.617,0.901c-0.58,0.608-1.302,1.366-2.704,1.366c-1.401,0-2.122-0.758-2.702-1.366
		c-0.498-0.523-0.858-0.901-1.617-0.901c-0.76,0-1.119,0.378-1.618,0.901c-0.58,0.608-1.303,1.366-2.704,1.366
		s-2.124-0.758-2.704-1.366c-0.499-0.523-0.858-0.901-1.618-0.901s-1.119,0.378-1.618,0.901c-0.58,0.608-1.302,1.366-2.703,1.366
		s-2.123-0.758-2.703-1.366c-0.498-0.523-0.858-0.901-1.617-0.901c-0.758,0-1.118,0.378-1.616,0.901
		c-0.579,0.608-1.301,1.366-2.702,1.366s-2.123-0.758-2.703-1.367c-0.498-0.522-0.858-0.9-1.616-0.9s-1.117,0.378-1.615,0.9
		c-0.579,0.609-1.301,1.367-2.701,1.367c-1.401,0-2.123-0.758-2.703-1.367c-0.498-0.522-0.858-0.9-1.616-0.9
		c-0.756,0-1.114,0.377-1.611,0.9c-0.58,0.609-1.301,1.367-2.701,1.367c-1.401,0-2.123-0.758-2.703-1.366
		c-0.499-0.523-0.858-0.901-1.617-0.901c-0.758,0-1.118,0.378-1.616,0.9c-0.58,0.609-1.301,1.367-2.702,1.367
		s-2.124-0.758-2.703-1.366c-0.499-0.523-0.858-0.901-1.617-0.901s-1.118,0.378-1.616,0.901c-0.58,0.608-1.301,1.366-2.702,1.366
		c-1.401,0-2.123-0.758-2.703-1.366c-0.498-0.523-0.858-0.901-1.616-0.901s-1.118,0.378-1.616,0.901
		c-0.58,0.608-1.301,1.366-2.702,1.366c-1.402,0-2.124-0.758-2.703-1.367c-0.498-0.522-0.858-0.9-1.616-0.9
		s-1.118,0.378-1.616,0.901c-0.579,0.608-1.301,1.366-2.701,1.366c-1.401,0-2.123-0.758-2.703-1.366
		c-0.498-0.523-0.858-0.901-1.616-0.901c-0.757,0-1.117,0.378-1.615,0.9c-0.58,0.609-1.301,1.367-2.702,1.367
		s-2.122-0.758-2.702-1.367c-0.498-0.522-0.857-0.9-1.614-0.9c-0.758,0-1.118,0.378-1.616,0.901
		c-0.58,0.608-1.301,1.366-2.702,1.366s-2.123-0.758-2.702-1.367c-0.498-0.522-0.857-0.9-1.615-0.9c-0.756,0-1.116,0.378-1.613,0.9
		C7.24,3.526,6.519,4.284,5.118,4.284S2.996,3.526,2.416,2.917c-0.498-0.522-0.857-0.9-1.614-0.9v-1.5
		c1.4,0,2.122,0.758,2.701,1.367c0.498,0.523,0.857,0.901,1.615,0.901c0.758,0,1.117-0.378,1.615-0.901
		c0.58-0.609,1.3-1.367,2.7-1.367c1.4,0,2.122,0.758,2.702,1.367c0.498,0.523,0.857,0.901,1.615,0.901
		c0.758,0,1.118-0.378,1.616-0.901c0.58-0.609,1.301-1.367,2.702-1.367c1.4,0,2.122,0.758,2.701,1.367
		c0.498,0.523,0.857,0.901,1.615,0.901S23.502,2.406,24,1.883c0.579-0.609,1.301-1.367,2.701-1.367c1.401,0,2.123,0.758,2.702,1.367
		c0.499,0.523,0.858,0.901,1.617,0.901c0.757,0,1.117-0.378,1.615-0.901c0.58-0.609,1.301-1.367,2.702-1.367
		s2.123,0.758,2.702,1.366c0.499,0.523,0.858,0.901,1.617,0.901c0.758,0,1.118-0.378,1.615-0.901
		c0.58-0.609,1.301-1.367,2.703-1.367c1.401,0,2.123,0.758,2.702,1.367c0.499,0.523,0.858,0.901,1.617,0.901
		s1.118-0.378,1.616-0.901c0.58-0.609,1.301-1.367,2.702-1.367c1.401,0,2.123,0.758,2.703,1.366
		c0.499,0.523,0.858,0.901,1.617,0.901c0.758,0,1.118-0.378,1.616-0.901c0.58-0.609,1.301-1.367,2.702-1.367
		c1.401,0,2.123,0.758,2.703,1.367c0.498,0.523,0.858,0.901,1.617,0.901c0.757,0,1.116-0.378,1.614-0.901
		c0.578-0.609,1.299-1.367,2.698-1.367c1.401,0,2.122,0.758,2.702,1.366c0.498,0.523,0.858,0.901,1.617,0.901
		c0.758,0,1.117-0.378,1.615-0.901c0.579-0.609,1.301-1.367,2.701-1.367c1.401,0,2.122,0.758,2.702,1.366
		c0.498,0.523,0.858,0.901,1.617,0.901c0.758,0,1.118-0.378,1.616-0.901c0.579-0.609,1.301-1.367,2.702-1.367
		s2.123,0.758,2.703,1.367c0.498,0.523,0.858,0.901,1.617,0.901s1.119-0.378,1.617-0.901c0.58-0.609,1.302-1.367,2.704-1.367
		c1.401,0,2.124,0.758,2.704,1.366c0.499,0.523,0.858,0.901,1.618,0.901s1.119-0.378,1.618-0.901
		c0.58-0.608,1.303-1.366,2.704-1.366s2.123,0.758,2.703,1.367c0.498,0.523,0.858,0.901,1.616,0.901c0.76,0,1.119-0.378,1.618-0.901
		c0.58-0.609,1.302-1.366,2.703-1.366c1.402,0,2.124,0.757,2.705,1.366c0.499,0.523,0.859,0.901,1.62,0.901s1.122-0.378,1.621-0.901
		c0.581-0.609,1.304-1.366,2.707-1.366s2.126,0.757,2.707,1.366c0.499,0.523,0.86,0.901,1.621,0.901V4.284z"/>
</g>
</svg>
