<?xml version="1.0" encoding="utf-8"?>
<!-- Generator: Adobe Illustrator 17.0.0, SVG Export Plug-In . SVG Version: 6.00 Build 0)  -->
<!DOCTYPE svg PUBLIC "-//W3C//DTD SVG 1.1//EN" "http://www.w3.org/Graphics/SVG/1.1/DTD/svg11.dtd">
<svg version="1.1" id="line3" xmlns="http://www.w3.org/2000/svg" xmlns:xlink="http://www.w3.org/1999/xlink" x="0px" y="0px"
	 width="129.673px" height="7.123px" viewBox="0 0 129.673 7.123" enable-background="new 0 0 129.673 7.123" xml:space="preserve">
<polygon points="42.364,6.494 38.619,2.749 34.873,6.494 31.128,2.749 27.382,6.494 23.637,2.749 19.892,6.494 16.146,2.749 
	12.401,6.494 8.655,2.749 4.91,6.494 0.635,2.219 1.695,1.159 4.91,4.373 8.655,0.628 12.401,4.373 16.146,0.628 19.892,4.373 
	23.637,0.628 27.382,4.373 31.128,0.628 34.873,4.373 38.619,0.628 42.364,4.373 46.109,0.628 49.855,4.373 53.6,0.628 
	57.346,4.373 61.091,0.628 64.837,4.373 68.582,0.628 72.327,4.373 76.073,0.628 79.818,4.373 83.564,0.628 87.309,4.373 
	91.054,0.628 94.8,4.373 98.545,0.628 102.291,4.373 106.036,0.628 109.781,4.373 113.527,0.628 117.272,4.373 121.018,0.628 
	124.763,4.373 127.978,1.159 129.039,2.219 124.763,6.494 121.018,2.749 117.272,6.494 113.527,2.749 109.781,6.494 106.036,2.749 
	102.291,6.494 98.545,2.749 94.8,6.494 91.054,2.749 87.309,6.494 83.564,2.749 79.818,6.494 76.073,2.749 72.327,6.494 
	68.582,2.749 64.837,6.494 61.091,2.749 57.346,6.494 53.6,2.749 49.855,6.494 46.109,2.749 "/>
</svg>
