<?xml version="1.0" encoding="utf-8"?>
<!-- Generator: Adobe Illustrator 17.0.0, SVG Export Plug-In . SVG Version: 6.00 Build 0)  -->
<!DOCTYPE svg PUBLIC "-//W3C//DTD SVG 1.1//EN" "http://www.w3.org/Graphics/SVG/1.1/DTD/svg11.dtd">
<svg version="1.1" id="shape11" xmlns="http://www.w3.org/2000/svg" xmlns:xlink="http://www.w3.org/1999/xlink" x="0px" y="0px"
	 width="166.121px" height="48.782px" viewBox="0 0 166.121 48.782" enable-background="new 0 0 166.121 48.782"
	 xml:space="preserve">
<polygon points="5.33,48.752 0.116,43.539 0.116,5.189 5.275,0.03 7.396,2.151 3.116,6.431 3.116,42.297 7.451,46.631 "/>
<polygon points="160.597,48.752 158.476,46.631 162.811,42.297 162.811,6.432 158.529,2.151 160.65,0.029 165.811,5.188 
	165.811,43.539 "/>
<polygon points="9.037,45.045 5.116,41.125 5.116,7.376 8.994,3.497 9.701,4.204 6.116,7.79 6.116,40.711 9.744,44.338 "/>
<polygon points="156.97,45.045 156.263,44.338 159.89,40.711 159.89,7.79 156.306,4.204 157.013,3.497 160.89,7.376 160.89,41.125 
	"/>
</svg>
