<?xml version="1.0" encoding="utf-8"?>
<!-- Generator: Adobe Illustrator 17.0.0, SVG Export Plug-In . SVG Version: 6.00 Build 0)  -->
<!DOCTYPE svg PUBLIC "-//W3C//DTD SVG 1.1//EN" "http://www.w3.org/Graphics/SVG/1.1/DTD/svg11.dtd">
<svg version="1.1" id="shape9" xmlns="http://www.w3.org/2000/svg" xmlns:xlink="http://www.w3.org/1999/xlink" x="0px" y="0px"
	 width="32px" height="108.5px" viewBox="0 0 32 108.5" enable-background="new 0 0 32 108.5" xml:space="preserve">
<path d="M32,104.969c-1.95,0-3.531,1.581-3.531,3.531H4.031c0-1.95-1.581-3.531-3.531-3.531c-0.17,0-0.336,0.016-0.5,0.039V4.012
	c0.164,0.023,0.33,0,0.5,0c1.95,0,3.531-1.562,3.531-3.512c0-0.17-0.016-0.336-0.039-0.5h24.516c-0.023,0.164-0.039,0.33-0.039,0.5
	c0,1.95,1.581,3.531,3.531,3.531V104.969z M30.5,5.121c-1.64-0.532-2.897-1.91-3.255-3.621H5.255C4.862,3.381,3.381,4.862,1.5,5.255
	v98.489c1.711,0.358,3.089,1.616,3.621,3.255h22.258c0.479-1.476,1.644-2.642,3.121-3.121V5.121z"/>
</svg>
