<?xml version="1.0" encoding="utf-8"?>
<!-- Generator: Adobe Illustrator 17.0.0, SVG Export Plug-In . SVG Version: 6.00 Build 0)  -->
<!DOCTYPE svg PUBLIC "-//W3C//DTD SVG 1.1//EN" "http://www.w3.org/Graphics/SVG/1.1/DTD/svg11.dtd">
<svg version="1.1" id="svg" xmlns="http://www.w3.org/2000/svg" xmlns:xlink="http://www.w3.org/1999/xlink" x="0px" y="0px"
	 width="494px" height="304px" viewBox="0 0 494 304" enable-background="new 0 0 494 304" xml:space="preserve">
<path d="M454,2c20.953,0,38,17.047,38,38v224c0,20.953-17.047,38-38,38H40c-20.953,0-38-17.047-38-38V40C2,19.047,19.047,2,40,2H454
	 M454,0H40C17.909,0,0,17.909,0,40v224c0,22.091,17.909,40,40,40h414c22.091,0,40-17.909,40-40V40C494,17.909,476.091,0,454,0L454,0
	z"/>
</svg>
