<?xml version="1.0" encoding="utf-8"?>
<!-- Generator: Adobe Illustrator 17.0.0, SVG Export Plug-In . SVG Version: 6.00 Build 0)  -->
<!DOCTYPE svg PUBLIC "-//W3C//DTD SVG 1.1//EN" "http://www.w3.org/Graphics/SVG/1.1/DTD/svg11.dtd">
<svg version="1.1" id="shape12" xmlns="http://www.w3.org/2000/svg" xmlns:xlink="http://www.w3.org/1999/xlink" x="0px" y="0px"
	 width="80.5px" height="12.944px" viewBox="0 0 80.5 12.944" enable-background="new 0 0 80.5 12.944" xml:space="preserve">
<g id="_x32_">
	<path d="M79.417,9.285H5.073c-2.55,0-4.625-2.074-4.625-4.625s2.075-4.625,4.625-4.625c2.132,0,3.979,1.444,4.49,3.511
		c0.1,0.402-0.146,0.809-0.548,0.908C8.613,4.555,8.207,4.308,8.107,3.906C7.761,2.51,6.514,1.535,5.073,1.535
		c-1.723,0-3.125,1.402-3.125,3.125c0,1.723,1.402,3.125,3.125,3.125h74.344c0.414,0,0.75,0.336,0.75,0.75
		S79.831,9.285,79.417,9.285z"/>
</g>
<g id="_x33_">
	<path d="M79.417,12.722H19.812c-0.414,0-0.75-0.336-0.75-0.75s0.336-0.75,0.75-0.75h59.605c0.414,0,0.75,0.336,0.75,0.75
		S79.831,12.722,79.417,12.722z"/>
</g>
</svg>
