<?xml version="1.0" encoding="utf-8"?>
<!-- Generator: Adobe Illustrator 17.0.0, SVG Export Plug-In . SVG Version: 6.00 Build 0)  -->
<!DOCTYPE svg PUBLIC "-//W3C//DTD SVG 1.1//EN" "http://www.w3.org/Graphics/SVG/1.1/DTD/svg11.dtd">
<svg version="1.1" id="shape13" xmlns="http://www.w3.org/2000/svg" xmlns:xlink="http://www.w3.org/1999/xlink" x="0px" y="0px"
	 width="50.935px" height="57.006px" viewBox="0 0 50.935 57.006" enable-background="new 0 0 50.935 57.006" xml:space="preserve">
<path d="M43.415,1.553L49.211,0l1.553,5.796l-5.796,1.553L43.415,1.553z M46.029,5.511l2.898-0.776L48.15,1.837l-2.898,0.777
	L46.029,5.511z M43.61,11.61l-22.5,38.971c-0.207,0.359-0.666,0.482-1.024,0.275s-0.482-0.666-0.274-1.025l22.5-38.971
	c0.207-0.359,0.666-0.482,1.024-0.274S43.817,11.252,43.61,11.61z M24.816,25.948c-0.293,0.293-0.768,0.293-1.061,0
	c-0.293-0.293-0.293-0.768,0-1.061l15.91-15.91c0.293-0.293,0.768-0.293,1.061,0s0.293,0.768,0,1.061L24.816,25.948z M39.129,7.612
	L6.653,26.362c-0.359,0.207-0.817,0.084-1.024-0.275c-0.207-0.359-0.084-0.817,0.274-1.024l32.476-18.75
	c0.359-0.207,0.817-0.084,1.024,0.275C39.611,6.946,39.488,7.405,39.129,7.612z M1.712,30.467c-0.725,0.194-1.47-0.236-1.665-0.961
	c-0.194-0.725,0.236-1.471,0.961-1.665c0.725-0.194,1.471,0.236,1.665,0.961S2.437,30.273,1.712,30.467z M18.883,54.685
	c0.531,0.531,0.531,1.392,0,1.923c-0.531,0.531-1.391,0.531-1.922,0s-0.531-1.392,0-1.923
	C17.491,54.154,18.352,54.154,18.883,54.685z M45.475,11.795c0.107-0.4,0.518-0.637,0.919-0.53c0.4,0.107,0.637,0.519,0.53,0.919
	l-7.765,28.978c-0.107,0.4-0.518,0.638-0.918,0.53s-0.638-0.519-0.53-0.919L45.475,11.795z M49.054,35.503
	c-0.414,0-0.75-0.336-0.75-0.75v-22.5c0-0.414,0.336-0.75,0.75-0.75s0.75,0.336,0.75,0.75v22.5
	C49.804,35.167,49.468,35.503,49.054,35.503z M49.927,39.42c0.725,0.194,1.156,0.94,0.961,1.665
	c-0.194,0.725-0.94,1.155-1.665,0.961c-0.725-0.194-1.156-0.94-0.961-1.665C48.456,39.656,49.202,39.226,49.927,39.42z"/>
</svg>
