<?xml version="1.0" encoding="utf-8"?>
<!-- Generator: Adobe Illustrator 17.0.0, SVG Export Plug-In . SVG Version: 6.00 Build 0)  -->
<!DOCTYPE svg PUBLIC "-//W3C//DTD SVG 1.1//EN" "http://www.w3.org/Graphics/SVG/1.1/DTD/svg11.dtd">
<svg version="1.1" id="shape10" xmlns="http://www.w3.org/2000/svg" xmlns:xlink="http://www.w3.org/1999/xlink" x="0px" y="0px"
	 width="38.79px" height="108.501px" viewBox="0 0 38.79 108.501" enable-background="new 0 0 38.79 108.501" xml:space="preserve">
<path d="M38.582,93.426c-2.586-12.931-2.669-65.801-0.082-78.731c0.049-0.01,0.097-0.019,0,0C31.594,10.258,25.013,5.399,19.344,0
	C13.681,5.393,7.147,10.255,0.251,14.686c-0.084-0.016-0.042-0.008,0,0c2.586,12.931,2.46,65.818-0.126,78.749
	c0.016-0.01,0.032-0.02,0,0c7.059,4.501,13.443,9.567,19.218,15.067C25.119,103.001,31.523,97.926,38.582,93.426
	C38.654,93.44,38.618,93.433,38.582,93.426z M36.662,92.508c-6.353,4.05-12.117,8.617-17.315,13.567
	c-5.198-4.95-10.943-9.509-17.296-13.559c2.327-11.637,2.44-65.236,0.113-76.874c-0.037-0.007-0.075-0.015,0,0
	c6.207-3.988,12.088-8.364,17.184-13.217c5.102,4.859,11.025,9.233,17.24,13.224c0.087-0.017,0.043-0.008,0,0
	C34.261,27.287,34.336,80.872,36.662,92.508C36.697,92.531,36.679,92.52,36.662,92.508z"/>
</svg>
