<?xml version="1.0" encoding="utf-8"?>
<!-- Generator: Adobe Illustrator 17.0.0, SVG Export Plug-In . SVG Version: 6.00 Build 0)  -->
<!DOCTYPE svg PUBLIC "-//W3C//DTD SVG 1.1//EN" "http://www.w3.org/Graphics/SVG/1.1/DTD/svg11.dtd">
<svg version="1.1" id="svg" xmlns="http://www.w3.org/2000/svg" xmlns:xlink="http://www.w3.org/1999/xlink" x="0px" y="0px"
	 width="304px" height="304px" viewBox="0 0 304 304" enable-background="new 0 0 304 304" xml:space="preserve">
<path d="M264,0H40C17.909,0,0,17.909,0,40v224c0,22.091,17.909,40,40,40h224c22.091,0,40-17.909,40-40V40
	C304,17.909,286.091,0,264,0z M301,264c0,20.402-16.598,37-37,37H40c-20.402,0-37-16.598-37-37V40C3,19.598,19.598,3,40,3h224
	c20.402,0,37,16.598,37,37V264z"/>
</svg>
