<?xml version="1.0" encoding="utf-8"?>
<!-- Generator: Adobe Illustrator 17.0.0, SVG Export Plug-In . SVG Version: 6.00 Build 0)  -->
<!DOCTYPE svg PUBLIC "-//W3C//DTD SVG 1.1//EN" "http://www.w3.org/Graphics/SVG/1.1/DTD/svg11.dtd">
<svg version="1.1" id="shape6" xmlns="http://www.w3.org/2000/svg" xmlns:xlink="http://www.w3.org/1999/xlink" x="0px" y="0px"
	 width="156.5px" height="156.5px" viewBox="0 0 156.5 156.5" enable-background="new 0 0 156.5 156.5" xml:space="preserve">
<path d="M0.75,0C1.164,0,1.5,0.336,1.5,0.75S1.164,1.5,0.75,1.5S0,1.164,0,0.75S0.336,0,0.75,0z"/>
<path d="M0.75,9C1.164,9,1.5,9.336,1.5,9.75S1.164,10.5,0.75,10.5S0,10.164,0,9.75S0.336,9,0.75,9z"/>
<path d="M0.75,18c0.414,0,0.75,0.336,0.75,0.75S1.164,19.5,0.75,19.5S0,19.164,0,18.75S0.336,18,0.75,18z"/>
<path d="M0.75,27c0.414,0,0.75,0.336,0.75,0.75S1.164,28.5,0.75,28.5S0,28.164,0,27.75S0.336,27,0.75,27z"/>
<path d="M9.75,0c0.414,0,0.75,0.336,0.75,0.75S10.164,1.5,9.75,1.5C9.336,1.5,9,1.164,9,0.75S9.336,0,9.75,0z"/>
<path d="M9.75,9c0.414,0,0.75,0.336,0.75,0.75s-0.336,0.75-0.75,0.75C9.336,10.5,9,10.164,9,9.75S9.336,9,9.75,9z"/>
<path d="M9.75,18c0.414,0,0.75,0.336,0.75,0.75s-0.336,0.75-0.75,0.75C9.336,19.5,9,19.164,9,18.75S9.336,18,9.75,18z"/>
<path d="M9.75,27c0.414,0,0.75,0.336,0.75,0.75s-0.336,0.75-0.75,0.75C9.336,28.5,9,28.164,9,27.75S9.336,27,9.75,27z"/>
<path d="M18.75,0c0.414,0,0.75,0.336,0.75,0.75S19.164,1.5,18.75,1.5S18,1.164,18,0.75S18.336,0,18.75,0z"/>
<path d="M18.75,9c0.414,0,0.75,0.336,0.75,0.75s-0.336,0.75-0.75,0.75S18,10.164,18,9.75S18.336,9,18.75,9z"/>
<path d="M18.75,18c0.414,0,0.75,0.336,0.75,0.75s-0.336,0.75-0.75,0.75S18,19.164,18,18.75S18.336,18,18.75,18z"/>
<path d="M18.75,27c0.414,0,0.75,0.336,0.75,0.75s-0.336,0.75-0.75,0.75S18,28.164,18,27.75S18.336,27,18.75,27z"/>
<path d="M27.75,0c0.414,0,0.75,0.336,0.75,0.75S28.164,1.5,27.75,1.5S27,1.164,27,0.75S27.336,0,27.75,0z"/>
<path d="M27.75,9c0.414,0,0.75,0.336,0.75,0.75s-0.336,0.75-0.75,0.75S27,10.164,27,9.75S27.336,9,27.75,9z"/>
<path d="M27.75,18c0.414,0,0.75,0.336,0.75,0.75s-0.336,0.75-0.75,0.75S27,19.164,27,18.75S27.336,18,27.75,18z"/>
<path d="M27.75,27c0.414,0,0.75,0.336,0.75,0.75s-0.336,0.75-0.75,0.75S27,28.164,27,27.75S27.336,27,27.75,27z"/>
<path d="M36.75,0c0.414,0,0.75,0.336,0.75,0.75S37.164,1.5,36.75,1.5C36.336,1.5,36,1.164,36,0.75S36.336,0,36.75,0z"/>
<path d="M36.75,9c0.414,0,0.75,0.336,0.75,0.75s-0.336,0.75-0.75,0.75c-0.414,0-0.75-0.336-0.75-0.75S36.336,9,36.75,9z"/>
<path d="M36.75,18c0.414,0,0.75,0.336,0.75,0.75s-0.336,0.75-0.75,0.75c-0.414,0-0.75-0.336-0.75-0.75S36.336,18,36.75,18z"/>
<path d="M36.75,27c0.414,0,0.75,0.336,0.75,0.75s-0.336,0.75-0.75,0.75c-0.414,0-0.75-0.336-0.75-0.75S36.336,27,36.75,27z"/>
<path d="M45.75,0c0.414,0,0.75,0.336,0.75,0.75S46.164,1.5,45.75,1.5C45.336,1.5,45,1.164,45,0.75S45.336,0,45.75,0z"/>
<path d="M45.75,9c0.414,0,0.75,0.336,0.75,0.75s-0.336,0.75-0.75,0.75c-0.414,0-0.75-0.336-0.75-0.75S45.336,9,45.75,9z"/>
<path d="M45.75,18c0.414,0,0.75,0.336,0.75,0.75s-0.336,0.75-0.75,0.75c-0.414,0-0.75-0.336-0.75-0.75S45.336,18,45.75,18z"/>
<path d="M45.75,27c0.414,0,0.75,0.336,0.75,0.75s-0.336,0.75-0.75,0.75c-0.414,0-0.75-0.336-0.75-0.75S45.336,27,45.75,27z"/>
<path d="M54.75,0c0.414,0,0.75,0.336,0.75,0.75S55.164,1.5,54.75,1.5C54.336,1.5,54,1.164,54,0.75S54.336,0,54.75,0z"/>
<path d="M54.75,9c0.414,0,0.75,0.336,0.75,0.75s-0.336,0.75-0.75,0.75c-0.414,0-0.75-0.336-0.75-0.75S54.336,9,54.75,9z"/>
<path d="M54.75,18c0.414,0,0.75,0.336,0.75,0.75s-0.336,0.75-0.75,0.75c-0.414,0-0.75-0.336-0.75-0.75S54.336,18,54.75,18z"/>
<path d="M54.75,27c0.414,0,0.75,0.336,0.75,0.75s-0.336,0.75-0.75,0.75c-0.414,0-0.75-0.336-0.75-0.75S54.336,27,54.75,27z"/>
<path d="M63.75,0c0.414,0,0.75,0.336,0.75,0.75S64.164,1.5,63.75,1.5S63,1.164,63,0.75S63.336,0,63.75,0z"/>
<path d="M63.75,9c0.414,0,0.75,0.336,0.75,0.75s-0.336,0.75-0.75,0.75S63,10.164,63,9.75S63.336,9,63.75,9z"/>
<path d="M63.75,18c0.414,0,0.75,0.336,0.75,0.75s-0.336,0.75-0.75,0.75S63,19.164,63,18.75S63.336,18,63.75,18z"/>
<path d="M63.75,27c0.414,0,0.75,0.336,0.75,0.75s-0.336,0.75-0.75,0.75S63,28.164,63,27.75S63.336,27,63.75,27z"/>
<path d="M0.75,36c0.414,0,0.75,0.336,0.75,0.75S1.164,37.5,0.75,37.5S0,37.164,0,36.75S0.336,36,0.75,36z"/>
<path d="M0.75,45c0.414,0,0.75,0.336,0.75,0.75S1.164,46.5,0.75,46.5S0,46.164,0,45.75S0.336,45,0.75,45z"/>
<path d="M0.75,54c0.414,0,0.75,0.336,0.75,0.75S1.164,55.5,0.75,55.5S0,55.164,0,54.75S0.336,54,0.75,54z"/>
<path d="M0.75,63c0.414,0,0.75,0.336,0.75,0.75S1.164,64.5,0.75,64.5S0,64.164,0,63.75S0.336,63,0.75,63z"/>
<path d="M9.75,36c0.414,0,0.75,0.336,0.75,0.75s-0.336,0.75-0.75,0.75C9.336,37.5,9,37.164,9,36.75S9.336,36,9.75,36z"/>
<path d="M9.75,45c0.414,0,0.75,0.336,0.75,0.75s-0.336,0.75-0.75,0.75C9.336,46.5,9,46.164,9,45.75S9.336,45,9.75,45z"/>
<path d="M9.75,54c0.414,0,0.75,0.336,0.75,0.75s-0.336,0.75-0.75,0.75C9.336,55.5,9,55.164,9,54.75S9.336,54,9.75,54z"/>
<path d="M9.75,63c0.414,0,0.75,0.336,0.75,0.75s-0.336,0.75-0.75,0.75C9.336,64.5,9,64.164,9,63.75S9.336,63,9.75,63z"/>
<path d="M18.75,36c0.414,0,0.75,0.336,0.75,0.75s-0.336,0.75-0.75,0.75S18,37.164,18,36.75S18.336,36,18.75,36z"/>
<path d="M18.75,45c0.414,0,0.75,0.336,0.75,0.75s-0.336,0.75-0.75,0.75S18,46.164,18,45.75S18.336,45,18.75,45z"/>
<path d="M18.75,54c0.414,0,0.75,0.336,0.75,0.75s-0.336,0.75-0.75,0.75S18,55.164,18,54.75S18.336,54,18.75,54z"/>
<path d="M18.75,63c0.414,0,0.75,0.336,0.75,0.75s-0.336,0.75-0.75,0.75S18,64.164,18,63.75S18.336,63,18.75,63z"/>
<path d="M27.75,36c0.414,0,0.75,0.336,0.75,0.75s-0.336,0.75-0.75,0.75S27,37.164,27,36.75S27.336,36,27.75,36z"/>
<path d="M27.75,45c0.414,0,0.75,0.336,0.75,0.75s-0.336,0.75-0.75,0.75S27,46.164,27,45.75S27.336,45,27.75,45z"/>
<path d="M27.75,54c0.414,0,0.75,0.336,0.75,0.75s-0.336,0.75-0.75,0.75S27,55.164,27,54.75S27.336,54,27.75,54z"/>
<path d="M27.75,63c0.414,0,0.75,0.336,0.75,0.75s-0.336,0.75-0.75,0.75S27,64.164,27,63.75S27.336,63,27.75,63z"/>
<path d="M36.75,36c0.414,0,0.75,0.336,0.75,0.75s-0.336,0.75-0.75,0.75c-0.414,0-0.75-0.336-0.75-0.75S36.336,36,36.75,36z"/>
<path d="M36.75,45c0.414,0,0.75,0.336,0.75,0.75s-0.336,0.75-0.75,0.75c-0.414,0-0.75-0.336-0.75-0.75S36.336,45,36.75,45z"/>
<path d="M36.75,54c0.414,0,0.75,0.336,0.75,0.75s-0.336,0.75-0.75,0.75c-0.414,0-0.75-0.336-0.75-0.75S36.336,54,36.75,54z"/>
<path d="M36.75,63c0.414,0,0.75,0.336,0.75,0.75s-0.336,0.75-0.75,0.75c-0.414,0-0.75-0.336-0.75-0.75S36.336,63,36.75,63z"/>
<path d="M45.75,36c0.414,0,0.75,0.336,0.75,0.75s-0.336,0.75-0.75,0.75c-0.414,0-0.75-0.336-0.75-0.75S45.336,36,45.75,36z"/>
<path d="M45.75,45c0.414,0,0.75,0.336,0.75,0.75s-0.336,0.75-0.75,0.75c-0.414,0-0.75-0.336-0.75-0.75S45.336,45,45.75,45z"/>
<path d="M45.75,54c0.414,0,0.75,0.336,0.75,0.75s-0.336,0.75-0.75,0.75c-0.414,0-0.75-0.336-0.75-0.75S45.336,54,45.75,54z"/>
<path d="M45.75,63c0.414,0,0.75,0.336,0.75,0.75s-0.336,0.75-0.75,0.75c-0.414,0-0.75-0.336-0.75-0.75S45.336,63,45.75,63z"/>
<path d="M54.75,36c0.414,0,0.75,0.336,0.75,0.75s-0.336,0.75-0.75,0.75c-0.414,0-0.75-0.336-0.75-0.75S54.336,36,54.75,36z"/>
<path d="M54.75,45c0.414,0,0.75,0.336,0.75,0.75s-0.336,0.75-0.75,0.75c-0.414,0-0.75-0.336-0.75-0.75S54.336,45,54.75,45z"/>
<path d="M54.75,54c0.414,0,0.75,0.336,0.75,0.75s-0.336,0.75-0.75,0.75c-0.414,0-0.75-0.336-0.75-0.75S54.336,54,54.75,54z"/>
<path d="M54.75,63c0.414,0,0.75,0.336,0.75,0.75s-0.336,0.75-0.75,0.75c-0.414,0-0.75-0.336-0.75-0.75S54.336,63,54.75,63z"/>
<path d="M63.75,36c0.414,0,0.75,0.336,0.75,0.75s-0.336,0.75-0.75,0.75S63,37.164,63,36.75S63.336,36,63.75,36z"/>
<path d="M63.75,45c0.414,0,0.75,0.336,0.75,0.75s-0.336,0.75-0.75,0.75S63,46.164,63,45.75S63.336,45,63.75,45z"/>
<path d="M63.75,54c0.414,0,0.75,0.336,0.75,0.75s-0.336,0.75-0.75,0.75S63,55.164,63,54.75S63.336,54,63.75,54z"/>
<path d="M63.75,63c0.414,0,0.75,0.336,0.75,0.75s-0.336,0.75-0.75,0.75S63,64.164,63,63.75S63.336,63,63.75,63z"/>
<path d="M0.75,72c0.414,0,0.75,0.336,0.75,0.75S1.164,73.5,0.75,73.5S0,73.164,0,72.75S0.336,72,0.75,72z"/>
<path d="M0.75,81c0.414,0,0.75,0.336,0.75,0.75S1.164,82.5,0.75,82.5S0,82.164,0,81.75S0.336,81,0.75,81z"/>
<path d="M0.75,90c0.414,0,0.75,0.336,0.75,0.75S1.164,91.5,0.75,91.5S0,91.164,0,90.75S0.336,90,0.75,90z"/>
<path d="M0.75,99c0.414,0,0.75,0.336,0.75,0.75s-0.336,0.75-0.75,0.75S0,100.164,0,99.75S0.336,99,0.75,99z"/>
<path d="M9.75,72c0.414,0,0.75,0.336,0.75,0.75s-0.336,0.75-0.75,0.75C9.336,73.5,9,73.164,9,72.75S9.336,72,9.75,72z"/>
<path d="M9.75,81c0.414,0,0.75,0.336,0.75,0.75s-0.336,0.75-0.75,0.75C9.336,82.5,9,82.164,9,81.75S9.336,81,9.75,81z"/>
<path d="M9.75,90c0.414,0,0.75,0.336,0.75,0.75s-0.336,0.75-0.75,0.75C9.336,91.5,9,91.164,9,90.75S9.336,90,9.75,90z"/>
<path d="M9.75,99c0.414,0,0.75,0.336,0.75,0.75s-0.336,0.75-0.75,0.75c-0.414,0-0.75-0.336-0.75-0.75S9.336,99,9.75,99z"/>
<path d="M18.75,72c0.414,0,0.75,0.336,0.75,0.75s-0.336,0.75-0.75,0.75S18,73.164,18,72.75S18.336,72,18.75,72z"/>
<path d="M18.75,81c0.414,0,0.75,0.336,0.75,0.75s-0.336,0.75-0.75,0.75S18,82.164,18,81.75S18.336,81,18.75,81z"/>
<path d="M18.75,90c0.414,0,0.75,0.336,0.75,0.75s-0.336,0.75-0.75,0.75S18,91.164,18,90.75S18.336,90,18.75,90z"/>
<path d="M18.75,99c0.414,0,0.75,0.336,0.75,0.75s-0.336,0.75-0.75,0.75S18,100.164,18,99.75S18.336,99,18.75,99z"/>
<path d="M27.75,72c0.414,0,0.75,0.336,0.75,0.75s-0.336,0.75-0.75,0.75S27,73.164,27,72.75S27.336,72,27.75,72z"/>
<path d="M27.75,81c0.414,0,0.75,0.336,0.75,0.75s-0.336,0.75-0.75,0.75S27,82.164,27,81.75S27.336,81,27.75,81z"/>
<path d="M27.75,90c0.414,0,0.75,0.336,0.75,0.75s-0.336,0.75-0.75,0.75S27,91.164,27,90.75S27.336,90,27.75,90z"/>
<path d="M27.75,99c0.414,0,0.75,0.336,0.75,0.75s-0.336,0.75-0.75,0.75S27,100.164,27,99.75S27.336,99,27.75,99z"/>
<path d="M36.75,72c0.414,0,0.75,0.336,0.75,0.75s-0.336,0.75-0.75,0.75c-0.414,0-0.75-0.336-0.75-0.75S36.336,72,36.75,72z"/>
<path d="M36.75,81c0.414,0,0.75,0.336,0.75,0.75s-0.336,0.75-0.75,0.75c-0.414,0-0.75-0.336-0.75-0.75S36.336,81,36.75,81z"/>
<path d="M36.75,90c0.414,0,0.75,0.336,0.75,0.75s-0.336,0.75-0.75,0.75c-0.414,0-0.75-0.336-0.75-0.75S36.336,90,36.75,90z"/>
<path d="M36.75,99c0.414,0,0.75,0.336,0.75,0.75s-0.336,0.75-0.75,0.75c-0.414,0-0.75-0.336-0.75-0.75S36.336,99,36.75,99z"/>
<path d="M45.75,72c0.414,0,0.75,0.336,0.75,0.75s-0.336,0.75-0.75,0.75c-0.414,0-0.75-0.336-0.75-0.75S45.336,72,45.75,72z"/>
<path d="M45.75,81c0.414,0,0.75,0.336,0.75,0.75s-0.336,0.75-0.75,0.75c-0.414,0-0.75-0.336-0.75-0.75S45.336,81,45.75,81z"/>
<path d="M45.75,90c0.414,0,0.75,0.336,0.75,0.75s-0.336,0.75-0.75,0.75c-0.414,0-0.75-0.336-0.75-0.75S45.336,90,45.75,90z"/>
<path d="M45.75,99c0.414,0,0.75,0.336,0.75,0.75s-0.336,0.75-0.75,0.75c-0.414,0-0.75-0.336-0.75-0.75S45.336,99,45.75,99z"/>
<path d="M54.75,72c0.414,0,0.75,0.336,0.75,0.75s-0.336,0.75-0.75,0.75c-0.414,0-0.75-0.336-0.75-0.75S54.336,72,54.75,72z"/>
<path d="M54.75,81c0.414,0,0.75,0.336,0.75,0.75s-0.336,0.75-0.75,0.75c-0.414,0-0.75-0.336-0.75-0.75S54.336,81,54.75,81z"/>
<path d="M54.75,90c0.414,0,0.75,0.336,0.75,0.75s-0.336,0.75-0.75,0.75c-0.414,0-0.75-0.336-0.75-0.75S54.336,90,54.75,90z"/>
<path d="M54.75,99c0.414,0,0.75,0.336,0.75,0.75s-0.336,0.75-0.75,0.75c-0.414,0-0.75-0.336-0.75-0.75S54.336,99,54.75,99z"/>
<path d="M63.75,72c0.414,0,0.75,0.336,0.75,0.75s-0.336,0.75-0.75,0.75S63,73.164,63,72.75S63.336,72,63.75,72z"/>
<path d="M63.75,81c0.414,0,0.75,0.336,0.75,0.75s-0.336,0.75-0.75,0.75S63,82.164,63,81.75S63.336,81,63.75,81z"/>
<path d="M63.75,90c0.414,0,0.75,0.336,0.75,0.75s-0.336,0.75-0.75,0.75S63,91.164,63,90.75S63.336,90,63.75,90z"/>
<path d="M63.75,99c0.414,0,0.75,0.336,0.75,0.75s-0.336,0.75-0.75,0.75S63,100.164,63,99.75S63.336,99,63.75,99z"/>
<path d="M0.75,108c0.414,0,0.75,0.336,0.75,0.75s-0.336,0.75-0.75,0.75S0,109.164,0,108.75S0.336,108,0.75,108z"/>
<path d="M0.75,117c0.414,0,0.75,0.336,0.75,0.75s-0.336,0.75-0.75,0.75S0,118.164,0,117.75S0.336,117,0.75,117z"/>
<path d="M0.75,126c0.414,0,0.75,0.336,0.75,0.75s-0.336,0.75-0.75,0.75S0,127.164,0,126.75S0.336,126,0.75,126z"/>
<path d="M0.75,135c0.414,0,0.75,0.336,0.75,0.75s-0.336,0.75-0.75,0.75S0,136.164,0,135.75S0.336,135,0.75,135z"/>
<path d="M9.75,108c0.414,0,0.75,0.336,0.75,0.75s-0.336,0.75-0.75,0.75c-0.414,0-0.75-0.336-0.75-0.75S9.336,108,9.75,108z"/>
<path d="M9.75,117c0.414,0,0.75,0.336,0.75,0.75s-0.336,0.75-0.75,0.75c-0.414,0-0.75-0.336-0.75-0.75S9.336,117,9.75,117z"/>
<path d="M9.75,126c0.414,0,0.75,0.336,0.75,0.75s-0.336,0.75-0.75,0.75c-0.414,0-0.75-0.336-0.75-0.75S9.336,126,9.75,126z"/>
<path d="M9.75,135c0.414,0,0.75,0.336,0.75,0.75s-0.336,0.75-0.75,0.75c-0.414,0-0.75-0.336-0.75-0.75S9.336,135,9.75,135z"/>
<path d="M18.75,108c0.414,0,0.75,0.336,0.75,0.75s-0.336,0.75-0.75,0.75S18,109.164,18,108.75S18.336,108,18.75,108z"/>
<path d="M18.75,117c0.414,0,0.75,0.336,0.75,0.75s-0.336,0.75-0.75,0.75S18,118.164,18,117.75S18.336,117,18.75,117z"/>
<path d="M18.75,126c0.414,0,0.75,0.336,0.75,0.75s-0.336,0.75-0.75,0.75S18,127.164,18,126.75S18.336,126,18.75,126z"/>
<path d="M18.75,135c0.414,0,0.75,0.336,0.75,0.75s-0.336,0.75-0.75,0.75S18,136.164,18,135.75S18.336,135,18.75,135z"/>
<path d="M27.75,108c0.414,0,0.75,0.336,0.75,0.75s-0.336,0.75-0.75,0.75S27,109.164,27,108.75S27.336,108,27.75,108z"/>
<path d="M27.75,117c0.414,0,0.75,0.336,0.75,0.75s-0.336,0.75-0.75,0.75S27,118.164,27,117.75S27.336,117,27.75,117z"/>
<path d="M27.75,126c0.414,0,0.75,0.336,0.75,0.75s-0.336,0.75-0.75,0.75S27,127.164,27,126.75S27.336,126,27.75,126z"/>
<path d="M27.75,135c0.414,0,0.75,0.336,0.75,0.75s-0.336,0.75-0.75,0.75S27,136.164,27,135.75S27.336,135,27.75,135z"/>
<path d="M36.75,108c0.414,0,0.75,0.336,0.75,0.75s-0.336,0.75-0.75,0.75c-0.414,0-0.75-0.336-0.75-0.75S36.336,108,36.75,108z"/>
<path d="M36.75,117c0.414,0,0.75,0.336,0.75,0.75s-0.336,0.75-0.75,0.75c-0.414,0-0.75-0.336-0.75-0.75S36.336,117,36.75,117z"/>
<path d="M36.75,126c0.414,0,0.75,0.336,0.75,0.75s-0.336,0.75-0.75,0.75c-0.414,0-0.75-0.336-0.75-0.75S36.336,126,36.75,126z"/>
<path d="M36.75,135c0.414,0,0.75,0.336,0.75,0.75s-0.336,0.75-0.75,0.75c-0.414,0-0.75-0.336-0.75-0.75S36.336,135,36.75,135z"/>
<path d="M45.75,108c0.414,0,0.75,0.336,0.75,0.75s-0.336,0.75-0.75,0.75c-0.414,0-0.75-0.336-0.75-0.75S45.336,108,45.75,108z"/>
<path d="M45.75,117c0.414,0,0.75,0.336,0.75,0.75s-0.336,0.75-0.75,0.75c-0.414,0-0.75-0.336-0.75-0.75S45.336,117,45.75,117z"/>
<path d="M45.75,126c0.414,0,0.75,0.336,0.75,0.75s-0.336,0.75-0.75,0.75c-0.414,0-0.75-0.336-0.75-0.75S45.336,126,45.75,126z"/>
<path d="M45.75,135c0.414,0,0.75,0.336,0.75,0.75s-0.336,0.75-0.75,0.75c-0.414,0-0.75-0.336-0.75-0.75S45.336,135,45.75,135z"/>
<path d="M54.75,108c0.414,0,0.75,0.336,0.75,0.75s-0.336,0.75-0.75,0.75c-0.414,0-0.75-0.336-0.75-0.75S54.336,108,54.75,108z"/>
<path d="M54.75,117c0.414,0,0.75,0.336,0.75,0.75s-0.336,0.75-0.75,0.75c-0.414,0-0.75-0.336-0.75-0.75S54.336,117,54.75,117z"/>
<path d="M54.75,126c0.414,0,0.75,0.336,0.75,0.75s-0.336,0.75-0.75,0.75c-0.414,0-0.75-0.336-0.75-0.75S54.336,126,54.75,126z"/>
<path d="M54.75,135c0.414,0,0.75,0.336,0.75,0.75s-0.336,0.75-0.75,0.75c-0.414,0-0.75-0.336-0.75-0.75S54.336,135,54.75,135z"/>
<path d="M63.75,108c0.414,0,0.75,0.336,0.75,0.75s-0.336,0.75-0.75,0.75S63,109.164,63,108.75S63.336,108,63.75,108z"/>
<path d="M63.75,117c0.414,0,0.75,0.336,0.75,0.75s-0.336,0.75-0.75,0.75S63,118.164,63,117.75S63.336,117,63.75,117z"/>
<path d="M63.75,126c0.414,0,0.75,0.336,0.75,0.75s-0.336,0.75-0.75,0.75S63,127.164,63,126.75S63.336,126,63.75,126z"/>
<path d="M63.75,135c0.414,0,0.75,0.336,0.75,0.75s-0.336,0.75-0.75,0.75S63,136.164,63,135.75S63.336,135,63.75,135z"/>
<path d="M72.75,0c0.414,0,0.75,0.336,0.75,0.75S73.164,1.5,72.75,1.5S72,1.164,72,0.75S72.336,0,72.75,0z"/>
<path d="M72.75,9c0.414,0,0.75,0.336,0.75,0.75s-0.336,0.75-0.75,0.75S72,10.164,72,9.75S72.336,9,72.75,9z"/>
<path d="M72.75,18c0.414,0,0.75,0.336,0.75,0.75s-0.336,0.75-0.75,0.75S72,19.164,72,18.75S72.336,18,72.75,18z"/>
<path d="M72.75,27c0.414,0,0.75,0.336,0.75,0.75s-0.336,0.75-0.75,0.75S72,28.164,72,27.75S72.336,27,72.75,27z"/>
<path d="M81.75,0c0.414,0,0.75,0.336,0.75,0.75S82.164,1.5,81.75,1.5S81,1.164,81,0.75S81.336,0,81.75,0z"/>
<path d="M81.75,9c0.414,0,0.75,0.336,0.75,0.75s-0.336,0.75-0.75,0.75S81,10.164,81,9.75S81.336,9,81.75,9z"/>
<path d="M81.75,18c0.414,0,0.75,0.336,0.75,0.75s-0.336,0.75-0.75,0.75S81,19.164,81,18.75S81.336,18,81.75,18z"/>
<path d="M81.75,27c0.414,0,0.75,0.336,0.75,0.75s-0.336,0.75-0.75,0.75S81,28.164,81,27.75S81.336,27,81.75,27z"/>
<path d="M90.75,0c0.414,0,0.75,0.336,0.75,0.75S91.164,1.5,90.75,1.5S90,1.164,90,0.75S90.336,0,90.75,0z"/>
<path d="M90.75,9c0.414,0,0.75,0.336,0.75,0.75s-0.336,0.75-0.75,0.75S90,10.164,90,9.75S90.336,9,90.75,9z"/>
<path d="M90.75,18c0.414,0,0.75,0.336,0.75,0.75s-0.336,0.75-0.75,0.75S90,19.164,90,18.75S90.336,18,90.75,18z"/>
<path d="M90.75,27c0.414,0,0.75,0.336,0.75,0.75s-0.336,0.75-0.75,0.75S90,28.164,90,27.75S90.336,27,90.75,27z"/>
<path d="M99.75,0c0.414,0,0.75,0.336,0.75,0.75s-0.336,0.75-0.75,0.75S99,1.164,99,0.75S99.336,0,99.75,0z"/>
<path d="M99.75,9c0.414,0,0.75,0.336,0.75,0.75s-0.336,0.75-0.75,0.75S99,10.164,99,9.75S99.336,9,99.75,9z"/>
<path d="M99.75,18c0.414,0,0.75,0.336,0.75,0.75s-0.336,0.75-0.75,0.75S99,19.164,99,18.75S99.336,18,99.75,18z"/>
<path d="M99.75,27c0.414,0,0.75,0.336,0.75,0.75s-0.336,0.75-0.75,0.75S99,28.164,99,27.75S99.336,27,99.75,27z"/>
<path d="M108.75,0c0.414,0,0.75,0.336,0.75,0.75s-0.336,0.75-0.75,0.75S108,1.164,108,0.75S108.336,0,108.75,0z"/>
<path d="M108.75,9c0.414,0,0.75,0.336,0.75,0.75s-0.336,0.75-0.75,0.75S108,10.164,108,9.75S108.336,9,108.75,9z"/>
<path d="M108.75,18c0.414,0,0.75,0.336,0.75,0.75s-0.336,0.75-0.75,0.75S108,19.164,108,18.75S108.336,18,108.75,18z"/>
<path d="M108.75,27c0.414,0,0.75,0.336,0.75,0.75s-0.336,0.75-0.75,0.75S108,28.164,108,27.75S108.336,27,108.75,27z"/>
<path d="M117.75,0c0.414,0,0.75,0.336,0.75,0.75s-0.336,0.75-0.75,0.75S117,1.164,117,0.75S117.336,0,117.75,0z"/>
<path d="M117.75,9c0.414,0,0.75,0.336,0.75,0.75s-0.336,0.75-0.75,0.75S117,10.164,117,9.75S117.336,9,117.75,9z"/>
<path d="M117.75,18c0.414,0,0.75,0.336,0.75,0.75s-0.336,0.75-0.75,0.75S117,19.164,117,18.75S117.336,18,117.75,18z"/>
<path d="M117.75,27c0.414,0,0.75,0.336,0.75,0.75s-0.336,0.75-0.75,0.75S117,28.164,117,27.75S117.336,27,117.75,27z"/>
<path d="M126.75,0c0.414,0,0.75,0.336,0.75,0.75s-0.336,0.75-0.75,0.75S126,1.164,126,0.75S126.336,0,126.75,0z"/>
<path d="M126.75,9c0.414,0,0.75,0.336,0.75,0.75s-0.336,0.75-0.75,0.75S126,10.164,126,9.75S126.336,9,126.75,9z"/>
<path d="M126.75,18c0.414,0,0.75,0.336,0.75,0.75s-0.336,0.75-0.75,0.75S126,19.164,126,18.75S126.336,18,126.75,18z"/>
<path d="M126.75,27c0.414,0,0.75,0.336,0.75,0.75s-0.336,0.75-0.75,0.75S126,28.164,126,27.75S126.336,27,126.75,27z"/>
<path d="M135.75,0c0.414,0,0.75,0.336,0.75,0.75s-0.336,0.75-0.75,0.75S135,1.164,135,0.75S135.336,0,135.75,0z"/>
<path d="M135.75,9c0.414,0,0.75,0.336,0.75,0.75s-0.336,0.75-0.75,0.75S135,10.164,135,9.75S135.336,9,135.75,9z"/>
<path d="M135.75,18c0.414,0,0.75,0.336,0.75,0.75s-0.336,0.75-0.75,0.75S135,19.164,135,18.75S135.336,18,135.75,18z"/>
<path d="M135.75,27c0.414,0,0.75,0.336,0.75,0.75s-0.336,0.75-0.75,0.75S135,28.164,135,27.75S135.336,27,135.75,27z"/>
<path d="M72.75,36c0.414,0,0.75,0.336,0.75,0.75s-0.336,0.75-0.75,0.75S72,37.164,72,36.75S72.336,36,72.75,36z"/>
<path d="M72.75,45c0.414,0,0.75,0.336,0.75,0.75s-0.336,0.75-0.75,0.75S72,46.164,72,45.75S72.336,45,72.75,45z"/>
<path d="M72.75,54c0.414,0,0.75,0.336,0.75,0.75s-0.336,0.75-0.75,0.75S72,55.164,72,54.75S72.336,54,72.75,54z"/>
<path d="M72.75,63c0.414,0,0.75,0.336,0.75,0.75s-0.336,0.75-0.75,0.75S72,64.164,72,63.75S72.336,63,72.75,63z"/>
<path d="M81.75,36c0.414,0,0.75,0.336,0.75,0.75s-0.336,0.75-0.75,0.75S81,37.164,81,36.75S81.336,36,81.75,36z"/>
<path d="M81.75,45c0.414,0,0.75,0.336,0.75,0.75s-0.336,0.75-0.75,0.75S81,46.164,81,45.75S81.336,45,81.75,45z"/>
<path d="M81.75,54c0.414,0,0.75,0.336,0.75,0.75s-0.336,0.75-0.75,0.75S81,55.164,81,54.75S81.336,54,81.75,54z"/>
<path d="M81.75,63c0.414,0,0.75,0.336,0.75,0.75s-0.336,0.75-0.75,0.75S81,64.164,81,63.75S81.336,63,81.75,63z"/>
<path d="M90.75,36c0.414,0,0.75,0.336,0.75,0.75s-0.336,0.75-0.75,0.75S90,37.164,90,36.75S90.336,36,90.75,36z"/>
<path d="M90.75,45c0.414,0,0.75,0.336,0.75,0.75s-0.336,0.75-0.75,0.75S90,46.164,90,45.75S90.336,45,90.75,45z"/>
<path d="M90.75,54c0.414,0,0.75,0.336,0.75,0.75s-0.336,0.75-0.75,0.75S90,55.164,90,54.75S90.336,54,90.75,54z"/>
<path d="M90.75,63c0.414,0,0.75,0.336,0.75,0.75s-0.336,0.75-0.75,0.75S90,64.164,90,63.75S90.336,63,90.75,63z"/>
<path d="M99.75,36c0.414,0,0.75,0.336,0.75,0.75s-0.336,0.75-0.75,0.75S99,37.164,99,36.75S99.336,36,99.75,36z"/>
<path d="M99.75,45c0.414,0,0.75,0.336,0.75,0.75s-0.336,0.75-0.75,0.75S99,46.164,99,45.75S99.336,45,99.75,45z"/>
<path d="M99.75,54c0.414,0,0.75,0.336,0.75,0.75s-0.336,0.75-0.75,0.75S99,55.164,99,54.75S99.336,54,99.75,54z"/>
<path d="M99.75,63c0.414,0,0.75,0.336,0.75,0.75s-0.336,0.75-0.75,0.75S99,64.164,99,63.75S99.336,63,99.75,63z"/>
<path d="M108.75,36c0.414,0,0.75,0.336,0.75,0.75s-0.336,0.75-0.75,0.75S108,37.164,108,36.75S108.336,36,108.75,36z"/>
<path d="M108.75,45c0.414,0,0.75,0.336,0.75,0.75s-0.336,0.75-0.75,0.75S108,46.164,108,45.75S108.336,45,108.75,45z"/>
<path d="M108.75,54c0.414,0,0.75,0.336,0.75,0.75s-0.336,0.75-0.75,0.75S108,55.164,108,54.75S108.336,54,108.75,54z"/>
<path d="M108.75,63c0.414,0,0.75,0.336,0.75,0.75s-0.336,0.75-0.75,0.75S108,64.164,108,63.75S108.336,63,108.75,63z"/>
<path d="M117.75,36c0.414,0,0.75,0.336,0.75,0.75s-0.336,0.75-0.75,0.75S117,37.164,117,36.75S117.336,36,117.75,36z"/>
<path d="M117.75,45c0.414,0,0.75,0.336,0.75,0.75s-0.336,0.75-0.75,0.75S117,46.164,117,45.75S117.336,45,117.75,45z"/>
<path d="M117.75,54c0.414,0,0.75,0.336,0.75,0.75s-0.336,0.75-0.75,0.75S117,55.164,117,54.75S117.336,54,117.75,54z"/>
<path d="M117.75,63c0.414,0,0.75,0.336,0.75,0.75s-0.336,0.75-0.75,0.75S117,64.164,117,63.75S117.336,63,117.75,63z"/>
<path d="M126.75,36c0.414,0,0.75,0.336,0.75,0.75s-0.336,0.75-0.75,0.75S126,37.164,126,36.75S126.336,36,126.75,36z"/>
<path d="M126.75,45c0.414,0,0.75,0.336,0.75,0.75s-0.336,0.75-0.75,0.75S126,46.164,126,45.75S126.336,45,126.75,45z"/>
<path d="M126.75,54c0.414,0,0.75,0.336,0.75,0.75s-0.336,0.75-0.75,0.75S126,55.164,126,54.75S126.336,54,126.75,54z"/>
<path d="M126.75,63c0.414,0,0.75,0.336,0.75,0.75s-0.336,0.75-0.75,0.75S126,64.164,126,63.75S126.336,63,126.75,63z"/>
<path d="M135.75,36c0.414,0,0.75,0.336,0.75,0.75s-0.336,0.75-0.75,0.75S135,37.164,135,36.75S135.336,36,135.75,36z"/>
<path d="M135.75,45c0.414,0,0.75,0.336,0.75,0.75s-0.336,0.75-0.75,0.75S135,46.164,135,45.75S135.336,45,135.75,45z"/>
<path d="M135.75,54c0.414,0,0.75,0.336,0.75,0.75s-0.336,0.75-0.75,0.75S135,55.164,135,54.75S135.336,54,135.75,54z"/>
<path d="M135.75,63c0.414,0,0.75,0.336,0.75,0.75s-0.336,0.75-0.75,0.75S135,64.164,135,63.75S135.336,63,135.75,63z"/>
<path d="M72.75,72c0.414,0,0.75,0.336,0.75,0.75s-0.336,0.75-0.75,0.75S72,73.164,72,72.75S72.336,72,72.75,72z"/>
<path d="M72.75,81c0.414,0,0.75,0.336,0.75,0.75s-0.336,0.75-0.75,0.75S72,82.164,72,81.75S72.336,81,72.75,81z"/>
<path d="M72.75,90c0.414,0,0.75,0.336,0.75,0.75s-0.336,0.75-0.75,0.75S72,91.164,72,90.75S72.336,90,72.75,90z"/>
<path d="M72.75,99c0.414,0,0.75,0.336,0.75,0.75s-0.336,0.75-0.75,0.75S72,100.164,72,99.75S72.336,99,72.75,99z"/>
<path d="M81.75,72c0.414,0,0.75,0.336,0.75,0.75s-0.336,0.75-0.75,0.75S81,73.164,81,72.75S81.336,72,81.75,72z"/>
<path d="M81.75,81c0.414,0,0.75,0.336,0.75,0.75s-0.336,0.75-0.75,0.75S81,82.164,81,81.75S81.336,81,81.75,81z"/>
<path d="M81.75,90c0.414,0,0.75,0.336,0.75,0.75s-0.336,0.75-0.75,0.75S81,91.164,81,90.75S81.336,90,81.75,90z"/>
<path d="M81.75,99c0.414,0,0.75,0.336,0.75,0.75s-0.336,0.75-0.75,0.75S81,100.164,81,99.75S81.336,99,81.75,99z"/>
<path d="M90.75,72c0.414,0,0.75,0.336,0.75,0.75s-0.336,0.75-0.75,0.75S90,73.164,90,72.75S90.336,72,90.75,72z"/>
<path d="M90.75,81c0.414,0,0.75,0.336,0.75,0.75s-0.336,0.75-0.75,0.75S90,82.164,90,81.75S90.336,81,90.75,81z"/>
<path d="M90.75,90c0.414,0,0.75,0.336,0.75,0.75s-0.336,0.75-0.75,0.75S90,91.164,90,90.75S90.336,90,90.75,90z"/>
<path d="M90.75,99c0.414,0,0.75,0.336,0.75,0.75s-0.336,0.75-0.75,0.75S90,100.164,90,99.75S90.336,99,90.75,99z"/>
<path d="M99.75,72c0.414,0,0.75,0.336,0.75,0.75s-0.336,0.75-0.75,0.75S99,73.164,99,72.75S99.336,72,99.75,72z"/>
<path d="M99.75,81c0.414,0,0.75,0.336,0.75,0.75s-0.336,0.75-0.75,0.75S99,82.164,99,81.75S99.336,81,99.75,81z"/>
<path d="M99.75,90c0.414,0,0.75,0.336,0.75,0.75s-0.336,0.75-0.75,0.75S99,91.164,99,90.75S99.336,90,99.75,90z"/>
<path d="M99.75,99c0.414,0,0.75,0.336,0.75,0.75s-0.336,0.75-0.75,0.75S99,100.164,99,99.75S99.336,99,99.75,99z"/>
<path d="M108.75,72c0.414,0,0.75,0.336,0.75,0.75s-0.336,0.75-0.75,0.75S108,73.164,108,72.75S108.336,72,108.75,72z"/>
<path d="M108.75,81c0.414,0,0.75,0.336,0.75,0.75s-0.336,0.75-0.75,0.75S108,82.164,108,81.75S108.336,81,108.75,81z"/>
<path d="M108.75,90c0.414,0,0.75,0.336,0.75,0.75s-0.336,0.75-0.75,0.75S108,91.164,108,90.75S108.336,90,108.75,90z"/>
<path d="M108.75,99c0.414,0,0.75,0.336,0.75,0.75s-0.336,0.75-0.75,0.75s-0.75-0.336-0.75-0.75S108.336,99,108.75,99z"/>
<path d="M117.75,72c0.414,0,0.75,0.336,0.75,0.75s-0.336,0.75-0.75,0.75S117,73.164,117,72.75S117.336,72,117.75,72z"/>
<path d="M117.75,81c0.414,0,0.75,0.336,0.75,0.75s-0.336,0.75-0.75,0.75S117,82.164,117,81.75S117.336,81,117.75,81z"/>
<path d="M117.75,90c0.414,0,0.75,0.336,0.75,0.75s-0.336,0.75-0.75,0.75S117,91.164,117,90.75S117.336,90,117.75,90z"/>
<path d="M117.75,99c0.414,0,0.75,0.336,0.75,0.75s-0.336,0.75-0.75,0.75s-0.75-0.336-0.75-0.75S117.336,99,117.75,99z"/>
<path d="M126.75,72c0.414,0,0.75,0.336,0.75,0.75s-0.336,0.75-0.75,0.75S126,73.164,126,72.75S126.336,72,126.75,72z"/>
<path d="M126.75,81c0.414,0,0.75,0.336,0.75,0.75s-0.336,0.75-0.75,0.75S126,82.164,126,81.75S126.336,81,126.75,81z"/>
<path d="M126.75,90c0.414,0,0.75,0.336,0.75,0.75s-0.336,0.75-0.75,0.75S126,91.164,126,90.75S126.336,90,126.75,90z"/>
<path d="M126.75,99c0.414,0,0.75,0.336,0.75,0.75s-0.336,0.75-0.75,0.75s-0.75-0.336-0.75-0.75S126.336,99,126.75,99z"/>
<path d="M135.75,72c0.414,0,0.75,0.336,0.75,0.75s-0.336,0.75-0.75,0.75S135,73.164,135,72.75S135.336,72,135.75,72z"/>
<path d="M135.75,81c0.414,0,0.75,0.336,0.75,0.75s-0.336,0.75-0.75,0.75S135,82.164,135,81.75S135.336,81,135.75,81z"/>
<path d="M135.75,90c0.414,0,0.75,0.336,0.75,0.75s-0.336,0.75-0.75,0.75S135,91.164,135,90.75S135.336,90,135.75,90z"/>
<path d="M135.75,99c0.414,0,0.75,0.336,0.75,0.75s-0.336,0.75-0.75,0.75s-0.75-0.336-0.75-0.75S135.336,99,135.75,99z"/>
<path d="M72.75,108c0.414,0,0.75,0.336,0.75,0.75s-0.336,0.75-0.75,0.75S72,109.164,72,108.75S72.336,108,72.75,108z"/>
<path d="M72.75,117c0.414,0,0.75,0.336,0.75,0.75s-0.336,0.75-0.75,0.75S72,118.164,72,117.75S72.336,117,72.75,117z"/>
<path d="M72.75,126c0.414,0,0.75,0.336,0.75,0.75s-0.336,0.75-0.75,0.75S72,127.164,72,126.75S72.336,126,72.75,126z"/>
<path d="M72.75,135c0.414,0,0.75,0.336,0.75,0.75s-0.336,0.75-0.75,0.75S72,136.164,72,135.75S72.336,135,72.75,135z"/>
<path d="M81.75,108c0.414,0,0.75,0.336,0.75,0.75s-0.336,0.75-0.75,0.75S81,109.164,81,108.75S81.336,108,81.75,108z"/>
<path d="M81.75,117c0.414,0,0.75,0.336,0.75,0.75s-0.336,0.75-0.75,0.75S81,118.164,81,117.75S81.336,117,81.75,117z"/>
<path d="M81.75,126c0.414,0,0.75,0.336,0.75,0.75s-0.336,0.75-0.75,0.75S81,127.164,81,126.75S81.336,126,81.75,126z"/>
<path d="M81.75,135c0.414,0,0.75,0.336,0.75,0.75s-0.336,0.75-0.75,0.75S81,136.164,81,135.75S81.336,135,81.75,135z"/>
<path d="M90.75,108c0.414,0,0.75,0.336,0.75,0.75s-0.336,0.75-0.75,0.75S90,109.164,90,108.75S90.336,108,90.75,108z"/>
<path d="M90.75,117c0.414,0,0.75,0.336,0.75,0.75s-0.336,0.75-0.75,0.75S90,118.164,90,117.75S90.336,117,90.75,117z"/>
<path d="M90.75,126c0.414,0,0.75,0.336,0.75,0.75s-0.336,0.75-0.75,0.75S90,127.164,90,126.75S90.336,126,90.75,126z"/>
<path d="M90.75,135c0.414,0,0.75,0.336,0.75,0.75s-0.336,0.75-0.75,0.75S90,136.164,90,135.75S90.336,135,90.75,135z"/>
<path d="M99.75,108c0.414,0,0.75,0.336,0.75,0.75s-0.336,0.75-0.75,0.75S99,109.164,99,108.75S99.336,108,99.75,108z"/>
<path d="M99.75,117c0.414,0,0.75,0.336,0.75,0.75s-0.336,0.75-0.75,0.75S99,118.164,99,117.75S99.336,117,99.75,117z"/>
<path d="M99.75,126c0.414,0,0.75,0.336,0.75,0.75s-0.336,0.75-0.75,0.75S99,127.164,99,126.75S99.336,126,99.75,126z"/>
<path d="M99.75,135c0.414,0,0.75,0.336,0.75,0.75s-0.336,0.75-0.75,0.75S99,136.164,99,135.75S99.336,135,99.75,135z"/>
<path d="M108.75,108c0.414,0,0.75,0.336,0.75,0.75s-0.336,0.75-0.75,0.75s-0.75-0.336-0.75-0.75S108.336,108,108.75,108z"/>
<path d="M108.75,117c0.414,0,0.75,0.336,0.75,0.75s-0.336,0.75-0.75,0.75s-0.75-0.336-0.75-0.75S108.336,117,108.75,117z"/>
<path d="M108.75,126c0.414,0,0.75,0.336,0.75,0.75s-0.336,0.75-0.75,0.75s-0.75-0.336-0.75-0.75S108.336,126,108.75,126z"/>
<path d="M108.75,135c0.414,0,0.75,0.336,0.75,0.75s-0.336,0.75-0.75,0.75s-0.75-0.336-0.75-0.75S108.336,135,108.75,135z"/>
<path d="M117.75,108c0.414,0,0.75,0.336,0.75,0.75s-0.336,0.75-0.75,0.75s-0.75-0.336-0.75-0.75S117.336,108,117.75,108z"/>
<path d="M117.75,117c0.414,0,0.75,0.336,0.75,0.75s-0.336,0.75-0.75,0.75s-0.75-0.336-0.75-0.75S117.336,117,117.75,117z"/>
<path d="M117.75,126c0.414,0,0.75,0.336,0.75,0.75s-0.336,0.75-0.75,0.75s-0.75-0.336-0.75-0.75S117.336,126,117.75,126z"/>
<path d="M117.75,135c0.414,0,0.75,0.336,0.75,0.75s-0.336,0.75-0.75,0.75s-0.75-0.336-0.75-0.75S117.336,135,117.75,135z"/>
<path d="M126.75,108c0.414,0,0.75,0.336,0.75,0.75s-0.336,0.75-0.75,0.75s-0.75-0.336-0.75-0.75S126.336,108,126.75,108z"/>
<path d="M126.75,117c0.414,0,0.75,0.336,0.75,0.75s-0.336,0.75-0.75,0.75s-0.75-0.336-0.75-0.75S126.336,117,126.75,117z"/>
<path d="M126.75,126c0.414,0,0.75,0.336,0.75,0.75s-0.336,0.75-0.75,0.75s-0.75-0.336-0.75-0.75S126.336,126,126.75,126z"/>
<path d="M126.75,135c0.414,0,0.75,0.336,0.75,0.75s-0.336,0.75-0.75,0.75s-0.75-0.336-0.75-0.75S126.336,135,126.75,135z"/>
<path d="M135.75,108c0.414,0,0.75,0.336,0.75,0.75s-0.336,0.75-0.75,0.75s-0.75-0.336-0.75-0.75S135.336,108,135.75,108z"/>
<path d="M135.75,117c0.414,0,0.75,0.336,0.75,0.75s-0.336,0.75-0.75,0.75s-0.75-0.336-0.75-0.75S135.336,117,135.75,117z"/>
<path d="M135.75,126c0.414,0,0.75,0.336,0.75,0.75s-0.336,0.75-0.75,0.75s-0.75-0.336-0.75-0.75S135.336,126,135.75,126z"/>
<path d="M135.75,135c0.414,0,0.75,0.336,0.75,0.75s-0.336,0.75-0.75,0.75s-0.75-0.336-0.75-0.75S135.336,135,135.75,135z"/>
<path d="M144.75,0c0.414,0,0.75,0.336,0.75,0.75s-0.336,0.75-0.75,0.75S144,1.164,144,0.75S144.336,0,144.75,0z"/>
<path d="M144.75,9c0.414,0,0.75,0.336,0.75,0.75s-0.336,0.75-0.75,0.75S144,10.164,144,9.75S144.336,9,144.75,9z"/>
<path d="M144.75,18c0.414,0,0.75,0.336,0.75,0.75s-0.336,0.75-0.75,0.75S144,19.164,144,18.75S144.336,18,144.75,18z"/>
<path d="M144.75,27c0.414,0,0.75,0.336,0.75,0.75s-0.336,0.75-0.75,0.75S144,28.164,144,27.75S144.336,27,144.75,27z"/>
<path d="M153.75,0c0.414,0,0.75,0.336,0.75,0.75s-0.336,0.75-0.75,0.75S153,1.164,153,0.75S153.336,0,153.75,0z"/>
<path d="M153.75,9c0.414,0,0.75,0.336,0.75,0.75s-0.336,0.75-0.75,0.75S153,10.164,153,9.75S153.336,9,153.75,9z"/>
<path d="M153.75,18c0.414,0,0.75,0.336,0.75,0.75s-0.336,0.75-0.75,0.75S153,19.164,153,18.75S153.336,18,153.75,18z"/>
<path d="M153.75,27c0.414,0,0.75,0.336,0.75,0.75s-0.336,0.75-0.75,0.75S153,28.164,153,27.75S153.336,27,153.75,27z"/>
<path d="M144.75,36c0.414,0,0.75,0.336,0.75,0.75s-0.336,0.75-0.75,0.75S144,37.164,144,36.75S144.336,36,144.75,36z"/>
<path d="M144.75,45c0.414,0,0.75,0.336,0.75,0.75s-0.336,0.75-0.75,0.75S144,46.164,144,45.75S144.336,45,144.75,45z"/>
<path d="M144.75,54c0.414,0,0.75,0.336,0.75,0.75s-0.336,0.75-0.75,0.75S144,55.164,144,54.75S144.336,54,144.75,54z"/>
<path d="M144.75,63c0.414,0,0.75,0.336,0.75,0.75s-0.336,0.75-0.75,0.75S144,64.164,144,63.75S144.336,63,144.75,63z"/>
<path d="M153.75,36c0.414,0,0.75,0.336,0.75,0.75s-0.336,0.75-0.75,0.75S153,37.164,153,36.75S153.336,36,153.75,36z"/>
<path d="M153.75,45c0.414,0,0.75,0.336,0.75,0.75s-0.336,0.75-0.75,0.75S153,46.164,153,45.75S153.336,45,153.75,45z"/>
<path d="M153.75,54c0.414,0,0.75,0.336,0.75,0.75s-0.336,0.75-0.75,0.75S153,55.164,153,54.75S153.336,54,153.75,54z"/>
<path d="M153.75,63c0.414,0,0.75,0.336,0.75,0.75s-0.336,0.75-0.75,0.75S153,64.164,153,63.75S153.336,63,153.75,63z"/>
<path d="M144.75,72c0.414,0,0.75,0.336,0.75,0.75s-0.336,0.75-0.75,0.75S144,73.164,144,72.75S144.336,72,144.75,72z"/>
<path d="M144.75,81c0.414,0,0.75,0.336,0.75,0.75s-0.336,0.75-0.75,0.75S144,82.164,144,81.75S144.336,81,144.75,81z"/>
<path d="M144.75,90c0.414,0,0.75,0.336,0.75,0.75s-0.336,0.75-0.75,0.75S144,91.164,144,90.75S144.336,90,144.75,90z"/>
<path d="M144.75,99c0.414,0,0.75,0.336,0.75,0.75s-0.336,0.75-0.75,0.75s-0.75-0.336-0.75-0.75S144.336,99,144.75,99z"/>
<path d="M153.75,72c0.414,0,0.75,0.336,0.75,0.75s-0.336,0.75-0.75,0.75S153,73.164,153,72.75S153.336,72,153.75,72z"/>
<path d="M153.75,81c0.414,0,0.75,0.336,0.75,0.75s-0.336,0.75-0.75,0.75S153,82.164,153,81.75S153.336,81,153.75,81z"/>
<path d="M153.75,90c0.414,0,0.75,0.336,0.75,0.75s-0.336,0.75-0.75,0.75S153,91.164,153,90.75S153.336,90,153.75,90z"/>
<path d="M153.75,99c0.414,0,0.75,0.336,0.75,0.75s-0.336,0.75-0.75,0.75s-0.75-0.336-0.75-0.75S153.336,99,153.75,99z"/>
<path d="M144.75,108c0.414,0,0.75,0.336,0.75,0.75s-0.336,0.75-0.75,0.75s-0.75-0.336-0.75-0.75S144.336,108,144.75,108z"/>
<path d="M144.75,117c0.414,0,0.75,0.336,0.75,0.75s-0.336,0.75-0.75,0.75s-0.75-0.336-0.75-0.75S144.336,117,144.75,117z"/>
<path d="M144.75,126c0.414,0,0.75,0.336,0.75,0.75s-0.336,0.75-0.75,0.75s-0.75-0.336-0.75-0.75S144.336,126,144.75,126z"/>
<path d="M144.75,135c0.414,0,0.75,0.336,0.75,0.75s-0.336,0.75-0.75,0.75s-0.75-0.336-0.75-0.75S144.336,135,144.75,135z"/>
<path d="M153.75,108c0.414,0,0.75,0.336,0.75,0.75s-0.336,0.75-0.75,0.75s-0.75-0.336-0.75-0.75S153.336,108,153.75,108z"/>
<path d="M153.75,117c0.414,0,0.75,0.336,0.75,0.75s-0.336,0.75-0.75,0.75s-0.75-0.336-0.75-0.75S153.336,117,153.75,117z"/>
<path d="M153.75,126c0.414,0,0.75,0.336,0.75,0.75s-0.336,0.75-0.75,0.75s-0.75-0.336-0.75-0.75S153.336,126,153.75,126z"/>
<path d="M153.75,135c0.414,0,0.75,0.336,0.75,0.75s-0.336,0.75-0.75,0.75s-0.75-0.336-0.75-0.75S153.336,135,153.75,135z"/>
<path d="M0.75,144c0.414,0,0.75,0.336,0.75,0.75s-0.336,0.75-0.75,0.75S0,145.164,0,144.75S0.336,144,0.75,144z"/>
<path d="M9.75,144c0.414,0,0.75,0.336,0.75,0.75s-0.336,0.75-0.75,0.75c-0.414,0-0.75-0.336-0.75-0.75S9.336,144,9.75,144z"/>
<path d="M18.75,144c0.414,0,0.75,0.336,0.75,0.75s-0.336,0.75-0.75,0.75S18,145.164,18,144.75S18.336,144,18.75,144z"/>
<path d="M27.75,144c0.414,0,0.75,0.336,0.75,0.75s-0.336,0.75-0.75,0.75S27,145.164,27,144.75S27.336,144,27.75,144z"/>
<path d="M36.75,144c0.414,0,0.75,0.336,0.75,0.75s-0.336,0.75-0.75,0.75c-0.414,0-0.75-0.336-0.75-0.75S36.336,144,36.75,144z"/>
<path d="M45.75,144c0.414,0,0.75,0.336,0.75,0.75s-0.336,0.75-0.75,0.75c-0.414,0-0.75-0.336-0.75-0.75S45.336,144,45.75,144z"/>
<path d="M54.75,144c0.414,0,0.75,0.336,0.75,0.75s-0.336,0.75-0.75,0.75c-0.414,0-0.75-0.336-0.75-0.75S54.336,144,54.75,144z"/>
<path d="M63.75,144c0.414,0,0.75,0.336,0.75,0.75s-0.336,0.75-0.75,0.75S63,145.164,63,144.75S63.336,144,63.75,144z"/>
<path d="M72.75,144c0.414,0,0.75,0.336,0.75,0.75s-0.336,0.75-0.75,0.75S72,145.164,72,144.75S72.336,144,72.75,144z"/>
<path d="M81.75,144c0.414,0,0.75,0.336,0.75,0.75s-0.336,0.75-0.75,0.75S81,145.164,81,144.75S81.336,144,81.75,144z"/>
<path d="M90.75,144c0.414,0,0.75,0.336,0.75,0.75s-0.336,0.75-0.75,0.75S90,145.164,90,144.75S90.336,144,90.75,144z"/>
<path d="M99.75,144c0.414,0,0.75,0.336,0.75,0.75s-0.336,0.75-0.75,0.75S99,145.164,99,144.75S99.336,144,99.75,144z"/>
<path d="M108.75,144c0.414,0,0.75,0.336,0.75,0.75s-0.336,0.75-0.75,0.75s-0.75-0.336-0.75-0.75S108.336,144,108.75,144z"/>
<path d="M117.75,144c0.414,0,0.75,0.336,0.75,0.75s-0.336,0.75-0.75,0.75s-0.75-0.336-0.75-0.75S117.336,144,117.75,144z"/>
<path d="M126.75,144c0.414,0,0.75,0.336,0.75,0.75s-0.336,0.75-0.75,0.75s-0.75-0.336-0.75-0.75S126.336,144,126.75,144z"/>
<path d="M135.75,144c0.414,0,0.75,0.336,0.75,0.75s-0.336,0.75-0.75,0.75s-0.75-0.336-0.75-0.75S135.336,144,135.75,144z"/>
<path d="M144.75,144c0.414,0,0.75,0.336,0.75,0.75s-0.336,0.75-0.75,0.75s-0.75-0.336-0.75-0.75S144.336,144,144.75,144z"/>
<path d="M153.75,144c0.414,0,0.75,0.336,0.75,0.75s-0.336,0.75-0.75,0.75s-0.75-0.336-0.75-0.75S153.336,144,153.75,144z"/>
<path d="M0.75,153c0.414,0,0.75,0.336,0.75,0.75s-0.336,0.75-0.75,0.75S0,154.164,0,153.75S0.336,153,0.75,153z"/>
<path d="M9.75,153c0.414,0,0.75,0.336,0.75,0.75s-0.336,0.75-0.75,0.75c-0.414,0-0.75-0.336-0.75-0.75S9.336,153,9.75,153z"/>
<path d="M18.75,153c0.414,0,0.75,0.336,0.75,0.75s-0.336,0.75-0.75,0.75S18,154.164,18,153.75S18.336,153,18.75,153z"/>
<path d="M27.75,153c0.414,0,0.75,0.336,0.75,0.75s-0.336,0.75-0.75,0.75S27,154.164,27,153.75S27.336,153,27.75,153z"/>
<path d="M36.75,153c0.414,0,0.75,0.336,0.75,0.75s-0.336,0.75-0.75,0.75c-0.414,0-0.75-0.336-0.75-0.75S36.336,153,36.75,153z"/>
<path d="M45.75,153c0.414,0,0.75,0.336,0.75,0.75s-0.336,0.75-0.75,0.75c-0.414,0-0.75-0.336-0.75-0.75S45.336,153,45.75,153z"/>
<path d="M54.75,153c0.414,0,0.75,0.336,0.75,0.75s-0.336,0.75-0.75,0.75c-0.414,0-0.75-0.336-0.75-0.75S54.336,153,54.75,153z"/>
<path d="M63.75,153c0.414,0,0.75,0.336,0.75,0.75s-0.336,0.75-0.75,0.75S63,154.164,63,153.75S63.336,153,63.75,153z"/>
<path d="M72.75,153c0.414,0,0.75,0.336,0.75,0.75s-0.336,0.75-0.75,0.75S72,154.164,72,153.75S72.336,153,72.75,153z"/>
<path d="M81.75,153c0.414,0,0.75,0.336,0.75,0.75s-0.336,0.75-0.75,0.75S81,154.164,81,153.75S81.336,153,81.75,153z"/>
<path d="M90.75,153c0.414,0,0.75,0.336,0.75,0.75s-0.336,0.75-0.75,0.75S90,154.164,90,153.75S90.336,153,90.75,153z"/>
<path d="M99.75,153c0.414,0,0.75,0.336,0.75,0.75s-0.336,0.75-0.75,0.75S99,154.164,99,153.75S99.336,153,99.75,153z"/>
<path d="M108.75,153c0.414,0,0.75,0.336,0.75,0.75s-0.336,0.75-0.75,0.75s-0.75-0.336-0.75-0.75S108.336,153,108.75,153z"/>
<path d="M117.75,153c0.414,0,0.75,0.336,0.75,0.75s-0.336,0.75-0.75,0.75s-0.75-0.336-0.75-0.75S117.336,153,117.75,153z"/>
<path d="M126.75,153c0.414,0,0.75,0.336,0.75,0.75s-0.336,0.75-0.75,0.75s-0.75-0.336-0.75-0.75S126.336,153,126.75,153z"/>
<path d="M135.75,153c0.414,0,0.75,0.336,0.75,0.75s-0.336,0.75-0.75,0.75s-0.75-0.336-0.75-0.75S135.336,153,135.75,153z"/>
<path d="M144.75,153c0.414,0,0.75,0.336,0.75,0.75s-0.336,0.75-0.75,0.75s-0.75-0.336-0.75-0.75S144.336,153,144.75,153z"/>
<path d="M153.75,153c0.414,0,0.75,0.336,0.75,0.75s-0.336,0.75-0.75,0.75s-0.75-0.336-0.75-0.75S153.336,153,153.75,153z"/>
</svg>
