<?xml version="1.0" encoding="UTF-8"?>
<svg width="40px" height="40px" viewBox="0 0 40 40" version="1.1" xmlns="http://www.w3.org/2000/svg" xmlns:xlink="http://www.w3.org/1999/xlink">
    <!-- Generator: Sketch 42 (36781) - http://www.bohemiancoding.com/sketch -->
    <title>story_brush2</title>
    <desc>Created with Sketch.</desc>
    <defs></defs>
    <g id="Page-1" stroke="none" stroke-width="1" fill="none" fill-rule="evenodd">
        <g id="Artboard" transform="translate(-78.000000, -112.000000)">
            <g id="Group-9" transform="translate(32.000000, 62.000000)">
                <g id="Group-8" transform="translate(8.000000, 1.000000)"></g>
            </g>
            <path d="M96.6710856,136.460243 C97.2066856,136.32292 97.350601,136.54382 96.9818934,136.965812 C96.9818934,136.965812 96.8367364,137.131946 95.1001135,139.119538 C93.3634907,141.107129 93.0292465,142.104938 93.0292465,142.104938 C92.790213,142.595299 92.9182802,143.313711 93.2992299,143.693541 L96.7988204,147.182847 C97.1869616,147.569848 97.7679963,147.514311 98.0873898,147.07559 C98.0873898,147.07559 101.045383,142.928594 103.655173,140.004505 C106.264963,137.080416 108.351751,135.36577 108.351751,135.36577 C109.176076,134.641532 109.243606,133.38349 108.513986,132.568587 L105.442914,129.13855 C105.077332,128.730236 104.346683,128.50856 103.813215,128.642856 L97.453915,130.243754 C96.9194393,130.378304 96.6998827,130.101136 96.9833919,129.621799 C96.9833919,129.621799 97.6426551,128.255923 99.7558918,125.850964 C101.869128,123.446004 104.190296,121.578661 104.190296,121.578661 C104.610938,121.225462 104.585746,120.680604 104.142982,120.368006 L99.762621,117.275411 C99.3158486,116.959983 98.5562159,116.898167 98.0728268,117.180678 C98.0728268,117.180678 96.295171,117.731607 92.0043805,122.855053 C87.7135901,127.978499 86.3082218,131.122554 86.3082218,131.122554 C85.7979369,132.087951 85.9355409,133.576827 86.6152753,134.447675 L88.9879024,137.487389 C89.3265399,137.921238 90.0333153,138.162115 90.5708495,138.024295 L96.6710856,136.460243 Z" id="Fill-1" fill="#000000" transform="translate(97.509390, 132.220933) rotate(-354.000000) translate(-97.509390, -132.220933) "></path>
        </g>
    </g>
</svg>