<?xml version="1.0" encoding="UTF-8"?>
<svg width="40px" height="40px" viewBox="0 0 40 40" version="1.1" xmlns="http://www.w3.org/2000/svg" xmlns:xlink="http://www.w3.org/1999/xlink">
    <!-- Generator: Sketch 42 (36781) - http://www.bohemiancoding.com/sketch -->
    <title>story_brush3</title>
    <desc>Created with Sketch.</desc>
    <defs></defs>
    <g id="Page-1" stroke="none" stroke-width="1" fill="none" fill-rule="evenodd">
        <g id="Artboard" transform="translate(-124.000000, -112.000000)" fill-rule="nonzero" fill="#000000">
            <g id="Group-9" transform="translate(32.000000, 62.000000)">
                <g id="Group-8" transform="translate(8.000000, 1.000000)">
                    <path d="M104.211515,74.1154076 C103.171172,74.9556845 102.044288,75.783511 100.916193,76.5572683 C100.520803,76.8284653 100.154611,77.0727737 99.8278934,77.2854994 C99.6369211,77.4098413 99.5053255,77.4936913 99.4432725,77.5324744 C97.8040947,78.5569606 97.3057886,80.7162869 98.3302748,82.3554648 C99.3547609,83.9946426 101.514087,84.4929487 103.153265,83.4684626 C103.512619,83.2438664 104.112739,82.8531289 104.875611,82.3298771 C106.143966,81.4599158 107.413531,80.5272734 108.609875,79.5609959 C109.890067,78.5269942 111.015063,77.5113569 111.949351,76.5165133 C114.740723,73.5442181 116.03146,70.7290774 114.33712,67.7639822 C113.096691,65.5932314 110.965468,64.8296831 108.351324,64.8600801 C106.941323,64.8764754 105.799666,65.051453 103.137303,65.5634459 C102.281068,65.7281065 101.616718,65.8504215 101.075892,65.9390653 C101.71311,65.2973857 102.49395,64.6052422 103.385023,63.8855293 C104.425365,63.0452525 105.55225,62.217426 106.680344,61.4436687 C107.075734,61.1724717 107.441926,60.9281633 107.768644,60.7154376 C107.959616,60.5910957 108.091212,60.5072456 108.153265,60.4684626 C109.792443,59.4439764 110.290749,57.2846501 109.266263,55.6454722 C108.241777,54.0062943 106.08245,53.5079883 104.443273,54.5324744 C104.083919,54.7570706 103.483799,55.1478081 102.720927,55.6710599 C101.452572,56.5410212 100.183006,57.4736636 98.9866629,58.4399411 C97.7064704,59.4739428 96.581475,60.48958 95.647187,61.4844237 C92.8558142,64.4567188 91.5650777,67.2718596 93.2594178,70.2369548 C94.4998469,72.4077056 96.6310697,73.1712539 99.2452137,73.1408569 C100.655215,73.1244615 101.796872,72.949484 104.459235,72.4374911 C105.31547,72.2728304 105.979819,72.1505155 106.520646,72.0618716 C105.883428,72.7035513 105.102588,73.3956948 104.211515,74.1154076 Z" id="3"></path>
                </g>
            </g>
        </g>
    </g>
</svg>