<?xml version="1.0" encoding="UTF-8"?>
<svg width="40px" height="40px" viewBox="0 0 40 40" version="1.1" xmlns="http://www.w3.org/2000/svg" xmlns:xlink="http://www.w3.org/1999/xlink">
    <!-- Generator: Sketch 42 (36781) - http://www.bohemiancoding.com/sketch -->
    <title>story_brush1</title>
    <desc>Created with Sketch.</desc>
    <defs></defs>
    <g id="Page-1" stroke="none" stroke-width="1" fill="none" fill-rule="evenodd">
        <g id="Artboard" transform="translate(-32.000000, -112.000000)">
            <g id="Group-9" transform="translate(32.000000, 62.000000)">
                <g id="Group-8" transform="translate(8.000000, 1.000000)"></g>
            </g>
            <path d="M52.211515,137.115408 C51.1711722,137.955685 50.044288,138.783511 48.9161932,139.557268 C48.5208032,139.828465 48.1546114,140.072774 47.8278934,140.285499 C47.6369211,140.409841 47.5053255,140.493691 47.4432725,140.532474 C45.8040947,141.556961 45.3057886,143.716287 46.3302748,145.355465 C47.3547609,146.994643 49.5140873,147.492949 51.1532651,146.468463 C51.5126189,146.243866 52.112739,145.853129 52.8756107,145.329877 C54.1439656,144.459916 55.4135311,143.527273 56.6098747,142.560996 C57.8900673,141.526994 59.0150626,140.511357 59.9493506,139.516513 C62.7407234,136.544218 64.0314599,133.729077 62.3371198,130.763982 C61.0966908,128.593231 58.965468,127.829683 56.3513239,127.86008 C54.9413231,127.876475 53.799666,128.051453 51.1373029,128.563446 C50.2810677,128.728107 49.6167183,128.850422 49.0758918,128.939065 C49.7131096,128.297386 50.4939496,127.605242 51.3850227,126.885529 C52.4253655,126.045252 53.5522497,125.217426 54.6803445,124.443669 C55.0757344,124.172472 55.4419262,123.928163 55.7686442,123.715438 C55.9596165,123.591096 56.0912122,123.507246 56.1532651,123.468463 C57.792443,122.443976 58.290749,120.28465 57.2662629,118.645472 C56.2417767,117.006294 54.0824504,116.507988 52.4432725,117.532474 C52.0839187,117.757071 51.4837986,118.147808 50.7209269,118.67106 C49.452572,119.541021 48.1830065,120.473664 46.9866629,121.439941 C45.7064704,122.473943 44.581475,123.48958 43.647187,124.484424 C40.8558142,127.456719 39.5650777,130.27186 41.2594178,133.236955 C42.4998469,135.407706 44.6310697,136.171254 47.2452137,136.140857 C48.6552146,136.124462 49.7968716,135.949484 52.4592347,135.437491 C53.3154699,135.27283 53.9798193,135.150515 54.5206458,135.061872 C53.883428,135.703551 53.102588,136.395695 52.211515,137.115408 Z" id="1" fill="#000000" fill-rule="nonzero"></path>
        </g>
    </g>
</svg>