<svg height="480pt" viewBox="-42 0 480 480.1016" width="480pt" xmlns="http://www.w3.org/2000/svg">
    <path
        d="m172.066406 206.449219c.535156-.289063 1.0625-.578125 1.601563-.847657 2.203125-1.109374 4.488281-2.054687 6.832031-2.832031.214844-.074219.445312-.121093.664062-.183593 2.242188-.695313 4.527344-1.242188 6.839844-1.640626.671875-.121093 1.328125-.226562 2.007813-.320312 5.300781-.835938 10.699219-.835938 16 0 .679687.09375 1.335937.199219 2.007812.320312 2.3125.398438 4.597657.945313 6.839844 1.640626.214844.0625.449219.109374.664063.183593 2.34375.777344 4.625 1.722657 6.832031 2.832031.550781.269532 1.078125.558594 1.597656.847657 1.839844.984375 3.609375 2.082031 5.304687 3.292969.210938.152343.464844.265624.671876.417968-1.328126-130.398437-21.304688-163.351562-26.742188-169.921875h-.871094c-2.875-.0625-5.753906-.0625-8.625 0h-.886718c-5.402344 6.53125-25.402344 39.457031-26.730469 169.921875.207031-.152344.464843-.265625.671875-.417968 1.703125-1.210938 3.480468-2.3125 5.320312-3.292969zm0 0" />
    <path
        d="m70.28125 210.398438c3.007812-88.949219 35.410156-135.839844 65.503906-160.300782-72.160156 23.722656-124.714844 86.199219-135.7343748 161.359375 11.3007808-7.375 24.4765628-11.347656 37.9687498-11.457031 11.597657-.125 22.921875 3.527344 32.261719 10.398438zm0 0" />
    <path
        d="m358.019531 200c13.492188.109375 26.667969 4.082031 37.96875 11.457031-11.027343-75.152343-63.582031-137.617187-135.738281-161.335937 30.097656 24.464844 62.496094 71.351562 65.503906 160.304687 9.339844-6.882812 20.664063-10.542969 32.265625-10.425781zm0 0" />
    <path
        d="m285.953125 200.617188c.691406.09375 1.355469.207031 2.027344.328124 2.234375.390626 4.441406.925782 6.605469 1.597657.289062.089843.59375.144531.871093.242187 2.320313.765625 4.582031 1.695313 6.769531 2.773438.558594.28125 1.097657.578125 1.648438.875 1.746094.929687 3.429688 1.964844 5.046875 3.101562.265625.183594.585937.328125.847656.519532-4-110.542969-55.4375-149.878907-84.796875-163.382813 9.597656 22.984375 20 69.535156 20.957032 163.65625 9.304687-6.8125 20.558593-10.433594 32.089843-10.328125 2.65625.019531 5.308594.226562 7.933594.617188zm0 0" />
    <path
        d="m86.265625 210.023438c.265625-.191407.585937-.335938.847656-.519532 1.617188-1.136718 3.304688-2.175781 5.050781-3.105468.550782-.292969 1.085938-.589844 1.648438-.871094 2.1875-1.082032 4.449219-2.007813 6.765625-2.773438.28125-.097656.585937-.152344.871094-.242187 2.167969-.671875 4.375-1.207031 6.609375-1.601563.671875-.117187 1.335937-.230468 2.023437-.324218 2.628907-.378907 5.28125-.574219 7.9375-.585938 11.519531-.109375 22.769531 3.5 32.070313 10.296875.929687-94.121094 11.34375-140.671875 20.960937-163.65625-29.34375 13.503906-80.769531 52.839844-84.785156 163.382813zm0 0" />
    <path
        d="m271.355469 440c0-4.417969-3.582031-8-8-8s-8 3.582031-8 8c-.417969 13.324219-11.335938 23.910156-24.667969 23.910156s-24.253906-10.585937-24.667969-23.910156v-223.152344c-5.273437-1.128906-10.726562-1.128906-16 0v223.152344c.3125 22.238281 18.425781 40.101562 40.667969 40.101562 22.238281 0 40.355469-17.863281 40.667969-40.101562zm0 0" />
    <path
        d="m206.019531 24.199219v-16.199219c0-4.417969-3.582031-8-8-8s-8 3.582031-8 8v16.199219c2.65625-.09375 5.320313-.199219 8-.199219 2.679688 0 5.34375.105469 8 .199219zm0 0" />
</svg>