<svg height="448pt" viewBox="0 0 448.00063 448" width="448pt" xmlns="http://www.w3.org/2000/svg">
    <path
        d="m0 376c.0507812 39.746094 32.257812 71.953125 72 72h296c44.183594 0 80-35.816406 80-80s-35.816406-80-80-80c-5.320312.011719-10.628906.546875-15.847656 1.601562-4.332032.871094-8.550782-1.933593-9.421875-6.265624-.234375-1.183594-.5625-2.328126-.859375-3.488282-.894532-3.410156-2.066406-6.746094-3.503906-9.96875l-.132813-.300781c-.648437-1.425781-1.355469-2.816406-2.097656-4.1875l-.433594-.796875c-.671875-1.195312-1.390625-2.351562-2.132813-3.496094-.273437-.425781-.554687-.800781-.839843-1.257812-.664063-.960938-1.347657-1.902344-2.058594-2.824219-.429687-.558594-.878906-1.109375-1.335937-1.664063-.617188-.742187-1.246094-1.480468-1.894532-2.199218-.648437-.71875-1.234375-1.320313-1.863281-1.96875-.632813-.648438-1.121094-1.128906-1.707031-1.671875-.796875-.734375-1.597656-1.4375-2.398438-2.128907-.496094-.421874-.992187-.855468-1.503906-1.261718-.929688-.746094-1.886719-1.449219-2.855469-2.144532-.449219-.320312-.898437-.648437-1.351562-.960937-1.058594-.710937-2.144531-1.382813-3.242188-2.03125-.414062-.25-.800781-.511719-1.253906-.753906-1.152344-.644531-2.335937-1.238281-3.535156-1.8125-.410157-.203125-.800781-.417969-1.226563-.601563-1.214844-.558594-2.457031-1.054687-3.710937-1.535156-.425781-.160156-.847657-.34375-1.273438-.503906-1.246093-.441406-2.519531-.800782-3.789062-1.191406-.472657-.136719-.929688-.296876-1.402344-.425782-1.253906-.335937-2.542969-.59375-3.832031-.855468-.496094-.097657-.992188-.230469-1.496094-.320313-1.328125-.230469-2.671875-.382813-4-.527344-.480469-.058593-.953125-.144531-1.4375-.183593-1.832031-.160157-3.683594-.25-5.546875-.25-9.230469.003906-18.355469 2.023437-26.726563 5.914062-1.003906.464844-2.09375.710938-3.199218.726562-3.402344.070313-6.476563-2.019531-7.664063-5.207031-1.070312-2.835937-2.289062-5.613281-3.648437-8.320312-.304688-.609375-.617188-1.214844-.929688-1.816407-2.8125-5.351562-6.164062-10.402343-10.007812-15.070312-.382813-.464844-.800782-.929688-1.175782-1.394531-1.894531-2.199219-3.863281-4.328125-5.960937-6.335938-.085937-.085937-.175781-.191406-.269531-.277343-2.058594-1.953126-4.242188-3.753907-6.464844-5.496094-.800781-.609375-1.601562-1.210938-2.398438-1.785156-1.738281-1.273438-3.53125-2.464844-5.355468-3.601563-1.183594-.742187-2.398438-1.445313-3.605469-2.128906-1.6875-.941407-3.402344-1.839844-5.152344-2.671875-1.164062-.53125-2.332031-1.066406-3.511719-1.597656-1.960937-.800782-4-1.601563-5.992187-2.273438-9-3.078125-18.441406-4.664062-27.953125-4.6875-28.609375-.074219-55.464844 13.800781-71.953125 37.179688-16.492187 23.382812-20.550781 53.332031-10.878906 80.261718.859375 2.410156.511719 5.089844-.933594 7.203125-1.449219 2.109375-3.816406 3.402344-6.378906 3.476563-38.96875.949218-70.019531 32.898437-69.855469 71.878906zm0 0" />
    <path
        d="m198.449219 167.519531c1.671875.671875 3.351562 1.351563 4.984375 2.105469 1.464844.679688 2.886718 1.429688 4.320312 2.175781 1.238282.648438 2.460938 1.3125 3.679688 2.007813 1.214844.695312 2.589844 1.488281 3.855468 2.289062 2.105469 1.335938 4.160157 2.726563 6.167969 4.207032.800781.617187 1.640625 1.261718 2.457031 1.902343 1.789063 1.398438 3.539063 2.855469 5.238282 4.378907.695312.621093 1.375 1.253906 2.054687 1.894531 1.894531 1.785156 3.722657 3.652343 5.488281 5.601562.289063.308594.585938.597657.867188.910157 2.09375 2.34375 4.070312 4.800781 5.957031 7.335937.296875.40625.578125.800781.875 1.230469 1.539063 2.136718 3.007813 4.355468 4.398438 6.65625.359375.601562.726562 1.183594 1.078125 1.792968 1.601562 2.703126 3.066406 5.457032 4.402344 8.320313 8.277343-2.859375 16.96875-4.320313 25.726562-4.328125 2.167969 0 4.320312.097656 6.457031.265625.542969.046875 1.070313.132813 1.597657.191406 1.601562.160157 3.203124.335938 4.761718.589844.542969.089844 1.070313.21875 1.601563.320313 1.597656.28125 3.109375.585937 4.648437.960937.476563.121094.941406.273437 1.421875.398437 1.601563.417969 3.144531.867188 4.6875 1.378907.410157.136719.800781.292969 1.207031.4375 1.601563.5625 3.160157 1.144531 4.707032 1.800781.359375.152344.710937.320312 1.0625.480469 1.601562.6875 3.105468 1.40625 4.609375 2.191406l1.015625.5625c1.488281.796875 2.960937 1.636719 4.390625 2.527344l1.03125.671875c1.386719.882812 2.746093 1.816406 4.074219 2.789062.382812.28125.757812.578125 1.136718.867188 1.238282.941406 2.445313 1.910156 3.628906 2.925781.449219.386719.882813.800781 1.320313 1.175781 1.066406.945313 2.097656 1.914063 3.089844 2.914063.527343.527343 1.039062 1.0625 1.550781 1.597656.847656.898437 1.679688 1.8125 2.488281 2.746094.609375.703125 1.207031 1.421875 1.800781 2.160156.632813.800781 1.246094 1.597656 1.855469 2.398437.695313.9375 1.367188 1.878907 2.023438 2.847657.433593.632812.800781 1.273437 1.25 1.914062.757812 1.191407 1.496093 2.398438 2.191406 3.621094.246094.441406.480469.882813.71875 1.328125.796875 1.457031 1.542969 2.941406 2.25 4.457031.101563.226563.191406.449219.292969.664063.800781 1.738281 1.511718 3.503906 2.167968 5.304687 36.625-8.433593 67.691407-32.535156 84.960938-65.910156-12.035156 4.148437-24.703125 6.171875-37.429688 5.972656-61.347656-.707031-110.546874-50.925781-110-112.269531.414063-38.425781 19.703126-74.1875 51.582032-95.640625-6.550782-.519531-13.136719-.640625-19.296875-.640625-74.203125.960938-133.628907 61.796875-132.855469 136 .035156 10.183594 1.199219 20.332031 3.472656 30.257812 1.015625.375 1.976563.855469 2.976563 1.261719zm0 0" />
    <path
        d="m423.402344 76.121094-12.25-1.871094c-2.636719-.40625-4.898438-2.097656-6.03125-4.515625l-5.121094-10.902344-5.121094 10.902344c-1.128906 2.417969-3.394531 4.109375-6.03125 4.515625l-12.246094 1.871094 9.128907 9.351562c1.769531 1.816406 2.574219 4.367188 2.167969 6.871094l-2.074219 12.6875 10.304687-5.695312c2.410156-1.332032 5.335938-1.332032 7.742188 0l10.304687 5.695312-2.070312-12.6875c-.410157-2.503906.394531-5.054688 2.167969-6.871094zm0 0" />
</svg>