<?xml version="1.0" encoding="iso-8859-1"?>
<!-- Generator: Adobe Illustrator 19.0.0, SVG Export Plug-In . SVG Version: 6.00 Build 0)  -->
<svg version="1.1" id="Capa_1" xmlns="http://www.w3.org/2000/svg" xmlns:xlink="http://www.w3.org/1999/xlink" x="0px" y="0px"
	 viewBox="0 0 512.025 512.025" style="enable-background:new 0 0 512.025 512.025;" xml:space="preserve">
<g transform="translate(-1)">
	<g>
		<g>
			<path d="M248.56,170.688c-49.203,0-85.188,12.194-106.948,36.241c-5.033,5.558-9.266,11.79-12.578,18.517
				c-3.315-6.725-7.548-12.957-12.578-18.517c-21.717-24.055-57.694-36.25-106.897-36.25c-2.382-0.007-4.658,0.982-6.279,2.727
				c-1.621,1.745-2.438,4.089-2.255,6.463c0.162,2.142,4.463,52.77,41.813,80.213c15.97,11.434,35.235,17.346,54.869,16.836
				c7.637-0.046,15.258-0.723,22.784-2.022l0.094,23.782H26.719c-9.426,0-17.067,7.641-17.067,17.067v51.2
				c0.021,6.73,3.995,12.819,10.146,15.548l31.147,116.855c1.994,7.467,8.758,12.662,16.486,12.663h123.426
				c7.729-0.001,14.492-5.196,16.486-12.663l31.164-116.855c6.135-2.742,10.09-8.828,10.103-15.548v-51.2
				c0-9.426-7.641-17.067-17.067-17.067h-93.867l-0.12-23.791c7.565,1.309,15.226,1.988,22.904,2.031
				c19.616,0.498,38.86-5.409,54.818-16.828c37.376-27.452,41.668-78.08,41.813-80.213c0.183-2.375-0.634-4.718-2.255-6.463
				S250.942,170.681,248.56,170.688z M53.079,246.404c-22.332-16.35-30.626-44.041-33.545-58.479
				c38.835,1.459,67.098,11.605,84.105,30.217c9.935,10.864,15.879,24.785,16.853,39.475
				C92.938,262.737,70.273,258.982,53.079,246.404z M190.858,494.946H67.432L37.847,384.013H220.46L190.858,494.946z
				 M231.553,315.746v51.2h-204.8v-51.2H231.553z M205.092,246.404c-17.203,12.595-39.868,16.35-67.413,11.213
				c0.982-14.579,6.844-28.403,16.64-39.245c16.973-18.773,45.312-29.013,84.318-30.447
				C235.718,202.364,227.415,230.054,205.092,246.404z"/>
			<path d="M385.025,42.679c-47.128,0-85.333,38.205-85.333,85.333s38.205,85.333,85.333,85.333s85.333-38.205,85.333-85.333
				C470.307,80.906,432.132,42.731,385.025,42.679z M385.025,196.279c-37.703,0-68.267-30.564-68.267-68.267
				s30.564-68.267,68.267-68.267s68.267,30.564,68.267,68.267C453.25,165.698,422.71,196.237,385.025,196.279z"/>
			<path d="M504.492,119.479h-8.533c-4.713,0-8.533,3.82-8.533,8.533s3.82,8.533,8.533,8.533h8.533c4.713,0,8.533-3.82,8.533-8.533
				S509.205,119.479,504.492,119.479z"/>
			<path d="M481.102,81.079c1.498,0.003,2.971-0.391,4.267-1.143l7.398-4.267c4.047-2.372,5.42-7.566,3.074-11.628
				s-7.53-5.47-11.608-3.151l-7.398,4.267c-3.345,1.931-4.975,5.868-3.975,9.598C473.86,78.485,477.24,81.079,481.102,81.079z"/>
			<path d="M440.483,40.518c3.062-0.007,5.886-1.654,7.399-4.316l4.267-7.381c2.318-4.078,0.911-9.262-3.151-11.608
				c-4.062-2.345-9.256-0.972-11.628,3.074l-4.267,7.381c-1.549,2.642-1.563,5.911-0.038,8.566
				C434.589,38.89,437.42,40.525,440.483,40.518z"/>
			<path d="M385.025,25.613c4.713,0,8.533-3.82,8.533-8.533V8.546c0-4.713-3.82-8.533-8.533-8.533s-8.533,3.82-8.533,8.533v8.533
				C376.492,21.792,380.313,25.613,385.025,25.613z"/>
			<path d="M322.169,36.203c1.513,2.662,4.337,4.309,7.399,4.316c3.062,0.007,5.893-1.628,7.418-4.283
				c1.525-2.655,1.511-5.924-0.038-8.566l-4.267-7.381c-2.356-4.081-7.575-5.479-11.657-3.123
				c-4.081,2.357-5.479,7.575-3.123,11.657L322.169,36.203z"/>
			<path d="M293.224,65.156l-7.398-4.267c-4.078-2.318-9.262-0.911-11.608,3.151c-2.345,4.062-0.972,9.256,3.074,11.628l7.398,4.267
				c1.296,0.752,2.768,1.147,4.267,1.143c3.862,0,7.243-2.594,8.242-6.325C298.199,71.024,296.568,67.087,293.224,65.156z"/>
			<path d="M282.625,128.013c0-4.713-3.821-8.533-8.533-8.533h-8.533c-4.713,0-8.533,3.82-8.533,8.533s3.82,8.533,8.533,8.533h8.533
				C278.805,136.546,282.625,132.726,282.625,128.013z"/>
			<path d="M284.69,176.09l-7.398,4.267c-2.662,1.513-4.309,4.337-4.316,7.399c-0.007,3.062,1.628,5.893,4.283,7.418
				c2.655,1.525,5.924,1.511,8.566-0.038l7.398-4.267c4.047-2.372,5.42-7.566,3.074-11.628
				C293.953,175.179,288.768,173.771,284.69,176.09z"/>
			<path d="M333.825,216.7c-4.081-2.356-9.3-0.958-11.656,3.123l-4.267,7.381c-1.549,2.642-1.563,5.911-0.038,8.566
				c1.525,2.655,4.356,4.29,7.418,4.283c3.062-0.007,5.886-1.654,7.399-4.316l4.267-7.381
				C339.305,224.275,337.907,219.056,333.825,216.7z"/>
			<path d="M385.025,230.413c-4.713,0-8.533,3.82-8.533,8.533v8.533c0,4.713,3.82,8.533,8.533,8.533s8.533-3.821,8.533-8.533v-8.533
				C393.559,234.233,389.738,230.413,385.025,230.413z"/>
			<path d="M447.882,219.823c-1.513-2.662-4.337-4.309-7.399-4.316c-3.062-0.007-5.893,1.628-7.418,4.283
				c-1.525,2.655-1.511,5.924,0.038,8.566l4.267,7.381c2.372,4.047,7.566,5.42,11.628,3.074c4.062-2.345,5.47-7.53,3.151-11.608
				L447.882,219.823z"/>
			<path d="M492.759,180.356l-7.398-4.267c-2.642-1.549-5.911-1.563-8.566-0.038s-4.29,4.356-4.283,7.418s1.654,5.886,4.316,7.399
				l7.398,4.267c1.296,0.752,2.768,1.147,4.267,1.143c3.862,0,7.243-2.594,8.242-6.325S496.103,182.287,492.759,180.356z"/>
		</g>
	</g>
</g>
<g>
</g>
<g>
</g>
<g>
</g>
<g>
</g>
<g>
</g>
<g>
</g>
<g>
</g>
<g>
</g>
<g>
</g>
<g>
</g>
<g>
</g>
<g>
</g>
<g>
</g>
<g>
</g>
<g>
</g>
</svg>
