<svg height="372.368pt" viewBox="0 0 372.368 372.368" width="372.368pt" xmlns="http://www.w3.org/2000/svg"><path d="m347.054688 196.367188c-17.003907-30.984376-55.910157-42.316407-86.894532-25.3125 30.984375-17.003907 42.316406-55.910157 25.3125-86.894532 17.007813 30.984375 55.910156 42.316406 86.894532 25.3125-30.984376 17.007813-42.316407 55.910156-25.3125 86.894532zm0 0"/><path d="m147.054688 372.367188c-17.003907-30.984376-55.910157-42.316407-86.894532-25.3125 30.984375-17.003907 42.316406-55.910157 25.3125-86.894532 17.007813 30.984375 55.910156 42.316406 86.894532 25.3125-30.984376 17.007813-42.316407 55.910156-25.3125 86.894532zm0 0"/><path d="m130.519531 168.527344c-25.546875-46.535156-83.980469-63.550782-130.519531-38.007813 46.535156-25.546875 63.554688-83.980469 38.007812-130.519531 25.546876 46.535156 83.980469 63.554688 130.519532 38.007812-46.535156 25.546876-63.550782 83.980469-38.007813 130.519532zm0 0"/></svg>