<svg height="447pt" viewBox="-6 0 447 447.81999" width="447pt" xmlns="http://www.w3.org/2000/svg"><path d="m335.449219 13.160156c40.042969 95.839844 18.230469 206.375-55.214844 279.824219-73.449219 73.449219-183.980469 95.261719-279.824219 55.222656 55.566406 77.046875 151.34375 114.066407 244.285156 94.425781 92.9375-19.640624 165.546876-92.253906 185.1875-185.191406 19.636719-92.941406-17.386718-188.71875-94.433593-244.28125zm0 0"/><path d="m171.242188 128c0-35.347656-28.652344-64-64-64 35.347656 0 64-28.652344 64-64 0 35.347656 28.652343 64 64 64-35.347657 0-64 28.652344-64 64zm0 0"/><path d="m83.242188 288c0-35.347656-28.652344-64-64-64 35.347656 0 64-28.652344 64-64 0 35.347656 28.652343 64 64 64-35.347657 0-64 28.652344-64 64zm0 0"/></svg>