<?xml version="1.0" encoding="iso-8859-1"?>
<!-- Generator: Adobe Illustrator 19.0.0, SVG Export Plug-In . SVG Version: 6.00 Build 0)  -->
<svg version="1.1" id="Capa_1" xmlns="http://www.w3.org/2000/svg" xmlns:xlink="http://www.w3.org/1999/xlink" x="0px" y="0px"
	 viewBox="0 0 512 512" style="enable-background:new 0 0 512 512;" xml:space="preserve">
<g>
	<g>
		<path d="M256,0C114.837,0,0,114.837,0,256s114.837,256,256,256s256-114.837,256-256S397.163,0,256,0z M117.333,234.667
			c-2.731,0-5.461-1.045-7.552-3.115c-4.16-4.16-4.16-10.923,0-15.083l35.136-35.136l-35.136-35.115
			c-4.16-4.16-4.16-10.923,0-15.083c4.16-4.16,10.923-4.16,15.083,0L160,166.251l35.115-35.115c4.16-4.16,10.923-4.16,15.083,0
			c4.16,4.16,4.16,10.923,0,15.083l-35.115,35.115l35.115,35.115c4.16,4.16,4.16,10.923,0,15.083
			c-2.069,2.091-4.8,3.136-7.531,3.136c-2.731,0-5.461-1.045-7.552-3.115L160,196.416l-35.115,35.115
			C122.795,233.621,120.064,234.667,117.333,234.667z M373.333,362.667H138.667c-5.888,0-10.667-4.779-10.667-10.667
			c0-5.888,4.779-10.667,10.667-10.667h234.667c5.888,0,10.667,4.779,10.667,10.667C384,357.888,379.221,362.667,373.333,362.667z
			 M402.219,231.531c-2.091,2.091-4.821,3.136-7.552,3.136s-5.461-1.045-7.552-3.115L352,196.416l-35.115,35.115
			c-2.091,2.091-4.821,3.136-7.552,3.136c-2.731,0-5.461-1.045-7.552-3.115c-4.16-4.16-4.16-10.923,0-15.083l35.136-35.136
			l-35.115-35.115c-4.16-4.16-4.16-10.923,0-15.083c4.16-4.16,10.923-4.16,15.083,0L352,166.251l35.115-35.115
			c4.16-4.16,10.923-4.16,15.083,0c4.16,4.16,4.16,10.923,0,15.083l-35.115,35.115l35.136,35.115
			C406.379,220.608,406.379,227.371,402.219,231.531z"/>
	</g>
</g>
<g>
</g>
<g>
</g>
<g>
</g>
<g>
</g>
<g>
</g>
<g>
</g>
<g>
</g>
<g>
</g>
<g>
</g>
<g>
</g>
<g>
</g>
<g>
</g>
<g>
</g>
<g>
</g>
<g>
</g>
</svg>
