<svg height="512pt" viewBox="0 -34 512.03735 512" width="512pt" xmlns="http://www.w3.org/2000/svg"><path d="m446.769531 20.511719c-29.351562-18.84375-65.070312-25.03125-99.046875-17.148438-40.683594 9.574219-74.582031 37.550781-91.699218 75.679688-17.117188-38.128907-51.023438-66.109375-91.707032-75.679688-33.984375-7.867187-69.703125-1.664062-99.039062 17.203125-31.15625 19.902344-52.953125 51.554688-60.433594 87.765625-29.335938 136.898438 79.597656 247.542969 191.328125 305.484375l55.925781 29.011719c2.460938 1.273437 5.390625 1.273437 7.851563 0l55.925781-29.011719c111.71875-57.917968 220.65625-168.585937 191.316406-305.496094-7.464844-36.222656-29.257812-67.890624-60.421875-87.808593zm-138.753906 378.15625-51.992187 26.957031-51.992188-26.957031c-106.148438-55.023438-209.820312-159.25-182.496094-286.761719 6.535156-31.734375 25.613282-59.480469 52.90625-76.9375 25.484375-16.414062 56.523438-21.816406 86.050782-14.976562 42.964843 10.3125 76.613281 43.683593 87.277343 86.5625.988281 3.75 4.378907 6.359374 8.253907 6.359374s7.265624-2.609374 8.25-6.359374c10.671874-42.890626 44.339843-76.265626 87.324218-86.5625 29.511719-6.820313 60.53125-1.425782 86.007813 14.960937 27.296875 17.460937 46.375 45.214844 52.90625 76.953125 27.324219 127.511719-76.359375 231.738281-182.496094 286.761719zm0 0"/><path d="m152.847656 53.257812c4.5625.984376 9.070313-1.878906 10.117188-6.429687s-1.757813-9.097656-6.296875-10.203125c-7.035157-1.625-14.238281-2.449219-21.460938-2.457031-47.375 1.066406-87.671875 34.855469-96.980469 81.320312-.988281 4.609375 1.949219 9.148438 6.558594 10.132813 4.609375.988281 9.144532-1.945313 10.132813-6.554688 7.589843-38.617187 40.949219-66.800781 80.289062-67.832031 5.9375.007813 11.855469.6875 17.640625 2.023437zm0 0"/><path d="m130.523438 232.933594-8.535157 8.535156c-2.214843 2.140625-3.105469 5.3125-2.324219 8.296875s3.109376 5.3125 6.09375 6.09375c2.984376.78125 6.15625-.109375 8.296876-2.324219l8.535156-8.535156c3.234375-3.347656 3.1875-8.671875-.105469-11.960938-3.289063-3.292968-8.613281-3.339843-11.960937-.105468zm0 0"/><path d="m164.65625 232.933594-8.53125 8.535156c-2.21875 2.140625-3.109375 5.3125-2.328125 8.296875s3.109375 5.3125 6.09375 6.09375 6.15625-.109375 8.296875-2.324219l8.535156-8.535156c3.234375-3.347656 3.1875-8.671875-.105468-11.960938-3.289063-3.292968-8.613282-3.339843-11.960938-.105468zm0 0"/><path d="m381.523438 232.933594c-3.347657-3.234375-8.671876-3.1875-11.964844.105468-3.289063 3.289063-3.335938 8.613282-.101563 11.960938l8.53125 8.535156c3.351563 3.230469 8.671875 3.1875 11.964844-.105468 3.289063-3.292969 3.335937-8.613282.101563-11.960938zm0 0"/><path d="m347.390625 232.933594c-3.347656-3.234375-8.671875-3.1875-11.964844.105468-3.289062 3.289063-3.335937 8.613282-.101562 11.960938l8.53125 8.535156c3.347656 3.230469 8.671875 3.1875 11.964843-.105468 3.289063-3.292969 3.335938-8.613282.101563-11.960938zm0 0"/><path d="m51.222656 153.632812c0 4.714844-3.820312 8.535157-8.53125 8.535157-4.714844 0-8.535156-3.820313-8.535156-8.535157 0-4.710937 3.820312-8.53125 8.535156-8.53125 4.710938 0 8.53125 3.820313 8.53125 8.53125zm0 0"/><path d="m179.386719 110.96875c-23.597657.15625-42.613281 19.382812-42.515625 42.980469 0 14.136719 11.460937 25.601562 25.601562 25.601562 14.136719 0 25.597656-11.464843 25.597656-25.601562 0-4.710938-3.820312-8.535157-8.53125-8.535157-4.714843 0-8.535156 3.824219-8.535156 8.535157 0 4.714843-3.820312 8.535156-8.53125 8.535156-4.714844 0-8.535156-3.820313-8.535156-8.535156-.167969-9.199219 4.644531-17.773438 12.585938-22.425781 7.941406-4.648438 17.773437-4.648438 25.714843 0 7.941407 4.652343 12.753907 13.226562 12.585938 22.425781-.332031 23.242187-19.265625 41.910156-42.511719 41.910156-23.242188 0-42.179688-18.667969-42.507812-41.910156 0-4.710938-3.820313-8.535157-8.53125-8.535157-4.714844 0-8.535157 3.824219-8.535157 8.535157.390625 32.625 26.949219 58.867187 59.574219 58.867187 32.628906 0 59.1875-26.242187 59.578125-58.867187.097656-23.59375-18.914063-42.816407-42.503906-42.980469zm0 0"/><path d="m366.792969 110.96875c-23.589844.164062-42.601563 19.386719-42.503907 42.980469 0 14.136719 11.460938 25.601562 25.601563 25.601562 14.136719 0 25.597656-11.464843 25.597656-25.601562 0-4.710938-3.820312-8.535157-8.53125-8.535157-4.714843 0-8.535156 3.824219-8.535156 8.535157 0 4.714843-3.820313 8.535156-8.53125 8.535156-4.714844 0-8.535156-3.820313-8.535156-8.535156-.167969-9.199219 4.644531-17.773438 12.585937-22.425781 7.941406-4.648438 17.773438-4.648438 25.714844 0 7.941406 4.652343 12.753906 13.226562 12.585938 22.425781-.332032 23.242187-19.265626 41.910156-42.511719 41.910156-23.242188 0-42.179688-18.667969-42.507813-41.910156 0-4.710938-3.820312-8.535157-8.53125-8.535157-4.714844 0-8.535156 3.824219-8.535156 8.535157.390625 32.625 26.949219 58.867187 59.574219 58.867187 32.628906 0 59.1875-26.242187 59.578125-58.867187.097656-23.597657-18.917969-42.824219-42.515625-42.980469zm0 0"/><path d="m256.023438 221.898438c-50.613282 0-51.199219 33.792968-51.199219 34.136718.011719 4.609375 3.722656 8.359375 8.335937 8.421875 4.636719.011719 8.472656-3.605469 8.730469-8.234375.085937-1.769531 1.765625-17.253906 34.132813-17.253906 32.367187 0 34.046874 15.484375 34.132812 17.066406 0 4.710938 3.820312 8.53125 8.535156 8.53125 4.710938 0 8.53125-3.820312 8.53125-8.53125 0-.34375-.589844-34.136718-51.199218-34.136718zm0 0"/></svg>