<?xml version="1.0" encoding="iso-8859-1"?>
<!-- Generator: Adobe Illustrator 19.0.0, SVG Export Plug-In . SVG Version: 6.00 Build 0)  -->
<svg version="1.1" id="Capa_1" xmlns="http://www.w3.org/2000/svg" xmlns:xlink="http://www.w3.org/1999/xlink" x="0px" y="0px"
	 viewBox="0 0 512.002 512.002" style="enable-background:new 0 0 512.002 512.002;" xml:space="preserve">
<g>
	<g>
		<g>
			<path d="M256.001,0.002c-26.048,0-52.523,4.309-78.656,12.821c-4.565,1.493-7.573,5.867-7.36,10.667
				c0.533,10.965,4.907,20.843,12.629,28.565c11.115,11.115,24.107,12.779,30.848,12.779c2.453,0,4.117-0.213,5.333-0.405
				c17.344-3.563,33.707,8.149,37.12,25.195c1.515,7.552,0.021,15.531-4.16,22.443c-2.005,3.307-2.069,7.445-0.128,10.816
				c2.752,4.821,5.653,12.565,3.755,22.08c-2.987,14.912-16.107,25.749-31.232,25.749c-2.112,0-4.245-0.213-7.915-0.832
				c-0.256-0.021-2.368-0.085-2.624-0.085c-6.763,0-19.755,1.664-30.976,12.864c-14.933,14.955-12.779,33.515-12.395,36.181
				c3.456,17.301-7.595,33.6-25.216,37.12c-0.083,0.016-0.165,0.027-0.248,0.043h36.558c5.888,0,10.667,4.779,10.667,10.667
				s-4.779,10.667-10.667,10.667h-42.667c-5.888,0-10.667-4.779-10.667-10.667c0-4.922,3.343-9.057,7.878-10.285
				c-4.609-0.468-9.093-1.967-13.233-4.456c-3.307-1.984-7.424-2.027-10.795-0.107c-6.656,3.84-14.251,5.205-22.144,3.605
				c-16.917-3.392-28.245-19.968-25.152-37.44c0.427-3.371,1.856-20.885-12.523-35.307c-7.723-7.787-17.6-12.139-28.587-12.651
				c-4.544-0.256-9.152,2.795-10.645,7.36c-8.491,26.133-12.8,52.565-12.8,78.613c0,141.163,114.837,256,256,256
				s256-114.837,256-256S397.164,0.002,256.001,0.002z M309.334,384.002H202.668c-5.888,0-10.667-4.779-10.667-10.667
				c0-5.888,4.779-10.667,10.667-10.667h106.667c5.888,0,10.667,4.779,10.667,10.667
				C320.001,379.224,315.222,384.002,309.334,384.002z M373.335,277.336h-42.667c-5.888,0-10.667-4.779-10.667-10.667
				s4.779-10.667,10.667-10.667h42.667c5.888,0,10.667,4.779,10.667,10.667S379.222,277.336,373.335,277.336z"/>
			<path d="M144.777,256.002h-6.109c-0.966,0-1.898,0.14-2.789,0.382C138.813,256.682,141.797,256.561,144.777,256.002z"/>
		</g>
	</g>
</g>
<g>
	<g>
		<path d="M106.454,8.578c-1.152-5.76-6.699-9.493-12.48-8.341c-5.781,1.109-9.536,6.699-8.448,12.459
			c0.235,1.237,5.44,30.592-18.411,54.443C43.265,90.989,13.932,85.784,12.758,85.549c-5.76-1.173-11.392,2.56-12.544,8.363
			c-1.152,5.781,2.581,11.392,8.363,12.544c0.555,0.107,5.248,1.003,12.416,1.003c14.635,0,39.659-3.691,61.205-25.237
			C114.326,50.093,106.796,10.264,106.454,8.578z"/>
	</g>
</g>
<g>
	<g>
		<path d="M234.433,93.997c-1.109-5.781-6.699-9.536-12.459-8.448c-1.237,0.256-30.571,5.44-54.421-18.411
			c-23.851-23.851-18.645-53.205-18.411-54.443c1.109-5.739-2.624-11.328-8.384-12.48c-5.803-1.173-11.392,2.56-12.544,8.363
			c-0.341,1.685-7.872,41.515,24.235,73.621c21.568,21.568,46.592,25.259,61.227,25.259c7.189,0,11.861-0.875,12.416-0.981
			C231.83,105.346,235.564,99.757,234.433,93.997z"/>
	</g>
</g>
<g>
	<g>
		<path d="M226.113,128.216c-1.664-0.341-41.536-7.872-73.643,24.256c-32.128,32.107-24.597,71.957-24.256,73.643
			c1.024,5.056,5.461,8.533,10.432,8.533c0.661,0,1.365-0.064,2.069-0.235c5.781-1.109,9.536-6.699,8.448-12.459
			c-0.235-1.237-5.44-30.571,18.411-54.421c23.851-23.829,53.205-18.645,54.357-18.411c5.739,1.152,11.392-2.581,12.544-8.363
			S231.894,129.368,226.113,128.216z"/>
	</g>
</g>
<g>
	<g>
		<path d="M82.22,152.472c-32.128-32.128-71.957-24.597-73.643-24.256c-5.739,1.131-9.472,6.72-8.341,12.48
			c1.131,5.781,6.763,9.6,12.459,8.448c1.28-0.213,30.571-5.44,54.421,18.411c23.851,23.829,18.645,53.184,18.411,54.421
			c-1.109,5.739,2.624,11.328,8.384,12.48c0.725,0.149,1.408,0.213,2.112,0.213c4.971,0,9.429-3.499,10.453-8.555
			C106.796,224.429,114.326,184.578,82.22,152.472z"/>
	</g>
</g>
<g>
</g>
<g>
</g>
<g>
</g>
<g>
</g>
<g>
</g>
<g>
</g>
<g>
</g>
<g>
</g>
<g>
</g>
<g>
</g>
<g>
</g>
<g>
</g>
<g>
</g>
<g>
</g>
<g>
</g>
</svg>
