<?xml version="1.0" encoding="iso-8859-1"?>
<!-- Generator: Adobe Illustrator 19.0.0, SVG Export Plug-In . SVG Version: 6.00 Build 0)  -->
<svg version="1.1" id="Capa_1" xmlns="http://www.w3.org/2000/svg" xmlns:xlink="http://www.w3.org/1999/xlink" x="0px" y="0px"
	 viewBox="0 0 512 512" style="enable-background:new 0 0 512 512;" xml:space="preserve">
<g>
	<g>
		<path d="M489.259,150.912c-2.197-4.821-7.488-6.805-12.587-5.312c-5.077,1.451-8.277,6.976-7.573,12.224
			c0.107,0.725,0.235,1.429,0.235,2.176c0,17.643-14.357,32-32,32h-42.667c5.888,0,10.667,4.779,10.667,10.667
			C405.333,232.064,381.419,256,352,256c-29.419,0-53.333-23.936-53.333-53.333c0-5.888,4.779-10.667,10.667-10.667
			S320,196.779,320,202.667c0,17.643,14.357,32,32,32c17.643,0,32-14.357,32-32c0-5.888,4.779-10.667,10.667-10.667H352
			c-12.224,0-23.552-7.125-28.864-18.155c-5.291-11.008-3.776-24.299,3.883-33.835l29.973-37.461
			c2.453-3.093,3.029-7.275,1.451-10.901c-1.579-3.627-5.013-6.101-8.96-6.4C332.949,83.968,320,69.931,320,53.333
			c0-9.365,4.267-18.304,11.691-24.491c3.051-2.517,4.437-6.507,3.627-10.368c-0.789-3.861-3.669-6.976-7.467-8.064
			C304.213,3.499,280.021,0,256,0C114.837,0,0,114.837,0,256s114.837,256,256,256s256-114.837,256-256
			C512,219.712,504.341,184.363,489.259,150.912z M106.667,202.667c0-5.888,4.779-10.667,10.667-10.667S128,196.779,128,202.667
			c0,17.643,14.357,32,32,32s32-14.357,32-32c0-5.888,4.779-10.667,10.667-10.667s10.667,4.779,10.667,10.667
			C213.333,232.064,189.419,256,160,256S106.667,232.064,106.667,202.667z M309.333,384H202.667
			c-5.888,0-10.667-4.779-10.667-10.667c0-5.888,4.779-10.667,10.667-10.667h106.667c5.888,0,10.667,4.779,10.667,10.667
			C320,379.221,315.221,384,309.333,384z"/>
	</g>
</g>
<g>
	<g>
		<path d="M501.333,64h-22.741l31.616-47.424c2.176-3.264,2.389-7.467,0.512-10.944C508.885,2.176,505.28,0,501.333,0h-42.667
			C452.779,0,448,4.779,448,10.667s4.779,10.667,10.667,10.667h22.72l-31.595,47.424c-2.176,3.264-2.389,7.467-0.512,10.944
			c1.835,3.456,5.44,5.632,9.387,5.632h42.667c5.888,0,10.667-4.779,10.667-10.667S507.221,64,501.333,64z"/>
	</g>
</g>
<g>
	<g>
		<path d="M437.333,149.333h-63.147l71.467-89.344c2.581-3.2,3.072-7.595,1.28-11.285c-1.771-3.691-5.504-6.037-9.6-6.037H352
			c-5.888,0-10.667,4.779-10.667,10.667S346.112,64,352,64h63.147l-71.467,89.344c-2.581,3.2-3.072,7.595-1.28,11.285
			c1.771,3.691,5.504,6.037,9.6,6.037h85.333c5.888,0,10.667-4.779,10.667-10.667S443.221,149.333,437.333,149.333z"/>
	</g>
</g>
<g>
</g>
<g>
</g>
<g>
</g>
<g>
</g>
<g>
</g>
<g>
</g>
<g>
</g>
<g>
</g>
<g>
</g>
<g>
</g>
<g>
</g>
<g>
</g>
<g>
</g>
<g>
</g>
<g>
</g>
</svg>
