<?xml version="1.0" encoding="iso-8859-1"?>
<!-- Generator: Adobe Illustrator 19.0.0, SVG Export Plug-In . SVG Version: 6.00 Build 0)  -->
<svg version="1.1" id="Capa_1" xmlns="http://www.w3.org/2000/svg" xmlns:xlink="http://www.w3.org/1999/xlink" x="0px" y="0px"
	 viewBox="0 0 512 512" style="enable-background:new 0 0 512 512;" xml:space="preserve">
<g>
	<g>
		<path d="M256,0C114.837,0,0,114.837,0,256s114.837,256,256,256s256-114.837,256-256S397.163,0,256,0z M181.333,192h-64
			c-5.888,0-10.667-4.779-10.667-10.667s4.779-10.667,10.667-10.667h64c5.888,0,10.667,4.779,10.667,10.667S187.221,192,181.333,192
			z M341.333,416.213c-0.064,3.584-1.941,6.891-4.971,8.811c-1.728,1.088-3.712,1.643-5.696,1.643c-1.493,0-3.008-0.32-4.395-0.939
			c-17.408-7.893-48.981-20.395-59.605-20.395c-5.888,0-10.667-4.779-10.667-10.667S260.779,384,266.667,384
			c12.352,0,35.499,8.469,51.733,15.125c-1.173-5.717-3.051-10.944-5.675-13.632c-1.216-1.237-2.24-1.493-3.392-1.493
			c-5.888,0-10.667-4.779-10.667-10.667c0-5.888,4.779-10.667,10.667-10.667c1.152,0,2.176-0.256,3.392-1.493
			c2.645-2.688,4.501-7.915,5.675-13.632c-16.235,6.656-39.381,15.125-51.733,15.125c-5.888,0-10.667-4.779-10.667-10.667
			c0-5.888,4.779-10.667,10.667-10.667c10.069,0,40.896-11.925,59.605-20.395c3.243-1.472,7.061-1.216,10.091,0.704
			c3.029,1.92,4.907,5.227,4.971,8.811c0.064,3.008,0.235,28.288-10.965,42.88C341.568,387.925,341.397,413.205,341.333,416.213z
			 M394.667,192h-64c-5.888,0-10.667-4.779-10.667-10.667s4.779-10.667,10.667-10.667h64c5.888,0,10.667,4.779,10.667,10.667
			S400.555,192,394.667,192z"/>
	</g>
</g>
<g>
</g>
<g>
</g>
<g>
</g>
<g>
</g>
<g>
</g>
<g>
</g>
<g>
</g>
<g>
</g>
<g>
</g>
<g>
</g>
<g>
</g>
<g>
</g>
<g>
</g>
<g>
</g>
<g>
</g>
</svg>
