<?xml version="1.0" encoding="iso-8859-1"?>
<!-- Generator: Adobe Illustrator 19.0.0, SVG Export Plug-In . SVG Version: 6.00 Build 0)  -->
<svg version="1.1" id="Capa_1" xmlns="http://www.w3.org/2000/svg" xmlns:xlink="http://www.w3.org/1999/xlink" x="0px" y="0px"
	 viewBox="0 0 512 512" style="enable-background:new 0 0 512 512;" xml:space="preserve">
<g>
	<g>
		<path d="M256,0C114.837,0,0,114.837,0,256s114.837,256,256,256s256-114.837,256-256S397.163,0,256,0z M352,149.333
			c17.643,0,32,14.357,32,32c0,17.643-14.357,32-32,32c-17.643,0-32-14.357-32-32C320,163.691,334.357,149.333,352,149.333z
			 M160,149.333c17.643,0,32,14.357,32,32c0,17.643-14.357,32-32,32s-32-14.357-32-32C128,163.691,142.357,149.333,160,149.333z
			 M375.232,341.163l-234.667,42.667c-0.64,0.128-1.28,0.171-1.899,0.171c-5.056,0-9.557-3.605-10.475-8.768
			c-1.067-5.781,2.773-11.349,8.576-12.395l234.667-42.667c5.76-1.088,11.349,2.773,12.395,8.576
			C384.896,334.549,381.035,340.096,375.232,341.163z"/>
	</g>
</g>
<g>
</g>
<g>
</g>
<g>
</g>
<g>
</g>
<g>
</g>
<g>
</g>
<g>
</g>
<g>
</g>
<g>
</g>
<g>
</g>
<g>
</g>
<g>
</g>
<g>
</g>
<g>
</g>
<g>
</g>
</svg>
