<svg height="512pt" viewBox="0 -34 512.03991 512" width="512pt" xmlns="http://www.w3.org/2000/svg"><path d="m446.761719 20.515625c-29.347657-18.847656-65.066407-25.03125-99.039063-17.152344-40.6875 9.566407-74.589844 37.546875-91.699218 75.679688-17.113282-38.132813-51.019532-66.113281-91.707032-75.679688-33.984375-7.855469-69.699218-1.648437-99.039062 17.210938-31.160156 19.902343-52.953125 51.550781-60.433594 87.757812-29.335938 136.90625 79.597656 247.542969 191.328125 305.484375l55.925781 29.011719c2.460938 1.277344 5.390625 1.277344 7.851563 0l55.925781-29.011719c111.726562-57.917968 220.664062-168.578125 191.316406-305.496094-7.464844-36.226562-29.261718-67.894531-60.429687-87.804687zm-138.746094 378.152344-51.992187 26.957031-51.992188-26.957031c-106.148438-55.015625-209.820312-159.238281-182.496094-286.753907 6.53125-31.734374 25.613282-59.484374 52.90625-76.945312 25.484375-16.414062 56.523438-21.8125 86.050782-14.976562 42.964843 10.304687 76.617187 43.679687 87.277343 86.554687.988281 3.746094 4.378907 6.359375 8.253907 6.359375s7.265624-2.613281 8.25-6.359375c10.671874-42.886719 44.34375-76.261719 87.324218-86.554687 29.507813-6.835938 60.527344-1.441407 85.996094 14.953124 27.300781 17.464844 46.382812 45.222657 52.90625 76.96875 27.335938 127.515626-76.335938 231.738282-182.484375 286.753907zm0 0"/><path d="m152.847656 53.257812c4.5625.984376 9.070313-1.878906 10.117188-6.429687s-1.757813-9.097656-6.296875-10.203125c-7.039063-1.625-14.238281-2.449219-21.460938-2.457031-47.375 1.066406-87.667969 34.851562-96.980469 81.3125-.988281 4.609375 1.945313 9.148437 6.554688 10.136719 4.609375.992187 9.148438-1.941407 10.136719-6.550782 7.589843-38.613281 40.949219-66.796875 80.289062-67.832031 5.9375.007813 11.855469.6875 17.640625 2.023437zm0 0"/><path d="m130.523438 232.933594-8.535157 8.535156c-2.214843 2.140625-3.105469 5.3125-2.324219 8.296875s3.109376 5.3125 6.09375 6.09375c2.984376.78125 6.15625-.105469 8.296876-2.324219l8.535156-8.535156c3.234375-3.347656 3.1875-8.671875-.105469-11.960938-3.289063-3.292968-8.613281-3.339843-11.960937-.105468zm0 0"/><path d="m164.65625 232.933594-8.53125 8.535156c-2.21875 2.140625-3.109375 5.3125-2.328125 8.296875s3.109375 5.3125 6.09375 6.09375 6.15625-.105469 8.296875-2.324219l8.535156-8.535156c3.234375-3.347656 3.1875-8.671875-.105468-11.960938-3.289063-3.292968-8.613282-3.339843-11.960938-.105468zm0 0"/><path d="m381.523438 232.933594c-3.347657-3.234375-8.671876-3.1875-11.964844.105468-3.289063 3.289063-3.335938 8.613282-.101563 11.960938l8.53125 8.535156c3.351563 3.234375 8.671875 3.1875 11.964844-.105468 3.289063-3.292969 3.335937-8.613282.101563-11.960938zm0 0"/><path d="m347.390625 232.933594c-3.347656-3.234375-8.671875-3.1875-11.964844.105468-3.289062 3.289063-3.335937 8.613282-.101562 11.960938l8.53125 8.535156c3.347656 3.234375 8.671875 3.1875 11.964843-.105468 3.289063-3.292969 3.335938-8.613282.101563-11.960938zm0 0"/><path d="m51.222656 153.632812c0 4.714844-3.820312 8.535157-8.53125 8.535157-4.714844 0-8.535156-3.820313-8.535156-8.535157 0-4.710937 3.820312-8.53125 8.535156-8.53125 4.710938 0 8.53125 3.820313 8.53125 8.53125zm0 0"/><path d="m207.460938 192.160156.050781-.101562c.128906-.230469.296875-.433594.425781-.664063.082031-.210937.15625-.429687.214844-.648437.414062-.898438.671875-1.859375.757812-2.84375 0-.210938.09375-.425782.09375-.648438-.039062-.21875-.09375-.441406-.160156-.65625-.0625-.878906-.265625-1.746094-.609375-2.558594-.117187-.339843-.257813-.671874-.425781-.992187-.59375-1.105469-1.425782-2.0625-2.441406-2.804687l-55.550782-38.914063c-.90625-.625-1.921875-1.066406-2.996094-1.304687-.414062-.058594-.832031-.085938-1.253906-.078126-.632812-.066406-1.269531-.066406-1.902344 0-.449218.101563-.886718.242188-1.3125.417969-.578124.152344-1.132812.363281-1.664062.632813-.398438.273437-.777344.574218-1.128906.90625-.398438.261718-.769532.5625-1.117188.894531-.144531.160156-.238281.359375-.382812.527344-.144532.171875-.09375.078125-.128906.128906-.03125.058594-.0625.117187-.085938.179687-10.25 12.359376-12.671875 29.429688-6.273438 44.15625 6.402344 14.722657 20.546876 24.589844 36.574219 25.523438 16.027344.929688 31.214844-7.234375 39.28125-21.117188zm-62.371094-21.460937c-.011719-3.546875.730468-7.054688 2.167968-10.296875l41.085938 28.78125c-7.40625 7.054687-18.304688 9.023437-27.714844 5.003906-9.40625-4.019531-15.515625-13.257812-15.539062-23.488281zm0 0"/><path d="m298.886719 222.019531c-4.660157-.082031-8.535157 3.570313-8.730469 8.226563-.085938 1.765625-1.765625 17.253906-34.132812 17.253906-32.214844 0-34.03125-15.359375-34.132813-17.226562-.046875-4.714844-3.902344-8.5-8.617187-8.453126-4.710938.042969-8.496094 3.902344-8.449219 8.613282 0 .339844.585937 34.132812 51.199219 34.132812 50.609374 0 51.199218-33.792968 51.199218-34.132812-.007812-4.613282-3.722656-8.363282-8.335937-8.414063zm0 0"/><path d="m375.054688 207.53125c1.484374-4.46875-.933594-9.296875-5.402344-10.785156l-31.660156-10.566406 32.777343-16.332032c2.730469-1.363281 4.523438-4.078125 4.707031-7.121094.183594-3.046874-1.269531-5.957031-3.8125-7.636718-2.546874-1.683594-5.792968-1.878906-8.523437-.515625l-51.199219 25.597656c-3.085937 1.542969-4.9375 4.796875-4.695312 8.238281.246094 3.441406 2.539062 6.398438 5.8125 7.488282l51.199218 17.066406c4.472657 1.492187 9.304688-.921875 10.796876-5.390625zm0 0"/></svg>