<svg height="512pt" viewBox="0 -34 512.03991 512" width="512pt" xmlns="http://www.w3.org/2000/svg"><path d="m446.761719 20.515625c-29.347657-18.847656-65.066407-25.03125-99.039063-17.152344-40.6875 9.566407-74.589844 37.546875-91.699218 75.679688-17.113282-38.132813-51.019532-66.113281-91.707032-75.679688-33.984375-7.855469-69.699218-1.648437-99.039062 17.210938-31.160156 19.902343-52.953125 51.550781-60.433594 87.757812-29.335938 136.90625 79.597656 247.542969 191.328125 305.484375l55.925781 29.011719c2.460938 1.277344 5.390625 1.277344 7.851563 0l55.925781-29.011719c111.726562-57.917968 220.664062-168.578125 191.316406-305.496094-7.464844-36.226562-29.261718-67.894531-60.429687-87.804687zm-138.746094 378.152344-51.992187 26.957031-51.992188-26.957031c-106.148438-55.015625-209.820312-159.238281-182.496094-286.753907 6.53125-31.734374 25.613282-59.484374 52.90625-76.945312 25.484375-16.414062 56.523438-21.8125 86.050782-14.976562 42.964843 10.304687 76.617187 43.679687 87.277343 86.554687.988281 3.746094 4.378907 6.359375 8.253907 6.359375s7.265624-2.613281 8.25-6.359375c10.671874-42.886719 44.34375-76.261719 87.324218-86.554687 29.507813-6.835938 60.527344-1.441407 85.996094 14.953124 27.300781 17.464844 46.382812 45.222657 52.90625 76.96875 27.335938 127.515626-76.335938 231.738282-182.484375 286.753907zm0 0"/><path d="m152.847656 53.257812c4.5625.984376 9.070313-1.878906 10.117188-6.429687s-1.757813-9.097656-6.296875-10.203125c-7.039063-1.625-14.238281-2.449219-21.460938-2.457031-47.375 1.066406-87.667969 34.851562-96.980469 81.3125-.988281 4.609375 1.945313 9.148437 6.554688 10.136719 4.609375.992187 9.148438-1.941407 10.136719-6.550782 7.589843-38.613281 40.949219-66.796875 80.289062-67.832031 5.9375.007813 11.855469.6875 17.640625 2.023437zm0 0"/><path d="m130.523438 232.933594-8.535157 8.535156c-2.214843 2.140625-3.105469 5.3125-2.324219 8.296875s3.109376 5.3125 6.09375 6.09375c2.984376.78125 6.15625-.105469 8.296876-2.324219l8.535156-8.535156c3.234375-3.347656 3.1875-8.671875-.105469-11.960938-3.289063-3.292968-8.613281-3.339843-11.960937-.105468zm0 0"/><path d="m164.65625 232.933594-8.53125 8.535156c-2.21875 2.140625-3.109375 5.3125-2.328125 8.296875s3.109375 5.3125 6.09375 6.09375 6.15625-.105469 8.296875-2.324219l8.535156-8.535156c3.234375-3.347656 3.1875-8.671875-.105468-11.960938-3.289063-3.292968-8.613282-3.339843-11.960938-.105468zm0 0"/><path d="m381.523438 232.933594c-3.347657-3.234375-8.671876-3.1875-11.964844.105468-3.289063 3.289063-3.335938 8.613282-.101563 11.960938l8.53125 8.535156c3.351563 3.234375 8.671875 3.1875 11.964844-.105468 3.289063-3.292969 3.335937-8.613282.101563-11.960938zm0 0"/><path d="m347.390625 232.933594c-3.347656-3.234375-8.671875-3.1875-11.964844.105468-3.289062 3.289063-3.335937 8.613282-.101562 11.960938l8.53125 8.535156c3.347656 3.234375 8.671875 3.1875 11.964843-.105468 3.289063-3.292969 3.335938-8.613282.101563-11.960938zm0 0"/><path d="m51.222656 153.632812c0 4.714844-3.820312 8.535157-8.53125 8.535157-4.714844 0-8.535156-3.820313-8.535156-8.535157 0-4.710937 3.820312-8.53125 8.535156-8.53125 4.710938 0 8.53125 3.820313 8.53125 8.53125zm0 0"/><path d="m207.460938 192.160156.050781-.101562c.128906-.230469.296875-.433594.425781-.664063.082031-.210937.15625-.429687.214844-.648437.414062-.898438.671875-1.859375.757812-2.84375 0-.210938.09375-.425782.09375-.648438-.039062-.21875-.09375-.441406-.160156-.65625-.0625-.878906-.265625-1.746094-.609375-2.558594-.117187-.339843-.257813-.671874-.425781-.992187-.59375-1.105469-1.425782-2.0625-2.441406-2.804687l-55.550782-38.914063c-.90625-.625-1.921875-1.066406-2.996094-1.304687-.414062-.058594-.832031-.085938-1.253906-.078126-.632812-.066406-1.273437-.066406-1.910156 0-.4375.105469-.863281.242188-1.28125.410157-.589844.152343-1.164062.367187-1.707031.648437-.390625.253906-.761719.539063-1.109375.855469-.402344.265625-.777344.570313-1.125.902344-.144532.164062-.238282.359375-.382813.53125-.144531.167969-.09375.074219-.128906.125-.035156.058593-.0625.117187-.085937.179687-10.25 12.359375-12.675782 29.433594-6.273438 44.15625s20.542969 24.59375 36.574219 25.523438c16.027343.933594 31.214843-7.234375 39.28125-21.117188zm-62.371094-21.460937c-.011719-3.546875.730468-7.054688 2.167968-10.296875l41.085938 28.78125c-7.40625 7.054687-18.304688 9.023437-27.714844 5.003906-9.40625-4.019531-15.515625-13.257812-15.539062-23.488281zm0 0"/><path d="m384.023438 170.699219c-.050782-9.886719-3.519532-19.453125-9.824219-27.074219-.019531-.0625-.050781-.121094-.082031-.179688 0-.050781-.09375-.078124-.128907-.128906-.035156-.050781-.238281-.367187-.382812-.527344-.347657-.335937-.726563-.640624-1.128907-.90625-.34375-.316406-.714843-.601562-1.109374-.851562-.972657-.417969-1.96875-.769531-2.984376-1.058594-.601562-.058594-1.210937-.058594-1.808593 0-.457031-.007812-.910157.015625-1.359375.078125-1.070313.238281-2.082032.679688-2.984375 1.304688l-55.554688 38.910156c-1.011719.742187-1.84375 1.703125-2.441406 2.808594-.164063.320312-.308594.648437-.425781.988281-.339844.816406-.542969 1.679688-.605469 2.5625-.066406.214844-.121094.433594-.160156.65625 0 .222656.074219.433594.09375.648438.085937.984374.34375 1.945312.757812 2.839843.058594.222657.128907.4375.214844.648438.125.230469.296875.4375.425781.667969l.050782.101562c9.671874 16.6875 29.351562 24.789062 47.96875 19.753906 18.617187-5.035156 31.527343-21.953125 31.46875-41.242187zm-42.667969 25.601562c-6.582031-.003906-12.910157-2.554687-17.65625-7.117187l41.089843-28.78125c1.4375 3.242187 2.175782 6.75 2.167969 10.296875 0 6.789062-2.699219 13.300781-7.5 18.101562-4.800781 4.804688-11.3125 7.5-18.101562 7.5zm0 0"/><path d="m302.71875 214.375c-2.777344-1.484375-6.144531-1.320312-8.765625.425781l-19.78125 13.183594-12.117187-12.117187c-3.332032-3.332032-8.734376-3.332032-12.066407 0l-12.117187 12.117187-19.777344-13.183594c-2.621094-1.746093-5.988281-1.910156-8.761719-.425781-2.777343 1.484375-4.507812 4.378906-4.507812 7.527344v59.730468c0 9.425782 7.640625 17.066407 17.066406 17.066407h68.265625c9.425781 0 17.066406-7.640625 17.066406-17.066407v-59.730468c0-3.148438-1.730468-6.042969-4.503906-7.527344zm-12.5625 67.257812h-68.265625v-43.792968l12.328125 8.226562c3.386719 2.257813 7.894531 1.8125 10.769531-1.066406l11.035157-11.03125 11.03125 11.03125c2.878906 2.878906 7.386718 3.324219 10.769531 1.066406l12.332031-8.226562zm0 0"/></svg>