<?xml version="1.0" encoding="iso-8859-1"?>
<!-- Generator: Adobe Illustrator 19.0.0, SVG Export Plug-In . SVG Version: 6.00 Build 0)  -->
<svg version="1.1" id="Capa_1" xmlns="http://www.w3.org/2000/svg" xmlns:xlink="http://www.w3.org/1999/xlink" x="0px" y="0px"
	 viewBox="0 0 512 512" style="enable-background:new 0 0 512 512;" xml:space="preserve">
<g>
	<g>
		<path d="M256,0C126.613,0,21.333,105.28,21.333,234.667C21.333,362.923,123.84,512,256,512s234.667-149.077,234.667-277.333
			C490.667,105.28,385.387,0,256,0z M106.667,202.667c0-6.72,1.131-13.739,3.456-21.419c1.024-3.435,3.691-6.101,7.125-7.125
			c7.68-2.325,14.699-3.456,21.419-3.456c41.173,0,74.667,33.493,74.667,74.667c0,6.72-1.131,13.739-3.456,21.419
			c-1.024,3.435-3.712,6.101-7.125,7.125c-7.68,2.325-14.699,3.456-21.419,3.456C140.16,277.333,106.667,243.84,106.667,202.667z
			 M381.099,357.76c-27.669,43.136-74.645,68.907-125.696,68.907s-98.048-25.771-125.717-68.907
			c-3.179-4.971-1.749-11.563,3.221-14.741c4.928-3.221,11.563-1.749,14.741,3.221c23.723,36.992,64,59.093,107.755,59.093
			c43.755,0,84.011-22.101,107.733-59.093c3.157-4.971,9.771-6.443,14.741-3.221C382.827,346.197,384.277,352.789,381.099,357.76z
			 M330.667,277.333c-6.72,0-13.739-1.131-21.419-3.456c-3.435-1.024-6.123-3.712-7.147-7.125
			c-2.347-7.808-3.435-14.613-3.435-21.419c0-41.173,33.493-74.667,74.667-74.667c6.72,0,13.739,1.131,21.419,3.456
			c3.435,1.024,6.123,3.712,7.147,7.125c2.347,7.808,3.435,14.613,3.435,21.419C405.333,243.84,371.84,277.333,330.667,277.333z"/>
	</g>
</g>
<g>
</g>
<g>
</g>
<g>
</g>
<g>
</g>
<g>
</g>
<g>
</g>
<g>
</g>
<g>
</g>
<g>
</g>
<g>
</g>
<g>
</g>
<g>
</g>
<g>
</g>
<g>
</g>
<g>
</g>
</svg>
