<?xml version="1.0" encoding="iso-8859-1"?>
<!-- Generator: Adobe Illustrator 19.0.0, SVG Export Plug-In . SVG Version: 6.00 Build 0)  -->
<svg version="1.1" id="Capa_1" xmlns="http://www.w3.org/2000/svg" xmlns:xlink="http://www.w3.org/1999/xlink" x="0px" y="0px"
	 viewBox="0 0 512 512" style="enable-background:new 0 0 512 512;" xml:space="preserve">
<g>
	<g>
		<path d="M256,0C114.837,0,0,114.837,0,256c0,65.707,25.088,128.277,70.656,176.192c2.645,2.752,6.528,3.947,10.219,3.008
			c3.712-0.896,6.656-3.691,7.723-7.36c8.853-30.059,37.227-53.803,74.069-61.952c5.227-1.152,8.789-6.016,8.32-11.371
			c-0.021-0.149-0.299-2.347-0.32-2.517c0-12.139,6.869-23.083,17.92-28.544c2.731-1.344,4.757-3.819,5.568-6.741
			c6.315-23.189,27.371-39.381,51.179-39.381c22.336,0,42.432,14.293,50.027,35.584c1.493,4.245,5.547,7.083,10.048,7.083h3.925
			c17.643,0,32,14.357,32,32c0,17.643-14.357,32-32,32c-5.888,0-10.667,4.779-10.667,10.667V448c0,15.573-5.141,30.4-15.296,44.053
			c-2.56,3.477-2.816,8.128-0.576,11.84c1.941,3.264,5.44,5.205,9.152,5.205c0.512,0,1.045-0.043,1.557-0.107
			C418.069,490.645,512,381.888,512,256C512,114.837,397.163,0,256,0z M160,213.333c-17.643,0-32-14.357-32-32
			c0-17.643,14.357-32,32-32s32,14.357,32,32C192,198.976,177.643,213.333,160,213.333z M352,213.333c-17.643,0-32-14.357-32-32
			c0-17.643,14.357-32,32-32c17.643,0,32,14.357,32,32C384,198.976,369.643,213.333,352,213.333z"/>
	</g>
</g>
<g>
	<g>
		<path d="M309.333,341.333h-42.667c-5.888,0-10.667,4.779-10.667,10.667c0,5.888,4.779,10.667,10.667,10.667h42.667
			c5.888,0,10.667-4.779,10.667-10.667C320,346.112,315.221,341.333,309.333,341.333z"/>
	</g>
</g>
<g>
	<g>
		<path d="M224,341.333h-21.333c-5.888,0-10.667,4.779-10.667,10.667c0,5.888,4.779,10.667,10.667,10.667H224
			c5.888,0,10.667-4.779,10.667-10.667C234.667,346.112,229.888,341.333,224,341.333z"/>
	</g>
</g>
<g>
	<g>
		<path d="M245.333,298.667c-17.643,0-32,14.357-32,32v53.739C203.584,384.064,192.171,384,192,384
			c-47.061,0-85.333,28.715-85.333,64c0,35.285,38.272,64,85.333,64s85.333-28.715,85.333-64V330.667
			C277.333,313.024,262.976,298.667,245.333,298.667z"/>
	</g>
</g>
<g>
</g>
<g>
</g>
<g>
</g>
<g>
</g>
<g>
</g>
<g>
</g>
<g>
</g>
<g>
</g>
<g>
</g>
<g>
</g>
<g>
</g>
<g>
</g>
<g>
</g>
<g>
</g>
<g>
</g>
</svg>
