<?xml version="1.0" encoding="iso-8859-1"?>
<!-- Generator: Adobe Illustrator 19.0.0, SVG Export Plug-In . SVG Version: 6.00 Build 0)  -->
<svg version="1.1" id="Capa_1" xmlns="http://www.w3.org/2000/svg" xmlns:xlink="http://www.w3.org/1999/xlink" x="0px" y="0px"
	 viewBox="0 0 512 512" style="enable-background:new 0 0 512 512;" xml:space="preserve">
<g>
	<g>
		<path d="M256,0C114.837,0,0,114.837,0,256s114.837,256,256,256s256-114.837,256-256S397.163,0,256,0z M256,311.381
			c7.253-6.912,18.496-12.715,35.349-12.715c20.245,0,31.979,11.115,41.387,20.032c7.339,6.976,12.181,10.987,18.645,11.691
			c-23.509,12.117-66.88,32.277-95.381,32.277c-28.437,0-71.851-20.16-95.381-32.277c6.464-0.704,11.285-4.715,18.624-11.691
			c9.429-8.917,21.163-20.032,41.408-20.032C237.504,298.667,248.747,304.469,256,311.381z M128,202.667c0-17.643,14.357-32,32-32
			s32,14.357,32,32c0,5.888-4.779,10.667-10.667,10.667s-10.667-4.779-10.667-10.667S165.867,192,160,192
			c-5.867,0-10.667,4.779-10.667,10.667s-4.779,10.667-10.667,10.667S128,208.555,128,202.667z M256,426.667
			c-56.747,0-113.941-54.891-113.941-80.043c0-0.597,0.277-1.109,0.32-1.685C163.925,356.523,218.795,384,256,384
			s92.075-27.477,113.6-39.061c0.064,0.576,0.32,1.088,0.32,1.685C369.941,371.776,312.747,426.667,256,426.667z M373.333,213.333
			c-5.888,0-10.667-4.779-10.667-10.667S357.867,192,352,192c-5.867,0-10.667,4.779-10.667,10.667s-4.779,10.667-10.667,10.667
			S320,208.555,320,202.667c0-17.643,14.357-32,32-32c17.643,0,32,14.357,32,32C384,208.555,379.221,213.333,373.333,213.333z"/>
	</g>
</g>
<g>
</g>
<g>
</g>
<g>
</g>
<g>
</g>
<g>
</g>
<g>
</g>
<g>
</g>
<g>
</g>
<g>
</g>
<g>
</g>
<g>
</g>
<g>
</g>
<g>
</g>
<g>
</g>
<g>
</g>
</svg>
