<svg height="512pt" viewBox="0 -34 512.03991 512" width="512pt" xmlns="http://www.w3.org/2000/svg"><path d="m446.769531 20.515625c-29.351562-18.847656-65.070312-25.03125-99.046875-17.152344-40.683594 9.574219-74.582031 37.554688-91.699218 75.679688-17.117188-38.128907-51.023438-66.109375-91.707032-75.679688-33.984375-7.867187-69.703125-1.664062-99.039062 17.203125-31.15625 19.90625-52.953125 51.554688-60.433594 87.765625-29.335938 136.898438 79.597656 247.542969 191.328125 305.484375l55.925781 29.011719c2.460938 1.277344 5.390625 1.277344 7.851563 0l55.925781-29.011719c111.726562-57.917968 220.664062-168.585937 191.316406-305.492187-7.460937-36.226563-29.253906-67.898438-60.421875-87.808594zm-138.753906 378.152344-51.992187 26.957031-51.992188-26.957031c-106.148438-55.023438-209.820312-159.25-182.496094-286.761719 6.535156-31.734375 25.613282-59.480469 52.90625-76.9375 25.484375-16.410156 56.523438-21.8125 86.050782-14.976562 42.964843 10.3125 76.613281 43.683593 87.277343 86.5625.988281 3.75 4.378907 6.359374 8.253907 6.359374s7.265624-2.609374 8.25-6.359374c10.671874-42.886719 44.339843-76.265626 87.324218-86.5625 29.511719-6.820313 60.527344-1.429688 86.007813 14.953124 27.296875 17.464844 46.375 45.21875 52.90625 76.960938 27.324219 127.511719-76.347657 231.738281-182.496094 286.761719zm0 0"/><path d="m152.847656 53.257812c4.5625.984376 9.070313-1.878906 10.117188-6.429687s-1.757813-9.097656-6.296875-10.203125c-7.035157-1.625-14.238281-2.449219-21.460938-2.457031-47.375 1.066406-87.671875 34.855469-96.980469 81.324219-.988281 4.605468 1.949219 9.144531 6.558594 10.132812 4.609375.984375 9.144532-1.949219 10.132813-6.558594 7.589843-38.617187 40.949219-66.800781 80.289062-67.832031 5.9375.007813 11.855469.6875 17.640625 2.023437zm0 0"/><path d="m130.523438 232.933594-8.535157 8.535156c-2.214843 2.140625-3.105469 5.3125-2.324219 8.296875s3.109376 5.316406 6.09375 6.09375c2.984376.78125 6.15625-.105469 8.296876-2.324219l8.535156-8.535156c3.234375-3.347656 3.1875-8.667969-.105469-11.960938-3.289063-3.292968-8.613281-3.339843-11.960937-.105468zm0 0"/><path d="m164.65625 232.933594-8.53125 8.535156c-2.21875 2.140625-3.109375 5.3125-2.328125 8.296875s3.109375 5.316406 6.09375 6.09375c2.984375.78125 6.15625-.105469 8.296875-2.324219l8.535156-8.535156c3.234375-3.347656 3.1875-8.667969-.105468-11.960938-3.289063-3.292968-8.613282-3.339843-11.960938-.105468zm0 0"/><path d="m381.523438 232.933594c-3.347657-3.234375-8.671876-3.1875-11.964844.105468-3.289063 3.292969-3.335938 8.613282-.101563 11.960938l8.53125 8.535156c3.351563 3.234375 8.671875 3.1875 11.964844-.105468 3.289063-3.292969 3.335937-8.613282.101563-11.960938zm0 0"/><path d="m347.390625 232.933594c-3.347656-3.234375-8.671875-3.1875-11.964844.105468-3.289062 3.292969-3.335937 8.613282-.101562 11.960938l8.53125 8.535156c3.347656 3.234375 8.671875 3.1875 11.964843-.105468 3.289063-3.292969 3.335938-8.613282.101563-11.960938zm0 0"/><path d="m51.222656 153.632812c0 4.714844-3.820312 8.535157-8.53125 8.535157-4.714844 0-8.535156-3.820313-8.535156-8.535157 0-4.710937 3.820312-8.53125 8.535156-8.53125 4.710938 0 8.53125 3.820313 8.53125 8.53125zm0 0"/><path d="m264.554688 213.367188h-8.53125c-4.714844 0-8.535157 3.820312-8.535157 8.535156 0 4.710937 3.820313 8.53125 8.535157 8.53125h8.53125c4.714843 0 8.535156 3.820312 8.535156 8.535156 0 4.710938-3.820313 8.53125-8.535156 8.53125h-8.53125c-4.714844 0-8.535157 3.820312-8.535157 8.535156 0 4.710938 3.820313 8.53125 8.535157 8.53125h8.53125c4.714843 0 8.535156 3.820313 8.535156 8.535156 0 4.710938-3.820313 8.53125-8.535156 8.53125h-8.53125c-4.714844 0-8.535157 3.820313-8.535157 8.535157 0 4.710937 3.820313 8.53125 8.535157 8.53125h8.53125c10.117187.046875 19.304687-5.898438 23.410156-15.144531 4.105468-9.246094 2.355468-20.046876-4.464844-27.519532 6.820312-7.476562 8.570312-18.273437 4.464844-27.523437-4.105469-9.246094-13.292969-15.1875-23.410156-15.144531zm0 0"/><path d="m170.691406 162.167969c-14.140625 0-25.601562 11.460937-25.601562 25.601562 0 14.136719 11.460937 25.597657 25.601562 25.597657 14.136719 0 25.597656-11.460938 25.597656-25.597657 0-14.140625-11.460937-25.601562-25.597656-25.601562zm0 34.132812c-4.714844 0-8.535156-3.820312-8.535156-8.53125 0-4.714843 3.820312-8.535156 8.535156-8.535156 4.710938 0 8.53125 3.820313 8.53125 8.535156 0 4.710938-3.820312 8.53125-8.53125 8.53125zm0 0"/><path d="m341.355469 162.167969c-14.136719 0-25.597657 11.460937-25.597657 25.601562 0 14.136719 11.460938 25.597657 25.597657 25.597657 14.140625 0 25.601562-11.460938 25.601562-25.597657 0-14.140625-11.460937-25.601562-25.601562-25.601562zm0 34.132812c-4.710938 0-8.53125-3.820312-8.53125-8.53125 0-4.714843 3.820312-8.535156 8.53125-8.535156 4.714843 0 8.535156 3.820313 8.535156 8.535156 0 4.710938-3.820313 8.53125-8.535156 8.53125zm0 0"/></svg>