<?xml version="1.0" encoding="iso-8859-1"?>
<!-- Generator: Adobe Illustrator 19.0.0, SVG Export Plug-In . SVG Version: 6.00 Build 0)  -->
<svg version="1.1" id="Capa_1" xmlns="http://www.w3.org/2000/svg" xmlns:xlink="http://www.w3.org/1999/xlink" x="0px" y="0px"
	 viewBox="0 0 512 512" style="enable-background:new 0 0 512 512;" xml:space="preserve">
<g>
	<g>
		<path d="M256,0C114.837,0,0,114.837,0,256s114.837,256,256,256s256-114.837,256-256S397.163,0,256,0z M128,181.333
			c0-17.643,14.357-32,32-32s32,14.357,32,32c0,17.643-14.357,32-32,32S128,198.976,128,181.333z M356.331,384.917
			c5.376,2.389,7.808,8.704,5.419,14.08c-1.771,3.989-5.675,6.336-9.749,6.336c-1.451,0-2.923-0.299-4.331-0.917L256,363.669
			l-91.669,40.747c-1.408,0.619-2.88,0.917-4.331,0.917c-4.075,0-7.979-2.347-9.749-6.336c-2.389-5.376,0.043-11.691,5.419-14.08
			L229.739,352l-74.069-32.917c-5.376-2.389-7.808-8.704-5.419-14.08c2.411-5.397,8.704-7.808,14.08-5.419L256,340.331
			l91.669-40.747c5.397-2.389,11.691,0.021,14.08,5.419c2.389,5.376-0.043,11.691-5.419,14.08L282.261,352L356.331,384.917z
			 M352,213.333c-17.643,0-32-14.357-32-32c0-17.643,14.357-32,32-32c17.643,0,32,14.357,32,32
			C384,198.976,369.643,213.333,352,213.333z"/>
	</g>
</g>
<g>
</g>
<g>
</g>
<g>
</g>
<g>
</g>
<g>
</g>
<g>
</g>
<g>
</g>
<g>
</g>
<g>
</g>
<g>
</g>
<g>
</g>
<g>
</g>
<g>
</g>
<g>
</g>
<g>
</g>
</svg>
