<svg height="511pt" viewBox="0 -34 511.96095 511" width="511pt" xmlns="http://www.w3.org/2000/svg"><path d="m507.195312 108.796875c-7.488281-36.199219-29.28125-67.839844-60.433593-87.742187-29.34375-18.882813-65.078125-25.105469-99.078125-17.253907-40.679688 9.585938-74.578125 37.570313-91.691406 75.699219-17.121094-38.128906-51.019532-66.113281-91.699219-75.707031-34-7.847657-69.730469-1.621094-99.074219 17.261719-31.148438 19.902343-52.9375 51.542968-60.421875 87.742187-9.171875 42.371094-5.085937 86.539063 11.699219 126.511719-16.253906 16.566406-20.984375 41.265625-12.003906 62.664062 8.980468 21.402344 29.917968 35.328125 53.125 35.335938h.402343c7.417969-.039063 14.761719-1.515625 21.621094-4.34375 34.085937 34.441406 73.429687 63.242187 116.558594 85.332031l55.894531 29.011719c2.464844 1.28125 5.398438 1.28125 7.867188 0l55.890624-29.011719c43.128907-22.089844 82.472657-50.890625 116.558594-85.332031 6.839844 2.820312 14.15625 4.292968 21.554688 4.34375h.367187c23.210938 0 44.15625-13.925782 53.136719-35.328125 8.984375-21.40625 4.246094-46.105469-12.015625-62.671875 16.796875-39.96875 20.894531-84.136719 11.742187-126.511719zm-449.3125 207.445313c-10.757812.042968-21.09375-4.164063-28.757812-11.710938-7.660156-7.554688-12-17.847656-12.070312-28.609375-.066407-10.761719 4.148437-21.105469 11.710937-28.757813 10.8125-10.941406 52.171875-16.992187 81.597656-18.859374-4.113281 26.980468-12.929687 64.792968-23.894531 75.871093-7.535156 7.675781-17.828125 12.019531-28.585938 12.066407zm250.066407 82.875-51.957031 26.980468-51.960938-26.980468c-40.324219-20.648438-77.230469-47.375-109.429688-79.242188 1.398438-1.167969 2.746094-2.398438 4.042969-3.703125 20.480469-20.777344 29.125-88.25 30.039063-95.871094.296875-2.472656-.5-4.953125-2.183594-6.789062-1.683594-1.835938-4.082031-2.84375-6.574219-2.761719-6.96875.230469-59.332031 2.417969-88.746093 15.285156-14.527344-36.0625-17.90625-75.652344-9.699219-113.65625 6.550781-31.710937 25.625-59.4375 52.90625-76.886718 25.484375-16.429688 56.53125-21.863282 86.082031-15.066407 42.964844 10.328125 76.605469 43.71875 87.261719 86.601563.976562 3.765625 4.375 6.394531 8.261719 6.394531 3.886718 0 7.285156-2.628906 8.257812-6.394531 10.65625-42.882813 44.292969-76.269532 87.253906-86.601563 29.558594-6.769531 60.59375-1.339843 86.09375 15.066407 27.289063 17.460937 46.367188 45.203124 52.90625 76.929687 8.214844 38 4.84375 77.589844-9.675781 113.65625-29.441406-12.867187-81.800781-15.054687-88.746094-15.285156-2.488281-.082031-4.890625.925781-6.574219 2.761719-1.683593 1.835937-2.480468 4.316406-2.183593 6.789062.914062 7.621094 9.535156 75.09375 30.039062 95.871094 1.296875 1.304687 2.644531 2.558594 4.042969 3.703125-32.207031 31.855469-69.125 58.566406-109.457031 79.199219zm174.933593-94.585938c-7.652343 7.566406-17.996093 11.777344-28.757812 11.710938-10.761719-.066407-21.050781-4.410157-28.609375-12.066407-10.921875-11.09375-19.746094-48.890625-23.894531-75.871093 29.414062 1.859374 70.765625 7.902343 81.597656 18.859374 7.5625 7.652344 11.773438 17.996094 11.707031 28.757813-.066406 10.761719-4.40625 21.054687-12.066406 28.609375zm0 0"/><path d="m163.039062 47.328125c.507813-2.207031.121094-4.523437-1.078124-6.445313-1.199219-1.921874-3.117188-3.285156-5.324219-3.792968-7.039063-1.621094-14.238281-2.445313-21.460938-2.449219-47.375 1.0625-87.671875 34.855469-96.972656 81.324219-.984375 4.601562 1.945313 9.136718 6.546875 10.128906.589844.125 1.195312.1875 1.800781.1875 4.019531-.003906 7.492188-2.8125 8.335938-6.742188 7.589843-38.613281 40.949219-66.796874 80.289062-67.832031 5.933594.007813 11.847657.6875 17.628907 2.023438 2.207031.507812 4.523437.117187 6.441406-1.082031 1.921875-1.199219 3.285156-3.113282 3.792968-5.320313zm0 0"/><path d="m170.660156 162.640625c-14.140625 0-25.601562 11.460937-25.601562 25.601563 0 4.710937 3.820312 8.53125 8.53125 8.53125 4.714844 0 8.535156-3.820313 8.535156-8.53125 0-4.714844 3.820312-8.535157 8.535156-8.535157 4.710938 0 8.53125 3.820313 8.53125 8.535157 0 4.710937 3.820313 8.53125 8.535156 8.53125 4.710938 0 8.53125-3.820313 8.53125-8.53125 0-14.140626-11.460937-25.601563-25.597656-25.601563zm0 0"/><path d="m341.324219 162.640625c-14.136719 0-25.597657 11.460937-25.597657 25.601563 0 4.710937 3.820313 8.53125 8.53125 8.53125 4.714844 0 8.535157-3.820313 8.535157-8.53125 0-4.714844 3.820312-8.535157 8.53125-8.535157 4.714843 0 8.535156 3.820313 8.535156 8.535157 0 4.710937 3.820313 8.53125 8.53125 8.53125 4.714844 0 8.535156-3.820313 8.535156-8.53125 0-14.140626-11.460937-25.601563-25.601562-25.601563zm0 0"/><path d="m51.191406 154.105469c0 4.714843-3.820312 8.535156-8.53125 8.535156-4.714844 0-8.535156-3.820313-8.535156-8.535156 0-4.710938 3.820312-8.53125 8.535156-8.53125 4.710938 0 8.53125 3.820312 8.53125 8.53125zm0 0"/><path d="m255.992188 213.839844c-20.425782-.453125-39.234376 11.058594-48.121094 29.457031-7.320313 14.730469-11.285156 30.898437-11.613282 47.34375 0 4.710937 3.820313 8.53125 8.535157 8.53125h102.398437c4.714844 0 8.535156-3.820313 8.535156-8.53125-.324218-16.421875-4.28125-32.570313-11.589843-47.285156-8.871094-18.425781-27.699219-29.96875-48.144531-29.515625zm-8.535157 68.265625v-8.53125c0-4.714844 3.820313-8.535157 8.535157-8.535157 4.710937 0 8.53125 3.820313 8.53125 8.535157v8.53125zm34.132813 0v-8.53125c0-14.140625-11.460938-25.601563-25.597656-25.601563-14.140626 0-25.601563 11.460938-25.601563 25.601563v8.53125h-16.453125c1.078125-10.703125 4.117188-21.113281 8.960938-30.71875 6.257812-12.5625 19.089843-20.5 33.125-20.488281 14.035156.015624 26.851562 7.972656 33.085937 20.546874 4.835937 9.585938 7.867187 19.980469 8.933594 30.660157zm0 0"/></svg>