<svg height="512pt" viewBox="0 -34 512.02883 512" width="512pt" xmlns="http://www.w3.org/2000/svg"><path d="m446.761719 20.511719c-29.347657-18.851563-65.070313-25.035157-99.046875-17.152344-40.6875 9.570313-74.589844 37.550781-91.699219 75.683594-17.117187-38.128907-51.015625-66.109375-91.699219-75.683594-33.988281-7.867187-69.710937-1.660156-99.046875 17.210937-31.160156 19.898438-52.953125 51.550782-60.425781 87.757813-29.335938 136.902344 79.597656 247.542969 191.316406 305.484375l55.929688 29.015625c2.460937 1.273437 5.386718 1.273437 7.851562 0l55.925782-29.015625c111.71875-57.914062 220.65625-168.582031 191.316406-305.492188-7.464844-36.226562-29.257813-67.894531-60.421875-87.808593zm-138.746094 378.15625-52 26.957031-52.003906-26.957031c-106.128907-55.023438-209.808594-159.25-182.484375-286.761719 6.53125-31.734375 25.613281-59.480469 52.90625-76.9375 25.480468-16.414062 56.519531-21.816406 86.050781-14.976562 42.964844 10.308593 76.613281 43.683593 87.269531 86.5625.976563 3.761718 4.371094 6.390624 8.261719 6.390624 3.886719 0 7.285156-2.628906 8.257813-6.390624 10.664062-42.890626 44.332031-76.269532 87.3125-86.5625 29.515624-6.816407 60.53125-1.421876 86.007812 14.957031 27.296875 17.460937 46.378906 45.214843 52.90625 76.957031 27.324219 127.511719-76.355469 231.738281-182.484375 286.761719zm0 0"/><path d="m152.828125 53.253906c2.972656.683594 6.082031-.265625 8.160156-2.496094 2.078125-2.234374 2.808594-5.402343 1.917969-8.316406-.894531-2.917968-3.273438-5.132812-6.246094-5.816406-7.039062-1.628906-14.238281-2.453125-21.460937-2.460938-47.378907 1.0625-87.675781 34.855469-96.972657 81.324219-.984374 4.605469 1.941407 9.136719 6.546876 10.128907.589843.125 1.195312.1875 1.800781.1875 4.019531-.003907 7.492187-2.8125 8.335937-6.742188 7.589844-38.613281 40.949219-66.796875 80.289063-67.832031 5.933593.007812 11.847656.6875 17.628906 2.023437zm0 0"/><path d="m130.515625 232.933594-8.535156 8.53125c-2.21875 2.144531-3.105469 5.316406-2.324219 8.300781.777344 2.984375 3.109375 5.3125 6.09375 6.09375 2.980469.78125 6.15625-.109375 8.296875-2.328125l8.535156-8.53125c3.234375-3.347656 3.1875-8.671875-.105469-11.964844-3.292968-3.289062-8.613281-3.335937-11.960937-.101562zm0 0"/><path d="m164.648438 232.933594-8.535157 8.53125c-2.21875 2.144531-3.105469 5.316406-2.324219 8.300781s3.109376 5.3125 6.09375 6.09375c2.984376.78125 6.15625-.109375 8.296876-2.328125l8.535156-8.53125c3.234375-3.347656 3.1875-8.671875-.105469-11.964844-3.289063-3.289062-8.613281-3.335937-11.960937-.101562zm0 0"/><path d="m381.515625 232.933594c-3.351563-3.234375-8.671875-3.1875-11.964844.101562-3.289062 3.292969-3.335937 8.617188-.101562 11.964844l8.53125 8.53125c3.347656 3.234375 8.671875 3.1875 11.964843-.101562 3.289063-3.292969 3.335938-8.617188.101563-11.964844zm0 0"/><path d="m347.378906 232.933594c-3.347656-3.234375-8.667968-3.1875-11.960937.101562-3.289063 3.292969-3.335938 8.617188-.101563 11.964844l8.53125 8.53125c3.347656 3.234375 8.671875 3.1875 11.960938-.101562 3.292968-3.292969 3.339844-8.617188.105468-11.964844zm0 0"/><path d="m51.214844 153.632812c0 4.710938-3.820313 8.53125-8.535156 8.53125-4.710938 0-8.53125-3.820312-8.53125-8.53125 0-4.714843 3.820312-8.535156 8.53125-8.535156 4.714843 0 8.535156 3.820313 8.535156 8.535156zm0 0"/><path d="m290.148438 221.898438c-4.714844 0-8.535157 3.820312-8.535157 8.535156v8.53125c0 4.714844-3.820312 8.535156-8.53125 8.535156-4.714843 0-8.535156-3.820312-8.535156-8.535156v-8.53125c0-4.714844-3.820313-8.535156-8.53125-8.535156-4.714844 0-8.535156 3.820312-8.535156 8.535156v8.53125c0 4.714844-3.820313 8.535156-8.53125 8.535156-4.714844 0-8.535157-3.820312-8.535157-8.535156v-8.53125c0-4.714844-3.820312-8.535156-8.53125-8.535156-4.714843 0-8.535156 3.820312-8.535156 8.535156v8.53125c.03125 9.648437 5.5 18.453125 14.132813 22.757812l-8.84375 22.101563c-2.101563 5.257812-1.460938 11.21875 1.714843 15.910156 3.175782 4.6875 8.46875 7.5 14.132813 7.496094h43.058594c5.664062.003906 10.960937-2.808594 14.136719-7.496094 3.171874-4.691406 3.816406-10.652344 1.710937-15.910156l-8.839844-22.101563c8.632813-4.304687 14.097657-13.109375 14.128907-22.757812v-8.53125c0-4.714844-3.820313-8.535156-8.53125-8.535156zm-55.65625 68.265624 10.566406-26.453124c4.074218-1 7.835937-2.996094 10.957031-5.800782 3.113281 2.816406 6.878906 4.824219 10.957031 5.835938l10.570313 26.417968zm0 0"/><path d="m191.5625 180.128906-34.132812-17.066406c-4.21875-2.109375-9.347657-.394531-11.453126 3.820312-2.105468 4.21875-.394531 9.347657 3.824219 11.453126l18.867188 9.429687-18.867188 9.429687c-4.21875 2.105469-5.929687 7.234376-3.824219 11.453126 2.105469 4.214843 7.234376 5.929687 11.453126 3.820312l34.132812-17.066406c2.894531-1.441406 4.726562-4.402344 4.726562-7.636719s-1.832031-6.195313-4.726562-7.636719zm0 0"/><path d="m366.09375 166.882812c-1.011719-2.023437-2.785156-3.566406-4.933594-4.28125-2.148437-.71875-4.492187-.550781-6.515625.460938l-34.136719 17.066406c-2.894531 1.441406-4.726562 4.402344-4.726562 7.636719s1.832031 6.195313 4.726562 7.636719l34.136719 17.066406c4.214844 2.109375 9.34375.394531 11.449219-3.820312 2.105469-4.21875.394531-9.347657-3.824219-11.453126l-18.90625-9.429687 18.867188-9.386719c2.042969-1.003906 3.601562-2.78125 4.328125-4.941406.726562-2.160156.558594-4.519531-.464844-6.554688zm0 0"/></svg>