<?xml version="1.0" encoding="iso-8859-1"?>
<!-- Generator: Adobe Illustrator 19.0.0, SVG Export Plug-In . SVG Version: 6.00 Build 0)  -->
<svg version="1.1" id="Capa_1" xmlns="http://www.w3.org/2000/svg" xmlns:xlink="http://www.w3.org/1999/xlink" x="0px" y="0px"
	 viewBox="0 0 512.043 512.043" style="enable-background:new 0 0 512.043 512.043;" xml:space="preserve">
<g>
	<g>
		<path d="M467.993,218.773C465.903,215.061,415.108,128,256.025,128S46.148,215.061,44.057,218.773
			c-1.707,3.008-1.835,6.635-0.363,9.771c1.749,3.733,44.8,91.477,212.331,91.477s210.581-87.744,212.331-91.477
			C469.807,225.408,469.679,221.76,467.993,218.773z M160.025,256c-17.643,0-32-14.357-32-32c0-17.643,14.357-32,32-32
			s32,14.357,32,32C192.025,241.643,177.668,256,160.025,256z M352.025,256c-17.643,0-32-14.357-32-32c0-17.643,14.357-32,32-32
			c17.643,0,32,14.357,32,32C384.025,241.643,369.668,256,352.025,256z"/>
	</g>
</g>
<g>
	<g>
		<path d="M504.921,196.736C477.444,80.747,375.513,0,256.025,0C135.556,0,32.943,82.069,6.468,199.573
			c-1.152,5.12,1.579,10.304,6.443,12.245c4.843,1.92,10.432,0.043,13.12-4.437c6.144-10.304,64.875-100.715,229.995-100.715
			s223.851,90.411,229.995,100.715c1.963,3.307,5.504,5.205,9.152,5.205c0.085,0,0.171,0,0.256,0
			c6.123-0.491,10.837-4.715,10.837-10.667C506.265,200.043,505.775,198.272,504.921,196.736z"/>
	</g>
</g>
<g>
	<g>
		<path d="M510.831,232.363c-0.491-5.227-4.693-9.344-9.941-9.664c-5.547-0.363-9.941,3.179-11.093,8.32
			c-0.576,2.581-1.28,4.715-2.133,6.549c-1.984,4.245-50.709,103.765-231.637,103.765S26.372,241.813,24.388,237.568
			c-0.853-1.835-1.557-3.989-2.133-6.549c-1.152-5.12-5.803-8.704-11.093-8.32c-5.248,0.341-9.451,4.437-9.941,9.664
			C0.495,240.171,0.025,248.021,0.025,256c0,141.163,114.837,256,256,256s256-114.837,256-256
			C512.025,248.021,511.556,240.171,510.831,232.363z"/>
	</g>
</g>
<g>
	<g>
		<path d="M117.359,448c-3.243,0-6.059,1.515-8,3.797l-56.981-48.832c0.576-2.88,0.981-5.675,0.981-8.299
			c0-5.888-4.779-10.667-10.667-10.667s-10.667,4.779-10.667,10.667c0,13.824-18.261,42.581-29.781,57.472
			c-2.197,2.859-2.816,6.635-1.643,10.027c1.173,3.413,3.989,5.995,7.488,6.848l27.989,6.997l-12.928,19.413
			c-2.155,3.221-2.389,7.36-0.597,10.795c1.771,3.456,5.269,5.653,9.152,5.781c0.683,0.021,2.048,0.043,3.904,0.043
			c14.037,0,57.536-1.792,79.467-23.061c8.597-8.32,12.949-18.517,12.949-30.315C128.025,452.757,123.247,448,117.359,448z"/>
	</g>
</g>
<g>
</g>
<g>
</g>
<g>
</g>
<g>
</g>
<g>
</g>
<g>
</g>
<g>
</g>
<g>
</g>
<g>
</g>
<g>
</g>
<g>
</g>
<g>
</g>
<g>
</g>
<g>
</g>
<g>
</g>
</svg>
