<svg height="512pt" viewBox="0 -34 512.02883 512" width="512pt" xmlns="http://www.w3.org/2000/svg"><path d="m446.761719 20.511719c-29.351563-18.851563-65.070313-25.035157-99.046875-17.152344-40.6875 9.570313-74.589844 37.550781-91.699219 75.679687-17.117187-38.128906-51.015625-66.109374-91.699219-75.679687-33.984375-7.878906-69.710937-1.667969-99.046875 17.210937-31.160156 19.898438-52.953125 51.546876-60.425781 87.757813-29.335938 136.898437 79.597656 247.542969 191.316406 305.484375l55.929688 29.011719c2.460937 1.277343 5.386718 1.277343 7.851562 0l55.925782-29.011719c111.71875-57.917969 220.65625-168.585938 191.316406-305.496094-7.464844-36.222656-29.257813-67.890625-60.421875-87.804687zm-138.746094 378.152343-52 26.957032-52.003906-26.957032c-106.128907-55.023437-209.808594-159.25-182.484375-286.761718 6.53125-31.734375 25.613281-59.480469 52.90625-76.9375 25.480468-16.414063 56.519531-21.816406 86.050781-14.976563 42.964844 10.308594 76.613281 43.683594 87.269531 86.5625.976563 3.765625 4.371094 6.394531 8.261719 6.394531 3.886719 0 7.285156-2.628906 8.257813-6.394531 10.664062-42.890625 44.332031-76.269531 87.3125-86.5625 29.515624-6.820312 60.53125-1.425781 86.007812 14.960938 27.296875 17.460937 46.378906 45.214843 52.90625 76.953125 27.324219 127.511718-76.355469 231.738281-182.484375 286.761718zm0 0"/><path d="m152.828125 53.253906c2.972656.683594 6.082031-.269531 8.160156-2.5 2.078125-2.230468 2.808594-5.402344 1.917969-8.316406-.894531-2.914062-3.273438-5.132812-6.246094-5.816406-7.039062-1.625-14.238281-2.449219-21.460937-2.457032-47.378907 1.058594-87.675781 34.855469-96.972657 81.320313-.984374 4.605469 1.941407 9.136719 6.546876 10.128906.589843.125 1.195312.191407 1.800781.1875 4.019531 0 7.492187-2.808593 8.335937-6.738281 7.589844-38.617188 40.949219-66.796875 80.289063-67.832031 5.933593.007812 11.847656.6875 17.628906 2.023437zm0 0"/><path d="m360.230469 170.628906 1.351562-.539062c4.375-1.746094 6.507813-6.714844 4.761719-11.09375-1.75-4.375-6.71875-6.507813-11.09375-4.761719l-42.667969 17.066406c-3.804687 1.515625-5.996093 5.519531-5.222656 9.539063.773437 4.023437 4.292969 6.925781 8.386719 6.921875-.066406 11.464843 7.5 21.578125 18.515625 24.75 11.019531 3.171875 22.800781-1.367188 28.84375-11.109375 6.039062-9.742188 4.867187-22.316406-2.875-30.773438zm-18.882813 25.667969c-4.710937 0-8.535156-3.820313-8.535156-8.535156 0-4.710938 3.824219-8.53125 8.535156-8.53125 4.714844 0 8.535156 3.820312 8.535156 8.53125 0 4.714843-3.820312 8.535156-8.535156 8.535156zm0 0"/><path d="m130.515625 232.929688-8.535156 8.535156c-2.21875 2.140625-3.105469 5.3125-2.324219 8.296875.777344 2.984375 3.109375 5.3125 6.09375 6.09375 2.980469.78125 6.15625-.109375 8.296875-2.324219l8.535156-8.535156c3.234375-3.347656 3.1875-8.671875-.105469-11.960938-3.292968-3.292968-8.613281-3.339844-11.960937-.105468zm0 0"/><path d="m164.648438 232.929688-8.535157 8.535156c-2.21875 2.140625-3.105469 5.3125-2.324219 8.296875s3.109376 5.3125 6.09375 6.09375c2.984376.78125 6.15625-.109375 8.296876-2.324219l8.535156-8.535156c3.234375-3.347656 3.1875-8.671875-.105469-11.960938-3.289063-3.292968-8.613281-3.339844-11.960937-.105468zm0 0"/><path d="m381.515625 232.929688c-3.351563-3.234376-8.671875-3.1875-11.964844.105468-3.289062 3.289063-3.335937 8.613282-.101562 11.960938l8.53125 8.535156c3.347656 3.230469 8.671875 3.1875 11.964843-.105469 3.289063-3.292969 3.335938-8.613281.101563-11.960937zm0 0"/><path d="m347.378906 232.929688c-3.347656-3.234376-8.667968-3.1875-11.960937.105468-3.289063 3.289063-3.335938 8.613282-.101563 11.960938l8.53125 8.535156c3.347656 3.230469 8.671875 3.1875 11.960938-.105469 3.292968-3.292969 3.339844-8.613281.105468-11.960937zm0 0"/><path d="m51.214844 153.628906c0 4.714844-3.820313 8.535156-8.535156 8.535156-4.710938 0-8.53125-3.820312-8.53125-8.535156 0-4.710937 3.820312-8.53125 8.53125-8.53125 4.714843 0 8.535156 3.820313 8.535156 8.53125zm0 0"/><path d="m298.679688 230.429688h-85.332032c-4.710937 0-8.535156 3.820312-8.535156 8.535156 0 4.710937 3.824219 8.53125 8.535156 8.53125h85.332032c4.714843 0 8.535156-3.820313 8.535156-8.53125 0-4.714844-3.820313-8.535156-8.535156-8.535156zm0 0"/><path d="m199.445312 171.300781-42.664062-17.066406c-4.378906-1.746094-9.347656.386719-11.09375 4.761719-1.75 4.378906.382812 9.347656 4.761719 11.09375l1.347656.539062c-7.742187 8.457032-8.914063 21.03125-2.871094 30.773438 6.039063 9.742187 17.824219 14.28125 28.839844 11.109375 11.019531-3.171875 18.582031-13.285157 18.515625-24.75 4.09375.003906 7.613281-2.898438 8.386719-6.921875.773437-4.019532-1.417969-8.023438-5.222657-9.539063zm-28.765624 24.996094c-4.710938 0-8.53125-3.820313-8.53125-8.535156 0-4.710938 3.820312-8.53125 8.53125-8.53125 4.714843 0 8.535156 3.820312 8.535156 8.53125 0 4.714843-3.820313 8.535156-8.535156 8.535156zm0 0"/></svg>