<svg height="512pt" viewBox="0 -34 512.02883 512" width="512pt" xmlns="http://www.w3.org/2000/svg"><path d="m446.75 20.511719c-29.34375-18.851563-65.0625-25.035157-99.035156-17.152344-40.683594 9.566406-74.589844 37.542969-91.699219 75.671875-17.113281-38.128906-51.023437-66.109375-91.707031-75.671875-33.988282-7.859375-69.707032-1.652344-99.046875 17.210937-31.152344 19.90625-52.941407 51.554688-60.417969 87.757813-29.335938 136.90625 79.597656 247.542969 191.316406 305.484375l55.929688 29.011719c2.460937 1.277343 5.386718 1.277343 7.851562 0l55.925782-29.011719c111.71875-57.917969 220.65625-168.578125 191.316406-305.492188-7.46875-36.226562-29.261719-67.894531-60.433594-87.808593zm-138.734375 378.152343-52 26.957032-52.003906-26.957032c-106.128907-55.011718-209.808594-159.238281-182.484375-286.753906 6.539062-31.71875 25.621094-59.449218 52.90625-76.894531 25.472656-16.433594 56.515625-21.851563 86.050781-15.023437 42.964844 10.300781 76.613281 43.671874 87.269531 86.550781.976563 3.765625 4.371094 6.394531 8.261719 6.394531 3.886719 0 7.285156-2.628906 8.257813-6.394531 10.664062-42.890625 44.332031-76.265625 87.3125-86.550781 29.511718-6.824219 60.527343-1.433594 86 14.949218 27.296874 17.46875 46.375 45.226563 52.90625 76.96875 27.332031 127.515625-76.347657 231.742188-182.476563 286.753906zm0 0"/><path d="m152.828125 53.253906c2.972656.683594 6.082031-.269531 8.160156-2.5 2.078125-2.230468 2.808594-5.398437 1.917969-8.316406-.894531-2.914062-3.273438-5.132812-6.246094-5.816406-7.039062-1.625-14.238281-2.449219-21.460937-2.457032-47.375 1.058594-87.671875 34.851563-96.972657 81.3125-.992187 4.609376 1.9375 9.148438 6.546876 10.140626.589843.125 1.195312.1875 1.800781.1875 4.019531-.003907 7.492187-2.8125 8.335937-6.742188 7.589844-38.613281 40.949219-66.796875 80.289063-67.832031 5.933593.007812 11.847656.6875 17.628906 2.023437zm0 0"/><path d="m130.515625 232.929688-8.535156 8.535156c-2.21875 2.140625-3.105469 5.316406-2.324219 8.296875.777344 2.984375 3.109375 5.316406 6.09375 6.097656 2.980469.777344 6.15625-.109375 8.296875-2.328125l8.535156-8.535156c3.234375-3.347656 3.1875-8.667969-.105469-11.960938-3.292968-3.292968-8.613281-3.339844-11.960937-.105468zm0 0"/><path d="m164.648438 232.929688-8.535157 8.535156c-2.21875 2.140625-3.105469 5.316406-2.324219 8.296875.78125 2.984375 3.109376 5.316406 6.09375 6.097656 2.984376.777344 6.15625-.109375 8.296876-2.328125l8.535156-8.535156c3.234375-3.347656 3.1875-8.667969-.105469-11.960938-3.289063-3.292968-8.613281-3.339844-11.960937-.105468zm0 0"/><path d="m381.515625 232.929688c-3.351563-3.234376-8.671875-3.1875-11.964844.105468-3.289062 3.292969-3.335937 8.613282-.101562 11.960938l8.53125 8.535156c3.347656 3.234375 8.671875 3.1875 11.964843-.105469 3.289063-3.289062 3.335938-8.613281.101563-11.960937zm0 0"/><path d="m347.378906 232.929688c-3.347656-3.234376-8.667968-3.1875-11.960937.105468-3.289063 3.292969-3.335938 8.613282-.101563 11.960938l8.53125 8.535156c3.347656 3.234375 8.671875 3.1875 11.960938-.105469 3.292968-3.289062 3.339844-8.613281.105468-11.960937zm0 0"/><path d="m51.214844 153.628906c0 4.714844-3.820313 8.535156-8.535156 8.535156-4.710938 0-8.53125-3.820312-8.53125-8.535156 0-4.710937 3.820312-8.53125 8.53125-8.53125 4.714843 0 8.535156 3.820313 8.535156 8.53125zm0 0"/><path d="m256.015625 204.832031c-34.050781 0-59.734375 14.675781-59.734375 34.132813v68.265625c-.058594 6.753906 2.632812 13.246093 7.449219 17.980469 10.058593 9.714843 25.980469 9.789062 36.128906.171874 4.910156-4.757812 7.664063-11.316406 7.621094-18.152343-.003907-2.300781.945312-4.503907 2.621093-6.082031 1.554688-1.585938 3.691407-2.472657 5.914063-2.449219 4.710937 0 8.53125 3.820312 8.53125 8.53125v25.601562c.070313 14.109375 11.492187 25.527344 25.601563 25.597657 14.136718 0 25.597656-11.460938 25.597656-25.597657v-93.867187c0-19.457032-25.683594-34.132813-59.730469-34.132813zm42.664063 128c0 4.710938-3.820313 8.53125-8.53125 8.53125-2.304688.003907-4.503907-.941406-6.085938-2.617187-1.585938-1.558594-2.46875-3.691406-2.449219-5.914063v-25.601562c0-14.136719-11.460937-25.601563-25.597656-25.601563-14.109375.070313-25.53125 11.492188-25.601563 25.601563.003907 2.304687-.941406 4.503906-2.621093 6.085937-1.609375 1.570313-3.78125 2.433594-6.03125 2.402344-2.253907-.03125-4.398438-.957031-5.964844-2.574219-1.585937-1.558593-2.46875-3.691406-2.449219-5.914062v-68.265625c0-6.957032 16.621094-17.066406 42.667969-17.066406 26.042969 0 42.664063 10.109374 42.664063 17.066406zm0 0"/><path d="m221.882812 341.363281c-14.140624 0-25.601562 11.460938-25.601562 25.601563 0 14.136718 11.460938 25.597656 25.601562 25.597656 14.136719 0 25.597657-11.460938 25.597657-25.597656 0-14.140625-11.460938-25.601563-25.597657-25.601563zm0 34.132813c-4.714843 0-8.535156-3.820313-8.535156-8.53125 0-4.714844 3.820313-8.535156 8.535156-8.535156 4.710938 0 8.53125 3.820312 8.53125 8.535156 0 4.710937-3.820312 8.53125-8.53125 8.53125zm0 0"/><path d="m264.546875 238.964844h-17.066406c-4.710938 0-8.53125 3.820312-8.53125 8.53125 0 4.714844 3.820312 8.535156 8.53125 8.535156h17.066406c4.714844 0 8.535156-3.820312 8.535156-8.535156 0-4.710938-3.820312-8.53125-8.535156-8.53125zm0 0"/><path d="m162.308594 213.363281c32.84375.003907 59.492187-26.574219 59.574218-59.417969.214844-15.328124-7.839843-29.589843-21.082031-37.316406-13.238281-7.730468-29.617187-7.730468-42.859375 0-13.242187 7.726563-21.296875 21.988282-21.078125 37.316406 0 14.140626 11.460938 25.601563 25.601563 25.601563 14.136718 0 25.597656-11.460937 25.597656-25.601563 0-4.710937-3.820312-8.53125-8.53125-8.53125-4.714844 0-8.535156 3.820313-8.535156 8.53125 0 4.714844-3.820313 8.535157-8.53125 8.535157-4.714844 0-8.535156-3.820313-8.535156-8.535157-.167969-9.199218 4.644531-17.773437 12.585937-22.425781 7.941406-4.648437 17.773437-4.648437 25.714844 0 7.941406 4.652344 12.753906 13.226563 12.582031 22.425781-.328125 23.242188-19.261719 41.910157-42.507812 41.910157-23.242188 0-42.179688-18.667969-42.507813-41.910157 0-4.710937-3.820313-8.53125-8.535156-8.53125-4.710938 0-8.53125 3.820313-8.53125 8.53125.085937 32.84375 26.734375 59.421876 59.578125 59.417969zm0 0"/><path d="m366.785156 110.964844c-23.59375.160156-42.609375 19.386718-42.503906 42.980468 0 14.140626 11.460938 25.601563 25.601562 25.601563 14.136719 0 25.597657-11.460937 25.597657-25.601563 0-4.710937-3.820313-8.53125-8.53125-8.53125-4.714844 0-8.535157 3.820313-8.535157 8.53125 0 4.714844-3.820312 8.535157-8.53125 8.535157-4.714843 0-8.535156-3.820313-8.535156-8.535157-.167968-9.199218 4.644532-17.773437 12.585938-22.425781 7.941406-4.648437 17.773437-4.648437 25.714844 0 7.941406 4.652344 12.753906 13.226563 12.582031 22.425781-.328125 23.242188-19.261719 41.910157-42.507813 41.910157-23.242187 0-42.179687-18.667969-42.507812-41.910157 0-4.710937-3.820313-8.53125-8.535156-8.53125-4.710938 0-8.53125 3.820313-8.53125 8.53125.390624 32.625 26.949218 58.867188 59.574218 58.867188 32.628906 0 59.1875-26.242188 59.574219-58.867188.105469-23.597656-18.914063-42.824218-42.511719-42.980468zm0 0"/></svg>