<svg height="512pt" viewBox="0 -34 512.03991 512" width="512pt" xmlns="http://www.w3.org/2000/svg"><path d="m446.769531 20.515625c-29.347656-18.847656-65.070312-25.035156-99.046875-17.148437-40.683594 9.574218-74.582031 37.550781-91.699218 75.679687-17.117188-38.128906-51.023438-66.109375-91.707032-75.679687-33.984375-7.859376-69.699218-1.65625-99.039062 17.203124-31.15625 19.902344-52.953125 51.554688-60.433594 87.761719-29.335938 136.902344 79.597656 247.546875 191.328125 305.488281l55.925781 29.011719c2.460938 1.273438 5.390625 1.273438 7.851563 0l55.925781-29.011719c111.726562-57.917968 220.664062-168.585937 191.316406-305.496093-7.460937-36.226563-29.253906-67.894531-60.421875-87.808594zm-138.753906 378.15625-51.992187 26.957031-51.992188-26.957031c-106.148438-55.023437-209.820312-159.25-182.496094-286.761719 6.535156-31.734375 25.613282-59.480468 52.90625-76.9375 25.484375-16.414062 56.523438-21.816406 86.050782-14.976562 42.964843 10.308594 76.613281 43.683594 87.277343 86.5625.988281 3.746094 4.378907 6.359375 8.253907 6.359375s7.265624-2.613281 8.25-6.359375c10.671874-42.890625 44.339843-76.265625 87.324218-86.5625 29.511719-6.820313 60.527344-1.429688 86.007813 14.949218 27.296875 17.464844 46.375 45.222657 52.90625 76.964844 27.324219 127.511719-76.347657 231.738282-182.496094 286.761719zm0 0"/><path d="m212.332031 159.429688c-2.679687-10.378907-10.621093-18.585938-20.90625-21.605469-10.285156-3.019531-21.402343-.410157-29.269531 6.871093-7.871094-7.28125-18.988281-9.890624-29.273438-6.871093-10.285156 3.023437-18.226562 11.226562-20.910156 21.605469-5.972656 26.054687 15.085938 46.527343 36.847656 56.996093l9.632813 4.632813c2.339844 1.128906 5.066406 1.128906 7.40625 0l9.632813-4.640625c21.761718-10.460938 42.855468-30.933594 36.839843-56.988281zm-44.203125 41.609374-5.972656 2.859376-5.972656-2.859376c-15.8125-7.601562-31.371094-21.519531-27.613282-37.769531 1.496094-5.78125 6.777344-9.769531 12.746094-9.632812.980469.003906 1.953125.105469 2.910156.308593 4.628907.898438 8.371094 4.289063 9.71875 8.804688 1.042969 3.671875 4.394532 6.203125 8.210938 6.203125s7.167969-2.53125 8.210938-6.203125c1.34375-4.511719 5.085937-7.90625 9.710937-8.804688 6.875-1.636718 13.804687 2.496094 15.632813 9.324219 3.753906 16.25-11.804688 30.167969-27.582032 37.769531zm0 0"/><path d="m364.242188 137.253906c-5.371094 1.128906-10.332032 3.703125-14.351563 7.441406-7.871094-7.28125-18.988281-9.890624-29.273437-6.871093-10.289063 3.023437-18.230469 11.226562-20.914063 21.605469-5.972656 26.054687 15.089844 46.527343 36.847656 56.996093l9.636719 4.632813c2.339844 1.128906 5.066406 1.128906 7.40625 0l9.632812-4.640625c21.761719-10.460938 42.855469-30.933594 36.839844-56.988281-3.953125-15.882813-19.84375-25.71875-35.824218-22.175782zm-8.378907 63.785156-5.972656 2.859376-5.972656-2.859376c-15.8125-7.601562-31.371094-21.519531-27.617188-37.769531 1.5-5.78125 6.777344-9.769531 12.75-9.632812.976563.003906 1.953125.105469 2.910157.308593 4.625.898438 8.371093 4.289063 9.71875 8.804688 1.042968 3.671875 4.394531 6.203125 8.210937 6.203125 3.8125 0 7.167969-2.53125 8.207031-6.203125 1.347656-4.511719 5.089844-7.90625 9.710938-8.804688 6.878906-1.640624 13.8125 2.496094 15.632812 9.324219 3.757813 16.25-11.800781 30.167969-27.578125 37.769531zm0 0"/><path d="m152.847656 53.257812c4.5625.988282 9.070313-1.878906 10.117188-6.425781 1.046875-4.550781-1.757813-9.097656-6.296875-10.203125-7.035157-1.625-14.238281-2.449218-21.460938-2.457031-47.375 1.066406-87.671875 34.855469-96.980469 81.320313-.988281 4.609374 1.949219 9.148437 6.558594 10.132812 4.609375.988281 9.144532-1.945312 10.132813-6.554688 7.589843-38.617187 40.949219-66.800781 80.289062-67.832031 5.9375.007813 11.855469.6875 17.640625 2.019531zm0 0"/><path d="m298.886719 222.015625c-4.59375.09375-8.367188 3.652344-8.730469 8.234375-.085938 1.765625-1.765625 17.253906-34.132812 17.253906-32.214844 0-34.03125-15.359375-34.132813-17.230468-.046875-4.710938-3.902344-8.496094-8.617187-8.449219-4.710938.042969-8.496094 3.898437-8.449219 8.613281 0 .339844.585937 34.132812 51.199219 34.132812 50.609374 0 51.199218-33.792968 51.199218-34.132812-.011718-4.613281-3.722656-8.363281-8.335937-8.421875zm0 0"/><path d="m130.523438 232.9375-8.535157 8.535156c-2.214843 2.140625-3.105469 5.3125-2.324219 8.296875s3.109376 5.3125 6.09375 6.09375c2.984376.78125 6.15625-.109375 8.296876-2.328125l8.535156-8.53125c3.234375-3.347656 3.1875-8.671875-.105469-11.960937-3.289063-3.292969-8.613281-3.339844-11.960937-.105469zm0 0"/><path d="m164.65625 232.9375-8.53125 8.535156c-2.21875 2.140625-3.109375 5.3125-2.328125 8.296875s3.109375 5.3125 6.09375 6.09375 6.15625-.109375 8.296875-2.328125l8.535156-8.53125c3.234375-3.347656 3.1875-8.671875-.105468-11.960937-3.289063-3.292969-8.613282-3.339844-11.960938-.105469zm0 0"/><path d="m381.523438 232.9375c-3.347657-3.234375-8.671876-3.1875-11.964844.105469-3.289063 3.289062-3.335938 8.613281-.101563 11.960937l8.53125 8.53125c3.351563 3.234375 8.671875 3.191406 11.964844-.101562 3.289063-3.292969 3.335937-8.613282.101563-11.960938zm0 0"/><path d="m347.390625 232.9375c-3.347656-3.234375-8.671875-3.1875-11.964844.105469-3.289062 3.289062-3.335937 8.613281-.101562 11.960937l8.53125 8.53125c3.347656 3.234375 8.671875 3.191406 11.964843-.101562 3.289063-3.292969 3.335938-8.613282.101563-11.960938zm0 0"/><path d="m51.222656 153.636719c0 4.714843-3.820312 8.535156-8.53125 8.535156-4.714844 0-8.535156-3.820313-8.535156-8.535156 0-4.710938 3.820312-8.53125 8.535156-8.53125 4.710938 0 8.53125 3.820312 8.53125 8.53125zm0 0"/></svg>