<svg height="512pt" viewBox="0 -34 512.02883 512" width="512pt" xmlns="http://www.w3.org/2000/svg"><path d="m446.75 20.511719c-29.34375-18.851563-65.0625-25.035157-99.035156-17.152344-40.683594 9.566406-74.589844 37.542969-91.699219 75.671875-17.113281-38.128906-51.023437-66.109375-91.707031-75.671875-33.988282-7.859375-69.707032-1.652344-99.046875 17.210937-31.152344 19.90625-52.941407 51.554688-60.417969 87.757813-29.335938 136.90625 79.597656 247.542969 191.316406 305.484375l55.929688 29.011719c2.460937 1.277343 5.386718 1.277343 7.851562 0l55.925782-29.011719c111.71875-57.917969 220.65625-168.578125 191.316406-305.492188-7.46875-36.226562-29.261719-67.894531-60.433594-87.808593zm-138.734375 378.152343-52 26.957032-52.003906-26.957032c-106.128907-55.011718-209.808594-159.238281-182.484375-286.753906 6.539062-31.71875 25.621094-59.449218 52.90625-76.894531 25.472656-16.433594 56.515625-21.851563 86.050781-15.023437 42.964844 10.300781 76.613281 43.671874 87.269531 86.550781.976563 3.765625 4.371094 6.394531 8.261719 6.394531 3.886719 0 7.285156-2.628906 8.257813-6.394531 10.664062-42.890625 44.332031-76.265625 87.3125-86.550781 29.511718-6.824219 60.527343-1.433594 86 14.949218 27.296874 17.46875 46.375 45.226563 52.90625 76.96875 27.332031 127.515625-76.347657 231.742188-182.476563 286.753906zm0 0"/><path d="m152.828125 53.253906c2.972656.683594 6.082031-.269531 8.160156-2.5 2.078125-2.230468 2.808594-5.398437 1.917969-8.316406-.894531-2.914062-3.273438-5.132812-6.246094-5.816406-7.039062-1.625-14.238281-2.449219-21.460937-2.457032-47.375 1.058594-87.671875 34.851563-96.972657 81.3125-.992187 4.609376 1.9375 9.148438 6.546876 10.140626.589843.125 1.195312.1875 1.800781.1875 4.019531-.003907 7.492187-2.8125 8.335937-6.742188 7.589844-38.613281 40.949219-66.796875 80.289063-67.832031 5.933593.007812 11.847656.6875 17.628906 2.023437zm0 0"/><path d="m196.28125 187.765625c0-14.140625-11.460938-25.601563-25.601562-25.601563-14.136719 0-25.597657 11.460938-25.597657 25.601563 0 14.136719 11.460938 25.597656 25.597657 25.597656 14.140624 0 25.601562-11.460937 25.601562-25.597656zm-34.132812 0c0-4.714844 3.820312-8.535156 8.53125-8.535156 4.714843 0 8.535156 3.820312 8.535156 8.535156 0 4.710937-3.820313 8.53125-8.535156 8.53125-4.710938 0-8.53125-3.820313-8.53125-8.53125zm0 0"/><path d="m341.347656 162.164062c-14.136718 0-25.601562 11.460938-25.601562 25.601563 0 14.136719 11.464844 25.597656 25.601562 25.597656 14.136719 0 25.601563-11.460937 25.601563-25.597656 0-14.140625-11.464844-25.601563-25.601563-25.601563zm0 34.132813c-4.710937 0-8.535156-3.820313-8.535156-8.53125 0-4.714844 3.824219-8.535156 8.535156-8.535156 4.714844 0 8.535156 3.820312 8.535156 8.535156 0 4.710937-3.820312 8.53125-8.535156 8.53125zm0 0"/><path d="m130.515625 232.929688-8.535156 8.535156c-2.21875 2.140625-3.105469 5.316406-2.324219 8.296875.777344 2.984375 3.109375 5.316406 6.09375 6.097656 2.980469.777344 6.15625-.109375 8.296875-2.328125l8.535156-8.535156c3.234375-3.347656 3.1875-8.667969-.105469-11.960938-3.292968-3.292968-8.613281-3.339844-11.960937-.105468zm0 0"/><path d="m164.648438 232.929688-8.535157 8.535156c-2.21875 2.140625-3.105469 5.316406-2.324219 8.296875.78125 2.984375 3.109376 5.316406 6.09375 6.097656 2.984376.777344 6.15625-.109375 8.296876-2.328125l8.535156-8.535156c3.234375-3.347656 3.1875-8.667969-.105469-11.960938-3.289063-3.292968-8.613281-3.339844-11.960937-.105468zm0 0"/><path d="m381.515625 232.929688c-3.351563-3.234376-8.671875-3.1875-11.964844.105468-3.289062 3.292969-3.335937 8.613282-.101562 11.960938l8.53125 8.535156c3.347656 3.234375 8.671875 3.1875 11.964843-.105469 3.289063-3.289062 3.335938-8.613281.101563-11.960937zm0 0"/><path d="m347.378906 232.929688c-3.347656-3.234376-8.667968-3.1875-11.960937.105468-3.289063 3.292969-3.335938 8.613282-.101563 11.960938l8.53125 8.535156c3.347656 3.234375 8.671875 3.1875 11.960938-.105469 3.292968-3.289062 3.339844-8.613281.105468-11.960937zm0 0"/><path d="m51.214844 153.628906c0 4.714844-3.820313 8.535156-8.535156 8.535156-4.710938 0-8.53125-3.820312-8.53125-8.535156 0-4.710937 3.820312-8.53125 8.53125-8.53125 4.714843 0 8.535156 3.820313 8.535156 8.53125zm0 0"/><path d="m256.414062 221.898438c-1.902343-.078126-46.515624-1.808594-63.949218 30.027343-5.984375 9.9375-6.253906 22.304688-.699219 32.488281 5.71875 9.265626 15.992187 14.726563 26.871094 14.285157 9.289062-.042969 18.136719-3.945313 24.433593-10.769531 3.117188-3.976563 7.890626-6.300782 12.945313-6.300782 5.050781 0 9.824219 2.324219 12.945313 6.300782 6.292968 6.824218 15.144531 10.726562 24.429687 10.769531 10.878906.441406 21.148437-5.015625 26.871094-14.277344 5.554687-10.183594 5.289062-22.550781-.699219-32.488281-17.425781-31.828125-62.027344-30.097656-63.148438-30.035156zm49.171876 53.820312c-2.695313 4.03125-7.359376 6.292969-12.195313 5.910156-5.03125-.066406-9.773437-2.375-12.929687-6.296875-6.277344-6.859375-15.148438-10.769531-24.445313-10.769531-9.300781 0-18.171875 3.910156-24.449219 10.769531-3.15625 3.921875-7.894531 6.230469-12.929687 6.296875-4.832031.386719-9.496094-1.875-12.191407-5.902344-2.464843-5.007812-2.089843-10.945312.988282-15.601562 12.273437-22.421875 47.820312-21.160156 48.964844-21.160156.324218 0 35.917968-1.261719 48.195312 21.171875 3.074219 4.652343 3.453125 10.585937.992188 15.589843zm0 0"/></svg>