<?xml version="1.0" encoding="iso-8859-1"?>
<!-- Generator: Adobe Illustrator 19.0.0, SVG Export Plug-In . SVG Version: 6.00 Build 0)  -->
<svg version="1.1" id="Capa_1" xmlns="http://www.w3.org/2000/svg" xmlns:xlink="http://www.w3.org/1999/xlink" x="0px" y="0px"
	 viewBox="0 0 512 512" style="enable-background:new 0 0 512 512;" xml:space="preserve">
<g>
	<g>
		<path d="M256,0C139.392,0,21.333,25.643,21.333,74.667S139.392,149.333,256,149.333s234.667-25.643,234.667-74.667
			C490.667,25.643,372.608,0,256,0z M256,128C125.781,128,42.667,96.427,42.667,74.667S125.781,21.333,256,21.333
			s213.333,31.573,213.333,53.333S386.219,128,256,128z"/>
	</g>
</g>
<g>
	<g>
		<path d="M429.376,68.181C402.219,57.173,346.091,42.667,256,42.667c-88.917,0-145.365,14.208-173.184,25.344
			c-3.2,2.965-6.464,5.867-9.515,9.003C95.232,88.043,153.856,106.667,256,106.667c100.843,0,160.064-18.261,182.784-29.568
			C435.755,74.005,432.555,71.125,429.376,68.181z"/>
	</g>
</g>
<g>
	<g>
		<path d="M256,0c-44.8,0-86.912,11.648-123.584,31.957C165.589,25.579,207.147,21.333,256,21.333
			c49.173,0,90.88,4.373,124.096,10.944C343.317,11.776,301.035,0,256,0z"/>
	</g>
</g>
<g>
	<g>
		<path d="M453.504,93.291C424.149,110.677,354.944,128,256,128c-98.645,0-167.424-17.515-197.035-35.243
			C22.165,137.109,0,194.005,0,256c0,141.163,114.837,256,256,256s256-114.837,256-256C512,194.261,490.027,137.557,453.504,93.291z
			 M160,192c17.643,0,32,14.357,32,32s-14.357,32-32,32s-32-14.357-32-32S142.357,192,160,192z M381.717,336.427
			c-27.669,43.136-74.645,68.907-125.717,68.907s-98.048-25.771-125.717-68.907c-3.179-4.971-1.728-11.563,3.221-14.741
			c4.885-3.2,11.52-1.771,14.72,3.221C171.968,361.899,212.245,384,256,384s84.032-22.101,107.755-59.093
			c3.2-4.971,9.835-6.4,14.72-3.221C383.445,324.864,384.896,331.456,381.717,336.427z M352,256c-17.643,0-32-14.357-32-32
			s14.357-32,32-32c17.643,0,32,14.357,32,32S369.643,256,352,256z"/>
	</g>
</g>
<g>
</g>
<g>
</g>
<g>
</g>
<g>
</g>
<g>
</g>
<g>
</g>
<g>
</g>
<g>
</g>
<g>
</g>
<g>
</g>
<g>
</g>
<g>
</g>
<g>
</g>
<g>
</g>
<g>
</g>
</svg>
