<svg height="512pt" viewBox="0 -34 512.03991 512" width="512pt" xmlns="http://www.w3.org/2000/svg"><path d="m446.761719 20.515625c-29.347657-18.847656-65.066407-25.035156-99.039063-17.152344-40.6875 9.566407-74.589844 37.550781-91.699218 75.679688-17.113282-38.132813-51.019532-66.113281-91.707032-75.679688-33.984375-7.851562-69.699218-1.648437-99.039062 17.210938-31.160156 19.902343-52.953125 51.550781-60.433594 87.757812-29.335938 136.90625 79.597656 247.542969 191.328125 305.484375l55.925781 29.011719c2.460938 1.277344 5.390625 1.277344 7.851563 0l55.925781-29.011719c111.726562-57.917968 220.664062-168.578125 191.316406-305.492187-7.464844-36.226563-29.261718-67.898438-60.429687-87.808594zm-138.746094 378.152344-51.992187 26.957031-51.992188-26.957031c-106.148438-55.011719-209.820312-159.238281-182.496094-286.753907 6.53125-31.734374 25.613282-59.484374 52.90625-76.945312 25.484375-16.410156 56.523438-21.8125 86.050782-14.976562 42.964843 10.308593 76.617187 43.679687 87.277343 86.554687.988281 3.75 4.378907 6.359375 8.253907 6.359375s7.265624-2.609375 8.25-6.359375c10.671874-42.886719 44.34375-76.261719 87.324218-86.554687 29.507813-6.835938 60.527344-1.441407 85.996094 14.953124 27.300781 17.464844 46.382812 45.222657 52.90625 76.96875 27.335938 127.515626-76.335938 231.742188-182.484375 286.753907zm0 0"/><path d="m152.847656 53.257812c4.5625.984376 9.070313-1.878906 10.117188-6.429687s-1.757813-9.097656-6.296875-10.203125c-7.039063-1.625-14.238281-2.449219-21.460938-2.457031-47.375 1.066406-87.667969 34.851562-96.980469 81.3125-.988281 4.609375 1.945313 9.148437 6.554688 10.140625 4.609375.988281 9.148438-1.945313 10.136719-6.554688 7.589843-38.613281 40.949219-66.796875 80.289062-67.832031 5.9375.011719 11.855469.6875 17.640625 2.023437zm0 0"/><path d="m130.523438 232.933594-8.535157 8.535156c-2.214843 2.140625-3.105469 5.316406-2.324219 8.296875.78125 2.984375 3.109376 5.316406 6.09375 6.097656 2.984376.777344 6.15625-.109375 8.296876-2.328125l8.535156-8.535156c3.234375-3.347656 3.1875-8.667969-.105469-11.960938-3.289063-3.292968-8.613281-3.339843-11.960937-.105468zm0 0"/><path d="m164.65625 232.933594-8.53125 8.535156c-2.21875 2.140625-3.109375 5.316406-2.328125 8.296875.78125 2.984375 3.109375 5.316406 6.09375 6.097656 2.984375.777344 6.15625-.109375 8.296875-2.328125l8.535156-8.535156c3.234375-3.347656 3.1875-8.667969-.105468-11.960938-3.289063-3.292968-8.613282-3.339843-11.960938-.105468zm0 0"/><path d="m381.523438 232.933594c-3.347657-3.234375-8.671876-3.1875-11.964844.105468-3.289063 3.292969-3.335938 8.613282-.101563 11.960938l8.53125 8.535156c3.351563 3.234375 8.671875 3.1875 11.964844-.105468 3.289063-3.289063 3.335937-8.613282.101563-11.960938zm0 0"/><path d="m347.390625 232.933594c-3.347656-3.234375-8.671875-3.1875-11.964844.105468-3.289062 3.292969-3.335937 8.613282-.101562 11.960938l8.53125 8.535156c3.347656 3.234375 8.671875 3.1875 11.964843-.105468 3.289063-3.289063 3.335938-8.613282.101563-11.960938zm0 0"/><path d="m51.222656 153.632812c0 4.714844-3.820312 8.535157-8.53125 8.535157-4.714844 0-8.535156-3.820313-8.535156-8.535157 0-4.710937 3.820312-8.53125 8.535156-8.53125 4.710938 0 8.53125 3.820313 8.53125 8.53125zm0 0"/><path d="m207.808594 183.074219c-.59375-1.105469-1.425782-2.066407-2.441406-2.808594l-55.550782-38.910156c-.90625-.625-1.921875-1.066407-2.996094-1.304688-.414062-.0625-.832031-.085937-1.253906-.078125-.632812-.066406-1.273437-.066406-1.910156 0-.441406.101563-.871094.238282-1.289062.410156-.589844.152344-1.164063.367188-1.707032.648438-.390625.253906-.761718.539062-1.109375.851562-.402343.265626-.78125.570313-1.125.90625-.144531.160157-.238281.359376-.382812.527344-.148438.171875-.097657.078125-.128907.128906-.035156.058594-.0625.117188-.085937.179688-10.25 12.359375-12.675781 29.429688-6.273437 44.15625 6.402343 14.722656 20.542968 24.589844 36.570312 25.523438 16.03125.929687 31.21875-7.234376 39.285156-21.117188l.050782-.101562c.125-.230469.296874-.433594.425781-.664063.082031-.214844.15625-.429687.214843-.648437.414063-.898438.671876-1.859376.757813-2.84375 0-.214844.09375-.425782.09375-.648438-.039063-.222656-.09375-.441406-.164063-.65625-.058593-.882812-.265624-1.746094-.605468-2.558594-.097656-.339844-.226563-.671875-.375-.992187zm-62.71875-12.371094c-.011719-3.550781.730468-7.058594 2.167968-10.300781l41.085938 28.78125c-7.40625 7.058594-18.304688 9.023437-27.714844 5.003906-9.40625-4.019531-15.515625-13.253906-15.539062-23.484375zm0 0"/><path d="m303.203125 186.597656c-.066406.21875-.121094.4375-.160156.660156 0 .21875.074219.433594.09375.648438.085937.980469.34375 1.945312.757812 2.839844.058594.21875.128907.4375.214844.648437.125.230469.296875.433594.425781.664063l.050782.105468c8.066406 13.882813 23.253906 22.046876 39.28125 21.113282 16.027343-.929688 30.171874-10.800782 36.574218-25.523438 6.398438-14.722656 3.976563-31.796875-6.273437-44.15625-.023438-.058594-.054688-.121094-.085938-.175781 0-.054687-.09375-.078125-.128906-.128906s-.238281-.367188-.382813-.53125c-.347656-.335938-.722656-.636719-1.128906-.902344-.34375-.316406-.714844-.601563-1.109375-.855469-.539062-.277344-1.113281-.492187-1.703125-.636718-.425781-.179688-.867187-.316407-1.316406-.421876-.601562-.058593-1.207031-.058593-1.808594 0-.453125-.007812-.90625.019532-1.355468.078126-1.070313.238281-2.085938.683593-2.988282 1.304687l-55.550781 38.914063c-1.011719.742187-1.847656 1.699218-2.441406 2.808593-.167969.316407-.308594.648438-.425781.988281-.316407.820313-.5 1.683594-.539063 2.558594zm38.152344 9.703125c-6.582031-.003906-12.910157-2.554687-17.65625-7.117187l41.089843-28.78125c1.4375 3.242187 2.175782 6.75 2.167969 10.300781 0 6.789063-2.699219 13.300781-7.5 18.101563-4.800781 4.800781-11.3125 7.496093-18.101562 7.496093zm0 0"/><path d="m307.222656 221.902344h-102.398437c-4.714844 0-8.535157 3.820312-8.535157 8.53125.324219 16.425781 4.28125 32.578125 11.589844 47.292968 9.214844 18.097657 27.800782 29.496094 48.109375 29.507813 20.3125.011719 38.910157-11.371094 48.144531-29.457031 7.324219-14.726563 11.292969-30.898438 11.625-47.34375 0-4.710938-3.820312-8.53125-8.535156-8.53125zm-9.148437 17.066406c-.910157 8.0625-2.832031 15.976562-5.714844 23.558594-23.449219-8.65625-49.222656-8.65625-72.671875 0-2.886719-7.582032-4.808594-15.496094-5.71875-23.558594zm-14.503907 38.910156c-1.488281 1.769532-3.140624 3.398438-4.933593 4.855469-.351563.273437-.71875.511719-1.066407.777344-1.632812 1.214843-3.378906 2.273437-5.214843 3.15625-.289063.136719-.554688.308593-.851563.4375-2.09375.902343-4.269531 1.597656-6.496094 2.074219-.511718.109374-1.039062.195312-1.5625.289062-4.90625.933594-9.945312.933594-14.855468 0-.527344-.09375-1.058594-.179688-1.570313-.289062-2.222656-.472657-4.390625-1.164063-6.476562-2.066407-.308594-.136719-.589844-.316406-.851563-.460937-1.800781-.878906-3.515625-1.921875-5.121094-3.113282-.375-.28125-.769531-.539062-1.136718-.855468-1.777344-1.445313-3.414063-3.054688-4.886719-4.8125-.113281-.128906-.207031-.28125-.316406-.410156 18.128906-5.699219 37.566406-5.699219 55.695312 0zm0 0"/></svg>