<svg height="512pt" viewBox="0 -34 512.02883 512" width="512pt" xmlns="http://www.w3.org/2000/svg"><path d="m446.761719 20.515625c-29.347657-18.855469-65.070313-25.042969-99.046875-17.152344-40.6875 9.570313-74.589844 37.550781-91.699219 75.683594-17.117187-38.132813-51.015625-66.109375-91.699219-75.683594-33.988281-7.871093-69.710937-1.664062-99.046875 17.210938-31.160156 19.898437-52.953125 51.550781-60.425781 87.757812-29.335938 136.898438 79.597656 247.542969 191.316406 305.484375l55.929688 29.011719c2.460937 1.277344 5.386718 1.277344 7.851562 0l55.925782-29.011719c111.71875-57.914062 220.65625-168.585937 191.316406-305.492187-7.464844-36.226563-29.257813-67.894531-60.421875-87.808594zm-138.746094 378.15625-52 26.953125-52.003906-26.953125c-106.128907-55.023437-209.808594-159.25-182.484375-286.765625 6.53125-31.730469 25.613281-59.476562 52.90625-76.933594 25.480468-16.414062 56.519531-21.816406 86.050781-14.976562 42.964844 10.304687 76.613281 43.683594 87.269531 86.5625.976563 3.761718 4.371094 6.390625 8.261719 6.390625 3.886719 0 7.285156-2.628907 8.257813-6.390625 10.664062-42.890625 44.332031-76.269532 87.3125-86.5625 29.515624-6.816406 60.53125-1.421875 86.007812 14.957031 27.296875 17.460937 46.378906 45.214844 52.90625 76.953125 27.324219 127.515625-76.355469 231.742188-182.484375 286.765625zm0 0"/><path d="m152.828125 53.257812c2.972656.683594 6.082031-.269531 8.160156-2.5 2.078125-2.230468 2.808594-5.398437 1.917969-8.316406-.894531-2.914062-3.273438-5.128906-6.246094-5.816406-7.039062-1.625-14.238281-2.449219-21.460937-2.457031-47.378907 1.0625-87.675781 34.855469-96.972657 81.324219-.984374 4.601562 1.941407 9.136718 6.546876 10.128906.589843.125 1.195312.1875 1.800781.1875 4.019531-.003906 7.492187-2.8125 8.335937-6.742188 7.589844-38.613281 40.949219-66.796875 80.289063-67.832031 5.933593.007813 11.847656.6875 17.628906 2.023437zm0 0"/><path d="m130.515625 232.933594-8.535156 8.535156c-2.21875 2.144531-3.105469 5.316406-2.324219 8.300781.777344 2.980469 3.109375 5.3125 6.09375 6.09375 2.980469.78125 6.15625-.109375 8.296875-2.328125l8.535156-8.535156c3.234375-3.347656 3.1875-8.667969-.105469-11.960938-3.292968-3.292968-8.613281-3.335937-11.960937-.105468zm0 0"/><path d="m164.648438 232.933594-8.535157 8.535156c-2.21875 2.144531-3.105469 5.316406-2.324219 8.300781.78125 2.980469 3.109376 5.3125 6.09375 6.09375 2.984376.78125 6.15625-.109375 8.296876-2.328125l8.535156-8.535156c3.234375-3.347656 3.1875-8.667969-.105469-11.960938-3.289063-3.292968-8.613281-3.335937-11.960937-.105468zm0 0"/><path d="m381.515625 232.933594c-3.351563-3.230469-8.671875-3.1875-11.964844.105468-3.289062 3.292969-3.335937 8.613282-.101562 11.960938l8.53125 8.535156c3.347656 3.234375 8.671875 3.1875 11.964843-.105468 3.289063-3.289063 3.335938-8.613282.101563-11.960938zm0 0"/><path d="m347.378906 232.933594c-3.347656-3.230469-8.667968-3.1875-11.960937.105468-3.289063 3.292969-3.335938 8.613282-.101563 11.960938l8.53125 8.535156c3.347656 3.234375 8.671875 3.1875 11.960938-.105468 3.292968-3.289063 3.339844-8.613282.105468-11.960938zm0 0"/><path d="m51.214844 153.636719c0 4.710937-3.820313 8.53125-8.535156 8.53125-4.710938 0-8.53125-3.820313-8.53125-8.53125 0-4.714844 3.820312-8.535157 8.53125-8.535157 4.714843 0 8.535156 3.820313 8.535156 8.535157zm0 0"/><path d="m366.09375 166.886719c-1.011719-2.027344-2.785156-3.566407-4.933594-4.285157-2.148437-.714843-4.492187-.550781-6.515625.464844l-34.136719 17.066406c-2.894531 1.441407-4.726562 4.398438-4.726562 7.636719 0 3.234375 1.832031 6.191407 4.726562 7.636719l34.136719 17.066406c4.214844 2.105469 9.34375.394532 11.449219-3.824218 2.105469-4.214844.394531-9.34375-3.824219-11.449219l-18.90625-9.429688 18.867188-9.386719c2.042969-1.003906 3.601562-2.78125 4.328125-4.941406.726562-2.160156.558594-4.519531-.464844-6.554687zm0 0"/><path d="m170.679688 162.167969c-14.136719 0-25.597657 11.460937-25.597657 25.601562 0 14.136719 11.460938 25.597657 25.597657 25.597657 14.140624 0 25.601562-11.460938 25.601562-25.597657 0-14.140625-11.460938-25.601562-25.601562-25.601562zm0 34.132812c-4.710938 0-8.53125-3.820312-8.53125-8.53125 0-4.714843 3.820312-8.535156 8.53125-8.535156 4.714843 0 8.535156 3.820313 8.535156 8.535156 0 4.710938-3.820313 8.53125-8.535156 8.53125zm0 0"/><path d="m298.878906 222.011719c-4.609375.066406-8.398437 3.640625-8.730468 8.234375-.085938 1.769531-1.757813 17.253906-34.132813 17.253906-32.207031 0-34.03125-15.359375-34.132813-17.226562-.046874-4.714844-3.902343-8.496094-8.617187-8.453126-4.710937.046876-8.496094 3.902344-8.453125 8.613282 1.421875 14.421875 11.613281 26.460937 25.601562 30.242187v29.492188c0 14.140625 11.460938 25.601562 25.601563 25.601562 14.136719 0 25.597656-11.460937 25.597656-25.601562v-29.492188c13.988281-3.78125 24.179688-15.820312 25.601563-30.242187-.015625-4.609375-3.726563-8.359375-8.335938-8.421875zm-34.332031 68.15625c0 4.714843-3.820313 8.535156-8.53125 8.535156-4.714844 0-8.535156-3.820313-8.535156-8.535156v-25.964844c2.679687.230469 5.503906.367187 8.535156.367187 3.027344 0 5.851563-.136718 8.53125-.367187zm0 0"/></svg>