<?xml version="1.0" encoding="iso-8859-1"?>
<!-- Generator: Adobe Illustrator 19.0.0, SVG Export Plug-In . SVG Version: 6.00 Build 0)  -->
<svg version="1.1" id="Capa_1" xmlns="http://www.w3.org/2000/svg" xmlns:xlink="http://www.w3.org/1999/xlink" x="0px" y="0px"
	 viewBox="0 0 512 512" style="enable-background:new 0 0 512 512;" xml:space="preserve">
<g>
	<g>
		<path d="M256,0C114.837,0,0,114.837,0,256s114.837,256,256,256s256-114.837,256-256S397.163,0,256,0z M330.667,170.667h64
			c5.888,0,10.667,4.779,10.667,10.667S400.555,192,394.667,192h-64c-5.888,0-10.667-4.779-10.667-10.667
			S324.779,170.667,330.667,170.667z M117.333,170.667h64c5.888,0,10.667,4.779,10.667,10.667S187.221,192,181.333,192h-64
			c-5.888,0-10.667-4.779-10.667-10.667S111.445,170.667,117.333,170.667z M256,448c-84.885,0-158.635-54.464-183.531-135.531
			c-1.003-3.243-0.405-6.741,1.6-9.472c2.027-2.731,5.227-4.331,8.597-4.331h346.667c3.371,0,6.571,1.6,8.576,4.331
			c2.005,2.731,2.603,6.229,1.6,9.472C414.635,393.536,340.885,448,256,448z"/>
	</g>
</g>
<g>
</g>
<g>
</g>
<g>
</g>
<g>
</g>
<g>
</g>
<g>
</g>
<g>
</g>
<g>
</g>
<g>
</g>
<g>
</g>
<g>
</g>
<g>
</g>
<g>
</g>
<g>
</g>
<g>
</g>
</svg>
