<svg height="512pt" viewBox="0 -34 512.03991 512" width="512pt" xmlns="http://www.w3.org/2000/svg"><path d="m446.761719 20.515625c-29.347657-18.847656-65.066407-25.035156-99.039063-17.152344-40.6875 9.566407-74.589844 37.550781-91.699218 75.679688-17.113282-38.132813-51.019532-66.113281-91.707032-75.679688-33.984375-7.855469-69.699218-1.648437-99.039062 17.210938-31.160156 19.902343-52.953125 51.550781-60.433594 87.757812-29.335938 136.90625 79.597656 247.542969 191.328125 305.484375l55.925781 29.011719c2.460938 1.277344 5.390625 1.277344 7.851563 0l55.925781-29.011719c111.726562-57.917968 220.664062-168.578125 191.316406-305.492187-7.464844-36.226563-29.261718-67.898438-60.429687-87.808594zm-138.746094 378.152344-51.992187 26.957031-51.992188-26.957031c-106.148438-55.011719-209.820312-159.238281-182.496094-286.753907 6.53125-31.734374 25.613282-59.484374 52.90625-76.945312 25.484375-16.410156 56.523438-21.8125 86.050782-14.976562 42.964843 10.308593 76.617187 43.679687 87.277343 86.554687.988281 3.75 4.378907 6.359375 8.253907 6.359375s7.265624-2.609375 8.25-6.359375c10.671874-42.886719 44.34375-76.261719 87.324218-86.554687 29.507813-6.835938 60.527344-1.441407 85.996094 14.953124 27.300781 17.464844 46.382812 45.222657 52.90625 76.96875 27.335938 127.515626-76.335938 231.742188-182.484375 286.753907zm0 0"/><path d="m152.847656 53.257812c4.5625.984376 9.070313-1.878906 10.117188-6.429687s-1.757813-9.097656-6.296875-10.203125c-7.039063-1.625-14.238281-2.449219-21.460938-2.457031-47.375 1.066406-87.667969 34.851562-96.980469 81.3125-.988281 4.609375 1.945313 9.148437 6.554688 10.140625 4.609375.988281 9.148438-1.945313 10.136719-6.554688 7.589843-38.613281 40.949219-66.796875 80.289062-67.832031 5.9375.011719 11.855469.6875 17.640625 2.023437zm0 0"/><path d="m298.886719 222.019531c-4.671875-.109375-8.5625 3.558594-8.730469 8.226563-.085938 1.765625-1.765625 17.253906-34.132812 17.253906-32.214844 0-34.03125-15.359375-34.132813-17.226562-.046875-4.714844-3.902344-8.496094-8.617187-8.453126-4.710938.042969-8.496094 3.902344-8.449219 8.613282 0 .34375.585937 34.132812 51.199219 34.132812 50.609374 0 51.199218-33.789062 51.199218-34.132812-.007812-4.613282-3.722656-8.363282-8.335937-8.414063zm0 0"/><path d="m130.523438 232.933594-8.535157 8.535156c-2.214843 2.140625-3.105469 5.316406-2.324219 8.296875.78125 2.984375 3.109376 5.316406 6.09375 6.097656 2.984376.777344 6.15625-.109375 8.296876-2.328125l8.535156-8.535156c3.234375-3.347656 3.1875-8.667969-.105469-11.960938-3.289063-3.292968-8.613281-3.339843-11.960937-.105468zm0 0"/><path d="m164.65625 232.933594-8.53125 8.535156c-2.21875 2.140625-3.109375 5.316406-2.328125 8.296875.78125 2.984375 3.109375 5.316406 6.09375 6.097656 2.984375.777344 6.15625-.109375 8.296875-2.328125l8.535156-8.535156c3.234375-3.347656 3.1875-8.667969-.105468-11.960938-3.289063-3.292968-8.613282-3.339843-11.960938-.105468zm0 0"/><path d="m381.523438 232.933594c-3.347657-3.234375-8.671876-3.1875-11.964844.105468-3.289063 3.292969-3.335938 8.613282-.101563 11.960938l8.53125 8.535156c3.351563 3.234375 8.671875 3.1875 11.964844-.105468 3.289063-3.289063 3.335937-8.613282.101563-11.960938zm0 0"/><path d="m347.390625 232.933594c-3.347656-3.234375-8.671875-3.1875-11.964844.105468-3.289062 3.292969-3.335937 8.613282-.101562 11.960938l8.53125 8.535156c3.347656 3.234375 8.671875 3.1875 11.964843-.105468 3.289063-3.289063 3.335938-8.613282.101563-11.960938zm0 0"/><path d="m51.222656 153.632812c0 4.714844-3.820312 8.535157-8.53125 8.535157-4.714844 0-8.535156-3.820313-8.535156-8.535157 0-4.710937 3.820312-8.53125 8.535156-8.53125 4.710938 0 8.53125 3.820313 8.53125 8.53125zm0 0"/><path d="m187.757812 187.769531h-34.136718c-4.710938 0-8.53125 3.820313-8.53125 8.53125 0 4.714844 3.820312 8.535157 8.53125 8.535157h34.136718c4.710938 0 8.53125-3.820313 8.53125-8.535157 0-4.710937-3.820312-8.53125-8.53125-8.53125zm0 0"/><path d="m358.421875 187.769531h-34.132813c-4.710937 0-8.53125 3.820313-8.53125 8.53125 0 4.714844 3.820313 8.535157 8.53125 8.535157h34.132813c4.714844 0 8.535156-3.820313 8.535156-8.535157 0-4.710937-3.820312-8.53125-8.535156-8.53125zm0 0"/><path d="m187.757812 162.167969h-34.136718c-4.710938 0-8.53125 3.820312-8.53125 8.535156 0 4.710937 3.820312 8.53125 8.53125 8.53125h34.136718c4.710938 0 8.53125-3.820313 8.53125-8.53125 0-4.714844-3.820312-8.535156-8.53125-8.535156zm0 0"/><path d="m324.289062 179.234375h34.132813c4.714844 0 8.535156-3.820313 8.535156-8.53125 0-4.714844-3.820312-8.535156-8.535156-8.535156h-34.132813c-4.710937 0-8.53125 3.820312-8.53125 8.535156 0 4.710937 3.820313 8.53125 8.53125 8.53125zm0 0"/></svg>