<?xml version="1.0" encoding="iso-8859-1"?>
<!-- Generator: Adobe Illustrator 19.0.0, SVG Export Plug-In . SVG Version: 6.00 Build 0)  -->
<svg version="1.1" id="Capa_1" xmlns="http://www.w3.org/2000/svg" xmlns:xlink="http://www.w3.org/1999/xlink" x="0px" y="0px"
	 viewBox="0 0 512 512" style="enable-background:new 0 0 512 512;" xml:space="preserve">
<g>
	<g>
		<path d="M254.016,344.715l-49.344-69.099c-3.029-4.245-2.56-10.048,1.131-13.739l55.851-55.851l-65.92-56.512
			c-2.197-1.899-3.541-4.587-3.712-7.445c-0.171-2.901,0.832-5.717,2.773-7.851c0.363-0.405,34.475-37.845,50.539-62.741V44.533
			C218.645,17.973,182.507,2.741,144,2.741c-79.403,0-144,64.597-144,144c0,160.384,211.925,335.851,245.333,362.496v-3.221
			l-31.317-83.52c-1.109-2.987-0.853-6.293,0.725-9.045L254.016,344.715z"/>
	</g>
</g>
<g>
	<g>
		<path d="M368,2.741c-38.507,0-74.645,15.232-101.333,41.792v30.037c0,1.984-0.555,3.925-1.579,5.589
			c-12.096,19.627-35.328,46.784-47.211,60.245l66.389,56.917c2.261,1.92,3.605,4.715,3.712,7.68s-1.003,5.845-3.115,7.957
			l-57.621,57.621l48.085,67.307c2.432,3.392,2.645,7.872,0.576,11.499l-40.171,70.315l30.229,80.64
			c0.448,1.195,0.683,2.475,0.683,3.755v5.163C300.075,482.592,512,307.125,512,146.741C512,67.339,447.403,2.741,368,2.741z"/>
	</g>
</g>
<g>
</g>
<g>
</g>
<g>
</g>
<g>
</g>
<g>
</g>
<g>
</g>
<g>
</g>
<g>
</g>
<g>
</g>
<g>
</g>
<g>
</g>
<g>
</g>
<g>
</g>
<g>
</g>
<g>
</g>
</svg>
