<?xml version="1.0" encoding="iso-8859-1"?>
<!-- Generator: Adobe Illustrator 19.0.0, SVG Export Plug-In . SVG Version: 6.00 Build 0)  -->
<svg version="1.1" id="Capa_1" xmlns="http://www.w3.org/2000/svg" xmlns:xlink="http://www.w3.org/1999/xlink" x="0px" y="0px"
	 viewBox="0 0 512 512" style="enable-background:new 0 0 512 512;" xml:space="preserve">
<g>
	<g>
		<path d="M256,0C114.8,0,0,114.8,0,256c0,72.7,31.6,142.3,86.7,191.1c2,1.8,4.5,2.7,7.1,2.7c2.6,0,5.2-1,7.3-2.9
			c4.9-4.6,9.5-8,14.5-10.5c3-1.6,5.6-4,6.1-7.3c0.5-3.4-0.1-6.3-2.5-8.7c-0.4-0.6-0.9-1.1-1.5-1.6c-1.6-1.4-3.1-3.1-4.7-5.2
			c-0.1-0.2-0.4-0.4-0.6-0.7c-0.2-0.5-0.5-1-0.6-1.2c-0.9-1.4-1.7-2.9-2.4-4.6l-0.9-2.1c-0.6-1.6-0.9-3.3-1.6-6.8
			c-0.3-2.6-0.3-4.9,0.2-8c0.3-1.8,0.5-3.5,0.9-4.7l0.7-2.1c0.3-0.9,0.9-2.1,1.9-4.4c22.5-61.8,79.6-101.7,145.3-101.7
			S378.8,317.2,401.8,380c0.6,1.3,1.3,2.7,1.1,2c0.1,0.5,0.7,2.4,0.9,2.9c0.5,1.7,0.8,3.5,1.3,6.2c0.3,2.2,0.3,4.5-0.4,8.8
			c-0.3,1.7-0.6,3.4-1.2,5c0,0.1-0.9,2.2-0.9,2.3c-0.7,1.5-1.5,3-2.3,4.4c0,0-0.3,0.6-0.6,1.1c-0.2,0.3-0.4,0.5-0.6,0.7
			c-1.4,2-2.9,3.6-5,5.6c-2.6,2.4-3.8,5.8-3.3,9.3s2.6,6.5,5.7,8c4.9,2.5,9.6,5.8,14.5,10.5c4,3.8,10.2,3.8,14.4,0.2
			c55-48.7,86.6-118.4,86.6-191C512,114.8,397.2,0,256,0z M181.3,234.7h-64c-5.9,0-10.7-4.8-10.7-10.7s4.8-10.7,10.7-10.7h64
			c5.9,0,10.7,4.8,10.7,10.7S187.2,234.7,181.3,234.7z M394.7,234.7h-64c-5.9,0-10.7-4.8-10.7-10.7s4.8-10.7,10.7-10.7h64
			c5.9,0,10.7,4.8,10.7,10.7S400.6,234.7,394.7,234.7z"/>
	</g>
</g>
<g>
	<g>
		<path d="M256,298.6c-55.6,0-104.2,33.8-124.2,84.7c17.4-17.5,54.1-42,124.2-42s106.8,24.5,124.2,42
			C360.2,332.4,311.6,298.6,256,298.6z"/>
	</g>
</g>
<g>
	<g>
		<path d="M256,341.3c64,0,100.2,20.4,119.2,37.3C362.2,363.9,330.1,341.3,256,341.3z"/>
	</g>
</g>
<g>
	<g>
		<path d="M136.8,378.6c19-16.9,55.2-37.3,119.2-37.3C181.9,341.3,149.8,363.9,136.8,378.6z"/>
	</g>
</g>
<g>
	<g>
		<path d="M405.3,479.2c-1.4-18.1-23.7-31-51.9-30.1c-1.2-2.2-0.6-12.4,5.9-25.8c4.8-9.9,9.9-15.3,12.6-17.1
			c-8.2-11.5-38.1-43.5-115.9-43.5S148.2,395,140.1,406.3c2.8,1.9,7.9,7.3,12.6,17c6.5,13.4,7.1,23.6,7.4,24.7
			c-29.5,0-51.9,13.1-53.4,31.9c-0.4,5.6-1.1,14,5.3,21c7.3,7.9,21.2,11.1,48,11.1h192c26.8,0,40.7-3.2,48-11.1
			C406.5,493.9,405.8,485.5,405.3,479.2z M224,469.3c-5.9,0-10.7-4.8-10.7-10.7c0-11.2-13.4-50.6-18.3-56.6
			c-3.6-4.4-3.5-11.1,0.7-15c4.2-3.8,10.4-4,14.5,0c9.3,9.3,24.4,56.1,24.4,71.6C234.7,464.6,229.9,469.3,224,469.3z M317,402.1
			c-5,6.1-18.3,45.4-18.3,56.6c0,5.9-4.8,10.7-10.7,10.7c-5.9,0-10.7-4.8-10.7-10.7c0-15.4,15.1-62.2,24.4-71.6
			c4.2-4.2,10.9-4.2,15.1,0C321,391.3,321,397.9,317,402.1z"/>
	</g>
</g>
<g>
</g>
<g>
</g>
<g>
</g>
<g>
</g>
<g>
</g>
<g>
</g>
<g>
</g>
<g>
</g>
<g>
</g>
<g>
</g>
<g>
</g>
<g>
</g>
<g>
</g>
<g>
</g>
<g>
</g>
</svg>
