<?xml version="1.0" encoding="iso-8859-1"?>
<!-- Generator: Adobe Illustrator 19.0.0, SVG Export Plug-In . SVG Version: 6.00 Build 0)  -->
<svg version="1.1" id="Capa_1" xmlns="http://www.w3.org/2000/svg" xmlns:xlink="http://www.w3.org/1999/xlink" x="0px" y="0px"
	 viewBox="0 0 512 512" style="enable-background:new 0 0 512 512;" xml:space="preserve">
<g>
	<g>
		<path d="M256,0C114.837,0,0,114.837,0,256s114.837,256,256,256s256-114.837,256-256S397.163,0,256,0z M128,181.333
			c0-17.643,14.357-32,32-32s32,14.357,32,32c0,12.459-7.232,23.168-17.664,28.459C181.333,227.605,192,256.405,192,266.667
			c0,17.643-14.357,32-32,32s-32-14.357-32-32c0-10.261,10.667-39.061,17.664-56.875C135.232,204.501,128,193.792,128,181.333z
			 M378.475,403.648c-1.771,1.152-3.776,1.685-5.739,1.685c-3.499,0-6.933-1.728-8.981-4.907
			c-23.723-36.992-64-59.093-107.755-59.093s-84.032,22.101-107.755,59.093c-3.2,4.992-9.813,6.379-14.72,3.221
			c-4.949-3.179-6.421-9.771-3.221-14.741C157.952,345.771,204.928,320,256,320s98.048,25.771,125.717,68.907
			C384.896,393.877,383.445,400.469,378.475,403.648z M352,213.333c-17.643,0-32-14.357-32-32c0-17.643,14.357-32,32-32
			c17.643,0,32,14.357,32,32C384,198.976,369.643,213.333,352,213.333z"/>
	</g>
</g>
<g>
</g>
<g>
</g>
<g>
</g>
<g>
</g>
<g>
</g>
<g>
</g>
<g>
</g>
<g>
</g>
<g>
</g>
<g>
</g>
<g>
</g>
<g>
</g>
<g>
</g>
<g>
</g>
<g>
</g>
</svg>
