<?xml version="1.0" encoding="iso-8859-1"?>
<!-- Generator: Adobe Illustrator 19.0.0, SVG Export Plug-In . SVG Version: 6.00 Build 0)  -->
<svg version="1.1" id="Capa_1" xmlns="http://www.w3.org/2000/svg" xmlns:xlink="http://www.w3.org/1999/xlink" x="0px" y="0px"
	 viewBox="0 0 510.041 510.041" style="enable-background:new 0 0 510.041 510.041;" xml:space="preserve">
<g>
	<g>
		<path d="M436.034,73.997C388.333,26.295,324.76,0.013,257.005,0.013c-68.48,0-132.971,26.773-181.611,75.392
			C27.053,123.746,0.279,187.874,0.002,255.97c-0.277,68.139,26.005,132.075,74.005,180.075
			c47.701,47.723,111.296,73.984,179.029,73.984c68.48,0,132.971-26.773,181.611-75.392
			c48.341-48.341,75.115-112.469,75.392-180.565C510.295,185.933,484.034,121.975,436.034,73.997z M205.805,95.415
			c5.227-2.603,11.669-0.491,14.293,4.8l29.803,59.968c2.624,5.291,0.469,11.669-4.8,14.293c-1.515,0.768-3.136,1.109-4.757,1.109
			c-3.925,0-7.68-2.176-9.536-5.909l-29.803-59.968C198.381,104.418,200.535,98.039,205.805,95.415z M349.442,415.863
			c-0.491,3.328-2.56,6.251-5.525,7.851c-27.712,14.741-58.965,22.549-90.389,22.549c-0.021,0,0,0-0.021,0
			c-50.795,0-98.453-19.712-134.229-55.488c-59.563-59.563-72.789-149.824-32.939-224.64c1.579-2.987,4.501-5.035,7.851-5.525
			c3.307-0.448,6.699,0.619,9.109,3.008l243.136,243.136C348.823,409.143,349.933,412.535,349.442,415.863z M414.637,304.226
			c-1.877,3.755-5.653,5.909-9.557,5.909c-1.6,0-3.221-0.363-4.757-1.109l-59.968-29.803c-5.269-2.624-7.424-9.024-4.821-14.293
			c2.645-5.291,9.088-7.424,14.315-4.8l59.989,29.803C415.085,292.535,417.24,298.935,414.637,304.226z"/>
	</g>
</g>
<g>
</g>
<g>
</g>
<g>
</g>
<g>
</g>
<g>
</g>
<g>
</g>
<g>
</g>
<g>
</g>
<g>
</g>
<g>
</g>
<g>
</g>
<g>
</g>
<g>
</g>
<g>
</g>
<g>
</g>
</svg>
