<svg height="512pt" viewBox="0 -34 512.03735 512" width="512pt" xmlns="http://www.w3.org/2000/svg"><path d="m446.769531 20.511719c-29.351562-18.84375-65.070312-25.027344-99.046875-17.152344-40.683594 9.574219-74.582031 37.554687-91.699218 75.683594-17.117188-38.132813-51.023438-66.113281-91.707032-75.683594-33.984375-7.859375-69.699218-1.65625-99.039062 17.203125-31.15625 19.90625-52.953125 51.554688-60.433594 87.765625-29.335938 136.898437 79.597656 247.542969 191.328125 305.484375l55.925781 29.011719c2.460938 1.277343 5.390625 1.277343 7.851563 0l55.925781-29.011719c111.71875-57.914062 220.65625-168.585938 191.316406-305.492188-7.464844-36.226562-29.257812-67.894531-60.421875-87.808593zm-138.753906 378.152343-51.992187 26.957032-51.992188-26.957032c-106.148438-55.019531-209.820312-159.246093-182.496094-286.761718 6.535156-31.730469 25.613282-59.476563 52.90625-76.9375 25.484375-16.410156 56.523438-21.8125 86.050782-14.972656 42.964843 10.308593 76.613281 43.683593 87.277343 86.5625.988281 3.746093 4.378907 6.355468 8.253907 6.355468s7.265624-2.609375 8.25-6.355468c10.671874-42.890626 44.339843-76.269532 87.324218-86.5625 29.511719-6.824219 60.53125-1.429688 86.007813 14.957031 27.296875 17.460937 46.375 45.214843 52.90625 76.953125 27.324219 127.515625-76.359375 231.742187-182.496094 286.761718zm0 0"/><path d="m152.847656 53.253906c4.5625.984375 9.070313-1.878906 10.117188-6.429687s-1.757813-9.097657-6.296875-10.203125c-7.035157-1.625-14.238281-2.449219-21.460938-2.457032-47.375 1.066407-87.671875 34.855469-96.980469 81.324219-.988281 4.609375 1.949219 9.144531 6.558594 10.132813 4.609375.988281 9.144532-1.949219 10.132813-6.558594 7.589843-38.617188 40.949219-66.800781 80.289062-67.832031 5.9375.007812 11.855469.6875 17.640625 2.023437zm0 0"/><path d="m130.523438 241.464844-8.535157 8.535156c-2.214843 2.140625-3.105469 5.3125-2.324219 8.296875s3.109376 5.3125 6.09375 6.09375c2.984376.78125 6.15625-.109375 8.296876-2.328125l8.535156-8.53125c3.234375-3.347656 3.1875-8.671875-.105469-11.960938-3.289063-3.292968-8.613281-3.339843-11.960937-.105468zm0 0"/><path d="m164.65625 241.464844-8.53125 8.535156c-2.21875 2.140625-3.109375 5.3125-2.328125 8.296875s3.109375 5.3125 6.09375 6.09375 6.15625-.109375 8.296875-2.328125l8.535156-8.53125c3.234375-3.347656 3.1875-8.671875-.105468-11.960938-3.289063-3.292968-8.613282-3.339843-11.960938-.105468zm0 0"/><path d="m381.523438 241.464844c-3.347657-3.234375-8.671876-3.1875-11.964844.105468-3.289063 3.289063-3.335938 8.613282-.101563 11.960938l8.53125 8.53125c3.351563 3.234375 8.671875 3.1875 11.964844-.101562 3.289063-3.292969 3.335937-8.613282.101563-11.960938zm0 0"/><path d="m347.390625 241.464844c-3.347656-3.234375-8.671875-3.1875-11.964844.105468-3.289062 3.289063-3.335937 8.613282-.101562 11.960938l8.53125 8.53125c3.347656 3.234375 8.671875 3.1875 11.964843-.101562 3.289063-3.292969 3.335938-8.613282.101563-11.960938zm0 0"/><path d="m51.222656 153.632812c0 4.710938-3.820312 8.53125-8.53125 8.53125-4.714844 0-8.535156-3.820312-8.535156-8.53125 0-4.714843 3.820312-8.535156 8.535156-8.535156 4.710938 0 8.53125 3.820313 8.53125 8.535156zm0 0"/><path d="m187.757812 179.230469h-59.734374c-4.714844 0-8.535157 3.820312-8.535157 8.535156 0 4.710937 3.820313 8.53125 8.535157 8.53125v17.066406c0 4.714844 3.820312 8.535157 8.53125 8.535157 4.714843 0 8.535156-3.820313 8.535156-8.535157v-17.066406h25.601562v17.066406c0 4.714844 3.820313 8.535157 8.53125 8.535157 4.714844 0 8.535156-3.820313 8.535156-8.535157v-17.066406c4.710938 0 8.53125-3.820313 8.53125-8.53125 0-4.714844-3.820312-8.535156-8.53125-8.535156zm0 0"/><path d="m384.023438 179.230469h-59.734376c-4.710937 0-8.53125 3.820312-8.53125 8.535156 0 4.710937 3.820313 8.53125 8.53125 8.53125v17.066406c0 4.714844 3.820313 8.535157 8.535157 8.535157 4.710937 0 8.53125-3.820313 8.53125-8.535157v-17.066406h25.601562v17.066406c0 4.714844 3.820313 8.535157 8.53125 8.535157 4.714844 0 8.535157-3.820313 8.535157-8.535157v-17.066406c4.710937 0 8.53125-3.820313 8.53125-8.53125 0-4.714844-3.820313-8.535156-8.53125-8.535156zm0 0"/><path d="m290.15625 221.898438c-4.710938 0-8.535156 3.820312-8.535156 8.53125v8.535156c0 4.710937-3.820313 8.53125-8.53125 8.53125-4.714844 0-8.535156-3.820313-8.535156-8.53125v-8.535156c0-4.710938-3.820313-8.53125-8.53125-8.53125-4.714844 0-8.535157 3.820312-8.535157 8.53125v8.535156c0 4.710937-3.820312 8.53125-8.53125 8.53125-4.714843 0-8.535156-3.820313-8.535156-8.53125v-8.535156c0-4.710938-3.820313-8.53125-8.53125-8.53125-4.714844 0-8.535156 3.820312-8.535156 8.53125v8.535156c-.042969 10.117187 5.898437 19.304687 15.144531 23.410156 9.25 4.105469 20.046875 2.351562 27.523438-4.464844 7.472656 6.816406 18.273437 8.570313 27.519531 4.464844 9.25-4.105469 15.191406-13.292969 15.148437-23.410156v-8.535156c0-4.710938-3.824218-8.53125-8.535156-8.53125zm0 0"/></svg>