<svg height="512pt" viewBox="0 -34 512.02883 512" width="512pt" xmlns="http://www.w3.org/2000/svg"><path d="m446.761719 20.515625c-29.347657-18.855469-65.070313-25.042969-99.046875-17.152344-40.6875 9.570313-74.589844 37.550781-91.699219 75.679688-17.117187-38.128907-51.015625-66.109375-91.699219-75.679688-33.984375-7.871093-69.710937-1.664062-99.046875 17.210938-31.160156 19.898437-52.953125 51.546875-60.425781 87.757812-29.335938 136.898438 79.597656 247.542969 191.316406 305.484375l55.929688 29.011719c2.460937 1.277344 5.386718 1.277344 7.851562 0l55.925782-29.011719c111.71875-57.917968 220.65625-168.585937 191.316406-305.492187-7.464844-36.226563-29.257813-67.894531-60.421875-87.808594zm-138.746094 378.152344-52 26.957031-52.003906-26.957031c-106.128907-55.023438-209.808594-159.246094-182.484375-286.761719 6.53125-31.734375 25.613281-59.480469 52.90625-76.9375 25.480468-16.410156 56.519531-21.8125 86.050781-14.972656 42.964844 10.304687 76.613281 43.679687 87.269531 86.558594.976563 3.765624 4.371094 6.394531 8.261719 6.394531 3.886719 0 7.285156-2.628907 8.257813-6.394531 10.664062-42.890626 44.332031-76.265626 87.3125-86.558594 29.515624-6.816406 60.53125-1.421875 86.007812 14.957031 27.296875 17.460937 46.378906 45.214844 52.90625 76.953125 27.324219 127.515625-76.355469 231.738281-182.484375 286.761719zm0 0"/><path d="m152.828125 53.257812c2.972656.683594 6.082031-.269531 8.160156-2.5 2.078125-2.230468 2.808594-5.398437 1.917969-8.316406-.894531-2.914062-3.273438-5.132812-6.246094-5.816406-7.039062-1.625-14.238281-2.449219-21.460937-2.457031-47.378907 1.0625-87.675781 34.855469-96.972657 81.324219-.984374 4.601562 1.941407 9.136718 6.546876 10.128906.589843.125 1.195312.1875 1.800781.1875 4.019531-.003906 7.492187-2.8125 8.335937-6.742188 7.589844-38.613281 40.949219-66.796875 80.289063-67.832031 5.933593.007813 11.847656.6875 17.628906 2.023437zm0 0"/><path d="m130.515625 232.933594-8.535156 8.535156c-2.21875 2.140625-3.105469 5.316406-2.324219 8.296875.777344 2.984375 3.109375 5.316406 6.09375 6.097656 2.980469.777344 6.15625-.109375 8.296875-2.328125l8.535156-8.535156c3.234375-3.347656 3.1875-8.667969-.105469-11.960938-3.292968-3.292968-8.613281-3.339843-11.960937-.105468zm0 0"/><path d="m164.648438 232.933594-8.535157 8.535156c-2.21875 2.140625-3.105469 5.316406-2.324219 8.296875.78125 2.984375 3.109376 5.316406 6.09375 6.097656 2.984376.777344 6.15625-.109375 8.296876-2.328125l8.535156-8.535156c3.234375-3.347656 3.1875-8.667969-.105469-11.960938-3.289063-3.292968-8.613281-3.339843-11.960937-.105468zm0 0"/><path d="m381.515625 232.933594c-3.351563-3.234375-8.671875-3.1875-11.964844.105468-3.289062 3.292969-3.335937 8.613282-.101562 11.960938l8.53125 8.535156c3.347656 3.234375 8.671875 3.1875 11.964843-.105468 3.289063-3.289063 3.335938-8.613282.101563-11.960938zm0 0"/><path d="m347.378906 232.933594c-3.347656-3.234375-8.667968-3.1875-11.960937.105468-3.289063 3.292969-3.335938 8.613282-.101563 11.960938l8.53125 8.535156c3.347656 3.234375 8.671875 3.1875 11.960938-.105468 3.292968-3.289063 3.339844-8.613282.105468-11.960938zm0 0"/><path d="m51.214844 153.632812c0 4.714844-3.820313 8.535157-8.535156 8.535157-4.710938 0-8.53125-3.820313-8.53125-8.535157 0-4.710937 3.820312-8.53125 8.53125-8.53125 4.714843 0 8.535156 3.820313 8.535156 8.53125zm0 0"/><path d="m290.148438 221.902344c-4.714844 0-8.535157 3.820312-8.535157 8.53125v8.535156c0 4.710938-3.820312 8.53125-8.53125 8.53125-4.714843 0-8.535156-3.820312-8.535156-8.53125v-8.535156c0-4.710938-3.820313-8.53125-8.53125-8.53125-4.714844 0-8.535156 3.820312-8.535156 8.53125v8.535156c0 4.710938-3.820313 8.53125-8.53125 8.53125-4.714844 0-8.535157-3.820312-8.535157-8.53125v-8.535156c0-4.710938-3.820312-8.53125-8.53125-8.53125-4.714843 0-8.535156 3.820312-8.535156 8.53125v8.535156c-.042968 10.117188 5.898438 19.300781 15.144532 23.40625 9.246093 4.109375 20.046874 2.355469 27.523437-4.464844 7.472656 6.820313 18.273437 8.574219 27.519531 4.464844 9.246094-4.105469 15.191406-13.289062 15.144532-23.40625v-8.535156c0-4.710938-3.820313-8.53125-8.53125-8.53125zm0 0"/><path d="m170.679688 162.167969c-14.136719 0-25.597657 11.460937-25.597657 25.601562 0 14.136719 11.460938 25.597657 25.597657 25.597657 14.140624 0 25.601562-11.460938 25.601562-25.597657 0-14.140625-11.460938-25.601562-25.601562-25.601562zm0 34.132812c-4.710938 0-8.53125-3.820312-8.53125-8.53125 0-4.714843 3.820312-8.535156 8.53125-8.535156 4.714843 0 8.535156 3.820313 8.535156 8.535156 0 4.710938-3.820313 8.53125-8.535156 8.53125zm0 0"/><path d="m341.347656 162.167969c-14.136718 0-25.601562 11.460937-25.601562 25.601562 0 14.136719 11.464844 25.597657 25.601562 25.597657 14.136719 0 25.601563-11.460938 25.601563-25.597657 0-14.140625-11.464844-25.601562-25.601563-25.601562zm0 34.132812c-4.710937 0-8.535156-3.820312-8.535156-8.53125 0-4.714843 3.824219-8.535156 8.535156-8.535156 4.714844 0 8.535156 3.820313 8.535156 8.535156 0 4.710938-3.820312 8.53125-8.535156 8.53125zm0 0"/></svg>