<?xml version="1.0" encoding="iso-8859-1"?>
<!-- Generator: Adobe Illustrator 19.0.0, SVG Export Plug-In . SVG Version: 6.00 Build 0)  -->
<svg version="1.1" id="Capa_1" xmlns="http://www.w3.org/2000/svg" xmlns:xlink="http://www.w3.org/1999/xlink" x="0px" y="0px"
	 viewBox="0 0 512 512" style="enable-background:new 0 0 512 512;" xml:space="preserve">
<g>
	<g>
		<path d="M256,0C114.837,0,0,114.837,0,256s114.837,256,256,256s256-114.837,256-256S397.163,0,256,0z M305.963,149.888l64-21.333
			c5.653-1.899,11.627,1.152,13.483,6.741c1.856,5.589-1.152,11.627-6.741,13.483l-64,21.333c-1.131,0.384-2.261,0.555-3.371,0.555
			c-4.459,0-8.619-2.816-10.112-7.296C297.344,157.781,300.373,151.744,305.963,149.888z M384,202.667c0,17.643-14.357,32-32,32
			c-17.643,0-32-14.357-32-32c0-17.643,14.357-32,32-32C369.643,170.667,384,185.024,384,202.667z M128.555,135.296
			c1.856-5.589,7.851-8.64,13.483-6.741l64,21.333c5.589,1.856,8.597,7.893,6.741,13.483c-1.493,4.48-5.653,7.296-10.112,7.296
			c-1.109,0-2.24-0.171-3.371-0.555l-64-21.333C129.707,146.923,126.677,140.885,128.555,135.296z M160,170.667
			c17.643,0,32,14.357,32,32c0,17.643-14.357,32-32,32s-32-14.357-32-32C128,185.024,142.357,170.667,160,170.667z M409.024,379.669
			c-2.005,2.731-5.184,4.331-8.576,4.331H111.552c-3.392,0-6.571-1.6-8.576-4.331c-2.005-2.709-2.603-6.229-1.621-9.472
			C122.347,301.888,184.491,256,256,256s133.653,45.888,154.645,114.197C411.627,373.44,411.051,376.939,409.024,379.669z"/>
	</g>
</g>
<g>
</g>
<g>
</g>
<g>
</g>
<g>
</g>
<g>
</g>
<g>
</g>
<g>
</g>
<g>
</g>
<g>
</g>
<g>
</g>
<g>
</g>
<g>
</g>
<g>
</g>
<g>
</g>
<g>
</g>
</svg>
