<?xml version="1.0" encoding="iso-8859-1"?>
<!-- Generator: Adobe Illustrator 19.0.0, SVG Export Plug-In . SVG Version: 6.00 Build 0)  -->
<svg version="1.1" id="Capa_1" xmlns="http://www.w3.org/2000/svg" xmlns:xlink="http://www.w3.org/1999/xlink" x="0px" y="0px"
	 viewBox="0 0 512 512" style="enable-background:new 0 0 512 512;" xml:space="preserve">
<g>
	<g>
		<path d="M256,0C114.837,0,0,114.837,0,256s114.837,256,256,256s256-114.837,256-256S397.163,0,256,0z M195.115,82.219
			c-4.16-4.16-4.16-10.923,0-15.083c4.16-4.16,10.923-4.16,15.083,0l3.136,3.115l3.115-3.115c4.16-4.16,10.923-4.16,15.083,0
			c4.16,4.16,4.16,10.923,0,15.083l-3.115,3.115l6.251,6.251l3.115-3.115c4.16-4.16,10.923-4.16,15.083,0
			c4.16,4.16,4.16,10.923,0,15.083l-3.115,3.115l6.251,6.251l3.115-3.115c4.16-4.16,10.923-4.16,15.083,0
			c4.16,4.16,4.16,10.923,0,15.083L271.083,128l6.251,6.251l3.115-3.115c4.16-4.16,10.923-4.16,15.083,0
			c4.16,4.16,4.16,10.923,0,15.083l-3.115,3.115l3.115,3.115c4.16,4.16,4.16,10.923,0,15.083c-2.069,2.091-4.8,3.136-7.531,3.136
			s-5.461-1.045-7.552-3.115l-3.115-3.136l-3.115,3.115c-2.091,2.091-4.821,3.136-7.552,3.136c-2.731,0-5.461-1.045-7.552-3.115
			c-4.16-4.16-4.16-10.923,0-15.083l3.136-3.136L256,143.083l-3.115,3.115c-2.091,2.091-4.821,3.136-7.552,3.136
			c-2.731,0-5.461-1.045-7.552-3.115c-4.16-4.16-4.16-10.923,0-15.083l3.136-3.136l-6.251-6.251l-3.115,3.115
			C229.461,126.955,226.731,128,224,128s-5.461-1.045-7.552-3.115c-4.16-4.16-4.16-10.923,0-15.083l3.136-3.136l-6.251-6.251
			l-3.115,3.136c-2.091,2.069-4.821,3.115-7.552,3.115c-2.731,0-5.461-1.045-7.552-3.115c-4.16-4.16-4.16-10.923,0-15.083
			l3.136-3.136L195.115,82.219z M149.141,149.291L160,149.333l10.859-0.043c13.781,0,42.475,0,42.475,32.043
			c0,29.397-23.915,53.333-53.333,53.333s-53.333-23.936-53.333-53.333C106.667,149.291,135.36,149.291,149.141,149.291z
			 M373.333,362.667h-11.157c-0.981,10.432-3.947,25.664-12.864,34.752c-5.056,5.184-11.52,7.915-18.645,7.915
			c-7.125,0-13.589-2.731-18.645-7.915c-0.96-0.981-1.856-2.048-2.688-3.136c-0.832,1.109-1.728,2.176-2.688,3.136
			c-10.133,10.347-27.157,10.347-37.291,0c-1.173-1.195-2.219-2.475-3.179-3.84c-4.715,6.848-11.392,11.755-20.843,11.755
			c-9.451,0-16.128-4.907-20.843-11.755c-0.96,1.365-2.027,2.667-3.179,3.84c-10.133,10.347-27.157,10.347-37.291,0
			c-1.024-1.045-1.984-2.176-2.859-3.371c-4.971,6.869-11.883,11.285-21.163,11.285c-20.267,0-29.248-21.141-31.424-42.667h-11.243
			c-5.888,0-10.667-4.779-10.667-10.667c0-5.888,4.779-10.667,10.667-10.667h64h0.107h170.325H352h21.333
			c5.888,0,10.667,4.779,10.667,10.667C384,357.888,379.221,362.667,373.333,362.667z M362.667,234.667
			C339.136,234.667,320,215.531,320,192c0-14.421,8.064-22.699,22.123-22.699c2.88,0,6.101,0.299,9.6,0.661
			c6.741,0.661,15.125,0.661,21.867,0c3.499-0.363,6.741-0.661,9.6-0.661c14.08,0,22.144,8.277,22.144,22.699
			C405.333,215.531,386.197,234.667,362.667,234.667z"/>
	</g>
</g>
<g>
</g>
<g>
</g>
<g>
</g>
<g>
</g>
<g>
</g>
<g>
</g>
<g>
</g>
<g>
</g>
<g>
</g>
<g>
</g>
<g>
</g>
<g>
</g>
<g>
</g>
<g>
</g>
<g>
</g>
</svg>
