<?xml version="1.0" encoding="iso-8859-1"?>
<!-- Generator: Adobe Illustrator 19.0.0, SVG Export Plug-In . SVG Version: 6.00 Build 0)  -->
<svg version="1.1" id="Capa_1" xmlns="http://www.w3.org/2000/svg" xmlns:xlink="http://www.w3.org/1999/xlink" x="0px" y="0px"
	 viewBox="0 0 512 512" style="enable-background:new 0 0 512 512;" xml:space="preserve">
<g>
	<g>
		<path d="M255.723,0C118.315,0,6.144,108.928,0.277,244.928l64.939-48.725c-0.96-4.8-1.493-9.771-1.493-14.869
			C63.723,128,119.915,128,138.389,128c7.509,0,21.248,0.064,34.923,3.648c0.448-0.512,0.789-1.088,1.365-1.515
			c5.141-3.84,111.125-82.475,193.941-103.531C334.507,9.728,296.277,0,255.723,0z"/>
	</g>
</g>
<g>
	<g>
		<path d="M397.824,43.221c-67.285,5.013-173.717,77.739-202.752,98.453c10.432,7.851,17.984,20.16,17.984,39.659
			c0,41.173-33.493,74.667-74.667,74.667c-28.224,0-52.544-15.915-65.237-39.083L0.491,271.403
			C8.533,405.376,119.765,512,255.723,512c141.163,0,256-114.837,256-256C511.723,167.403,466.432,89.195,397.824,43.221z
			 M305.685,149.888l64-21.333c5.653-1.899,11.627,1.152,13.483,6.741c1.856,5.589-1.152,11.627-6.741,13.483l-64,21.333
			c-1.131,0.384-2.261,0.555-3.371,0.555c-4.459,0-8.619-2.816-10.112-7.296C297.067,157.781,300.096,151.744,305.685,149.888z
			 M383.723,202.667c0,17.643-14.357,32-32,32c-17.643,0-32-14.357-32-32c0-17.643,14.357-32,32-32
			C369.365,170.667,383.723,185.024,383.723,202.667z M255.723,448c-84.864,0-158.613-54.464-183.531-135.531
			c-0.981-3.243-0.405-6.741,1.621-9.472c2.005-2.731,5.184-4.331,8.576-4.331h346.667c3.392,0,6.571,1.6,8.576,4.331
			c2.005,2.709,2.603,6.229,1.621,9.472C414.336,393.536,340.565,448,255.723,448z"/>
	</g>
</g>
<g>
</g>
<g>
</g>
<g>
</g>
<g>
</g>
<g>
</g>
<g>
</g>
<g>
</g>
<g>
</g>
<g>
</g>
<g>
</g>
<g>
</g>
<g>
</g>
<g>
</g>
<g>
</g>
<g>
</g>
</svg>
