<svg height="512pt" viewBox="0 -34 512.03735 512" width="512pt" xmlns="http://www.w3.org/2000/svg"><path d="m446.769531 20.515625c-29.347656-18.851563-65.070312-25.035156-99.046875-17.152344-40.683594 9.574219-74.582031 37.554688-91.699218 75.683594-17.117188-38.132813-51.023438-66.109375-91.707032-75.683594-33.984375-7.859375-69.699218-1.652343-99.039062 17.203125-31.15625 19.90625-52.953125 51.558594-60.433594 87.765625-29.335938 136.902344 79.597656 247.542969 191.328125 305.484375l55.925781 29.015625c2.460938 1.273438 5.390625 1.273438 7.851563 0l55.925781-29.015625c111.71875-57.914062 220.65625-168.582031 191.316406-305.492187-7.464844-36.226563-29.257812-67.894531-60.421875-87.808594zm-138.753906 378.15625-51.992187 26.957031-51.992188-26.957031c-106.148438-55.023437-209.820312-159.25-182.496094-286.765625 6.535156-31.730469 25.613282-59.476562 52.90625-76.933594 25.484375-16.414062 56.523438-21.816406 86.050782-14.976562 42.964843 10.308594 76.613281 43.683594 87.277343 86.5625.988281 3.746094 4.378907 6.359375 8.253907 6.359375s7.265624-2.613281 8.25-6.359375c10.671874-42.890625 44.339843-76.265625 87.324218-86.5625 29.511719-6.824219 60.53125-1.429688 86.007813 14.957031 27.296875 17.460937 46.375 45.214844 52.90625 76.953125 27.324219 127.515625-76.359375 231.742188-182.496094 286.765625zm0 0"/><path d="m176.507812 137.253906c-5.371093 1.128906-10.332031 3.703125-14.351562 7.4375-7.871094-7.28125-18.988281-9.886718-29.273438-6.867187-10.285156 3.019531-18.226562 11.226562-20.910156 21.605469-5.972656 26.050781 15.085938 46.523437 36.847656 56.996093l9.632813 4.632813c2.339844 1.125 5.066406 1.125 7.40625 0l9.632813-4.644532c21.761718-10.460937 42.855468-30.933593 36.839843-56.984374-3.949219-15.886719-19.84375-25.726563-35.824219-22.175782zm-8.378906 63.785156-5.972656 2.859376-5.972656-2.859376c-15.8125-7.605468-31.371094-21.523437-27.613282-37.769531 1.496094-5.78125 6.777344-9.773437 12.746094-9.632812.980469 0 1.953125.105469 2.910156.304687 4.628907.898438 8.371094 4.292969 9.71875 8.808594 1.042969 3.671875 4.394532 6.203125 8.210938 6.203125s7.167969-2.53125 8.210938-6.203125c1.34375-4.511719 5.085937-7.90625 9.710937-8.808594 6.875-1.632812 13.804687 2.5 15.632813 9.328125 3.753906 16.246094-11.804688 30.164063-27.582032 37.769531zm0 0"/><path d="m364.242188 137.253906c-5.371094 1.128906-10.332032 3.703125-14.351563 7.4375-7.871094-7.28125-18.988281-9.886718-29.273437-6.867187-10.289063 3.019531-18.230469 11.226562-20.914063 21.605469-5.972656 26.050781 15.089844 46.523437 36.847656 56.996093l9.636719 4.632813c2.339844 1.125 5.066406 1.125 7.40625 0l9.632812-4.644532c21.761719-10.460937 42.863282-30.933593 36.839844-56.984374-3.953125-15.882813-19.84375-25.722657-35.824218-22.175782zm-8.378907 63.785156-5.972656 2.859376-5.972656-2.859376c-15.8125-7.605468-31.371094-21.523437-27.617188-37.769531 1.5-5.78125 6.777344-9.773437 12.75-9.632812.976563 0 1.953125.105469 2.910157.304687 4.625.898438 8.371093 4.292969 9.71875 8.808594 1.042968 3.671875 4.394531 6.203125 8.210937 6.203125 3.8125 0 7.167969-2.53125 8.207031-6.203125 1.347656-4.511719 5.089844-7.90625 9.710938-8.808594 6.878906-1.632812 13.808594 2.5 15.632812 9.328125 3.757813 16.246094-11.800781 30.164063-27.578125 37.769531zm0 0"/><path d="m152.847656 53.257812c4.5625.988282 9.070313-1.878906 10.117188-6.429687s-1.757813-9.09375-6.296875-10.203125c-7.035157-1.625-14.238281-2.449219-21.460938-2.457031-47.375 1.066406-87.671875 34.859375-96.980469 81.324219-.988281 4.609374 1.949219 9.144531 6.558594 10.132812s9.144532-1.949219 10.132813-6.558594c7.589843-38.613281 40.949219-66.800781 80.289062-67.832031 5.9375.011719 11.855469.6875 17.640625 2.023437zm0 0"/><path d="m130.523438 232.9375-8.535157 8.53125c-2.214843 2.144531-3.105469 5.316406-2.324219 8.300781.78125 2.980469 3.109376 5.3125 6.09375 6.09375 2.984376.78125 6.15625-.109375 8.296876-2.328125l8.535156-8.53125c3.234375-3.351562 3.1875-8.671875-.105469-11.964844-3.289063-3.289062-8.613281-3.335937-11.960937-.101562zm0 0"/><path d="m164.65625 232.9375-8.53125 8.53125c-2.21875 2.144531-3.109375 5.316406-2.328125 8.300781.78125 2.980469 3.109375 5.3125 6.09375 6.09375s6.15625-.109375 8.296875-2.328125l8.535156-8.53125c3.234375-3.351562 3.1875-8.671875-.105468-11.964844-3.289063-3.289062-8.613282-3.335937-11.960938-.101562zm0 0"/><path d="m381.523438 232.9375c-3.347657-3.234375-8.671876-3.1875-11.964844.101562-3.289063 3.292969-3.335938 8.613282-.101563 11.964844l8.53125 8.53125c3.351563 3.234375 8.671875 3.1875 11.964844-.101562 3.289063-3.292969 3.335937-8.617188.101563-11.964844zm0 0"/><path d="m347.390625 232.9375c-3.347656-3.234375-8.671875-3.1875-11.964844.101562-3.289062 3.292969-3.335937 8.613282-.101562 11.964844l8.53125 8.53125c3.347656 3.234375 8.671875 3.1875 11.964843-.101562 3.289063-3.292969 3.335938-8.617188.101563-11.964844zm0 0"/><path d="m51.222656 153.636719c0 4.710937-3.820312 8.53125-8.53125 8.53125-4.714844 0-8.535156-3.820313-8.535156-8.53125 0-4.714844 3.820312-8.535157 8.535156-8.535157 4.710938 0 8.53125 3.820313 8.53125 8.535157zm0 0"/><path d="m264.554688 213.371094h-8.53125c-4.714844 0-8.535157 3.820312-8.535157 8.53125 0 4.714844 3.820313 8.535156 8.535157 8.535156h8.53125c4.714843 0 8.535156 3.820312 8.535156 8.53125 0 4.714844-3.820313 8.535156-8.535156 8.535156h-8.53125c-4.714844 0-8.535157 3.820313-8.535157 8.53125 0 4.714844 3.820313 8.535156 8.535157 8.535156h8.53125c4.714843 0 8.535156 3.820313 8.535156 8.53125 0 4.714844-3.820313 8.535157-8.535156 8.535157h-8.53125c-4.714844 0-8.535157 3.820312-8.535157 8.53125 0 4.714843 3.820313 8.535156 8.535157 8.535156h8.53125c10.117187.042969 19.304687-5.898437 23.410156-15.144531 4.105468-9.25 2.355468-20.046875-4.464844-27.523438 6.820312-7.472656 8.570312-18.273437 4.464844-27.519531-4.105469-9.246094-13.292969-15.191406-23.410156-15.144531zm0 0"/></svg>