<svg height="512pt" viewBox="0 -34 512.02883 512" width="512pt" xmlns="http://www.w3.org/2000/svg"><path d="m446.761719 20.511719c-29.347657-18.851563-65.070313-25.039063-99.046875-17.148438-40.6875 9.566407-74.589844 37.550781-91.699219 75.679688-17.117187-38.128907-51.015625-66.109375-91.699219-75.679688-33.988281-7.867187-69.707031-1.660156-99.046875 17.210938-31.160156 19.898437-52.953125 51.546875-60.425781 87.753906-29.335938 136.902344 79.597656 247.546875 191.316406 305.488281l55.929688 29.011719c2.460937 1.273437 5.386718 1.273437 7.851562 0l55.925782-29.011719c111.71875-57.917968 220.65625-168.585937 191.316406-305.496094-7.464844-36.222656-29.257813-67.890624-60.421875-87.808593zm-138.746094 378.15625-52 26.957031-52.003906-26.957031c-106.128907-55.023438-209.808594-159.25-182.484375-286.761719 6.53125-31.734375 25.613281-59.480469 52.90625-76.9375 25.480468-16.414062 56.519531-21.816406 86.050781-14.976562 42.964844 10.308593 76.613281 43.683593 87.269531 86.5625.976563 3.765624 4.371094 6.390624 8.261719 6.390624 3.886719 0 7.285156-2.625 8.257813-6.390624 10.664062-42.890626 44.332031-76.269532 87.3125-86.5625 29.515624-6.816407 60.53125-1.421876 86.007812 14.960937 27.296875 17.460937 46.378906 45.214844 52.90625 76.953125 27.324219 127.511719-76.355469 231.738281-182.484375 286.761719zm0 0"/><path d="m152.828125 53.257812c2.972656.683594 6.082031-.269531 8.160156-2.5 2.078125-2.230468 2.808594-5.402343 1.917969-8.316406-.894531-2.914062-3.273438-5.132812-6.246094-5.816406-7.039062-1.625-14.238281-2.449219-21.460937-2.457031-47.378907 1.058593-87.675781 34.855469-96.972657 81.320312-.984374 4.605469 1.941407 9.136719 6.546876 10.128907.589843.125 1.195312.1875 1.800781.1875 4.019531 0 7.492187-2.808594 8.335937-6.738282 7.589844-38.617187 40.949219-66.796875 80.289063-67.832031 5.933593.007813 11.847656.683594 17.628906 2.023437zm0 0"/><path d="m364.386719 176.785156c2.46875-2.429687 3.226562-6.109375 1.917969-9.3125-1.3125-3.207031-4.425782-5.300781-7.890626-5.304687h-51.199218c-4.714844 0-8.535156 3.820312-8.535156 8.53125 0 4.714843 3.820312 8.535156 8.535156 8.535156h10.101562c-1.007812 2.730469-1.539062 5.617187-1.570312 8.53125-.070313 10.558594 6.34375 20.074219 16.15625 23.96875s21.007812 1.367187 28.195312-6.363281c7.1875-7.734375 8.890625-19.085938 4.289063-28.585938zm-23.039063 19.515625c-4.710937 0-8.535156-3.820312-8.535156-8.535156 0-4.710937 3.824219-8.53125 8.535156-8.53125 4.714844 0 8.535156 3.820313 8.535156 8.53125 0 4.714844-3.820312 8.535156-8.535156 8.535156zm0 0"/><path d="m256.015625 221.898438c-50.621094 0-51.203125 33.792968-51.203125 34.136718.015625 4.609375 3.726562 8.359375 8.339844 8.421875 4.65625.0625 8.523437-3.582031 8.730468-8.234375.082032-1.769531 1.757813-17.253906 34.132813-17.253906s34.046875 15.484375 34.132813 17.066406c0 4.710938 3.820312 8.53125 8.53125 8.53125 4.714843 0 8.535156-3.820312 8.535156-8.53125 0-.34375-.582032-34.136718-51.199219-34.136718zm0 0"/><path d="m130.515625 232.933594-8.535156 8.535156c-2.21875 2.140625-3.105469 5.3125-2.324219 8.296875.777344 2.984375 3.109375 5.3125 6.09375 6.09375 2.980469.78125 6.15625-.109375 8.296875-2.324219l8.535156-8.535156c3.234375-3.347656 3.1875-8.671875-.105469-11.960938-3.292968-3.292968-8.613281-3.339843-11.960937-.105468zm0 0"/><path d="m164.648438 232.933594-8.535157 8.535156c-2.21875 2.140625-3.105469 5.3125-2.324219 8.296875s3.109376 5.3125 6.09375 6.09375c2.984376.78125 6.15625-.109375 8.296876-2.324219l8.535156-8.535156c3.234375-3.347656 3.1875-8.671875-.105469-11.960938-3.289063-3.292968-8.613281-3.339843-11.960937-.105468zm0 0"/><path d="m381.515625 232.933594c-3.351563-3.234375-8.671875-3.1875-11.964844.105468-3.289062 3.289063-3.335937 8.613282-.101562 11.960938l8.53125 8.535156c3.347656 3.230469 8.671875 3.1875 11.964843-.105468 3.289063-3.292969 3.335938-8.613282.101563-11.960938zm0 0"/><path d="m347.378906 232.933594c-3.347656-3.234375-8.667968-3.1875-11.960937.105468-3.289063 3.289063-3.335938 8.613282-.101563 11.960938l8.53125 8.535156c3.347656 3.230469 8.671875 3.1875 11.960938-.105468 3.292968-3.292969 3.339844-8.613282.105468-11.960938zm0 0"/><path d="m51.214844 153.632812c0 4.714844-3.820313 8.535157-8.535156 8.535157-4.710938 0-8.53125-3.820313-8.53125-8.535157 0-4.710937 3.820312-8.53125 8.53125-8.53125 4.714843 0 8.535156 3.820313 8.535156 8.53125zm0 0"/><path d="m196.28125 170.699219c0-4.710938-3.820312-8.53125-8.535156-8.53125h-51.199219c-4.710937 0-8.53125 3.820312-8.53125 8.53125 0 4.714843 3.820313 8.535156 8.53125 8.535156h10.105469c-1.011719 2.730469-1.542969 5.617187-1.570313 8.53125-.074219 10.558594 6.34375 20.074219 16.15625 23.96875 9.808594 3.894531 21.007813 1.367187 28.195313-6.363281 7.183594-7.734375 8.886718-19.085938 4.289062-28.585938 1.632813-1.601562 2.554688-3.796875 2.558594-6.085937zm-25.601562 25.601562c-4.710938 0-8.53125-3.820312-8.53125-8.535156 0-4.710937 3.820312-8.53125 8.53125-8.53125 4.714843 0 8.535156 3.820313 8.535156 8.53125 0 4.714844-3.820313 8.535156-8.535156 8.535156zm0 0"/></svg>