<svg height="512pt" viewBox="0 -34 512.03991 512" width="512pt" xmlns="http://www.w3.org/2000/svg"><path d="m446.769531 20.515625c-29.347656-18.847656-65.070312-25.035156-99.046875-17.148437-40.683594 9.574218-74.582031 37.550781-91.699218 75.679687-17.117188-38.128906-51.023438-66.109375-91.707032-75.679687-33.984375-7.859376-69.699218-1.65625-99.039062 17.203124-31.15625 19.902344-52.953125 51.554688-60.433594 87.761719-29.335938 136.902344 79.597656 247.546875 191.328125 305.488281l55.925781 29.011719c2.460938 1.273438 5.390625 1.273438 7.851563 0l55.925781-29.011719c111.726562-57.917968 220.664062-168.585937 191.316406-305.496093-7.460937-36.226563-29.253906-67.894531-60.421875-87.808594zm-138.753906 378.15625-51.992187 26.957031-51.992188-26.957031c-106.148438-55.023437-209.820312-159.25-182.496094-286.761719 6.535156-31.734375 25.613282-59.480468 52.90625-76.9375 25.484375-16.414062 56.523438-21.816406 86.050782-14.976562 42.964843 10.308594 76.613281 43.683594 87.277343 86.5625.988281 3.746094 4.378907 6.359375 8.253907 6.359375s7.265624-2.613281 8.25-6.359375c10.671874-42.890625 44.339843-76.265625 87.324218-86.5625 29.511719-6.820313 60.527344-1.429688 86.007813 14.949218 27.296875 17.464844 46.375 45.222657 52.90625 76.964844 27.324219 127.511719-76.347657 231.738282-182.496094 286.761719zm0 0"/><path d="m152.847656 53.257812c4.5625.988282 9.070313-1.878906 10.117188-6.425781 1.046875-4.550781-1.757813-9.097656-6.296875-10.203125-7.035157-1.625-14.238281-2.449218-21.460938-2.457031-47.375 1.066406-87.671875 34.855469-96.980469 81.320313-.988281 4.609374 1.949219 9.148437 6.558594 10.132812 4.609375.988281 9.144532-1.945312 10.132813-6.554688 7.589843-38.617187 40.949219-66.800781 80.289062-67.832031 5.9375.007813 11.855469.6875 17.640625 2.019531zm0 0"/><path d="m360.242188 170.636719 1.355468-.539063c4.378906-1.753906 6.507813-6.722656 4.753906-11.101562-1.753906-4.378906-6.726562-6.507813-11.101562-4.753906l-42.667969 17.066406c-3.804687 1.515625-5.996093 5.523437-5.222656 9.542968.777344 4.023438 4.300781 6.925782 8.398437 6.917969-.066406 11.464844 7.496094 21.578125 18.511719 24.75 11.019531 3.171875 22.800781-1.367187 28.84375-11.109375 6.042969-9.746094 4.867188-22.316406-2.871093-30.773437zm-18.886719 25.667969c-4.710938 0-8.53125-3.820313-8.53125-8.535157 0-4.710937 3.820312-8.53125 8.53125-8.53125 4.714843 0 8.535156 3.820313 8.535156 8.53125 0 4.714844-3.820313 8.535157-8.535156 8.535157zm0 0"/><path d="m130.523438 232.9375-8.535157 8.535156c-2.214843 2.140625-3.105469 5.3125-2.324219 8.296875s3.109376 5.3125 6.09375 6.09375c2.984376.78125 6.15625-.109375 8.296876-2.328125l8.535156-8.53125c3.234375-3.347656 3.1875-8.671875-.105469-11.960937-3.289063-3.292969-8.613281-3.339844-11.960937-.105469zm0 0"/><path d="m164.65625 232.9375-8.53125 8.535156c-2.21875 2.140625-3.109375 5.3125-2.328125 8.296875s3.109375 5.3125 6.09375 6.09375 6.15625-.109375 8.296875-2.328125l8.535156-8.53125c3.234375-3.347656 3.1875-8.671875-.105468-11.960937-3.289063-3.292969-8.613282-3.339844-11.960938-.105469zm0 0"/><path d="m381.523438 232.9375c-3.347657-3.234375-8.671876-3.1875-11.964844.105469-3.289063 3.289062-3.335938 8.613281-.101563 11.960937l8.53125 8.53125c3.351563 3.234375 8.671875 3.191406 11.964844-.101562 3.289063-3.292969 3.335937-8.613282.101563-11.960938zm0 0"/><path d="m347.390625 232.9375c-3.347656-3.234375-8.671875-3.1875-11.964844.105469-3.289062 3.289062-3.335937 8.613281-.101562 11.960937l8.53125 8.53125c3.347656 3.234375 8.671875 3.191406 11.964843-.101562 3.289063-3.292969 3.335938-8.613282.101563-11.960938zm0 0"/><path d="m51.222656 153.636719c0 4.714843-3.820312 8.535156-8.53125 8.535156-4.714844 0-8.535156-3.820313-8.535156-8.535156 0-4.710938 3.820312-8.53125 8.535156-8.53125 4.710938 0 8.53125 3.820312 8.53125 8.53125zm0 0"/><path d="m204.21875 182.410156c.839844-2.101562.8125-4.449218-.082031-6.53125-.890625-2.078125-2.570313-3.71875-4.671875-4.5625l-42.667969-17.066406c-4.378906-1.75-9.347656.375-11.101563 4.753906-1.753906 4.378906.375 9.347656 4.753907 11.101563l1.355469.539062c-7.742188 8.457031-8.914063 21.03125-2.871094 30.777344 6.042968 9.742187 17.828125 14.28125 28.847656 11.105469 11.015625-3.175782 18.578125-13.289063 18.507812-24.757813 3.488282.003907 6.628907-2.117187 7.929688-5.359375zm-33.527344 13.894532c-4.714844 0-8.535156-3.820313-8.535156-8.535157 0-4.710937 3.820312-8.53125 8.535156-8.53125 4.710938 0 8.53125 3.820313 8.53125 8.53125 0 4.714844-3.820312 8.535157-8.53125 8.535157zm0 0"/><path d="m307.222656 221.902344h-102.398437c-4.714844 0-8.535157 3.820312-8.535157 8.535156.324219 16.421875 4.28125 32.570312 11.589844 47.28125 9.214844 18.101562 27.800782 29.5 48.109375 29.511719 20.308594.015625 38.910157-11.363281 48.144531-29.449219 7.328126-14.730469 11.296876-30.898438 11.625-47.34375 0-4.714844-3.820312-8.535156-8.535156-8.535156zm-9.148437 17.066406c-.910157 8.0625-2.832031 15.980469-5.714844 23.5625-23.449219-8.660156-49.222656-8.660156-72.671875 0-2.886719-7.582031-4.808594-15.5-5.71875-23.5625zm-14.503907 38.898438c-1.484374 1.78125-3.136718 3.410156-4.941406 4.863281-.351562.28125-.71875.519531-1.066406.785156-1.636719 1.210937-3.378906 2.265625-5.207031 3.15625-.289063.136719-.5625.308594-.851563.433594-2.089844.90625-4.261718 1.601562-6.488281 2.074219-.511719.113281-1.039063.199218-1.570313.292968-4.902343.929688-9.941406.929688-14.847656 0-.527344-.09375-1.058594-.179687-1.578125-.300781-2.21875-.46875-4.386719-1.160156-6.46875-2.054687-.304687-.136719-.597656-.324219-.902343-.472657-1.800782-.867187-3.515626-1.90625-5.121094-3.097656-.382813-.289063-.785156-.542969-1.152344-.851563-1.777344-1.441406-3.410156-3.050781-4.878906-4.804687-.113282-.128906-.214844-.28125-.324219-.410156 18.125-5.699219 37.566406-5.699219 55.695313 0-.09375.128906-.1875.265625-.289063.386719zm0 0"/></svg>