<svg height="512pt" viewBox="0 -34 512.03991 512" width="512pt" xmlns="http://www.w3.org/2000/svg"><path d="m446.769531 20.511719c-29.351562-18.84375-65.070312-25.027344-99.046875-17.152344-40.683594 9.574219-74.582031 37.554687-91.699218 75.683594-17.117188-38.128907-51.023438-66.109375-91.707032-75.683594-33.984375-7.855469-69.699218-1.652344-99.039062 17.203125-31.15625 19.90625-52.953125 51.558594-60.433594 87.765625-29.335938 136.902344 79.597656 247.542969 191.328125 305.484375l55.925781 29.015625c2.460938 1.273437 5.390625 1.273437 7.851563 0l55.925781-29.015625c111.726562-57.914062 220.664062-168.582031 191.316406-305.492188-7.460937-36.226562-29.253906-67.894531-60.421875-87.808593zm-138.753906 378.15625-51.992187 26.957031-51.992188-26.957031c-106.148438-55.023438-209.820312-159.25-182.496094-286.761719 6.535156-31.734375 25.613282-59.480469 52.90625-76.9375 25.484375-16.414062 56.523438-21.816406 86.050782-14.976562 42.964843 10.308593 76.613281 43.683593 87.277343 86.5625.988281 3.746093 4.378907 6.359374 8.253907 6.359374s7.265624-2.613281 8.25-6.359374c10.671874-42.890626 44.339843-76.265626 87.324218-86.5625 29.511719-6.820313 60.527344-1.429688 86.007813 14.949218 27.296875 17.464844 46.375 45.222656 52.90625 76.964844 27.324219 127.511719-76.347657 231.738281-182.496094 286.761719zm0 0"/><path d="m152.847656 53.253906c4.5625.988282 9.070313-1.878906 10.117188-6.429687s-1.757813-9.09375-6.296875-10.199219c-7.035157-1.625-14.238281-2.453125-21.460938-2.460938-47.375 1.066407-87.671875 34.859376-96.980469 81.324219-.988281 4.609375 1.949219 9.144531 6.558594 10.132813 4.609375.988281 9.144532-1.949219 10.132813-6.558594 7.589843-38.613281 40.949219-66.800781 80.289062-67.828125 5.9375.007813 11.855469.683594 17.640625 2.019531zm0 0"/><path d="m170.691406 162.164062c-14.140625 0-25.601562 11.464844-25.601562 25.601563 0 14.140625 11.460937 25.601563 25.601562 25.601563 14.136719 0 25.597656-11.460938 25.597656-25.601563 0-14.136719-11.460937-25.601563-25.597656-25.601563zm0 34.136719c-4.714844 0-8.535156-3.820312-8.535156-8.535156 0-4.710937 3.820312-8.53125 8.535156-8.53125 4.710938 0 8.53125 3.820313 8.53125 8.53125 0 4.714844-3.820312 8.535156-8.53125 8.535156zm0 0"/><path d="m341.355469 162.164062c-14.136719 0-25.597657 11.464844-25.597657 25.601563 0 14.140625 11.460938 25.601563 25.597657 25.601563 14.140625 0 25.601562-11.460938 25.601562-25.601563 0-14.136719-11.460937-25.601563-25.601562-25.601563zm0 34.136719c-4.710938 0-8.53125-3.820312-8.53125-8.535156 0-4.710937 3.820312-8.53125 8.53125-8.53125 4.714843 0 8.535156 3.820313 8.535156 8.53125 0 4.714844-3.820313 8.535156-8.535156 8.535156zm0 0"/><path d="m130.523438 232.933594-8.535157 8.53125c-2.214843 2.144531-3.105469 5.316406-2.324219 8.300781s3.109376 5.3125 6.09375 6.09375c2.984376.78125 6.15625-.109375 8.296876-2.328125l8.535156-8.53125c3.234375-3.347656 3.1875-8.671875-.105469-11.964844-3.289063-3.289062-8.613281-3.335937-11.960937-.101562zm0 0"/><path d="m164.65625 232.933594-8.53125 8.53125c-2.21875 2.144531-3.109375 5.316406-2.328125 8.300781s3.109375 5.3125 6.09375 6.09375 6.15625-.109375 8.296875-2.328125l8.535156-8.53125c3.234375-3.347656 3.1875-8.671875-.105468-11.964844-3.289063-3.289062-8.613282-3.335937-11.960938-.101562zm0 0"/><path d="m381.523438 232.933594c-3.347657-3.234375-8.671876-3.1875-11.964844.101562-3.289063 3.292969-3.335938 8.617188-.101563 11.964844l8.53125 8.53125c3.351563 3.234375 8.671875 3.1875 11.964844-.101562 3.289063-3.292969 3.335937-8.617188.101563-11.964844zm0 0"/><path d="m347.390625 232.933594c-3.347656-3.234375-8.671875-3.1875-11.964844.101562-3.289062 3.292969-3.335937 8.617188-.101562 11.964844l8.53125 8.53125c3.347656 3.234375 8.671875 3.1875 11.964843-.101562 3.289063-3.292969 3.335938-8.617188.101563-11.964844zm0 0"/><path d="m51.222656 153.632812c0 4.710938-3.820312 8.53125-8.53125 8.53125-4.714844 0-8.535156-3.820312-8.535156-8.53125 0-4.714843 3.820312-8.535156 8.535156-8.535156 4.710938 0 8.53125 3.820313 8.53125 8.535156zm0 0"/><path d="m290.15625 213.367188h-68.265625c-14.140625 0-25.601563 11.460937-25.601563 25.597656v34.132812c0 14.140625 11.460938 25.601563 25.601563 25.601563h68.265625c14.136719 0 25.601562-11.460938 25.601562-25.601563v-34.132812c0-14.136719-11.464843-25.597656-25.601562-25.597656zm-51.199219 68.265624c0-9.425781 7.640625-17.066406 17.066407-17.066406 9.425781 0 17.066406 7.640625 17.066406 17.066406zm59.734375-8.535156c0 4.714844-3.824218 8.535156-8.535156 8.535156 0-18.851562-15.28125-34.132812-34.132812-34.132812-18.851563 0-34.132813 15.28125-34.132813 34.132812-4.714844 0-8.535156-3.820312-8.535156-8.535156v-34.132812c0-4.710938 3.820312-8.53125 8.535156-8.53125h68.265625c4.710938 0 8.535156 3.820312 8.535156 8.53125zm0 0"/><path d="m432.558594 104.769531c-3.289063-3.121093-8.449219-3.121093-11.738282 0-6.144531 5.828125-36.796874 35.960938-36.796874 57.394531 0 23.566407 19.101562 42.667969 42.667968 42.667969 23.5625 0 42.664063-19.101562 42.664063-42.667969 0-21.433593-30.652344-51.566406-36.796875-57.394531zm-5.867188 82.996094c-14.140625 0-25.601562-11.460937-25.601562-25.601563 0-8.949218 13.507812-26.503906 25.601562-39.140624 12.089844 12.628906 25.597656 30.175781 25.597656 39.140624 0 14.140626-11.460937 25.601563-25.597656 25.601563zm0 0"/></svg>