<?xml version="1.0" encoding="iso-8859-1"?>
<!-- Generator: Adobe Illustrator 19.0.0, SVG Export Plug-In . SVG Version: 6.00 Build 0)  -->
<svg version="1.1" id="Capa_1" xmlns="http://www.w3.org/2000/svg" xmlns:xlink="http://www.w3.org/1999/xlink" x="0px" y="0px"
	 viewBox="0 0 512 512" style="enable-background:new 0 0 512 512;" xml:space="preserve">
<g>
	<g>
		<path d="M341.333,181.333c0,0.064,0.32,5.184,21.333,9.003v-18.667C349.013,173.781,341.333,179.2,341.333,181.333z"/>
	</g>
</g>
<g>
	<g>
		<path d="M149.333,214.997v18.624c14.165-2.176,21.333-7.893,21.333-9.621C170.667,223.936,170.347,218.816,149.333,214.997z"/>
	</g>
</g>
<g>
	<g>
		<path d="M106.667,181.333c0,0.064,0.32,5.184,21.333,9.003v-18.667C114.347,173.781,106.667,179.2,106.667,181.333z"/>
	</g>
</g>
<g>
	<g>
		<path d="M384,214.997v18.624c14.165-2.197,21.333-7.915,21.333-9.621C405.333,223.957,405.013,218.816,384,214.997z"/>
	</g>
</g>
<g>
	<g>
		<path d="M256,0C114.837,0,0,114.837,0,256s114.837,256,256,256s256-114.837,256-256S397.163,0,256,0z M85.419,226.688
			c-0.747-5.845,3.392-11.179,9.237-11.925c5.76-0.661,11.179,3.392,11.947,9.237c0.299,2.496,8.149,7.659,21.397,9.685v-21.76
			c-17.429-2.709-42.667-9.259-42.667-30.592c0-16.021,17.728-28.587,42.667-31.381v-11.285c0-5.888,4.779-10.667,10.667-10.667
			s10.667,4.779,10.667,10.667v11.264c23.403,2.624,40.683,13.888,42.581,28.693c0.747,5.845-3.392,11.179-9.237,11.925
			c-5.845,0.683-11.179-3.392-11.947-9.237c-0.299-2.475-8.149-7.637-21.397-9.664v21.739C166.763,196.117,192,202.667,192,224
			c0,16.021-17.728,28.565-42.667,31.381v11.285c0,5.888-4.779,10.667-10.667,10.667S128,272.555,128,266.667v-11.264
			C104.597,252.779,87.317,241.515,85.419,226.688z M381.717,336.427c-27.669,43.136-74.645,68.907-125.717,68.907
			s-98.048-25.771-125.717-68.907c-3.179-4.971-1.728-11.563,3.221-14.741c4.885-3.2,11.52-1.771,14.72,3.221
			C171.968,361.899,212.245,384,256,384s84.032-22.101,107.755-59.093c3.2-4.971,9.835-6.4,14.72-3.221
			C383.445,324.864,384.896,331.456,381.717,336.427z M384,255.381v11.285c0,5.888-4.779,10.667-10.667,10.667
			c-5.888,0-10.667-4.779-10.667-10.667v-11.264c-23.403-2.624-40.683-13.888-42.581-28.715c-0.747-5.845,3.392-11.179,9.237-11.925
			c5.653-0.661,11.179,3.392,11.947,9.237c0.32,2.475,8.171,7.659,21.419,9.685v-21.76C345.237,209.216,320,202.667,320,181.333
			c0-16.021,17.728-28.587,42.667-31.381v-11.285c0-5.888,4.779-10.667,10.667-10.667c5.888,0,10.667,4.779,10.667,10.667v11.264
			c23.403,2.624,40.683,13.888,42.581,28.693c0.747,5.845-3.392,11.179-9.237,11.925c-5.803,0.683-11.179-3.392-11.947-9.237
			c-0.299-2.475-8.149-7.637-21.397-9.664v21.739c17.429,2.731,42.667,9.28,42.667,30.613
			C426.667,240.043,408.939,252.587,384,255.381z"/>
	</g>
</g>
<g>
</g>
<g>
</g>
<g>
</g>
<g>
</g>
<g>
</g>
<g>
</g>
<g>
</g>
<g>
</g>
<g>
</g>
<g>
</g>
<g>
</g>
<g>
</g>
<g>
</g>
<g>
</g>
<g>
</g>
</svg>
