<?xml version="1.0" encoding="iso-8859-1"?>
<!-- Generator: Adobe Illustrator 19.0.0, SVG Export Plug-In . SVG Version: 6.00 Build 0)  -->
<svg version="1.1" id="Capa_1" xmlns="http://www.w3.org/2000/svg" xmlns:xlink="http://www.w3.org/1999/xlink" x="0px" y="0px"
	 viewBox="0 0 512 512" style="enable-background:new 0 0 512 512;" xml:space="preserve">
<g>
	<g>
		<path d="M202.667,170.667h-85.333c-5.888,0-10.667,4.779-10.667,10.667S111.445,192,117.333,192h85.333
			c5.888,0,10.667-4.779,10.667-10.667S208.555,170.667,202.667,170.667z"/>
	</g>
</g>
<g>
	<g>
		<path d="M394.667,170.667h-85.333c-5.888,0-10.667,4.779-10.667,10.667S303.445,192,309.333,192h85.333
			c5.888,0,10.667-4.779,10.667-10.667S400.555,170.667,394.667,170.667z"/>
	</g>
</g>
<g>
	<g>
		<path d="M384,449.813v-268.48c0-5.888-4.779-10.667-10.667-10.667h-42.667c-5.888,0-10.667,4.779-10.667,10.667v268.48
			c-12.416,4.416-21.333,16.277-21.333,30.187c0,17.643,14.357,32,32,32h42.667c17.643,0,32-14.357,32-32
			C405.333,466.091,396.416,454.229,384,449.813z"/>
	</g>
</g>
<g>
	<g>
		<path d="M192,449.813v-268.48c0-5.888-4.779-10.667-10.667-10.667h-42.667c-5.888,0-10.667,4.779-10.667,10.667v268.48
			c-12.416,4.416-21.333,16.277-21.333,30.187c0,17.643,14.357,32,32,32h42.667c17.643,0,32-14.357,32-32
			C213.333,466.091,204.416,454.229,192,449.813z"/>
	</g>
</g>
<g>
	<g>
		<path d="M256,0C114.837,0,0,114.837,0,256c0,71.552,30.763,140.459,84.437,189.077c2.112,1.899,4.544,2.923,7.701,2.752
			c2.816-0.149,5.483-1.408,7.381-3.52c0.085-0.085,1.536-1.771,1.6-1.856c0.64-0.768,1.28-1.536,2.005-2.197
			c2.24-2.005,3.541-4.885,3.541-7.915V218.091c0-3.797-2.027-7.317-5.291-9.216c-10.048-5.845-16.043-16.149-16.043-27.541
			c0-17.643,14.357-32,32-32h85.333c17.643,0,32,14.357,32,32c0,11.392-5.995,21.696-16.043,27.541
			c-3.264,1.899-5.291,5.397-5.291,9.216v108.587c27.776-8.213,57.557-8.213,85.333,0V218.091c0-3.797-2.027-7.317-5.291-9.216
			c-10.048-5.845-16.043-16.149-16.043-27.541c0-17.643,14.357-32,32-32h85.333c17.643,0,32,14.357,32,32
			c0,11.392-5.995,21.696-16.043,27.541c-3.264,1.899-5.291,5.397-5.291,9.216v214.251c0,3.029,1.301,5.909,3.541,7.936
			c0.725,0.661,1.344,1.429,2.005,2.197c0.064,0.085,1.515,1.771,1.6,1.856c1.899,2.112,4.565,3.371,7.381,3.52
			c2.901,0.149,5.589-0.832,7.701-2.752C481.237,396.459,512,327.552,512,256C512,114.837,397.163,0,256,0z"/>
	</g>
</g>
<g>
	<g>
		<path d="M213.333,349.312v83.008c0,3.029,1.301,5.909,3.541,7.936c11.307,10.133,17.792,24.619,17.749,39.765
			c-0.043,0.341-0.213,1.899-0.213,2.219c-0.021,0.597,0.171,1.131,0.235,1.707c-0.107,0.469-0.533,0.789-0.597,1.301
			c-0.405,4.139-1.237,8.043-2.453,11.669c-1.088,3.136-0.64,6.613,1.216,9.365c1.835,2.752,4.864,4.501,8.192,4.736l4.501,0.363
			c3.477,0.32,6.955,0.619,10.496,0.619s7.019-0.299,10.496-0.597l4.501-0.363c3.307-0.213,6.336-1.963,8.192-4.715
			c1.835-2.752,2.283-6.208,1.237-9.344c-1.259-3.712-2.091-7.637-2.475-11.712c-0.043-0.491-0.469-0.832-0.597-1.301
			c0.064-0.576,0.256-1.109,0.235-1.707L277.333,480c0-15.104,6.485-29.589,17.792-39.723c2.24-2.027,3.541-4.907,3.541-7.936
			v-83.008C271.104,339.584,240.896,339.584,213.333,349.312z"/>
	</g>
</g>
<g>
</g>
<g>
</g>
<g>
</g>
<g>
</g>
<g>
</g>
<g>
</g>
<g>
</g>
<g>
</g>
<g>
</g>
<g>
</g>
<g>
</g>
<g>
</g>
<g>
</g>
<g>
</g>
<g>
</g>
</svg>
