<svg height="512pt" viewBox="0 -34 512.03991 512" width="512pt" xmlns="http://www.w3.org/2000/svg"><path d="m446.769531 20.511719c-29.351562-18.84375-65.070312-25.027344-99.046875-17.152344-40.683594 9.574219-74.582031 37.554687-91.699218 75.683594-17.117188-38.132813-51.023438-66.109375-91.707032-75.683594-33.984375-7.859375-69.699218-1.652344-99.039062 17.203125-31.15625 19.90625-52.953125 51.558594-60.433594 87.765625-29.335938 136.902344 79.597656 247.542969 191.328125 305.484375l55.925781 29.015625c2.460938 1.273437 5.390625 1.273437 7.851563 0l55.925781-29.015625c111.726562-57.914062 220.664062-168.582031 191.316406-305.492188-7.460937-36.226562-29.253906-67.894531-60.421875-87.808593zm-138.753906 378.15625-51.992187 26.957031-51.992188-26.957031c-106.148438-55.023438-209.820312-159.25-182.496094-286.765625 6.535156-31.730469 25.613282-59.476563 52.90625-76.933594 25.484375-16.414062 56.523438-21.816406 86.050782-14.976562 42.964843 10.308593 76.613281 43.683593 87.277343 86.5625.988281 3.746093 4.378907 6.359374 8.253907 6.359374s7.265624-2.613281 8.25-6.359374c10.671874-42.890626 44.339843-76.265626 87.324218-86.5625 29.511719-6.824219 60.527344-1.433594 86.007813 14.949218 27.296875 17.464844 46.375 45.21875 52.90625 76.960938 27.324219 127.515625-76.347657 231.742187-182.496094 286.765625zm0 0"/><path d="m152.847656 53.253906c4.5625.984375 9.070313-1.878906 10.117188-6.429687s-1.757813-9.09375-6.296875-10.203125c-7.035157-1.625-14.238281-2.449219-21.460938-2.457032-47.375 1.066407-87.671875 34.859376-96.980469 81.324219-.988281 4.609375 1.949219 9.144531 6.558594 10.132813 4.609375.988281 9.144532-1.949219 10.132813-6.558594 7.589843-38.613281 40.949219-66.800781 80.289062-67.832031 5.9375.011719 11.855469.6875 17.640625 2.023437zm0 0"/><path d="m130.523438 232.933594-8.535157 8.53125c-2.214843 2.144531-3.105469 5.316406-2.324219 8.300781.78125 2.980469 3.109376 5.3125 6.09375 6.09375 2.984376.78125 6.15625-.109375 8.296876-2.328125l8.535156-8.53125c3.234375-3.351562 3.1875-8.671875-.105469-11.964844-3.289063-3.289062-8.613281-3.335937-11.960937-.101562zm0 0"/><path d="m164.65625 232.933594-8.53125 8.53125c-2.21875 2.144531-3.109375 5.316406-2.328125 8.300781.78125 2.980469 3.109375 5.3125 6.09375 6.09375s6.15625-.109375 8.296875-2.328125l8.535156-8.53125c3.234375-3.351562 3.1875-8.671875-.105468-11.964844-3.289063-3.289062-8.613282-3.335937-11.960938-.101562zm0 0"/><path d="m381.523438 232.933594c-3.347657-3.234375-8.671876-3.1875-11.964844.101562-3.289063 3.292969-3.335938 8.613282-.101563 11.964844l8.53125 8.53125c3.351563 3.234375 8.671875 3.1875 11.964844-.105469 3.289063-3.289062 3.335937-8.613281.101563-11.960937zm0 0"/><path d="m347.390625 232.933594c-3.347656-3.234375-8.671875-3.1875-11.964844.101562-3.289062 3.292969-3.335937 8.613282-.101562 11.964844l8.53125 8.53125c3.347656 3.234375 8.671875 3.1875 11.964843-.105469 3.289063-3.289062 3.335938-8.613281.101563-11.960937zm0 0"/><path d="m51.222656 153.632812c0 4.710938-3.820312 8.53125-8.53125 8.53125-4.714844 0-8.535156-3.820312-8.535156-8.53125 0-4.714843 3.820312-8.535156 8.535156-8.535156 4.710938 0 8.53125 3.820313 8.53125 8.535156zm0 0"/><path d="m202.324219 219.398438c3.328125-3.332032 3.328125-8.734376 0-12.066407l-19.570313-19.566406 19.570313-19.566406c3.230469-3.347657 3.1875-8.671875-.105469-11.964844-3.292969-3.289063-8.613281-3.335937-11.960938-.101563l-19.566406 19.566407-19.570312-19.566407c-3.347656-3.234374-8.667969-3.1875-11.960938.101563-3.292968 3.292969-3.335937 8.617187-.105468 11.964844l19.570312 19.566406-19.570312 19.566406c-2.214844 2.144531-3.105469 5.316407-2.324219 8.300781.78125 2.980469 3.109375 5.3125 6.09375 6.09375s6.15625-.109374 8.296875-2.328124l19.570312-19.566407 19.566406 19.566407c3.332032 3.332031 8.734376 3.332031 12.066407 0zm0 0"/><path d="m372.988281 219.398438c3.332031-3.332032 3.332031-8.734376 0-12.066407l-19.566406-19.566406 19.566406-19.566406c3.234375-3.347657 3.1875-8.671875-.101562-11.964844-3.292969-3.289063-8.613281-3.335937-11.964844-.101563l-19.566406 19.566407-19.566407-19.566407c-3.347656-3.234374-8.671874-3.1875-11.960937.101563-3.292969 3.292969-3.339844 8.617187-.105469 11.964844l19.566406 19.566406-19.566406 19.566406c-2.21875 2.144531-3.105468 5.316407-2.328125 8.300781.78125 2.980469 3.113281 5.3125 6.097657 6.09375 2.980468.78125 6.15625-.109374 8.296874-2.328124l19.566407-19.566407 19.566406 19.566407c3.332031 3.332031 8.734375 3.332031 12.066406 0zm0 0"/><path d="m307.222656 238.964844h-102.398437c-4.714844 0-8.535157 3.820312-8.535157 8.535156 0 4.710938 3.820313 8.53125 8.535157 8.53125h51.199219v25.601562c0 14.136719 11.460937 25.597657 25.597656 25.597657 14.140625 0 25.601562-11.460938 25.601562-25.597657v-25.601562c4.714844 0 8.535156-3.820312 8.535156-8.53125 0-4.714844-3.820312-8.535156-8.535156-8.535156zm-17.066406 42.667968c0 4.710938-3.820312 8.53125-8.535156 8.53125-4.710938 0-8.53125-3.820312-8.53125-8.53125v-25.601562h17.066406zm0 0"/></svg>