<?xml version="1.0" encoding="iso-8859-1"?>
<!-- Generator: Adobe Illustrator 19.0.0, SVG Export Plug-In . SVG Version: 6.00 Build 0)  -->
<svg version="1.1" id="Capa_1" xmlns="http://www.w3.org/2000/svg" xmlns:xlink="http://www.w3.org/1999/xlink" x="0px" y="0px"
	 viewBox="0 0 512 512" style="enable-background:new 0 0 512 512;" xml:space="preserve">
<g>
	<g>
		<path d="M388.139,36.674c-81.344-49.195-187.264-48.32-267.755,2.112c-4.501,2.837-6.229,8.533-4.096,13.376
			c1.749,3.925,5.632,6.336,9.749,6.336c0.96,0,1.941-0.128,2.923-0.405C165.781,47.618,208.512,42.306,256,42.306
			c46.037,0,88.235,4.949,125.44,14.72c0.896,0.235,1.813,0.363,2.709,0.363c0.149-0.021,0.32,0,0.427,0
			c5.888,0,10.667-4.779,10.667-10.667C395.221,42.092,392.277,38.146,388.139,36.674z"/>
	</g>
</g>
<g>
	<g>
		<path d="M511.616,247.127l-0.256-4.053c-0.149-3.179-1.707-6.123-4.245-8.021c-2.539-1.92-5.803-2.667-8.917-1.835
			c-3.136,0.768-5.483,1.109-7.531,1.109c-8.149,0-15.893-3.051-22.123-8.853c-0.981-0.853-24.576-21.077-76.011-36.736
			c-2.432-0.747-6.827,0.32-9.109,1.28l-16.491,5.504C377.024,200.898,384,211.415,384,223.639c0,17.643-14.357,32-32,32
			c-17.643,0-32-14.357-32-32c0-4.843,1.173-9.408,3.115-13.525l-3.648,1.216c-16.576,5.568-35.051-3.904-40.491-20.267
			c-0.96-2.88-1.408-6.037-1.429-9.899c-0.043-5.781-4.693-10.496-10.475-10.603l-3.797-0.107c-2.389-0.064-4.779-0.149-7.275-0.149
			l-11.051,0.235c-5.781,0.107-10.453,4.821-10.475,10.624c-0.021,3.797-0.491,7.04-1.451,9.92
			c-5.44,16.32-23.915,25.728-40.469,20.245l-3.648-1.195c1.92,4.117,3.093,8.661,3.093,13.504c0,17.643-14.357,32-32,32
			s-32-14.357-32-32c0-12.224,6.976-22.741,17.067-28.117l-16.32-5.44c-0.043-0.021-2.069-0.96-2.091-0.981
			c-2.283-0.939-4.821-1.067-7.232-0.363c-50.133,15.275-73.493,34.603-76.181,36.907c-7.552,6.827-16.512,10.219-29.355,7.061
			c-3.115-0.789-6.379-0.107-8.917,1.771c-2.539,1.877-4.117,4.821-4.288,8l-0.256,3.755C0.213,249.346,0,252.482,0,255.639
			c0,141.163,114.837,256,256,256s256-114.837,256-256C512,252.78,511.808,249.964,511.616,247.127z M409.024,400.663
			c-2.027,2.709-5.205,4.331-8.576,4.331H111.552c-3.371,0-6.571-1.6-8.576-4.331c-2.005-2.731-2.603-6.229-1.6-9.472
			C122.347,322.882,184.491,276.994,256,276.994s133.653,45.888,154.624,114.197C411.627,394.412,411.029,397.932,409.024,400.663z"
			/>
	</g>
</g>
<g>
	<g>
		<path d="M487.552,354.775c-4.16-4.16-10.923-4.16-15.083,0c-4.16,4.16-4.16,10.923,0,15.083c0.491,0.491,0.768,1.365,1.216,1.941
			l-30.443,45.653c-3.52-2.325-8.213-2.475-11.861,0c-4.885,3.307-6.187,9.92-2.88,14.805c6.443,9.557,2.859,45.333-1.6,66.496
			c-0.981,4.608,1.216,9.323,5.355,11.563c4.181,2.24,9.323,1.493,12.629-1.835l13.781-13.76l13.781,13.781
			c2.027,2.027,4.757,3.115,7.552,3.115c0.981,0,1.941-0.128,2.901-0.405c3.733-1.045,6.592-4.032,7.488-7.787
			C495.061,483.778,516.949,384.194,487.552,354.775z"/>
	</g>
</g>
<g>
	<g>
		<path d="M383.445,156.268c-1.877-5.589-7.872-8.576-13.504-6.741l-64,21.333c-5.568,1.856-8.597,7.893-6.741,13.483
			c1.515,4.48,5.675,7.296,10.133,7.296c1.131,0,2.24-0.171,3.371-0.555l64-21.333C382.272,167.895,385.301,161.858,383.445,156.268
			z"/>
	</g>
</g>
<g>
	<g>
		<path d="M500.8,198.935l-21.333-64c-0.384-1.109-0.939-2.176-1.643-3.115c-2.133-2.773-54.016-68.181-221.803-68.181
			c-168.405,0-212.011,66.176-214.421,70.144l-29.909,64c-2.176,4.629-0.725,10.133,3.413,13.141
			c4.117,3.008,9.835,2.624,13.568-0.853c0.235-0.192,22.229-20.459,70.997-37.461c4.544-1.579,7.467-6.016,7.125-10.816
			c-0.299-4.203,0.235-8.32,1.536-12.267c5.461-16.363,23.851-25.771,40.469-20.245l62.08,20.693
			c1.344,0.448,2.731,0.64,4.096,0.533c30.464-2.091,51.584-2.091,82.048,0c1.429,0.085,2.795-0.085,4.096-0.533l62.08-20.693
			c16.512-5.44,35.051,3.861,40.469,20.224c1.323,3.968,1.835,8.085,1.536,12.288c-0.341,4.8,2.581,9.237,7.125,10.816
			c48.768,16.981,70.763,37.269,70.997,37.461c2.069,1.899,4.693,2.88,7.339,2.88c1.984,0,3.989-0.555,5.76-1.685
			C500.523,208.642,502.336,203.564,500.8,198.935z"/>
	</g>
</g>
<g>
	<g>
		<path d="M206.037,170.86l-64-21.333c-5.547-1.835-11.605,1.152-13.504,6.741c-1.856,5.589,1.173,11.627,6.763,13.483l64,21.333
			c1.131,0.384,2.24,0.555,3.371,0.555c4.459,0,8.619-2.816,10.112-7.296C214.635,178.754,211.627,172.716,206.037,170.86z"/>
	</g>
</g>
<g>
</g>
<g>
</g>
<g>
</g>
<g>
</g>
<g>
</g>
<g>
</g>
<g>
</g>
<g>
</g>
<g>
</g>
<g>
</g>
<g>
</g>
<g>
</g>
<g>
</g>
<g>
</g>
<g>
</g>
</svg>
