<?xml version="1.0" encoding="iso-8859-1"?>
<!-- Generator: Adobe Illustrator 19.0.0, SVG Export Plug-In . SVG Version: 6.00 Build 0)  -->
<svg version="1.1" id="Capa_1" xmlns="http://www.w3.org/2000/svg" xmlns:xlink="http://www.w3.org/1999/xlink" x="0px" y="0px"
	 viewBox="0 0 512 512" style="enable-background:new 0 0 512 512;" xml:space="preserve">
<g>
	<g>
		<path d="M256,0C114.837,0,0,114.837,0,256s114.837,256,256,256s256-114.837,256-256S397.163,0,256,0z M106.667,181.333
			C106.667,151.936,130.581,128,160,128s53.333,23.936,53.333,53.333c0,29.397-23.915,53.333-53.333,53.333
			S106.667,210.731,106.667,181.333z M256,469.333c-58.816,0-106.667-47.851-106.667-106.667c0-53.44,39.872-85.333,106.667-85.333
			s106.667,31.893,106.667,85.333C362.667,421.483,314.816,469.333,256,469.333z M352,234.667
			c-29.419,0-53.333-23.936-53.333-53.333S322.581,128,352,128c29.419,0,53.333,23.936,53.333,53.333
			C405.333,210.731,381.419,234.667,352,234.667z"/>
	</g>
</g>
<g>
</g>
<g>
</g>
<g>
</g>
<g>
</g>
<g>
</g>
<g>
</g>
<g>
</g>
<g>
</g>
<g>
</g>
<g>
</g>
<g>
</g>
<g>
</g>
<g>
</g>
<g>
</g>
<g>
</g>
</svg>
