<?xml version="1.0" encoding="iso-8859-1"?>
<!-- Generator: Adobe Illustrator 19.0.0, SVG Export Plug-In . SVG Version: 6.00 Build 0)  -->
<svg version="1.1" id="Capa_1" xmlns="http://www.w3.org/2000/svg" xmlns:xlink="http://www.w3.org/1999/xlink" x="0px" y="0px"
	 viewBox="0 0 512 512" style="enable-background:new 0 0 512 512;" xml:space="preserve">
<g>
	<g>
		<path d="M256,0C114.837,0,0,114.837,0,256s114.837,256,256,256s256-114.837,256-256S397.163,0,256,0z M108.544,132.629
			c0.725-1.067,18.219-25.963,51.456-25.963c33.237,0,50.731,24.896,51.456,25.963c3.328,4.864,2.112,11.499-2.752,14.827
			c-1.835,1.28-3.947,1.877-6.037,1.877c-3.392,0-6.72-1.621-8.789-4.629C193.429,144.085,181.781,128,160,128
			s-33.771,16.533-33.877,16.704c-3.328,4.885-9.984,6.101-14.827,2.752C106.453,144.107,105.216,137.472,108.544,132.629z
			 M106.667,202.667c0-29.397,23.936-53.333,53.333-53.333s53.333,23.936,53.333,53.333S189.397,256,160,256
			S106.667,232.064,106.667,202.667z M330.667,362.667H181.333c-5.888,0-10.667-4.779-10.667-10.667
			c0-5.888,4.779-10.667,10.667-10.667h149.333c5.888,0,10.667,4.779,10.667,10.667
			C341.333,357.888,336.555,362.667,330.667,362.667z M394.667,192h-12.629c1.195,3.349,1.963,6.912,1.963,10.667
			c0,17.643-14.357,32-32,32c-17.643,0-32-14.357-32-32c0-3.755,0.768-7.317,1.963-10.667h-12.629
			c-5.888,0-10.667-4.779-10.667-10.667s4.779-10.667,10.667-10.667h85.333c5.888,0,10.667,4.779,10.667,10.667
			S400.555,192,394.667,192z"/>
	</g>
</g>
<g>
</g>
<g>
</g>
<g>
</g>
<g>
</g>
<g>
</g>
<g>
</g>
<g>
</g>
<g>
</g>
<g>
</g>
<g>
</g>
<g>
</g>
<g>
</g>
<g>
</g>
<g>
</g>
<g>
</g>
</svg>
