<svg height="512pt" viewBox="0 -34 512.03735 512" width="512pt" xmlns="http://www.w3.org/2000/svg"><path d="m446.761719 20.515625c-29.347657-18.851563-65.066407-25.035156-99.039063-17.152344-40.6875 9.570313-74.589844 37.550781-91.699218 75.683594-17.113282-38.136719-51.019532-66.117187-91.707032-75.683594-33.984375-7.855469-69.699218-1.648437-99.039062 17.210938-31.160156 19.902343-52.953125 51.550781-60.433594 87.757812-29.335938 136.910157 79.597656 247.542969 191.328125 305.484375l55.925781 29.011719c2.460938 1.277344 5.390625 1.277344 7.851563 0l55.925781-29.011719c111.71875-57.914062 220.65625-168.574218 191.316406-305.492187-7.46875-36.226563-29.261718-67.894531-60.429687-87.808594zm-138.746094 378.152344-51.992187 26.957031-51.992188-26.957031c-106.148438-55.011719-209.820312-159.238281-182.496094-286.753907 6.53125-31.734374 25.613282-59.484374 52.90625-76.945312 25.484375-16.410156 56.523438-21.8125 86.050782-14.972656 42.964843 10.304687 76.617187 43.675781 87.277343 86.550781.988281 3.75 4.378907 6.359375 8.253907 6.359375s7.265624-2.609375 8.25-6.359375c10.671874-42.886719 44.34375-76.261719 87.324218-86.550781 29.507813-6.835938 60.527344-1.445313 85.996094 14.949218 27.296875 17.46875 46.378906 45.226563 52.90625 76.96875 27.335938 127.515626-76.347656 231.742188-182.484375 286.753907zm0 0"/><path d="m152.847656 53.257812c4.5625.984376 9.070313-1.878906 10.117188-6.429687s-1.757813-9.097656-6.296875-10.203125c-7.039063-1.621094-14.238281-2.445312-21.460938-2.457031-47.375 1.066406-87.667969 34.851562-96.980469 81.316406-.988281 4.605469 1.945313 9.144531 6.554688 10.136719 4.609375.988281 9.148438-1.945313 10.136719-6.554688 7.589843-38.613281 40.949219-66.796875 80.289062-67.832031 5.9375.011719 11.855469.6875 17.640625 2.023437zm0 0"/><path d="m130.523438 232.933594-8.535157 8.535156c-2.214843 2.140625-3.105469 5.316406-2.324219 8.296875.78125 2.984375 3.109376 5.316406 6.09375 6.097656 2.984376.78125 6.15625-.109375 8.296876-2.328125l8.535156-8.535156c3.234375-3.347656 3.1875-8.667969-.105469-11.960938-3.289063-3.292968-8.613281-3.335937-11.960937-.105468zm0 0"/><path d="m164.65625 232.933594-8.53125 8.535156c-2.21875 2.140625-3.109375 5.316406-2.328125 8.296875.78125 2.984375 3.109375 5.316406 6.09375 6.097656s6.15625-.109375 8.296875-2.328125l8.535156-8.535156c3.234375-3.347656 3.1875-8.667969-.105468-11.960938-3.289063-3.292968-8.613282-3.335937-11.960938-.105468zm0 0"/><path d="m381.523438 232.933594c-3.347657-3.230469-8.671876-3.1875-11.964844.105468-3.289063 3.292969-3.335938 8.613282-.101563 11.960938l8.53125 8.535156c3.351563 3.234375 8.671875 3.1875 11.964844-.105468 3.289063-3.289063 3.335937-8.613282.101563-11.960938zm0 0"/><path d="m347.390625 232.933594c-3.347656-3.230469-8.671875-3.1875-11.964844.105468-3.289062 3.292969-3.335937 8.613282-.101562 11.960938l8.53125 8.535156c3.347656 3.234375 8.671875 3.1875 11.964843-.105468 3.289063-3.289063 3.335938-8.613282.101563-11.960938zm0 0"/><path d="m51.222656 153.636719c0 4.710937-3.820312 8.53125-8.53125 8.53125-4.714844 0-8.535156-3.820313-8.535156-8.53125 0-4.714844 3.820312-8.535157 8.535156-8.535157 4.710938 0 8.53125 3.820313 8.53125 8.535157zm0 0"/><path d="m162.320312 213.367188c32.839844.007812 59.488282-26.574219 59.570313-59.417969.214844-15.328125-7.839844-29.589844-21.078125-37.316407-13.242188-7.730468-29.621094-7.730468-42.863281 0-13.238281 7.726563-21.292969 21.988282-21.078125 37.316407 0 14.140625 11.460937 25.601562 25.601562 25.601562 14.136719 0 25.597656-11.460937 25.597656-25.601562 0-4.710938-3.820312-8.53125-8.53125-8.53125-4.714843 0-8.535156 3.820312-8.535156 8.53125 0 4.714843-3.820312 8.535156-8.53125 8.535156-4.714844 0-8.535156-3.820313-8.535156-8.535156-.167969-9.199219 4.644531-17.773438 12.585938-22.421875 7.941406-4.652344 17.773437-4.652344 25.714843 0 7.941407 4.648437 12.753907 13.222656 12.585938 22.421875-.332031 23.242187-19.265625 41.914062-42.511719 41.914062-23.242188 0-42.179688-18.671875-42.507812-41.914062 0-4.710938-3.820313-8.53125-8.53125-8.53125-4.714844 0-8.535157 3.820312-8.535157 8.53125.085938 32.84375 26.738281 59.425781 59.582031 59.417969zm0 0"/><path d="m366.792969 110.96875c-23.589844.164062-42.601563 19.390625-42.503907 42.980469 0 14.140625 11.460938 25.601562 25.601563 25.601562 14.136719 0 25.597656-11.460937 25.597656-25.601562 0-4.710938-3.820312-8.53125-8.53125-8.53125-4.714843 0-8.535156 3.820312-8.535156 8.53125 0 4.714843-3.820313 8.535156-8.53125 8.535156-4.714844 0-8.535156-3.820313-8.535156-8.535156-.167969-9.199219 4.644531-17.773438 12.585937-22.421875 7.941406-4.652344 17.773438-4.652344 25.714844 0 7.941406 4.648437 12.753906 13.222656 12.585938 22.421875-.332032 23.242187-19.265626 41.914062-42.511719 41.914062-23.242188 0-42.179688-18.671875-42.507813-41.914062 0-4.710938-3.820312-8.53125-8.53125-8.53125-4.714844 0-8.535156 3.820312-8.535156 8.53125.390625 32.625 26.949219 58.867187 59.574219 58.867187 32.628906 0 59.1875-26.242187 59.578125-58.867187.097656-23.59375-18.917969-42.820313-42.515625-42.980469zm0 0"/><path d="m307.222656 221.902344h-102.398437c-4.714844 0-8.535157 3.820312-8.535157 8.53125.324219 16.425781 4.28125 32.578125 11.589844 47.292968 9.214844 18.097657 27.800782 29.496094 48.109375 29.507813 20.3125.011719 38.910157-11.367187 48.144531-29.457031 7.324219-14.726563 11.292969-30.894532 11.625-47.34375 0-4.710938-3.820312-8.53125-8.535156-8.53125zm-9.148437 17.066406c-.910157 8.0625-2.832031 15.976562-5.714844 23.558594-23.449219-8.65625-49.222656-8.65625-72.671875 0-2.886719-7.582032-4.808594-15.496094-5.71875-23.558594zm-14.503907 38.910156c-1.488281 1.773438-3.140624 3.398438-4.933593 4.855469-.351563.273437-.71875.511719-1.066407.777344-1.632812 1.21875-3.378906 2.273437-5.214843 3.15625-.289063.136719-.554688.308593-.851563.4375-2.09375.902343-4.269531 1.597656-6.496094 2.074219-.511718.109374-1.039062.195312-1.5625.289062-4.90625.933594-9.945312.933594-14.855468 0-.527344-.09375-1.058594-.179688-1.570313-.289062-2.222656-.472657-4.390625-1.164063-6.476562-2.066407-.308594-.136719-.589844-.316406-.851563-.460937-1.800781-.878906-3.515625-1.921875-5.121094-3.113282-.375-.28125-.769531-.539062-1.136718-.855468-1.777344-1.445313-3.414063-3.054688-4.886719-4.8125-.113281-.128906-.207031-.28125-.316406-.410156 18.128906-5.699219 37.566406-5.699219 55.695312 0zm0 0"/></svg>