<svg height="512pt" viewBox="0 -34 512.03735 512" width="512pt" xmlns="http://www.w3.org/2000/svg"><path d="m446.769531 20.515625c-29.347656-18.851563-65.070312-25.035156-99.046875-17.152344-40.683594 9.574219-74.582031 37.554688-91.699218 75.683594-17.117188-38.132813-51.023438-66.109375-91.707032-75.683594-33.984375-7.867187-69.703125-1.660156-99.039062 17.203125-31.15625 19.90625-52.953125 51.558594-60.433594 87.765625-29.335938 136.902344 79.597656 247.542969 191.328125 305.484375l55.925781 29.015625c2.460938 1.273438 5.390625 1.273438 7.851563 0l55.925781-29.015625c111.71875-57.914062 220.65625-168.582031 191.316406-305.492187-7.464844-36.226563-29.257812-67.894531-60.421875-87.808594zm-138.753906 378.15625-51.992187 26.957031-51.992188-26.957031c-106.148438-55.023437-209.820312-159.25-182.496094-286.765625 6.535156-31.730469 25.613282-59.476562 52.90625-76.933594 25.484375-16.414062 56.523438-21.816406 86.050782-14.976562 42.964843 10.308594 76.613281 43.683594 87.277343 86.5625.988281 3.746094 4.378907 6.359375 8.253907 6.359375s7.265624-2.613281 8.25-6.359375c10.671874-42.890625 44.339843-76.265625 87.324218-86.5625 29.511719-6.824219 60.53125-1.429688 86.007813 14.957031 27.296875 17.460937 46.375 45.214844 52.90625 76.953125 27.324219 127.515625-76.359375 231.742188-182.496094 286.765625zm0 0"/><path d="m152.847656 53.257812c4.5625.988282 9.070313-1.878906 10.117188-6.429687s-1.757813-9.09375-6.296875-10.203125c-7.035157-1.625-14.238281-2.449219-21.460938-2.457031-47.375 1.066406-87.671875 34.859375-96.980469 81.324219-.988281 4.609374 1.949219 9.144531 6.558594 10.132812s9.144532-1.949219 10.132813-6.558594c7.589843-38.613281 40.949219-66.800781 80.289062-67.832031 5.9375.011719 11.855469.6875 17.640625 2.023437zm0 0"/><path d="m130.523438 232.9375-8.535157 8.53125c-2.214843 2.144531-3.105469 5.316406-2.324219 8.300781.78125 2.980469 3.109376 5.3125 6.09375 6.09375 2.984376.78125 6.15625-.109375 8.296876-2.328125l8.535156-8.53125c3.234375-3.351562 3.1875-8.671875-.105469-11.964844-3.289063-3.289062-8.613281-3.335937-11.960937-.101562zm0 0"/><path d="m164.65625 232.9375-8.53125 8.53125c-2.21875 2.144531-3.109375 5.316406-2.328125 8.300781.78125 2.980469 3.109375 5.3125 6.09375 6.09375s6.15625-.109375 8.296875-2.328125l8.535156-8.53125c3.234375-3.351562 3.1875-8.671875-.105468-11.964844-3.289063-3.289062-8.613282-3.335937-11.960938-.101562zm0 0"/><path d="m381.523438 232.9375c-3.347657-3.234375-8.671876-3.1875-11.964844.101562-3.289063 3.292969-3.335938 8.613282-.101563 11.964844l8.53125 8.53125c3.351563 3.234375 8.671875 3.1875 11.964844-.101562 3.289063-3.292969 3.335937-8.617188.101563-11.964844zm0 0"/><path d="m347.390625 232.9375c-3.347656-3.234375-8.671875-3.1875-11.964844.101562-3.289062 3.292969-3.335937 8.613282-.101562 11.964844l8.53125 8.53125c3.347656 3.234375 8.671875 3.1875 11.964843-.101562 3.289063-3.292969 3.335938-8.617188.101563-11.964844zm0 0"/><path d="m51.222656 153.636719c0 4.710937-3.820312 8.53125-8.53125 8.53125-4.714844 0-8.535156-3.820313-8.535156-8.53125 0-4.714844 3.820312-8.535157 8.535156-8.535157 4.710938 0 8.53125 3.820313 8.53125 8.535157zm0 0"/><path d="m200.972656 158.039062-11.84375-1.792968-5.367187-11.324219c-2.355469-5.09375-7.457031-8.355469-13.070313-8.355469-5.617187 0-10.71875 3.261719-13.074218 8.355469l-5.367188 11.324219-11.855469 1.792968c-5.421875.828126-9.910156 4.648438-11.605469 9.863282-1.792968 5.320312-.441406 11.195312 3.5 15.191406l8.78125 8.941406-2.089843 12.671875c-.964844 5.613281 1.378906 11.277344 6.023437 14.566407 4.472656 3.179687 10.371094 3.511718 15.171875.855468l10.515625-5.769531 10.511719 5.769531c4.800781 2.652344 10.699219 2.320313 15.171875-.855468 4.644531-3.285157 6.988281-8.949219 6.023438-14.558594l-2.089844-12.679688 8.78125-8.941406c3.941406-3.996094 5.292968-9.871094 3.5-15.191406-1.695313-5.21875-6.191406-9.035156-11.617188-9.863282zm-13.652344 22.808594c-3.320312 3.40625-4.824218 8.1875-4.042968 12.878906l1.457031 8.882813-7.183594-3.933594c-4.285156-2.363281-9.488281-2.363281-13.773437 0l-7.183594 3.933594 1.457031-8.882813c.777344-4.695312-.726562-9.480468-4.050781-12.886718l-6.511719-6.613282 8.675781-1.3125c4.785157-.738281 8.882813-3.8125 10.933594-8.191406l3.59375-7.527344 3.566406 7.527344c2.050782 4.382813 6.152344 7.457032 10.9375 8.191406l8.671876 1.3125zm0 0"/><path d="m373.066406 204.691406-2.089844-12.65625 8.78125-8.941406c3.9375-3.996094 5.292969-9.871094 3.496094-15.191406-1.691406-5.21875-6.1875-9.035156-11.613281-9.863282l-11.84375-1.792968-5.367187-11.324219c-2.355469-5.09375-7.460938-8.355469-13.074219-8.355469s-10.714844 3.261719-13.070313 8.355469l-5.371094 11.324219-11.851562 1.792968c-5.421875.828126-9.914062 4.648438-11.605469 9.863282-1.792969 5.320312-.441406 11.195312 3.5 15.191406l8.78125 8.941406-2.09375 12.671875c-.960937 5.613281 1.378907 11.277344 6.027344 14.566407 4.472656 3.179687 10.371094 3.511718 15.171875.855468l10.511719-5.769531 10.515625 5.769531c4.800781 2.652344 10.695312 2.320313 15.171875-.855468 4.652343-3.289063 6.996093-8.964844 6.023437-14.582032zm-15.054687-23.84375c-3.320313 3.40625-4.820313 8.1875-4.042969 12.878906l1.460938 8.882813-7.1875-3.933594c-4.285157-2.363281-9.484376-2.363281-13.773438 0l-7.183594 3.933594 1.457032-8.882813c.78125-4.695312-.726563-9.480468-4.050782-12.886718l-6.511718-6.613282 8.679687-1.3125c4.78125-.738281 8.878906-3.8125 10.929687-8.191406l3.566407-7.527344 3.566406 7.527344c2.050781 4.382813 6.15625 7.457032 10.941406 8.191406l8.667969 1.3125zm0 0"/><path d="m290.789062 199.167969c-5.160156-3.488281-11.820312-3.863281-17.339843-.980469l-5.453125 2.808594c-7.503906 3.828125-16.390625 3.828125-23.894532 0l-5.476562-2.824219c-5.527344-2.851563-12.167969-2.472656-17.332031.988281-5.367188 3.582032-8.378907 9.78125-7.878907 16.214844l5.378907 65.550781c1.050781 16.683594 13.09375 30.621094 29.445312 34.078125 16.355469 3.460938 33.007813-4.40625 40.722657-19.238281v-.058594l.058593-.101562c.0625-.113281.078125-.246094.128907-.367188 2.328124-4.449219 3.738281-9.316406 4.148437-14.320312l5.394531-65.578125v-.066406c.457032-6.398438-2.5625-12.550782-7.902344-16.105469zm-54.53125 17.015625c12.417969 6.351562 27.128907 6.351562 39.546876 0l5.441406-2.8125c.273437.097656.441406.375.402344.664062l-4.171876 50.808594c-11.863281-11.660156-30.867187-11.707031-42.785156-.105469l-3.910156-51.367187zm35.175782 74.957031c-.460938.566406-.914063 1.136719-1.425782 1.648437-.761718.726563-1.578124 1.398438-2.4375 2.003907-.53125.414062-1.082031.804687-1.648437 1.160156-1.007813.558594-2.0625 1.027344-3.148437 1.402344-.53125.195312-1.03125.46875-1.578126.621093-1.683593.46875-3.425781.714844-5.171874.726563-1.753907-.011719-3.496094-.257813-5.179688-.734375-.511719-.136719-.972656-.390625-1.46875-.570312-1.144531-.394532-2.253906-.890626-3.308594-1.476563-.503906-.300781-.957031-.683594-1.433594-1.015625-.964843-.671875-1.871093-1.421875-2.707031-2.246094-.433593-.441406-.851562-.9375-1.238281-1.425781-.429688-.546875-.835938-1.117187-1.210938-1.703125.898438-8.71875 7.824219-15.59375 16.546876-16.429688 8.722656.84375 15.644531 7.710938 16.554687 16.429688-.355469.554688-.734375 1.09375-1.144531 1.609375zm0 0"/></svg>