<?xml version="1.0" encoding="iso-8859-1"?>
<!-- Generator: Adobe Illustrator 19.0.0, SVG Export Plug-In . SVG Version: 6.00 Build 0)  -->
<svg version="1.1" id="Capa_1" xmlns="http://www.w3.org/2000/svg" xmlns:xlink="http://www.w3.org/1999/xlink" x="0px" y="0px"
	 viewBox="0 0 512 512" style="enable-background:new 0 0 512 512;" xml:space="preserve">
<g>
	<g>
		<path d="M505.387,256.64c-3.861-1.835-8.448-1.195-11.648,1.664C472.171,277.44,444.565,288,416,288
			c-59.819,0-114.219-33.131-142.827-87.872c-0.171-0.213-1.728-2.091-1.92-2.283c-1.493-2.496-3.947-4.267-6.763-4.907
			c-5.995-1.365-10.987-1.365-16.981,0c-2.816,0.64-5.632,2.816-7.125,5.312c-0.533,0.619-2.027,2.56-2.411,3.307
			C210.219,254.869,155.819,288,96,288c-28.565,0-56.171-10.56-77.739-29.696c-3.179-2.859-7.765-3.499-11.648-1.664
			c-3.861,1.835-6.251,5.803-6.08,10.069C6.229,404.267,118.464,512,256,512s249.771-107.733,255.467-245.291
			C511.637,262.443,509.248,258.475,505.387,256.64z M381.717,336.427c-27.669,43.136-74.667,68.907-125.717,68.907
			s-98.048-25.771-125.717-68.907c-3.179-4.949-1.749-11.563,3.221-14.741c4.928-3.2,11.563-1.749,14.741,3.221
			C171.989,361.899,212.267,384,256,384s84.011-22.101,107.755-59.093c3.179-4.949,9.771-6.421,14.741-3.221
			C383.445,324.864,384.896,331.477,381.717,336.427z"/>
	</g>
</g>
<g>
	<g>
		<path d="M256,149.333c-28.416,0-53.333,14.955-53.333,32c0,5.888,4.715,11.093,10.603,11.093s10.603-4.352,10.603-10.24
			c1.408-3.456,14.016-11.52,32.128-11.52c17.728,0,30.208,7.744,32.021,11.285c0.32,5.611,4.971,10.048,10.645,10.048
			c5.888,0,10.667-4.779,10.667-10.667C309.333,164.288,284.416,149.333,256,149.333z"/>
	</g>
</g>
<g>
	<g>
		<path d="M468.821,106.667L256,117.312L42.667,106.667C25.131,106.667,0,131.797,0,149.333v21.333c0,52.928,43.072,96,96,96
			c73.237,0,133.397-57.067,138.325-129.067l21.141,1.067c0.192,0,0.363-0.085,0.533-0.085c0.192,0,0.341,0.085,0.533,0.085
			l21.141-1.067c4.928,72,65.088,129.067,138.325,129.067c52.928,0,96-43.072,96-96v-21.333
			C512,131.797,486.891,106.667,468.821,106.667z"/>
	</g>
</g>
<g>
	<g>
		<path d="M430.571,69.12C382.912,24.555,320.896,0,256,0C191.083,0,129.045,24.555,81.365,69.163
			c-3.115,2.923-4.181,7.445-2.709,11.456c1.472,4.011,5.205,6.763,9.472,6.997l167.339,8.32c0.171,0,0.363,0,0.533,0
			s0.363,0,0.533,0l167.296-8.363c4.288-0.213,8-2.965,9.493-6.997C434.773,76.565,433.707,72.043,430.571,69.12z"/>
	</g>
</g>
<g>
</g>
<g>
</g>
<g>
</g>
<g>
</g>
<g>
</g>
<g>
</g>
<g>
</g>
<g>
</g>
<g>
</g>
<g>
</g>
<g>
</g>
<g>
</g>
<g>
</g>
<g>
</g>
<g>
</g>
</svg>
