<?xml version="1.0" encoding="iso-8859-1"?>
<!-- Generator: Adobe Illustrator 19.0.0, SVG Export Plug-In . SVG Version: 6.00 Build 0)  -->
<svg version="1.1" id="Capa_1" xmlns="http://www.w3.org/2000/svg" xmlns:xlink="http://www.w3.org/1999/xlink" x="0px" y="0px"
	 viewBox="0 0 512 512" style="enable-background:new 0 0 512 512;" xml:space="preserve">
<g>
	<g>
		<path d="M512,10.667C512,4.779,507.221,0,501.333,0c-5.888,0-10.667,4.779-10.667,10.667c0,20.117-22.485,40.576-61.931,56.597
			C381.355,23.851,320.299,0,256,0S130.645,23.851,83.264,67.264c-39.445-16.021-61.931-36.48-61.931-56.597
			C21.333,4.779,16.555,0,10.667,0S0,4.779,0,10.667c0,42.709,10.88,84.992,31.509,122.667C10.88,171.008,0,213.291,0,256
			c0,141.163,114.837,256,256,256s256-114.837,256-256c0-42.709-10.88-84.992-31.509-122.667C501.12,95.659,512,53.376,512,10.667z
			 M305.963,149.888l64-21.333c5.589-1.856,11.627,1.152,13.504,6.741c1.856,5.589-1.173,11.627-6.741,13.483l-64,21.333
			c-1.152,0.384-2.261,0.555-3.392,0.555c-4.459,0-8.619-2.816-10.133-7.296C297.344,157.781,300.373,151.744,305.963,149.888z
			 M384,202.667c0,17.643-14.357,32-32,32c-17.643,0-32-14.357-32-32c0-17.643,14.357-32,32-32
			C369.643,170.667,384,185.024,384,202.667z M128.533,135.296c1.899-5.589,7.957-8.597,13.504-6.741l64,21.333
			c5.589,1.856,8.597,7.893,6.741,13.483c-1.493,4.48-5.653,7.296-10.112,7.296c-1.131,0-2.24-0.171-3.371-0.555l-64-21.333
			C129.707,146.923,126.677,140.885,128.533,135.296z M192,202.667c0,17.643-14.357,32-32,32s-32-14.357-32-32
			c0-17.643,14.357-32,32-32S192,185.024,192,202.667z M439.531,312.469C414.635,393.536,340.885,448,256,448
			S97.365,393.536,72.469,312.469c-1.003-3.243-0.405-6.741,1.6-9.472c2.027-2.731,5.227-4.331,8.597-4.331h346.667
			c3.371,0,6.571,1.6,8.576,4.331C439.915,305.728,440.512,309.227,439.531,312.469z"/>
	</g>
</g>
<g>
</g>
<g>
</g>
<g>
</g>
<g>
</g>
<g>
</g>
<g>
</g>
<g>
</g>
<g>
</g>
<g>
</g>
<g>
</g>
<g>
</g>
<g>
</g>
<g>
</g>
<g>
</g>
<g>
</g>
</svg>
