<?xml version="1.0" encoding="iso-8859-1"?>
<!-- Generator: Adobe Illustrator 19.0.0, SVG Export Plug-In . SVG Version: 6.00 Build 0)  -->
<svg version="1.1" id="Capa_1" xmlns="http://www.w3.org/2000/svg" xmlns:xlink="http://www.w3.org/1999/xlink" x="0px" y="0px"
	 viewBox="0 0 501.248 501.248" style="enable-background:new 0 0 501.248 501.248;" xml:space="preserve">
<g>
	<g>
		<path d="M406.606,63.168C362.766,20.629,304.804-1.344,243.705,0.064C125.006,3.648,27.641,103.232,26.638,222.058
			C26.212,273.6,43.79,324.074,76.068,364.245c9.387,11.648,14.571,25.877,14.571,40.085v22.293c0,0.491,0.213,0.939,0.277,1.408
			c0.107,0.789,0.192,1.579,0.469,2.325c0.256,0.704,0.683,1.259,1.067,1.877c0.299,0.448,0.427,0.981,0.789,1.387
			c2.133,2.411,3.157,8.235,4.181,13.845c2.197,12.117,5.163,28.736,23.061,35.52c8.299,3.157,16.32-1.365,24.043-5.781
			c3.797-2.176,10.901-6.677,12.288-5.995c1.323,0.875,4.096,4.949,5.952,7.637c5.397,7.851,12.096,17.621,23.189,18.923
			c9.301,1.131,16.747-5.44,23.445-11.243c2.837-2.475,8.149-7.104,9.195-7.531c1.557,0.683,5.333,4.736,7.573,7.168
			c6.208,6.72,13.909,15.083,24.448,15.083c10.539,0,18.219-8.363,24.448-15.104c2.219-2.432,5.973-6.485,6.528-6.997
			c2.069,0.256,7.403,4.885,10.24,7.381c6.656,5.781,14.336,12.437,23.403,11.243c11.115-1.323,17.856-11.093,23.275-18.923
			c1.877-2.688,4.693-6.784,4.971-7.275c2.816-0.448,9.344,3.307,13.355,5.589c7.744,4.416,15.765,8.917,24.043,5.781
			c17.813-6.784,20.8-23.381,22.955-35.499c1.003-5.632,2.048-11.435,4.139-13.824c0.341-0.384,0.448-0.853,0.725-1.28
			c0.427-0.661,0.896-1.301,1.173-2.048c0.256-0.704,0.32-1.408,0.427-2.133c0.085-0.533,0.32-1.024,0.32-1.579v-21.077
			c0-14.933,5.312-29.781,14.955-41.813c32.085-40.064,49.045-88.405,49.045-139.776
			C474.638,162.837,450.468,105.749,406.606,63.168z M143.972,298.624c-29.419,0-53.333-23.936-53.333-53.333
			s23.915-53.333,53.333-53.333c29.419,0,53.333,23.936,53.333,53.333S173.39,298.624,143.972,298.624z M271.972,405.29
			c-7.637,0-15.36-2.88-21.333-8.064c-5.973,5.205-13.696,8.064-21.333,8.064c-21.227,0-32-10.773-32-32
			c0-22.571,34.965-60.373,45.675-71.424c0.043-0.043,0.128-0.064,0.171-0.128c0.043-0.043,0.043-0.085,0.085-0.107
			c0.448-0.448,1.024-0.64,1.536-0.981c0.619-0.427,1.195-0.939,1.877-1.195c0.704-0.277,1.429-0.32,2.155-0.448
			c0.619-0.107,1.237-0.32,1.856-0.32c0.64,0,1.216,0.213,1.856,0.32c0.725,0.128,1.472,0.171,2.176,0.469
			c0.661,0.277,1.216,0.768,1.835,1.173c0.512,0.341,1.088,0.555,1.557,1.003c0.043,0.043,0.043,0.085,0.085,0.107
			c0.043,0.043,0.128,0.064,0.171,0.128c10.709,11.051,45.675,48.853,45.675,71.424C303.972,394.517,293.198,405.29,271.972,405.29z
			 M357.305,298.624c-29.419,0-53.333-23.936-53.333-53.333s23.915-53.333,53.333-53.333c29.419,0,53.333,23.936,53.333,53.333
			S386.724,298.624,357.305,298.624z"/>
	</g>
</g>
<g>
</g>
<g>
</g>
<g>
</g>
<g>
</g>
<g>
</g>
<g>
</g>
<g>
</g>
<g>
</g>
<g>
</g>
<g>
</g>
<g>
</g>
<g>
</g>
<g>
</g>
<g>
</g>
<g>
</g>
</svg>
