<?xml version="1.0" encoding="iso-8859-1"?>
<!-- Generator: Adobe Illustrator 19.0.0, SVG Export Plug-In . SVG Version: 6.00 Build 0)  -->
<svg version="1.1" id="Capa_1" xmlns="http://www.w3.org/2000/svg" xmlns:xlink="http://www.w3.org/1999/xlink" x="0px" y="0px"
	 viewBox="0 0 512 512" style="enable-background:new 0 0 512 512;" xml:space="preserve">
<g>
	<g>
		<path d="M256,0C114.837,0,0,114.837,0,256s114.837,256,256,256s256-114.837,256-256S397.163,0,256,0z M352,149.333
			c17.643,0,32,14.357,32,32c0,17.643-14.357,32-32,32c-17.643,0-32-14.357-32-32C320,163.691,334.357,149.333,352,149.333z
			 M160,149.333c17.643,0,32,14.357,32,32c0,17.643-14.357,32-32,32s-32-14.357-32-32C128,163.691,142.357,149.333,160,149.333z
			 M256,448c-84.885,0-158.635-54.464-183.531-135.531c-1.003-3.243-0.405-6.741,1.6-9.472c2.027-2.731,5.227-4.331,8.597-4.331
			h346.667c3.371,0,6.571,1.6,8.576,4.331c2.005,2.731,2.603,6.229,1.6,9.472C414.635,393.536,340.885,448,256,448z"/>
	</g>
</g>
<g>
</g>
<g>
</g>
<g>
</g>
<g>
</g>
<g>
</g>
<g>
</g>
<g>
</g>
<g>
</g>
<g>
</g>
<g>
</g>
<g>
</g>
<g>
</g>
<g>
</g>
<g>
</g>
<g>
</g>
</svg>
