<svg height="512pt" viewBox="0 -34 512.02883 512" width="512pt" xmlns="http://www.w3.org/2000/svg"><path d="m446.761719 20.511719c-29.347657-18.851563-65.070313-25.035157-99.046875-17.152344-40.6875 9.570313-74.589844 37.550781-91.699219 75.683594-17.117187-38.128907-51.015625-66.109375-91.699219-75.683594-33.988281-7.867187-69.707031-1.660156-99.046875 17.210937-31.160156 19.898438-52.953125 51.550782-60.425781 87.757813-29.335938 136.902344 79.597656 247.542969 191.316406 305.484375l55.929688 29.015625c2.460937 1.273437 5.386718 1.273437 7.851562 0l55.925782-29.015625c111.71875-57.914062 220.65625-168.582031 191.316406-305.492188-7.464844-36.226562-29.257813-67.894531-60.421875-87.808593zm-138.746094 378.15625-52 26.957031-52.003906-26.957031c-106.128907-55.023438-209.808594-159.25-182.484375-286.761719 6.53125-31.734375 25.613281-59.480469 52.90625-76.9375 25.480468-16.414062 56.519531-21.816406 86.050781-14.976562 42.964844 10.308593 76.613281 43.683593 87.269531 86.5625.976563 3.761718 4.371094 6.390624 8.261719 6.390624 3.886719 0 7.285156-2.628906 8.257813-6.390624 10.664062-42.890626 44.332031-76.269532 87.3125-86.5625 29.515624-6.816407 60.53125-1.421876 86.007812 14.957031 27.296875 17.460937 46.378906 45.214843 52.90625 76.957031 27.324219 127.511719-76.355469 231.738281-182.484375 286.761719zm0 0"/><path d="m152.828125 53.253906c2.972656.683594 6.082031-.265625 8.160156-2.496094 2.078125-2.234374 2.808594-5.402343 1.917969-8.316406-.894531-2.917968-3.273438-5.132812-6.246094-5.816406-7.039062-1.628906-14.238281-2.453125-21.460937-2.460938-47.378907 1.0625-87.675781 34.855469-96.972657 81.324219-.984374 4.605469 1.941407 9.136719 6.546876 10.128907.589843.125 1.195312.1875 1.800781.1875 4.019531-.003907 7.492187-2.8125 8.335937-6.742188 7.589844-38.613281 40.949219-66.796875 80.289063-67.832031 5.933593.007812 11.847656.6875 17.628906 2.023437zm0 0"/><path d="m364.386719 176.785156c2.46875-2.429687 3.226562-6.109375 1.917969-9.3125-1.3125-3.207031-4.425782-5.304687-7.890626-5.308594h-51.199218c-4.714844 0-8.535156 3.820313-8.535156 8.535157 0 4.710937 3.820312 8.53125 8.535156 8.53125h10.101562c-1.007812 2.734375-1.539062 5.621093-1.570312 8.535156-.070313 10.554687 6.34375 20.074219 16.15625 23.96875s21.007812 1.367187 28.195312-6.367187c7.1875-7.730469 8.890625-19.082032 4.289063-28.582032zm-23.039063 19.515625c-4.710937 0-8.535156-3.824219-8.535156-8.535156s3.824219-8.535156 8.535156-8.535156c4.714844 0 8.535156 3.824219 8.535156 8.535156s-3.820312 8.535156-8.535156 8.535156zm0 0"/><path d="m298.878906 222.011719c-4.613281.050781-8.410156 3.632812-8.730468 8.234375-.085938 1.765625-1.757813 17.253906-34.132813 17.253906-32.207031 0-34.03125-15.359375-34.132813-17.230469-.046874-4.710937-3.902343-8.496093-8.617187-8.453125-4.710937.046875-8.496094 3.902344-8.453125 8.617188 0 .339844.582031 34.132812 51.203125 34.132812 50.617187 0 51.199219-33.792968 51.199219-34.132812-.015625-4.613282-3.726563-8.363282-8.335938-8.421875zm0 0"/><path d="m130.515625 232.933594-8.535156 8.53125c-2.21875 2.144531-3.105469 5.316406-2.324219 8.300781.777344 2.984375 3.109375 5.3125 6.09375 6.09375 2.980469.78125 6.15625-.109375 8.296875-2.328125l8.535156-8.53125c3.234375-3.347656 3.1875-8.671875-.105469-11.964844-3.292968-3.289062-8.613281-3.335937-11.960937-.101562zm0 0"/><path d="m164.648438 232.933594-8.535157 8.53125c-2.21875 2.144531-3.105469 5.316406-2.324219 8.300781s3.109376 5.3125 6.09375 6.09375c2.984376.78125 6.15625-.109375 8.296876-2.328125l8.535156-8.53125c3.234375-3.347656 3.1875-8.671875-.105469-11.964844-3.289063-3.289062-8.613281-3.335937-11.960937-.101562zm0 0"/><path d="m381.515625 232.933594c-3.351563-3.234375-8.671875-3.1875-11.964844.101562-3.289062 3.292969-3.335937 8.617188-.101562 11.964844l8.53125 8.53125c3.347656 3.234375 8.671875 3.1875 11.964843-.101562 3.289063-3.292969 3.335938-8.617188.101563-11.964844zm0 0"/><path d="m347.378906 232.933594c-3.347656-3.234375-8.667968-3.1875-11.960937.101562-3.289063 3.292969-3.335938 8.617188-.101563 11.964844l8.53125 8.53125c3.347656 3.234375 8.671875 3.1875 11.960938-.101562 3.292968-3.292969 3.339844-8.617188.105468-11.964844zm0 0"/><path d="m51.214844 153.632812c0 4.710938-3.820313 8.53125-8.535156 8.53125-4.710938 0-8.53125-3.820312-8.53125-8.53125 0-4.714843 3.820312-8.535156 8.53125-8.535156 4.714843 0 8.535156 3.820313 8.535156 8.535156zm0 0"/><path d="m196.28125 170.699219c0-4.714844-3.820312-8.535157-8.535156-8.535157h-51.199219c-4.710937 0-8.53125 3.820313-8.53125 8.535157 0 4.710937 3.820313 8.53125 8.53125 8.53125h10.105469c-1.011719 2.734375-1.542969 5.621093-1.570313 8.535156-.074219 10.554687 6.34375 20.074219 16.15625 23.96875 9.808594 3.894531 21.007813 1.367187 28.195313-6.367187 7.183594-7.730469 8.886718-19.082032 4.289062-28.582032 1.632813-1.605468 2.554688-3.796875 2.558594-6.085937zm-25.601562 25.601562c-4.710938 0-8.53125-3.824219-8.53125-8.535156s3.820312-8.535156 8.53125-8.535156c4.714843 0 8.535156 3.824219 8.535156 8.535156s-3.820313 8.535156-8.535156 8.535156zm0 0"/></svg>