<?xml version="1.0" encoding="iso-8859-1"?>
<!-- Generator: Adobe Illustrator 19.0.0, SVG Export Plug-In . SVG Version: 6.00 Build 0)  -->
<svg version="1.1" id="Capa_1" xmlns="http://www.w3.org/2000/svg" xmlns:xlink="http://www.w3.org/1999/xlink" x="0px" y="0px"
	 viewBox="0 0 512 512" style="enable-background:new 0 0 512 512;" xml:space="preserve">
<g>
	<g>
		<circle cx="138.667" cy="202.667" r="32"/>
	</g>
</g>
<g>
	<g>
		<circle cx="373.333" cy="202.667" r="32"/>
	</g>
</g>
<g>
	<g>
		<path d="M256,0C114.837,0,0,114.837,0,256s114.837,256,256,256s256-114.837,256-256S397.163,0,256,0z M381.717,336.427
			C353.557,380.331,304.171,384,256,384v32c0,5.888-4.779,10.667-10.667,10.667h-42.667c-5.888,0-10.667-4.779-10.667-10.667
			v-37.867c-24.448-5.931-46.293-17.685-61.717-41.707c-3.179-4.949-1.749-11.563,3.221-14.741c4.928-3.2,11.541-1.749,14.741,3.221
			c20.245,31.573,54.848,37.76,107.755,37.76s87.509-6.187,107.755-37.76c3.179-4.949,9.771-6.421,14.741-3.221
			C383.445,324.864,384.896,331.477,381.717,336.427z M373.333,298.667c-47.467,0-86.72-34.709-94.379-80.021
			c-0.939-1.6-1.621-3.328-1.621-5.312c0-5.312-6.592-10.667-21.333-10.667s-21.333,5.355-21.333,10.667
			c0,1.984-0.683,3.712-1.621,5.312c-7.659,45.312-46.912,80.021-94.379,80.021c-52.928,0-96-43.072-96-96c0-52.928,43.072-96,96-96
			c47.168,0,86.272,34.24,94.293,79.125c6.165-2.709,13.696-4.459,23.04-4.459s16.875,1.749,23.04,4.459
			c8.021-44.885,47.125-79.125,94.293-79.125c52.928,0,96,43.072,96,96C469.333,255.595,426.261,298.667,373.333,298.667z"/>
	</g>
</g>
<g>
</g>
<g>
</g>
<g>
</g>
<g>
</g>
<g>
</g>
<g>
</g>
<g>
</g>
<g>
</g>
<g>
</g>
<g>
</g>
<g>
</g>
<g>
</g>
<g>
</g>
<g>
</g>
<g>
</g>
</svg>
