<?xml version="1.0" encoding="iso-8859-1"?>
<!-- Generator: Adobe Illustrator 19.0.0, SVG Export Plug-In . SVG Version: 6.00 Build 0)  -->
<svg version="1.1" id="Capa_1" xmlns="http://www.w3.org/2000/svg" xmlns:xlink="http://www.w3.org/1999/xlink" x="0px" y="0px"
	 viewBox="0 0 512 512" style="enable-background:new 0 0 512 512;" xml:space="preserve">
<g>
	<g>
		<path d="M256,0C114.837,0,0,114.837,0,256s114.837,256,256,256s256-114.837,256-256S397.163,0,256,0z M343.467,121.6
			c3.563-4.715,10.261-5.653,14.933-2.133l42.667,32c4.715,3.541,5.675,10.219,2.155,14.933c-2.112,2.795-5.333,4.267-8.555,4.267
			c-2.219,0-4.48-0.704-6.4-2.133l-42.667-32C340.885,132.992,339.947,126.315,343.467,121.6z M352,170.667
			c17.643,0,32,14.357,32,32c0,17.643-14.357,32-32,32c-17.643,0-32-14.357-32-32C320,185.024,334.357,170.667,352,170.667z
			 M117.333,170.667c-3.904,0-7.659-2.155-9.536-5.888c-2.624-5.269-0.512-11.691,4.757-14.315l42.667-21.333
			c5.291-2.624,11.669-0.512,14.315,4.757c2.624,5.269,0.512,11.691-4.757,14.315l-42.667,21.333
			C120.555,170.304,118.933,170.667,117.333,170.667z M160,170.667c17.643,0,32,14.357,32,32c0,17.643-14.357,32-32,32
			s-32-14.357-32-32C128,185.024,142.357,170.667,160,170.667z M394.667,341.333c-12.011,0-22.379-6.741-27.84-16.555l-50.112,8.363
			c26.176,11.691,48.917,30.656,65.003,55.765c3.179,4.971,1.728,11.563-3.221,14.741c-1.792,1.152-3.797,1.685-5.76,1.685
			c-3.499,0-6.933-1.728-8.981-4.907c-23.723-36.992-64-59.093-107.755-59.093s-84.032,22.101-107.755,59.093
			c-3.2,4.971-9.813,6.379-14.72,3.221c-4.949-3.179-6.421-9.771-3.221-14.741C157.952,345.771,204.928,320,256,320
			c2.688,0,5.312,0.363,7.979,0.512c0.32-0.085,0.597-0.299,0.939-0.363l98.304-16.384c2.667-14.997,15.701-26.432,31.445-26.432
			c17.643,0,32,14.357,32,32C426.667,326.976,412.309,341.333,394.667,341.333z"/>
	</g>
</g>
<g>
</g>
<g>
</g>
<g>
</g>
<g>
</g>
<g>
</g>
<g>
</g>
<g>
</g>
<g>
</g>
<g>
</g>
<g>
</g>
<g>
</g>
<g>
</g>
<g>
</g>
<g>
</g>
<g>
</g>
</svg>
