<?xml version="1.0" encoding="iso-8859-1"?>
<!-- Generator: Adobe Illustrator 19.0.0, SVG Export Plug-In . SVG Version: 6.00 Build 0)  -->
<svg version="1.1" id="Capa_1" xmlns="http://www.w3.org/2000/svg" xmlns:xlink="http://www.w3.org/1999/xlink" x="0px" y="0px"
	 viewBox="0 0 512 512" style="enable-background:new 0 0 512 512;" xml:space="preserve">
<g>
	<g>
		<path d="M256,0C114.837,0,0,114.837,0,256s114.837,256,256,256s256-114.837,256-256S397.163,0,256,0z M160,149.333
			c17.643,0,32,14.357,32,32c0,17.643-14.357,32-32,32s-32-14.357-32-32C128,163.691,142.357,149.333,160,149.333z M381.717,336.427
			c-27.669,43.136-74.667,68.907-125.717,68.907s-98.048-25.771-125.717-68.907c-3.179-4.949-1.749-11.563,3.221-14.741
			c4.928-3.2,11.563-1.749,14.741,3.221C171.989,361.899,212.267,384,256,384s84.011-22.101,107.755-59.093
			c3.179-4.949,9.771-6.421,14.741-3.221C383.445,324.864,384.896,331.477,381.717,336.427z M352,213.333c-17.643,0-32-14.357-32-32
			c0-17.643,14.357-32,32-32c17.643,0,32,14.357,32,32C384,198.976,369.643,213.333,352,213.333z"/>
	</g>
</g>
<g>
</g>
<g>
</g>
<g>
</g>
<g>
</g>
<g>
</g>
<g>
</g>
<g>
</g>
<g>
</g>
<g>
</g>
<g>
</g>
<g>
</g>
<g>
</g>
<g>
</g>
<g>
</g>
<g>
</g>
</svg>
