<svg height="512pt" viewBox="0 -34 512.02883 512" width="512pt" xmlns="http://www.w3.org/2000/svg"><path d="m446.761719 20.511719c-29.347657-18.851563-65.070313-25.039063-99.046875-17.152344-40.6875 9.570313-74.589844 37.550781-91.699219 75.683594-17.117187-38.128907-51.015625-66.109375-91.699219-75.683594-33.988281-7.867187-69.707031-1.65625-99.046875 17.214844-31.160156 19.898437-52.953125 51.546875-60.425781 87.753906-29.335938 136.902344 79.597656 247.542969 191.316406 305.484375l55.929688 29.015625c2.460937 1.273437 5.386718 1.273437 7.851562 0l55.925782-29.015625c111.71875-57.914062 220.65625-168.582031 191.316406-305.492188-7.464844-36.222656-29.257813-67.890624-60.421875-87.808593zm-138.746094 378.15625-52 26.957031-52.003906-26.957031c-106.128907-55.023438-209.808594-159.25-182.484375-286.761719 6.53125-31.734375 25.613281-59.480469 52.90625-76.9375 25.480468-16.414062 56.519531-21.816406 86.050781-14.976562 42.964844 10.308593 76.613281 43.683593 87.269531 86.5625.976563 3.761718 4.371094 6.390624 8.261719 6.390624 3.886719 0 7.285156-2.628906 8.257813-6.390624 10.664062-42.890626 44.332031-76.269532 87.3125-86.5625 29.515624-6.816407 60.53125-1.421876 86.007812 14.960937 27.296875 17.460937 46.378906 45.210937 52.90625 76.953125 27.324219 127.511719-76.355469 231.738281-182.484375 286.761719zm0 0"/><path d="m152.828125 53.253906c2.972656.6875 6.082031-.265625 8.160156-2.496094 2.078125-2.230468 2.808594-5.402343 1.917969-8.316406-.894531-2.914062-3.273438-5.132812-6.246094-5.816406-7.039062-1.625-14.238281-2.449219-21.460937-2.457031-47.378907 1.058593-87.675781 34.851562-96.972657 81.320312-.984374 4.605469 1.941407 9.136719 6.546876 10.128907.589843.125 1.195312.1875 1.800781.1875 4.019531 0 7.492187-2.808594 8.335937-6.742188 7.589844-38.613281 40.949219-66.796875 80.289063-67.828125 5.933593.007813 11.847656.683594 17.628906 2.019531zm0 0"/><path d="m130.515625 232.933594-8.535156 8.53125c-2.21875 2.144531-3.105469 5.316406-2.324219 8.300781.777344 2.984375 3.109375 5.3125 6.09375 6.09375 2.980469.78125 6.15625-.109375 8.296875-2.328125l8.535156-8.53125c3.234375-3.347656 3.1875-8.671875-.105469-11.960938-3.292968-3.292968-8.613281-3.339843-11.960937-.105468zm0 0"/><path d="m164.648438 232.933594-8.535157 8.53125c-2.21875 2.144531-3.105469 5.316406-2.324219 8.300781s3.109376 5.3125 6.09375 6.09375c2.984376.78125 6.15625-.109375 8.296876-2.328125l8.535156-8.53125c3.234375-3.347656 3.1875-8.671875-.105469-11.960938-3.289063-3.292968-8.613281-3.339843-11.960937-.105468zm0 0"/><path d="m381.515625 232.933594c-3.351563-3.234375-8.671875-3.1875-11.964844.105468-3.289062 3.289063-3.335937 8.613282-.101562 11.960938l8.53125 8.53125c3.347656 3.234375 8.671875 3.1875 11.964843-.101562 3.289063-3.292969 3.335938-8.613282.101563-11.964844zm0 0"/><path d="m347.378906 232.933594c-3.347656-3.234375-8.667968-3.1875-11.960937.105468-3.289063 3.289063-3.335938 8.613282-.101563 11.960938l8.53125 8.53125c3.347656 3.234375 8.671875 3.1875 11.960938-.101562 3.292968-3.292969 3.339844-8.613282.105468-11.964844zm0 0"/><path d="m51.214844 153.632812c0 4.714844-3.820313 8.535157-8.535156 8.535157-4.710938 0-8.53125-3.820313-8.53125-8.535157 0-4.710937 3.820312-8.535156 8.53125-8.535156 4.714843 0 8.535156 3.824219 8.535156 8.535156zm0 0"/><path d="m179.375 110.964844c-23.597656.15625-42.617188 19.386718-42.511719 42.984375 0 14.136719 11.460938 25.597656 25.601563 25.597656 14.136718 0 25.597656-11.460937 25.597656-25.597656 0-4.714844-3.820312-8.535157-8.53125-8.535157-4.714844 0-8.535156 3.820313-8.535156 8.535157 0 4.710937-3.820313 8.53125-8.53125 8.53125-4.714844 0-8.535156-3.820313-8.535156-8.53125-.167969-9.203125 4.644531-17.777344 12.585937-22.425781 7.941406-4.648438 17.773437-4.648438 25.714844 0 7.941406 4.648437 12.753906 13.222656 12.582031 22.425781-.328125 23.242187-19.261719 41.910156-42.507812 41.910156-23.242188 0-42.179688-18.667969-42.507813-41.910156 0-4.714844-3.820313-8.535157-8.535156-8.535157-4.710938 0-8.53125 3.820313-8.53125 8.535157.390625 32.625 26.949219 58.867187 59.574219 58.867187 32.628906 0 59.1875-26.242187 59.578124-58.867187.101563-23.597657-18.910156-42.824219-42.507812-42.984375zm0 0"/><path d="m366.785156 110.964844c-23.59375.160156-42.609375 19.386718-42.503906 42.984375 0 14.136719 11.460938 25.597656 25.601562 25.597656 14.136719 0 25.597657-11.460937 25.597657-25.597656 0-4.714844-3.820313-8.535157-8.53125-8.535157-4.714844 0-8.535157 3.820313-8.535157 8.535157 0 4.710937-3.820312 8.53125-8.53125 8.53125-4.714843 0-8.535156-3.820313-8.535156-8.53125-.167968-9.203125 4.644532-17.777344 12.585938-22.425781 7.941406-4.648438 17.773437-4.648438 25.714844 0 7.941406 4.648437 12.753906 13.222656 12.582031 22.425781-.328125 23.242187-19.261719 41.910156-42.507813 41.910156-23.242187 0-42.179687-18.667969-42.507812-41.910156 0-4.714844-3.820313-8.535157-8.535156-8.535157-4.710938 0-8.53125 3.820313-8.53125 8.535157.390624 32.625 26.949218 58.867187 59.574218 58.867187 32.628906 0 59.1875-26.242187 59.574219-58.867187.105469-23.597657-18.914063-42.828125-42.511719-42.984375zm0 0"/><path d="m281.613281 221.898438h-51.199219c-14.136718 0-25.601562 11.460937-25.601562 25.601562 0 14.136719 11.464844 25.597656 25.601562 25.597656h25.601563c0 14.140625 11.460937 25.601563 25.597656 25.601563 14.140625 0 25.601563-11.460938 25.601563-25.601563v-25.597656c0-14.140625-11.460938-25.601562-25.601563-25.601562zm8.535157 51.199218c0 4.714844-3.820313 8.535156-8.535157 8.535156-4.710937 0-8.53125-3.820312-8.53125-8.535156v-8.53125c0-4.714844-3.820312-8.535156-8.535156-8.535156h-34.132813c-4.710937 0-8.53125-3.820312-8.53125-8.53125 0-4.714844 3.820313-8.535156 8.53125-8.535156h51.199219c4.714844 0 8.535157 3.820312 8.535157 8.535156zm0 0"/></svg>