<?xml version="1.0" encoding="iso-8859-1"?>
<!-- Generator: Adobe Illustrator 19.0.0, SVG Export Plug-In . SVG Version: 6.00 Build 0)  -->
<svg version="1.1" id="Capa_1" xmlns="http://www.w3.org/2000/svg" xmlns:xlink="http://www.w3.org/1999/xlink" x="0px" y="0px"
	 viewBox="0 0 512 512" style="enable-background:new 0 0 512 512;" xml:space="preserve">
<g>
	<g>
		<path d="M256,0C114.837,0,0,114.837,0,256s114.837,256,256,256s256-114.837,256-256S397.163,0,256,0z M58.283,222.699
			c-10.069-10.069-15.616-23.467-15.616-37.717c0-28.544,19.115-52.139,44.437-56.277c21.12-3.392,40.213,5.547,51.563,20.651
			c11.371-15.104,30.507-24.064,51.541-20.651c25.344,4.16,44.459,27.733,44.459,54.912c0,15.616-5.547,29.013-15.616,39.104
			l-72.832,72.832c-2.091,2.069-4.821,3.115-7.552,3.115s-5.461-1.045-7.552-3.115L58.283,222.699z M381.717,336.427
			c-27.669,43.136-74.667,68.907-125.717,68.907s-98.048-25.771-125.717-68.907c-3.179-4.949-1.749-11.563,3.221-14.741
			c4.949-3.221,11.541-1.749,14.741,3.221C171.989,361.899,212.267,384,256,384s84.011-22.101,107.755-59.093
			c3.157-4.971,9.771-6.443,14.741-3.221C383.445,324.864,384.896,331.477,381.717,336.427z M380.885,295.552
			c-2.091,2.069-4.821,3.115-7.552,3.115c-2.731,0-5.461-1.045-7.552-3.115l-72.832-72.832
			c-10.069-10.091-15.616-23.488-15.616-37.739c0-28.544,19.115-52.139,44.437-56.277c21.077-3.413,40.192,5.525,51.563,20.651
			c11.371-15.104,30.571-24.064,51.541-20.651c25.344,4.16,44.459,27.733,44.459,54.912c0,15.616-5.547,29.013-15.616,39.104
			L380.885,295.552z"/>
	</g>
</g>
<g>
</g>
<g>
</g>
<g>
</g>
<g>
</g>
<g>
</g>
<g>
</g>
<g>
</g>
<g>
</g>
<g>
</g>
<g>
</g>
<g>
</g>
<g>
</g>
<g>
</g>
<g>
</g>
<g>
</g>
</svg>
