<?xml version="1.0" encoding="iso-8859-1"?>
<!-- Generator: Adobe Illustrator 19.0.0, SVG Export Plug-In . SVG Version: 6.00 Build 0)  -->
<svg version="1.1" id="Capa_1" xmlns="http://www.w3.org/2000/svg" xmlns:xlink="http://www.w3.org/1999/xlink" x="0px" y="0px"
	 viewBox="0 0 512 512" style="enable-background:new 0 0 512 512;" xml:space="preserve">
<g>
	<g>
		<path d="M506.581,245.589c-3.307-1.899-7.381-1.899-10.688,0.021C484.053,252.501,471.552,256,458.667,256
			C417.493,256,384,222.507,384,181.333c0,17.643-14.357,32-32,32c-17.643,0-32-14.357-32-32c0-17.643,14.357-32,32-32
			c17.643,0,32,14.357,32,32c0-18.432,14.016-56.768,39.467-107.904c2.219-4.395,1.109-9.728-2.667-12.885
			C374.571,21.504,316.032,0,256,0C114.837,0,0,114.837,0,256s114.837,256,256,256s256-114.837,255.936-257.173
			C511.936,251.029,509.888,247.488,506.581,245.589z M160,213.333c-17.643,0-32-14.357-32-32c0-17.643,14.357-32,32-32
			s32,14.357,32,32C192,198.976,177.643,213.333,160,213.333z M256,405.333c-22.379,0-64,0-64-42.667c0-35.285,28.715-64,64-64
			s64,28.715,64,64C320,405.333,278.379,405.333,256,405.333z"/>
	</g>
</g>
<g>
	<g>
		<path d="M468.139,69.781c-3.627-7.104-15.339-7.104-18.965,0c-7.317,14.272-43.84,86.656-43.84,111.552
			c0,29.397,23.915,53.333,53.333,53.333S512,210.731,512,181.333C512,156.437,475.477,84.053,468.139,69.781z"/>
	</g>
</g>
<g>
</g>
<g>
</g>
<g>
</g>
<g>
</g>
<g>
</g>
<g>
</g>
<g>
</g>
<g>
</g>
<g>
</g>
<g>
</g>
<g>
</g>
<g>
</g>
<g>
</g>
<g>
</g>
<g>
</g>
</svg>
