<?xml version="1.0" encoding="iso-8859-1"?>
<!-- Generator: Adobe Illustrator 19.0.0, SVG Export Plug-In . SVG Version: 6.00 Build 0)  -->
<svg version="1.1" id="Capa_1" xmlns="http://www.w3.org/2000/svg" xmlns:xlink="http://www.w3.org/1999/xlink" x="0px" y="0px"
	 viewBox="0 0 512 512" style="enable-background:new 0 0 512 512;" xml:space="preserve">
<g>
	<g>
		<path d="M256,0C114.837,0,0,114.837,0,256s114.837,256,256,256s256-114.837,256-256S397.163,0,256,0z M106.667,181.333
			C106.667,151.936,130.581,128,160,128s53.333,23.936,53.333,53.333c0,29.397-23.915,53.333-53.333,53.333
			S106.667,210.731,106.667,181.333z M352,405.333c-25.771,0-47.296-18.347-52.245-42.667h-87.509
			c-4.949,24.32-26.496,42.667-52.245,42.667c-5.888,0-10.667-4.779-10.667-10.667S154.112,384,160,384c17.643,0,32-14.357,32-32
			c0-17.643-14.357-32-32-32c-5.888,0-10.667-4.779-10.667-10.667s4.779-10.667,10.667-10.667c25.771,0,47.296,18.347,52.245,42.667
			h87.488c4.949-24.32,26.496-42.667,52.245-42.667c5.888,0,10.667,4.779,10.667,10.667S357.888,320,352,320
			c-17.643,0-32,14.357-32,32c0,17.643,14.357,32,32,32c5.888,0,10.667,4.779,10.667,10.667S357.888,405.333,352,405.333z
			 M352,213.333c-17.643,0-32-14.357-32-32c0-17.643,14.357-32,32-32c17.643,0,32,14.357,32,32
			C384,198.976,369.643,213.333,352,213.333z"/>
	</g>
</g>
<g>
</g>
<g>
</g>
<g>
</g>
<g>
</g>
<g>
</g>
<g>
</g>
<g>
</g>
<g>
</g>
<g>
</g>
<g>
</g>
<g>
</g>
<g>
</g>
<g>
</g>
<g>
</g>
<g>
</g>
</svg>
