<svg height="512pt" viewBox="0 -34 512.02883 512" width="512pt" xmlns="http://www.w3.org/2000/svg"><path d="m446.761719 20.511719c-29.347657-18.851563-65.070313-25.035157-99.046875-17.152344-40.6875 9.570313-74.589844 37.550781-91.699219 75.683594-17.117187-38.128907-51.015625-66.109375-91.699219-75.683594-33.988281-7.867187-69.707031-1.660156-99.046875 17.210937-31.160156 19.898438-52.953125 51.550782-60.425781 87.757813-29.335938 136.902344 79.597656 247.542969 191.316406 305.484375l55.929688 29.015625c2.460937 1.273437 5.386718 1.273437 7.851562 0l55.925782-29.015625c111.71875-57.914062 220.65625-168.582031 191.316406-305.492188-7.464844-36.226562-29.257813-67.894531-60.421875-87.808593zm-138.746094 378.15625-52 26.957031-52.003906-26.957031c-106.128907-55.023438-209.808594-159.25-182.484375-286.761719 6.53125-31.734375 25.613281-59.480469 52.90625-76.9375 25.480468-16.414062 56.519531-21.816406 86.050781-14.976562 42.964844 10.308593 76.613281 43.683593 87.269531 86.5625.976563 3.761718 4.371094 6.390624 8.261719 6.390624 3.886719 0 7.285156-2.628906 8.257813-6.390624 10.664062-42.890626 44.332031-76.269532 87.3125-86.5625 29.515624-6.816407 60.53125-1.421876 86.007812 14.957031 27.296875 17.460937 46.378906 45.214843 52.90625 76.957031 27.324219 127.511719-76.355469 231.738281-182.484375 286.761719zm0 0"/><path d="m152.828125 53.253906c2.972656.683594 6.082031-.265625 8.160156-2.496094 2.078125-2.234374 2.808594-5.402343 1.917969-8.316406-.894531-2.917968-3.273438-5.132812-6.246094-5.816406-7.039062-1.628906-14.238281-2.453125-21.460937-2.460938-47.378907 1.0625-87.675781 34.855469-96.972657 81.324219-.984374 4.605469 1.941407 9.136719 6.546876 10.128907.589843.125 1.195312.1875 1.800781.1875 4.019531-.003907 7.492187-2.8125 8.335937-6.742188 7.589844-38.613281 40.949219-66.796875 80.289063-67.832031 5.933593.007812 11.847656.6875 17.628906 2.023437zm0 0"/><path d="m256.015625 221.898438c-50.621094 0-51.203125 33.792968-51.203125 34.132812-.050781 4.714844 3.730469 8.578125 8.441406 8.628906 4.710938.050782 8.574219-3.726562 8.628906-8.441406.082032-1.765625 1.757813-17.253906 34.132813-17.253906s34.046875 15.488281 34.132813 17.066406c0 4.714844 3.820312 8.535156 8.53125 8.535156 4.714843 0 8.535156-3.820312 8.535156-8.535156 0-.339844-.582032-34.132812-51.199219-34.132812zm0 0"/><path d="m130.515625 232.933594-8.535156 8.53125c-2.21875 2.144531-3.105469 5.316406-2.324219 8.300781.777344 2.984375 3.109375 5.3125 6.09375 6.09375 2.980469.78125 6.15625-.109375 8.296875-2.328125l8.535156-8.53125c3.234375-3.347656 3.1875-8.671875-.105469-11.964844-3.292968-3.289062-8.613281-3.335937-11.960937-.101562zm0 0"/><path d="m164.648438 232.933594-8.535157 8.53125c-2.21875 2.144531-3.105469 5.316406-2.324219 8.300781s3.109376 5.3125 6.09375 6.09375c2.984376.78125 6.15625-.109375 8.296876-2.328125l8.535156-8.53125c3.234375-3.347656 3.1875-8.671875-.105469-11.964844-3.289063-3.289062-8.613281-3.335937-11.960937-.101562zm0 0"/><path d="m381.515625 232.933594c-3.351563-3.234375-8.671875-3.1875-11.964844.101562-3.289062 3.292969-3.335937 8.617188-.101562 11.964844l8.53125 8.53125c3.347656 3.234375 8.671875 3.1875 11.964843-.101562 3.289063-3.292969 3.335938-8.617188.101563-11.964844zm0 0"/><path d="m347.378906 232.933594c-3.347656-3.234375-8.667968-3.1875-11.960937.101562-3.289063 3.292969-3.335938 8.617188-.101563 11.964844l8.53125 8.53125c3.347656 3.234375 8.671875 3.1875 11.960938-.101562 3.292968-3.292969 3.339844-8.617188.105468-11.964844zm0 0"/><path d="m51.214844 153.632812c0 4.710938-3.820313 8.53125-8.535156 8.53125-4.710938 0-8.53125-3.820312-8.53125-8.53125 0-4.714843 3.820312-8.535156 8.53125-8.535156 4.714843 0 8.535156 3.820313 8.535156 8.535156zm0 0"/><path d="m207.460938 192.152344.058593-.128906c.128907-.222657.289063-.417969.410157-.640626.078124-.207031.148437-.417968.203124-.628906.277344-.589844.484376-1.207031.617188-1.84375.070312-.332031.121094-.664062.152344-1 0-.222656.09375-.433594.09375-.65625s-.144532-.445312-.164063-.683594c-.0625-.855468-.265625-1.699218-.597656-2.492187-.117187-.347656-.265625-.6875-.433594-1.015625-.59375-1.101562-1.429687-2.058594-2.441406-2.796875l-55.542969-38.914063c-.914062-.632812-1.941406-1.082031-3.027344-1.320312-.285156-.035156-.570312-.050781-.855468-.050781-.757813-.097657-1.527344-.097657-2.285156 0-.34375.085937-.679688.195312-1.007813.324219-.679687.167968-1.335937.417968-1.953125.75-.355469.242187-.691406.511718-1.007812.800781-.429688.285156-.828126.605469-1.195313.964843-.152344.171876-.253906.375-.402344.554688 0 0-.082031.070312-.117187.109375-.027344.058594-.054688.117187-.085938.171875-10.476562 12.324219-13.0625 29.523438-6.675781 44.386719 6.390625 14.859375 20.648437 24.816406 36.800781 25.695312 16.152344.878907 31.40625-7.472656 39.371094-21.550781zm-62.378907-21.453125c-.007812-3.546875.734375-7.058594 2.175781-10.300781l41.085938 28.785156c-7.40625 7.058594-18.308594 9.03125-27.71875 5.011718-9.414062-4.023437-15.527344-13.261718-15.542969-23.496093zm0 0"/><path d="m384.015625 170.699219c-.046875-9.898438-3.523437-19.476563-9.839844-27.101563-.019531-.054687-.042969-.105468-.070312-.152344 0-.042968-.074219-.0625-.109375-.105468-.144532-.179688-.246094-.382813-.402344-.554688-.371094-.367187-.777344-.695312-1.21875-.980468-.308594-.289063-.640625-.554688-.988281-.792969-.589844-.316407-1.214844-.554688-1.863281-.71875-.363282-.144531-.734376-.261719-1.117188-.355469-.679688-.085938-1.367188-.085938-2.046875 0-.378906-.007812-.757813.011719-1.136719.058594-.886718.226562-1.730468.597656-2.5 1.09375-.160156.09375-.347656.109375-.511718.21875l-55.542969 38.914062-.066407.078125c-.980468.71875-1.789062 1.648438-2.367187 2.71875-.175781.328125-.324219.671875-.441406 1.027344-.328125.789063-.53125 1.628906-.597657 2.480469 0 .230468-.164062.445312-.164062.683594 0 .238281.078125.433593.09375.65625.03125.335937.082031.671874.15625 1 .128906.636718.335938 1.253906.613281 1.84375.058594.210937.125.421874.207031.628906.117188.222656.28125.417968.40625.640625l.0625.128906h.050782c9.675781 16.640625 29.3125 24.722656 47.898437 19.710937 18.585938-5.011718 31.5-21.871093 31.496094-41.121093zm-42.667969 25.601562c-6.585937-.007812-12.914062-2.554687-17.664062-7.117187l18.132812-12.699219 22.964844-16.085937c1.433594 3.246093 2.171875 6.753906 2.167969 10.300781 0 6.789062-2.699219 13.300781-7.5 18.101562s-11.3125 7.5-18.101563 7.5zm0 0"/></svg>