<svg height="512pt" viewBox="0 -34 512.02883 512" width="512pt" xmlns="http://www.w3.org/2000/svg"><path d="m446.75 20.511719c-29.34375-18.851563-65.0625-25.035157-99.035156-17.152344-40.683594 9.566406-74.589844 37.542969-91.699219 75.671875-17.113281-38.128906-51.023437-66.109375-91.707031-75.671875-33.988282-7.855469-69.707032-1.648437-99.046875 17.210937-31.152344 19.90625-52.941407 51.554688-60.417969 87.757813-29.335938 136.910156 79.597656 247.542969 191.316406 305.484375l55.929688 29.011719c2.460937 1.277343 5.386718 1.277343 7.851562 0l55.925782-29.011719c111.71875-57.914062 220.65625-168.574219 191.316406-305.492188-7.46875-36.226562-29.261719-67.894531-60.433594-87.808593zm-138.734375 378.15625-52 26.953125-52.003906-26.953125c-106.128907-55.015625-209.808594-159.242188-182.484375-286.757813 6.539062-31.71875 25.621094-59.449218 52.90625-76.890625 25.472656-16.4375 56.515625-21.855469 86.050781-15.027343 42.964844 10.300781 76.613281 43.671874 87.269531 86.550781.976563 3.765625 4.371094 6.394531 8.261719 6.394531 3.886719 0 7.285156-2.628906 8.257813-6.394531 10.664062-42.886719 44.332031-76.265625 87.3125-86.550781 29.511718-6.824219 60.527343-1.433594 86 14.949218 27.296874 17.46875 46.375 45.226563 52.90625 76.96875 27.332031 127.515625-76.347657 231.742188-182.476563 286.757813zm0 0"/><path d="m152.828125 53.253906c2.972656.683594 6.082031-.269531 8.160156-2.5 2.078125-2.230468 2.808594-5.398437 1.917969-8.316406-.894531-2.914062-3.273438-5.128906-6.246094-5.816406-7.039062-1.621094-14.238281-2.445313-21.460937-2.457032-47.375 1.0625-87.671875 34.851563-96.972657 81.316407-.992187 4.605469 1.9375 9.144531 6.546876 10.136719.589843.125 1.195312.1875 1.800781.1875 4.019531-.003907 7.492187-2.8125 8.335937-6.742188 7.589844-38.613281 40.949219-66.796875 80.289063-67.832031 5.933593.011719 11.847656.6875 17.628906 2.023437zm0 0"/><path d="m170.679688 162.164062c-14.136719 0-25.597657 11.460938-25.597657 25.601563 0 14.136719 11.460938 25.597656 25.597657 25.597656 14.140624 0 25.601562-11.460937 25.601562-25.597656 0-14.140625-11.460938-25.601563-25.601562-25.601563zm0 34.132813c-4.710938 0-8.53125-3.820313-8.53125-8.53125 0-4.714844 3.820312-8.535156 8.53125-8.535156 4.714843 0 8.535156 3.820312 8.535156 8.535156 0 4.710937-3.820313 8.53125-8.535156 8.53125zm0 0"/><path d="m341.347656 162.164062c-14.136718 0-25.601562 11.460938-25.601562 25.601563 0 14.136719 11.464844 25.597656 25.601562 25.597656 14.136719 0 25.601563-11.460937 25.601563-25.597656 0-14.140625-11.464844-25.601563-25.601563-25.601563zm0 34.132813c-4.710937 0-8.535156-3.820313-8.535156-8.53125 0-4.714844 3.824219-8.535156 8.535156-8.535156 4.714844 0 8.535156 3.820312 8.535156 8.535156 0 4.710937-3.820312 8.53125-8.535156 8.53125zm0 0"/><path d="m130.515625 232.933594-8.535156 8.53125c-2.21875 2.144531-3.105469 5.316406-2.324219 8.300781.777344 2.980469 3.109375 5.3125 6.09375 6.09375 2.980469.78125 6.15625-.109375 8.296875-2.328125l8.535156-8.535156c3.234375-3.347656 3.1875-8.667969-.105469-11.960938-3.292968-3.292968-8.613281-3.335937-11.960937-.101562zm0 0"/><path d="m164.648438 232.933594-8.535157 8.53125c-2.21875 2.144531-3.105469 5.316406-2.324219 8.300781.78125 2.980469 3.109376 5.3125 6.09375 6.09375 2.984376.78125 6.15625-.109375 8.296876-2.328125l8.535156-8.535156c3.234375-3.347656 3.1875-8.667969-.105469-11.960938-3.289063-3.292968-8.613281-3.335937-11.960937-.101562zm0 0"/><path d="m381.515625 232.933594c-3.351563-3.234375-8.671875-3.191406-11.964844.101562-3.289062 3.292969-3.335937 8.613282-.101562 11.960938l8.53125 8.535156c3.347656 3.234375 8.671875 3.1875 11.964843-.105469 3.289063-3.289062 3.335938-8.613281.101563-11.960937zm0 0"/><path d="m347.378906 232.933594c-3.347656-3.234375-8.667968-3.191406-11.960937.101562-3.289063 3.292969-3.335938 8.613282-.101563 11.960938l8.53125 8.535156c3.347656 3.234375 8.671875 3.1875 11.960938-.105469 3.292968-3.289062 3.339844-8.613281.105468-11.960937zm0 0"/><path d="m51.214844 153.632812c0 4.710938-3.820313 8.53125-8.535156 8.53125-4.710938 0-8.53125-3.820312-8.53125-8.53125 0-4.714843 3.820312-8.535156 8.53125-8.535156 4.714843 0 8.535156 3.820313 8.535156 8.535156zm0 0"/><path d="m296.179688 232.933594c-3.332032-3.332032-8.734376-3.332032-12.066407 0l-11.03125 11.03125-11.035156-11.03125c-3.332031-3.332032-8.734375-3.332032-12.066406 0l-11.03125 11.03125-11.035157-11.03125c-3.332031-3.332032-8.734374-3.332032-12.066406 0l-17.066406 17.066406c-3.234375 3.347656-3.1875 8.667969.105469 11.960938 3.289062 3.292968 8.613281 3.335937 11.960937.105468l11.035156-11.035156 11.03125 11.035156c3.332032 3.328125 8.734376 3.328125 12.066407 0l11.035156-11.035156 11.03125 11.035156c3.332031 3.328125 8.734375 3.328125 12.066406 0l11.035157-11.035156 11.03125 11.035156c3.351562 3.230469 8.671874 3.1875 11.964843-.105468 3.289063-3.292969 3.335938-8.613282.101563-11.960938zm0 0"/></svg>