<?xml version="1.0" encoding="iso-8859-1"?>
<!-- Generator: Adobe Illustrator 19.0.0, SVG Export Plug-In . SVG Version: 6.00 Build 0)  -->
<svg version="1.1" id="Capa_1" xmlns="http://www.w3.org/2000/svg" xmlns:xlink="http://www.w3.org/1999/xlink" x="0px" y="0px"
	 viewBox="0 0 512 512" style="enable-background:new 0 0 512 512;" xml:space="preserve">
<g>
	<g>
		<path d="M256,0C114.837,0,0,114.837,0,256s114.837,256,256,256s256-114.837,256-256S397.163,0,256,0z M106.667,181.333
			C106.667,151.936,130.581,128,160,128s53.333,23.936,53.333,53.333c0,29.397-23.915,53.333-53.333,53.333
			S106.667,210.731,106.667,181.333z M309.76,362.667c-0.085,0-0.256,0-0.427,0h-90.944c6.933,17.899,16.277,43.776,16.277,53.333
			c0,17.643-14.357,32-32,32c-17.643,0-32-14.357-32-32c0-12.885,16.939-55.339,22.123-68.032c0,0,0,0,0.021-0.021
			c0,0,0-0.043,0-0.064c0.853-2.005,20.992-49.216,63.189-49.216c36.821,0,56.853,35.968,61.909,46.464
			c1.557,1.856,2.496,4.267,2.496,6.869C320.427,357.888,315.648,362.667,309.76,362.667z M352,234.667
			c-29.419,0-53.333-23.936-53.333-53.333S322.581,128,352,128c29.419,0,53.333,23.936,53.333,53.333
			C405.333,210.731,381.419,234.667,352,234.667z"/>
	</g>
</g>
<g>
</g>
<g>
</g>
<g>
</g>
<g>
</g>
<g>
</g>
<g>
</g>
<g>
</g>
<g>
</g>
<g>
</g>
<g>
</g>
<g>
</g>
<g>
</g>
<g>
</g>
<g>
</g>
<g>
</g>
</svg>
