<?xml version="1.0" encoding="iso-8859-1"?>
<!-- Generator: Adobe Illustrator 19.0.0, SVG Export Plug-In . SVG Version: 6.00 Build 0)  -->
<svg version="1.1" id="Capa_1" xmlns="http://www.w3.org/2000/svg" xmlns:xlink="http://www.w3.org/1999/xlink" x="0px" y="0px"
	 viewBox="0 0 512 512" style="enable-background:new 0 0 512 512;" xml:space="preserve">
<g>
	<g>
		<path d="M384,449.813v-268.48c0-5.888-4.779-10.667-10.667-10.667c-5.888,0-10.667,4.779-10.667,10.667h-21.333
			c0-5.888-4.779-10.667-10.667-10.667S320,175.445,320,181.333v268.48c-12.416,4.416-21.333,16.277-21.333,30.187
			c0,17.643,14.357,32,32,32h42.667c17.643,0,32-14.357,32-32C405.333,466.091,396.416,454.229,384,449.813z"/>
	</g>
</g>
<g>
	<g>
		<path d="M192,449.813v-268.48c0-5.888-4.779-10.667-10.667-10.667s-10.667,4.779-10.667,10.667h-21.333
			c0-5.888-4.779-10.667-10.667-10.667S128,175.445,128,181.333v268.48c-12.416,4.416-21.333,16.277-21.333,30.187
			c0,17.643,14.357,32,32,32h42.667c17.643,0,32-14.357,32-32C213.333,466.091,204.416,454.229,192,449.813z"/>
	</g>
</g>
<g>
	<g>
		<path d="M256,0C114.837,0,0,114.837,0,256c0,71.552,30.763,140.459,84.437,189.077c2.133,1.899,4.885,2.987,7.701,2.752
			c2.816-0.149,5.483-1.408,7.381-3.52c0.085-0.085,1.536-1.771,1.6-1.856c0.64-0.768,1.28-1.536,2.005-2.197
			c2.24-2.005,3.541-4.885,3.541-7.915v-20.437c0-2.773-1.088-5.461-3.051-7.445c-24.384-25.003-41.749-53.845-51.563-85.739
			c-2.965-9.643-1.152-20.267,4.885-28.416c5.995-8.107,15.616-12.971,25.728-12.971H96c5.888,0,10.667-4.779,10.667-10.667v-48.576
			c0-3.797-2.027-7.317-5.291-9.216c-10.048-5.845-16.043-16.149-16.043-27.541c0-41.173,33.493-74.667,74.667-74.667
			s74.667,33.493,74.667,74.667c0,11.392-5.995,21.696-16.043,27.541c-3.264,1.899-5.291,5.397-5.291,9.216v48.576
			c0,5.888,4.779,10.667,10.667,10.667h64c5.888,0,10.667-4.779,10.667-10.667v-48.576c0-3.797-2.027-7.317-5.291-9.216
			c-10.048-5.845-16.043-16.149-16.043-27.541c0-41.173,33.493-74.667,74.667-74.667s74.667,33.493,74.667,74.667
			c0,11.392-5.995,21.696-16.043,27.541c-3.264,1.899-5.291,5.397-5.291,9.216v48.576c0,5.888,4.779,10.667,10.667,10.667h13.333
			c10.112,0,19.733,4.864,25.728,12.971c6.016,8.149,7.829,18.773,4.885,28.416c-9.813,31.893-27.157,60.736-51.563,85.739
			c-1.963,1.984-3.051,4.672-3.051,7.445v20.437c0,3.029,1.301,5.909,3.541,7.936c0.725,0.661,1.344,1.429,2.005,2.197
			c0.064,0.085,1.515,1.771,1.6,1.856c1.899,2.112,4.565,3.371,7.381,3.52c0.192,0,0.363,0,0.533,0c2.645,0,5.184-0.981,7.168-2.752
			C481.237,396.459,512,327.552,512,256C512,114.837,397.163,0,256,0z"/>
	</g>
</g>
<g>
	<g>
		<path d="M280.427,496.981c-2.091-6.123-3.093-11.648-3.029-17.536c0-2.923-1.195-5.696-3.285-7.723
			c-2.133-2.027-5.035-3.2-7.872-2.944l-4.181,0.256c-4.011,0.299-8.085,0.299-12.075,0l-4.181-0.256
			c-2.837,0-5.739,1.195-7.829,3.221c-2.091,2.027-3.307,5.077-3.307,8c0,5.333-1.003,10.859-3.093,16.96
			c-1.067,3.136-0.597,6.592,1.237,9.344c1.856,2.752,4.885,4.501,8.192,4.715l4.501,0.363c3.477,0.32,6.933,0.619,10.496,0.619
			s7.019-0.299,10.496-0.597l4.501-0.363c3.307-0.213,6.336-1.963,8.192-4.715C281.024,503.573,281.472,500.096,280.427,496.981z"/>
	</g>
</g>
<g>
	<g>
		<path d="M437.909,302.997c-2.005-2.731-5.205-4.331-8.576-4.331H416c-5.888,0-10.667,4.779-10.667,10.667v31.125
			c0,4.885,3.328,9.173,8.085,10.347c0.875,0.213,1.728,0.32,2.581,0.32c3.883,0,7.552-2.133,9.408-5.675
			c6.443-12.117,10.923-22.613,14.101-33.003C440.512,309.227,439.915,305.728,437.909,302.997z"/>
	</g>
</g>
<g>
	<g>
		<path d="M288,298.667h-64c-5.888,0-10.667,4.779-10.667,10.667v123.008c0,3.029,1.344,6.037,3.605,8.064
			c0.235,0.277,1.408,1.579,1.664,1.813c1.557,1.515,3.52,2.517,5.653,2.88C235.819,447.061,246.187,448,256,448
			s20.181-0.939,31.744-2.901c2.133-0.363,4.075-1.365,5.653-2.88c0.576-0.576,1.152-1.195,1.749-1.963
			c2.24-2.027,3.52-4.907,3.52-7.915V309.333C298.667,303.445,293.888,298.667,288,298.667z"/>
	</g>
</g>
<g>
	<g>
		<path d="M96,298.667H82.667c-3.371,0-6.571,1.6-8.576,4.331c-2.005,2.731-2.603,6.229-1.6,9.472
			c3.179,10.389,7.659,20.885,14.101,33.003c1.877,3.541,5.547,5.675,9.408,5.675c0.853,0,1.728-0.107,2.581-0.32
			c4.757-1.195,8.085-5.461,8.085-10.368v-31.125C106.667,303.445,101.888,298.667,96,298.667z"/>
	</g>
</g>
<g>
	<g>
		<path d="M213.248,178.005C211.499,150.144,188.288,128,160,128c-29.419,0-53.333,23.936-53.333,53.333
			c0,5.888,4.779,10.667,10.667,10.667h85.333c0.171,0,0.341,0,0.427,0c5.888,0,10.667-4.779,10.667-10.667
			C213.76,180.16,213.589,179.051,213.248,178.005z"/>
	</g>
</g>
<g>
	<g>
		<path d="M405.227,178.005C403.499,150.144,380.288,128,352,128c-29.419,0-53.333,23.936-53.333,53.333
			c0,5.888,4.779,10.667,10.667,10.667h85.333c0.149,0,0.32,0,0.427,0c5.888,0,10.667-4.779,10.667-10.667
			C405.76,180.16,405.589,179.051,405.227,178.005z"/>
	</g>
</g>
<g>
</g>
<g>
</g>
<g>
</g>
<g>
</g>
<g>
</g>
<g>
</g>
<g>
</g>
<g>
</g>
<g>
</g>
<g>
</g>
<g>
</g>
<g>
</g>
<g>
</g>
<g>
</g>
<g>
</g>
</svg>
