<?xml version="1.0" encoding="iso-8859-1"?>
<!-- Generator: Adobe Illustrator 19.0.0, SVG Export Plug-In . SVG Version: 6.00 Build 0)  -->
<svg version="1.1" id="Capa_1" xmlns="http://www.w3.org/2000/svg" xmlns:xlink="http://www.w3.org/1999/xlink" x="0px" y="0px"
	 viewBox="0 0 512 512" style="enable-background:new 0 0 512 512;" xml:space="preserve">
<g>
	<g>
		<path d="M256,0C114.837,0,0,114.837,0,256s114.837,256,256,256s256-114.837,256-256S397.163,0,256,0z M288,170.667
			c24.128,0,36.8-2.795,43.669-9.685c6.869-6.891,9.664-19.52,9.664-43.648c0-5.888,4.779-10.667,10.667-10.667
			c5.888,0,10.667,4.779,10.667,10.667c0,24.128,2.795,36.779,9.664,43.648c6.869,6.869,19.541,9.685,43.669,9.685
			c5.888,0,10.667,4.779,10.667,10.667S421.888,192,416,192c-24.128,0-36.8,2.795-43.669,9.685
			c-6.869,6.891-9.664,19.52-9.664,43.648c0,5.888-4.779,10.667-10.667,10.667c-5.888,0-10.667-4.779-10.667-10.667
			c0-24.128-2.795-36.779-9.664-43.648C324.8,194.816,312.128,192,288,192c-5.888,0-10.667-4.779-10.667-10.667
			S282.112,170.667,288,170.667z M96,170.667c24.128,0,36.8-2.795,43.669-9.685c6.869-6.891,9.664-19.52,9.664-43.648
			c0-5.888,4.779-10.667,10.667-10.667s10.667,4.779,10.667,10.667c0,24.128,2.795,36.779,9.664,43.648
			c6.869,6.869,19.541,9.685,43.669,9.685c5.888,0,10.667,4.779,10.667,10.667S229.888,192,224,192
			c-24.128,0-36.8,2.795-43.669,9.685s-9.664,19.52-9.664,43.648c0,5.888-4.779,10.667-10.667,10.667s-10.667-4.779-10.667-10.667
			c0-24.128-2.795-36.779-9.664-43.648C132.8,194.816,120.128,192,96,192c-5.888,0-10.667-4.779-10.667-10.667
			S90.112,170.667,96,170.667z M256,448c-84.885,0-158.635-54.464-183.531-135.531c-1.003-3.243-0.405-6.741,1.6-9.472
			c2.027-2.731,5.227-4.331,8.597-4.331h346.667c3.371,0,6.571,1.6,8.576,4.331c2.005,2.731,2.603,6.229,1.6,9.472
			C414.635,393.536,340.885,448,256,448z"/>
	</g>
</g>
<g>
</g>
<g>
</g>
<g>
</g>
<g>
</g>
<g>
</g>
<g>
</g>
<g>
</g>
<g>
</g>
<g>
</g>
<g>
</g>
<g>
</g>
<g>
</g>
<g>
</g>
<g>
</g>
<g>
</g>
</svg>
