<svg height="512pt" viewBox="0 -34 512.03991 512" width="512pt" xmlns="http://www.w3.org/2000/svg"><path d="m446.769531 20.515625c-29.351562-18.847656-65.070312-25.035156-99.046875-17.152344-40.683594 9.574219-74.582031 37.554688-91.699218 75.683594-17.117188-38.132813-51.023438-66.113281-91.707032-75.683594-33.984375-7.867187-69.699218-1.664062-99.039062 17.203125-31.15625 19.90625-52.953125 51.554688-60.433594 87.765625-29.335938 136.898438 79.597656 247.542969 191.328125 305.484375l55.925781 29.011719c2.460938 1.277344 5.390625 1.277344 7.851563 0l55.925781-29.011719c111.726562-57.914062 220.664062-168.585937 191.316406-305.492187-7.460937-36.226563-29.253906-67.894531-60.421875-87.808594zm-138.753906 378.152344-51.992187 26.957031-51.992188-26.957031c-106.148438-55.019531-209.820312-159.246094-182.496094-286.761719 6.535156-31.730469 25.613282-59.476562 52.90625-76.9375 25.484375-16.410156 56.523438-21.8125 86.050782-14.972656 42.964843 10.308594 76.613281 43.683594 87.277343 86.558594.988281 3.75 4.378907 6.359374 8.253907 6.359374s7.265624-2.609374 8.25-6.359374c10.671874-42.886719 44.339843-76.265626 87.324218-86.558594 29.511719-6.824219 60.527344-1.433594 86.007813 14.949218 27.296875 17.464844 46.375 45.21875 52.90625 76.960938 27.324219 127.515625-76.347657 231.742188-182.496094 286.761719zm0 0"/><path d="m152.847656 53.257812c4.5625.984376 9.070313-1.878906 10.117188-6.429687s-1.757813-9.097656-6.296875-10.203125c-7.035157-1.625-14.238281-2.449219-21.460938-2.457031-47.375 1.066406-87.671875 34.855469-96.980469 81.324219-.988281 4.609374 1.949219 9.144531 6.558594 10.132812s9.144532-1.949219 10.132813-6.558594c7.589843-38.617187 40.949219-66.800781 80.289062-67.832031 5.9375.007813 11.855469.6875 17.640625 2.023437zm0 0"/><path d="m130.523438 232.933594-8.535157 8.535156c-2.214843 2.140625-3.105469 5.316406-2.324219 8.296875.78125 2.984375 3.109376 5.316406 6.09375 6.097656 2.984376.777344 6.15625-.109375 8.296876-2.328125l8.535156-8.535156c3.234375-3.347656 3.1875-8.667969-.105469-11.960938-3.289063-3.292968-8.613281-3.335937-11.960937-.105468zm0 0"/><path d="m164.65625 232.933594-8.53125 8.535156c-2.21875 2.140625-3.109375 5.316406-2.328125 8.296875.78125 2.984375 3.109375 5.316406 6.09375 6.097656 2.984375.777344 6.15625-.109375 8.296875-2.328125l8.535156-8.535156c3.234375-3.347656 3.1875-8.667969-.105468-11.960938-3.289063-3.292968-8.613282-3.335937-11.960938-.105468zm0 0"/><path d="m381.523438 232.933594c-3.347657-3.230469-8.671876-3.1875-11.964844.105468-3.289063 3.292969-3.335938 8.613282-.101563 11.960938l8.53125 8.535156c3.351563 3.234375 8.671875 3.1875 11.964844-.105468 3.289063-3.289063 3.335937-8.613282.101563-11.960938zm0 0"/><path d="m347.390625 232.933594c-3.347656-3.230469-8.671875-3.1875-11.964844.105468-3.289062 3.292969-3.335937 8.613282-.101562 11.960938l8.53125 8.535156c3.347656 3.234375 8.671875 3.1875 11.964843-.105468 3.289063-3.289063 3.335938-8.613282.101563-11.960938zm0 0"/><path d="m51.222656 153.636719c0 4.710937-3.820312 8.53125-8.53125 8.53125-4.714844 0-8.535156-3.820313-8.535156-8.53125 0-4.714844 3.820312-8.535157 8.535156-8.535157 4.710938 0 8.53125 3.820313 8.53125 8.535157zm0 0"/><path d="m191.570312 180.132812-34.132812-17.070312c-4.21875-2.105469-9.34375-.394531-11.453125 3.824219-2.105469 4.21875-.394531 9.34375 3.824219 11.453125l18.867187 9.429687-18.867187 9.429688c-4.21875 2.105469-5.929688 7.230469-3.824219 11.449219 2.109375 4.21875 7.234375 5.929687 11.453125 3.824218l34.132812-17.066406c2.898438-1.445312 4.726563-4.402344 4.726563-7.636719 0-3.238281-1.828125-6.195312-4.726563-7.636719zm0 0"/><path d="m366.101562 166.886719c-1.007812-2.027344-2.785156-3.566407-4.933593-4.285157-2.148438-.714843-4.492188-.550781-6.515625.460938l-34.132813 17.070312c-2.898437 1.441407-4.730469 4.398438-4.730469 7.636719 0 3.234375 1.832032 6.191407 4.730469 7.636719l34.132813 17.066406c4.21875 2.105469 9.34375.394532 11.449218-3.824218 2.109376-4.21875.394532-9.34375-3.820312-11.449219l-18.910156-9.429688 18.867187-9.386719c2.042969-1.003906 3.601563-2.785156 4.328125-4.941406.726563-2.160156.558594-4.519531-.464844-6.554687zm0 0"/><path d="m264.554688 213.367188h-8.53125c-4.714844 0-8.535157 3.820312-8.535157 8.535156 0 4.710937 3.820313 8.53125 8.535157 8.53125h8.53125c4.714843 0 8.535156 3.820312 8.535156 8.535156 0 4.710938-3.820313 8.53125-8.535156 8.53125h-8.53125c-4.714844 0-8.535157 3.820312-8.535157 8.535156 0 4.710938 3.820313 8.53125 8.535157 8.53125h8.53125c4.714843 0 8.535156 3.824219 8.535156 8.535156 0 4.710938-3.820313 8.535157-8.535156 8.535157h-8.53125c-4.714844 0-8.535157 3.820312-8.535157 8.53125 0 4.714843 3.820313 8.535156 8.535157 8.535156h8.53125c10.117187.042969 19.304687-5.898437 23.410156-15.148437 4.105468-9.246094 2.355468-20.046876-4.464844-27.519532 6.820312-7.476562 8.570312-18.273437 4.464844-27.523437-4.105469-9.246094-13.292969-15.1875-23.410156-15.144531zm0 0"/></svg>