<svg height="511pt" viewBox="0 -34 511.96095 511" width="511pt" xmlns="http://www.w3.org/2000/svg"><path d="m507.195312 108.796875c-7.488281-36.199219-29.28125-67.839844-60.433593-87.742187-29.34375-18.882813-65.078125-25.105469-99.078125-17.253907-40.679688 9.585938-74.578125 37.570313-91.691406 75.699219-17.121094-38.128906-51.019532-66.113281-91.699219-75.707031-34-7.847657-69.730469-1.621094-99.074219 17.261719-31.148438 19.902343-52.9375 51.542968-60.421875 87.742187-9.171875 42.371094-5.085937 86.539063 11.699219 126.511719-16.253906 16.566406-20.984375 41.265625-12.003906 62.664062 8.980468 21.402344 29.917968 35.328125 53.125 35.335938h.402343c7.417969-.039063 14.761719-1.515625 21.621094-4.34375 34.085937 34.441406 73.429687 63.242187 116.558594 85.332031l55.894531 29.011719c2.464844 1.28125 5.398438 1.28125 7.867188 0l55.890624-29.011719c43.128907-22.089844 82.472657-50.890625 116.558594-85.332031 6.839844 2.820312 14.15625 4.292968 21.554688 4.34375h.367187c23.210938 0 44.15625-13.925782 53.136719-35.328125 8.984375-21.40625 4.246094-46.105469-12.015625-62.671875 16.796875-39.96875 20.894531-84.136719 11.742187-126.511719zm-449.3125 207.445313c-10.78125.171874-21.167968-4.054688-28.757812-11.710938-7.660156-7.554688-12-17.847656-12.070312-28.609375-.066407-10.761719 4.148437-21.105469 11.710937-28.757813 10.8125-10.941406 52.171875-16.992187 81.597656-18.859374-4.113281 26.980468-12.929687 64.792968-23.894531 75.871093-7.535156 7.675781-17.828125 12.019531-28.585938 12.066407zm250.066407 82.875-51.957031 26.980468-51.960938-26.980468c-40.324219-20.648438-77.230469-47.375-109.429688-79.242188 1.398438-1.167969 2.746094-2.398438 4.042969-3.703125 20.480469-20.777344 29.125-88.25 30.039063-95.871094.308594-2.488281-.492188-4.984375-2.183594-6.828125-1.652344-1.878906-4.074219-2.898437-6.574219-2.765625-6.96875.230469-59.332031 2.417969-88.746093 15.285157-14.519532-36.050782-17.898438-75.625-9.699219-113.613282 6.550781-31.710937 25.625-59.4375 52.90625-76.886718 25.484375-16.429688 56.53125-21.863282 86.082031-15.066407 42.964844 10.328125 76.605469 43.71875 87.261719 86.601563.976562 3.765625 4.375 6.394531 8.261719 6.394531 3.886718 0 7.285156-2.628906 8.257812-6.394531 10.65625-42.882813 44.292969-76.269532 87.253906-86.601563 29.558594-6.78125 60.597656-1.347656 86.09375 15.066407 27.289063 17.460937 46.367188 45.203124 52.90625 76.929687 8.214844 38 4.84375 77.589844-9.675781 113.65625-29.441406-12.867187-81.800781-15.054687-88.746094-15.285156-2.496093-.113281-4.910156.902343-6.570312 2.765625-1.695313 1.84375-2.496094 4.339844-2.1875 6.828125.914062 7.617187 9.535156 75.09375 30.039062 95.871093 1.296875 1.304688 2.644531 2.558594 4.042969 3.703126-32.210938 31.839843-69.128906 58.535156-109.457031 79.15625zm174.933593-94.585938c-7.652343 7.566406-17.996093 11.777344-28.757812 11.710938-10.761719-.066407-21.050781-4.410157-28.609375-12.066407-10.921875-11.09375-19.746094-48.890625-23.894531-75.871093 29.414062 1.859374 70.765625 7.902343 81.597656 18.859374 7.5625 7.652344 11.773438 17.996094 11.707031 28.757813-.066406 10.761719-4.40625 21.054687-12.066406 28.609375zm0 0"/><path d="m163.039062 47.328125c.507813-2.207031.121094-4.523437-1.078124-6.445313-1.199219-1.921874-3.117188-3.285156-5.324219-3.792968-7.039063-1.621094-14.238281-2.445313-21.460938-2.449219-47.375 1.0625-87.671875 34.855469-96.972656 81.324219-.984375 4.601562 1.945313 9.136718 6.546875 10.128906.589844.125 1.195312.1875 1.800781.1875 4.019531-.003906 7.492188-2.8125 8.335938-6.742188 7.589843-38.613281 40.949219-66.796874 80.289062-67.832031 5.933594.007813 11.847657.6875 17.628907 2.023438 2.207031.507812 4.523437.117187 6.441406-1.082031 1.921875-1.199219 3.285156-3.113282 3.792968-5.320313zm0 0"/><path d="m51.191406 154.105469c0 4.714843-3.820312 8.535156-8.53125 8.535156-4.714844 0-8.535156-3.820313-8.535156-8.535156 0-4.710938 3.820312-8.53125 8.535156-8.53125 4.710938 0 8.53125 3.820312 8.53125 8.53125zm0 0"/><path d="m191.539062 180.601562-34.132812-17.066406c-4.21875-2.105468-9.34375-.394531-11.453125 3.824219-2.105469 4.21875-.394531 9.34375 3.824219 11.453125l18.867187 9.429688-18.867187 9.425781c-4.21875 2.109375-5.929688 7.234375-3.824219 11.453125 2.109375 4.21875 7.234375 5.929687 11.453125 3.824218l34.132812-17.066406c2.898438-1.445312 4.726563-4.402344 4.726563-7.636718 0-3.238282-1.828125-6.195313-4.726563-7.640626zm0 0"/><path d="m366.070312 167.359375c-1.007812-2.027344-2.785156-3.566406-4.933593-4.285156-2.148438-.714844-4.492188-.550781-6.515625.460937l-34.132813 17.066406c-2.898437 1.445313-4.730469 4.402344-4.730469 7.640626 0 3.234374 1.832032 6.191406 4.730469 7.636718l34.132813 17.066406c4.214844 2.105469 9.34375.394532 11.449218-3.824218 2.109376-4.21875.394532-9.34375-3.820312-11.453125l-18.910156-9.425781 18.867187-9.386719c2.042969-1.003907 3.601563-2.785157 4.328125-4.941407.726563-2.160156.558594-4.519531-.464844-6.554687zm0 0"/><path d="m307.191406 222.375h-102.398437c-4.714844 0-8.535157 3.820312-8.535157 8.53125.324219 16.425781 4.28125 32.574219 11.589844 47.285156 9.210938 18.101563 27.800782 29.507813 48.113282 29.519532 20.3125.011718 38.914062-11.371094 48.148437-29.460938 7.324219-14.730469 11.289063-30.898438 11.617187-47.34375 0-2.261719-.902343-4.433594-2.5-6.03125-1.601562-1.601562-3.773437-2.5-6.035156-2.5zm-9.148437 17.066406c-.910157 8.0625-2.832031 15.976563-5.714844 23.558594-23.449219-8.65625-49.222656-8.65625-72.671875 0-2.894531-7.578125-4.816406-15.496094-5.71875-23.558594zm-14.503907 38.910156c-1.484374 1.773438-3.136718 3.394532-4.933593 4.847657-.351563.28125-.71875.519531-1.074219.785156-1.628906 1.214844-3.367188 2.269531-5.199219 3.148437-.289062.144532-.5625.316407-.851562.453126-2.089844.898437-4.261719 1.589843-6.484375 2.066406-.515625.109375-1.042969.195312-1.570313.289062-4.90625.933594-9.945312.933594-14.847656 0-.53125-.09375-1.058594-.179687-1.582031-.300781-2.21875-.464844-4.386719-1.152344-6.46875-2.054687-.304688-.136719-.59375-.324219-.910156-.476563-1.800782-.867187-3.515626-1.902344-5.121094-3.089844-.382813-.28125-.792969-.546875-1.167969-.855469-1.765625-1.433593-3.390625-3.03125-4.855469-4.769531-.121094-.136719-.222656-.296875-.34375-.441406 18.128906-5.699219 37.570313-5.699219 55.699219 0zm0 0"/></svg>