<?xml version="1.0" encoding="iso-8859-1"?>
<!-- Generator: Adobe Illustrator 19.0.0, SVG Export Plug-In . SVG Version: 6.00 Build 0)  -->
<svg version="1.1" id="Capa_1" xmlns="http://www.w3.org/2000/svg" xmlns:xlink="http://www.w3.org/1999/xlink" x="0px" y="0px"
	 viewBox="0 0 512 512" style="enable-background:new 0 0 512 512;" xml:space="preserve">
<g>
	<g>
		<path d="M256,0C114.837,0,0,114.837,0,256s114.837,256,256,256s256-114.837,256-256S397.163,0,256,0z M128,202.667
			c0-17.643,14.357-32,32-32s32,14.357,32,32c0,5.888-4.779,10.667-10.667,10.667s-10.667-4.779-10.667-10.667S165.888,192,160,192
			s-10.667,4.779-10.667,10.667c0,17.643,14.357,32,32,32c17.643,0,32-14.357,32-32c0-29.397-23.936-53.333-53.333-53.333
			s-53.333,23.936-53.333,53.333c0,5.888-4.779,10.667-10.667,10.667s-10.667-4.779-10.667-10.667
			C85.333,161.493,118.827,128,160,128s74.667,33.493,74.667,74.667c0,29.397-23.936,53.333-53.333,53.333S128,232.064,128,202.667z
			 M309.333,384H202.667c-5.888,0-10.667-4.779-10.667-10.667c0-5.888,4.779-10.667,10.667-10.667h106.667
			c5.888,0,10.667,4.779,10.667,10.667C320,379.221,315.221,384,309.333,384z M373.333,256C343.936,256,320,232.064,320,202.667
			c0-17.643,14.357-32,32-32c17.643,0,32,14.357,32,32c0,5.888-4.779,10.667-10.667,10.667c-5.888,0-10.667-4.779-10.667-10.667
			S357.888,192,352,192c-5.888,0-10.667,4.779-10.667,10.667c0,17.643,14.357,32,32,32c17.643,0,32-14.357,32-32
			c0-29.397-23.936-53.333-53.333-53.333s-53.333,23.936-53.333,53.333c0,5.888-4.779,10.667-10.667,10.667
			s-10.667-4.779-10.667-10.667C277.333,161.493,310.827,128,352,128s74.667,33.493,74.667,74.667
			C426.667,232.064,402.731,256,373.333,256z"/>
	</g>
</g>
<g>
</g>
<g>
</g>
<g>
</g>
<g>
</g>
<g>
</g>
<g>
</g>
<g>
</g>
<g>
</g>
<g>
</g>
<g>
</g>
<g>
</g>
<g>
</g>
<g>
</g>
<g>
</g>
<g>
</g>
</svg>
