<?xml version="1.0" encoding="iso-8859-1"?>
<!-- Generator: Adobe Illustrator 19.0.0, SVG Export Plug-In . SVG Version: 6.00 Build 0)  -->
<svg version="1.1" id="Capa_1" xmlns="http://www.w3.org/2000/svg" xmlns:xlink="http://www.w3.org/1999/xlink" x="0px" y="0px"
	 viewBox="0 0 512 512" style="enable-background:new 0 0 512 512;" xml:space="preserve">
<g>
	<g>
		<path d="M256,0C114.837,0,0,114.837,0,256s114.837,256,256,256s256-114.837,256-256S397.163,0,256,0z M342.464,133.888
			c2.645-5.269,9.045-7.381,14.315-4.779l42.667,21.333c5.269,2.645,7.403,9.045,4.779,14.315c-1.899,3.755-5.653,5.909-9.557,5.909
			c-1.6,0-3.221-0.363-4.757-1.131l-42.667-21.333C341.952,145.579,339.819,139.157,342.464,133.888z M352,170.667
			c17.643,0,32,14.357,32,32c0,17.643-14.357,32-32,32c-17.643,0-32-14.357-32-32C320,185.024,334.357,170.667,352,170.667z
			 M192,202.667c0,17.643-14.357,32-32,32s-32-14.357-32-32c0-17.643,14.357-32,32-32S192,185.024,192,202.667z M112.555,150.464
			l42.667-21.333c5.269-2.603,11.669-0.491,14.315,4.779c2.645,5.269,0.491,11.669-4.779,14.315l-42.667,21.333
			c-1.515,0.747-3.136,1.109-4.757,1.109c-3.925,0-7.68-2.155-9.557-5.888C105.152,159.509,107.285,153.088,112.555,150.464z
			 M117.333,362.667C87.936,362.667,64,338.731,64,309.333S87.936,256,117.333,256c29.397,0,53.333,23.936,53.333,53.333
			S146.731,362.667,117.333,362.667z M339.157,357.547c-18.261,29.931-49.344,47.787-83.157,47.787s-64.896-17.856-83.157-47.787
			c-3.072-5.013-1.472-11.584,3.563-14.656c4.992-3.093,11.584-1.493,14.656,3.563C205.397,369.963,229.675,384,256,384
			s50.603-14.037,64.96-37.547c3.072-5.035,9.643-6.635,14.656-3.563C340.651,345.963,342.229,352.533,339.157,357.547z
			 M394.667,362.667c-29.397,0-53.333-23.936-53.333-53.333S365.269,256,394.667,256S448,279.936,448,309.333
			S424.064,362.667,394.667,362.667z"/>
	</g>
</g>
<g>
</g>
<g>
</g>
<g>
</g>
<g>
</g>
<g>
</g>
<g>
</g>
<g>
</g>
<g>
</g>
<g>
</g>
<g>
</g>
<g>
</g>
<g>
</g>
<g>
</g>
<g>
</g>
<g>
</g>
</svg>
