<?xml version="1.0" encoding="iso-8859-1"?>
<!-- Generator: Adobe Illustrator 19.0.0, SVG Export Plug-In . SVG Version: 6.00 Build 0)  -->
<svg version="1.1" id="Capa_1" xmlns="http://www.w3.org/2000/svg" xmlns:xlink="http://www.w3.org/1999/xlink" x="0px" y="0px"
	 viewBox="0 0 512 512" style="enable-background:new 0 0 512 512;" xml:space="preserve">
<g>
	<g>
		<path d="M256,0C114.837,0,0,114.837,0,256s114.837,256,256,256s256-114.837,256-256S397.163,0,256,0z M160,149.333
			c17.643,0,32,14.357,32,32c0,17.643-14.357,32-32,32s-32-14.357-32-32C128,163.691,142.357,149.333,160,149.333z M378.496,403.648
			c-1.792,1.152-3.797,1.685-5.76,1.685c-3.52,0-6.955-1.728-8.981-4.907c-23.744-36.992-64.021-59.093-107.755-59.093
			c-43.755,0-84.011,22.101-107.733,59.093c-3.179,4.928-9.792,6.4-14.741,3.221s-6.4-9.771-3.221-14.741
			C157.952,345.771,204.949,320,256,320s98.048,25.771,125.717,68.907C384.896,393.856,383.445,400.469,378.496,403.648z
			 M352,213.333c-17.643,0-32-14.357-32-32c0-17.643,14.357-32,32-32c17.643,0,32,14.357,32,32
			C384,198.976,369.643,213.333,352,213.333z"/>
	</g>
</g>
<g>
</g>
<g>
</g>
<g>
</g>
<g>
</g>
<g>
</g>
<g>
</g>
<g>
</g>
<g>
</g>
<g>
</g>
<g>
</g>
<g>
</g>
<g>
</g>
<g>
</g>
<g>
</g>
<g>
</g>
</svg>
