<?xml version="1.0" encoding="iso-8859-1"?>
<!-- Generator: Adobe Illustrator 19.0.0, SVG Export Plug-In . SVG Version: 6.00 Build 0)  -->
<svg version="1.1" id="Capa_1" xmlns="http://www.w3.org/2000/svg" xmlns:xlink="http://www.w3.org/1999/xlink" x="0px" y="0px"
	 viewBox="0 0 512 512" style="enable-background:new 0 0 512 512;" xml:space="preserve">
<g>
	<g>
		<path d="M256,0C114.837,0,0,114.837,0,256s114.837,256,256,256s256-114.837,256-256S397.163,0,256,0z M106.667,181.333
			C106.667,151.936,130.603,128,160,128s53.333,23.936,53.333,53.333c0,29.397-23.936,53.333-53.333,53.333
			S106.667,210.731,106.667,181.333z M309.333,362.667H202.667c-5.888,0-10.667-4.779-10.667-10.667
			c0-5.888,4.779-10.667,10.667-10.667h106.667c5.888,0,10.667,4.779,10.667,10.667C320,357.888,315.221,362.667,309.333,362.667z
			 M352,234.667c-29.397,0-53.333-23.936-53.333-53.333S322.603,128,352,128s53.333,23.936,53.333,53.333
			C405.333,210.731,381.397,234.667,352,234.667z"/>
	</g>
</g>
<g>
</g>
<g>
</g>
<g>
</g>
<g>
</g>
<g>
</g>
<g>
</g>
<g>
</g>
<g>
</g>
<g>
</g>
<g>
</g>
<g>
</g>
<g>
</g>
<g>
</g>
<g>
</g>
<g>
</g>
</svg>
