<svg height="512pt" viewBox="0 -34 512.03991 512" width="512pt" xmlns="http://www.w3.org/2000/svg"><path d="m446.769531 20.511719c-29.351562-18.84375-65.070312-25.027344-99.046875-17.152344-40.683594 9.574219-74.582031 37.554687-91.699218 75.683594-17.117188-38.132813-51.023438-66.109375-91.707032-75.683594-33.984375-7.859375-69.699218-1.652344-99.039062 17.203125-31.15625 19.90625-52.953125 51.558594-60.433594 87.765625-29.335938 136.902344 79.597656 247.542969 191.328125 305.484375l55.925781 29.015625c2.460938 1.273437 5.390625 1.273437 7.851563 0l55.925781-29.015625c111.726562-57.914062 220.664062-168.582031 191.316406-305.492188-7.460937-36.226562-29.253906-67.894531-60.421875-87.808593zm-138.753906 378.15625-51.992187 26.957031-51.992188-26.957031c-106.148438-55.023438-209.820312-159.25-182.496094-286.765625 6.535156-31.730469 25.613282-59.476563 52.90625-76.933594 25.484375-16.414062 56.523438-21.816406 86.050782-14.976562 42.964843 10.308593 76.613281 43.683593 87.277343 86.5625.988281 3.746093 4.378907 6.359374 8.253907 6.359374s7.265624-2.613281 8.25-6.359374c10.671874-42.890626 44.339843-76.265626 87.324218-86.5625 29.511719-6.824219 60.527344-1.433594 86.007813 14.949218 27.296875 17.464844 46.375 45.21875 52.90625 76.960938 27.324219 127.515625-76.347657 231.742187-182.496094 286.765625zm0 0"/><path d="m163.070312 46.855469c.507813-2.207031.121094-4.527344-1.078124-6.449219-1.199219-1.917969-3.117188-3.285156-5.324219-3.792969-7.039063-1.621093-14.238281-2.441406-21.460938-2.449219-47.375 1.066407-87.671875 34.859376-96.980469 81.324219-.988281 4.609375 1.949219 9.144531 6.558594 10.132813 4.609375.988281 9.144532-1.949219 10.132813-6.558594 7.589843-38.613281 40.949219-66.800781 80.289062-67.832031 5.9375.011719 11.855469.6875 17.640625 2.023437 4.589844 1.054688 9.164063-1.8125 10.222656-6.398437zm0 0"/><path d="m170.691406 162.164062c-14.140625 0-25.601562 11.460938-25.601562 25.601563 0 14.136719 11.460937 25.601563 25.601562 25.601563 14.136719 0 25.597656-11.464844 25.597656-25.601563 0-14.140625-11.460937-25.601563-25.597656-25.601563zm0 34.132813c-4.714844 0-8.535156-3.820313-8.535156-8.53125 0-4.714844 3.820312-8.535156 8.535156-8.535156 4.710938 0 8.53125 3.820312 8.53125 8.535156 0 4.710937-3.820312 8.53125-8.53125 8.53125zm0 0"/><path d="m341.355469 162.164062c-14.136719 0-25.597657 11.460938-25.597657 25.601563 0 14.136719 11.460938 25.601563 25.597657 25.601563 14.140625 0 25.601562-11.464844 25.601562-25.601563 0-14.140625-11.460937-25.601563-25.601562-25.601563zm0 34.132813c-4.710938 0-8.53125-3.820313-8.53125-8.53125 0-4.714844 3.820312-8.535156 8.53125-8.535156 4.714843 0 8.535156 3.820312 8.535156 8.535156 0 4.710937-3.820313 8.53125-8.535156 8.53125zm0 0"/><path d="m51.222656 153.632812c0 4.710938-3.820312 8.53125-8.53125 8.53125-4.714844 0-8.535156-3.820312-8.535156-8.53125 0-4.714843 3.820312-8.535156 8.535156-8.535156 4.710938 0 8.53125 3.820313 8.53125 8.535156zm0 0"/><path d="m300.226562 232.625c-2.570312-6.496094-8.859374-10.753906-15.847656-10.726562h-56.710937c-6.988281-.027344-13.277344 4.230468-15.847657 10.726562l-10.238281 25.601562c-2.105469 5.257813-1.464843 11.214844 1.710938 15.90625 3.175781 4.691407 8.46875 7.5 14.132812 7.5h77.195313c5.660156 0 10.957031-2.808593 14.132812-7.5 3.175782-4.691406 3.816406-10.648437 1.710938-15.90625zm-82.800781 31.941406 10.242188-25.601562h56.710937l10.242188 25.601562zm0 0"/><path d="m218.074219 203.980469c2.027343 1.011719 4.371093 1.175781 6.519531.460937 2.148438-.71875 3.921875-2.257812 4.933594-4.285156l8.53125-17.066406c2.109375-4.21875.398437-9.347656-3.820313-11.453125s-9.347656-.394531-11.453125 3.824219l-8.53125 17.066406c-1.015625 2.023437-1.179687 4.371094-.464844 6.519531.71875 2.144531 2.261719 3.921875 4.285157 4.933594zm0 0"/><path d="m252.207031 203.980469c2.027344 1.011719 4.371094 1.175781 6.519531.460937 2.148438-.71875 3.921876-2.257812 4.933594-4.285156l8.535156-17.066406c2.105469-4.21875.394532-9.347656-3.824218-11.453125s-9.34375-.394531-11.453125 3.824219l-8.53125 17.066406c-1.015625 2.023437-1.179688 4.371094-.460938 6.519531.714844 2.144531 2.257813 3.921875 4.28125 4.933594zm0 0"/><path d="m286.34375 203.980469c2.023438 1.011719 4.367188 1.175781 6.515625.460937 2.148437-.71875 3.921875-2.257812 4.933594-4.285156l8.535156-17.066406c2.105469-4.21875.394531-9.347656-3.824219-11.453125s-9.34375-.394531-11.453125 3.824219l-8.53125 17.066406c-1.011719 2.023437-1.179687 4.371094-.460937 6.519531.714844 2.144531 2.257812 3.921875 4.285156 4.933594zm0 0"/></svg>