<?xml version="1.0" encoding="utf-8"?>
<!-- Generator: Adobe Illustrator 17.0.0, SVG Export Plug-In . SVG Version: 6.00 Build 0)  -->
<!DOCTYPE svg PUBLIC "-//W3C//DTD SVG 1.1//EN" "http://www.w3.org/Graphics/SVG/1.1/DTD/svg11.dtd">
<svg version="1.1" id="icon5" xmlns="http://www.w3.org/2000/svg" xmlns:xlink="http://www.w3.org/1999/xlink" x="0px" y="0px"
	 width="63px" height="20.766px" viewBox="0 0 63 20.766" enable-background="new 0 0 63 20.766" xml:space="preserve">
<path d="M60.943,12.531h-0.167c-1.136,0-2.057-0.921-2.057-2.057v-0.01c0-1.136,0.921-2.057,2.057-2.057h0.167
	c1.136,0,2.057,0.921,2.057,2.057v0.01C63,11.61,62.079,12.531,60.943,12.531z M53.974,12.531H34.953h-6.031h-0.141
	c-1.139,0-2.062,0.923-2.062,2.062s0.923,2.063,2.062,2.063h0.141h2.883c1.135,0,2.055,0.92,2.055,2.055s-0.92,2.055-2.055,2.055
	H13.539c-1.135,0-2.055-0.92-2.055-2.055s0.92-2.055,2.055-2.055h7.648h0.484c-0.082,0-0.163-0.006-0.242-0.016
	c1.025-0.12,1.82-0.99,1.82-2.047s-0.795-1.927-1.82-2.047c0.08-0.009,0.16-0.015,0.242-0.015h-0.484H9.578H2.057
	C0.921,12.531,0,11.61,0,10.474v-0.01c0-1.136,0.921-2.057,2.057-2.057H27.18h6.203h0.453c-0.077,0-0.152-0.005-0.227-0.013
	c1.028-0.113,1.828-0.984,1.828-2.042s-0.8-1.929-1.828-2.042c0.074-0.008,0.15-0.013,0.227-0.013h-0.453H27.18h-2.844
	c-1.135,0-2.055-0.92-2.055-2.055s0.92-2.055,2.055-2.055h24.406c1.135,0,2.055,0.92,2.055,2.055s-0.92,2.055-2.055,2.055h-2.391
	h-0.156c-1.135,0-2.055,0.92-2.055,2.055s0.92,2.055,2.055,2.055h0.156h6.031h1.591c1.136,0,2.057,0.921,2.057,2.057v0.01
	C56.031,11.61,55.11,12.531,53.974,12.531z M17.864,4.121h-0.161c-1.138,0-2.061-0.922-2.061-2.06s0.923-2.06,2.061-2.06h0.161
	c1.138,0,2.061,0.922,2.061,2.06C19.925,3.198,19.002,4.121,17.864,4.121z"/>
</svg>
