<?xml version="1.0" standalone="no"?><!DOCTYPE svg PUBLIC "-//W3C//DTD SVG 1.1//EN" "http://www.w3.org/Graphics/SVG/1.1/DTD/svg11.dtd"><svg class="icon" width="300px" height="300.00px" viewBox="0 0 1024 1024" version="1.1" xmlns="http://www.w3.org/2000/svg"><path fill="#222222" d="M774.784 426.666667A256.085333 256.085333 0 0 0 291.84 426.666667h482.986667zM280.874667 554.666667a256.085333 256.085333 0 0 0 472.746666 87.765333h140.970667A384.128 384.128 0 0 1 367.445333 858.453333c-117.077333 63.616-218.154667 76.8-274.005333 20.949334-57.344-57.173333-26.794667-206.976 56.021333-357.248a1007.957333 1007.957333 0 0 1 106.624-156.373334c15.317333-18.474667 31.36-36.352 48-53.418666-11.733333 2.346667-80.213333 36.309333-145.578666 115.797333a384.170667 384.170667 0 0 1 403.968-299.050667c132.053333-59.818667 254.890667-73.642667 306.858666-21.76 48 47.914667 45.312 127.786667 5.333334 223.658667-0.426667 0.896-0.768 1.834667-1.152 2.730667A382.293333 382.293333 0 0 1 917.333333 512c0 14.421333-0.810667 28.672-2.346666 42.666667H280.874667z m60.672 290.090666a385.28 385.28 0 0 1-169.472-202.325333c-49.536 97.365333-62.293333 178.773333-20.010667 221.013333 34.688 34.645333 104.021333 26.624 189.354667-18.602666l0.128-0.085334zM860.672 311.125333a349.44 349.44 0 0 1 0.64-1.450666c32-69.205333 34.688-127.744 5.333333-162.389334-37.077333-37.034667-108.373333-32-192.938666 7.168a385.365333 385.365333 0 0 1 186.965333 156.672z" /></svg>