<?xml version="1.0" standalone="no"?><!DOCTYPE svg PUBLIC "-//W3C//DTD SVG 1.1//EN" "http://www.w3.org/Graphics/SVG/1.1/DTD/svg11.dtd"><svg class="icon" width="300px" height="300.00px" viewBox="0 0 1024 1024" version="1.1" xmlns="http://www.w3.org/2000/svg"><path fill="#222222" d="M1024 398.222222 1024 625.777778 892.586667 625.777778C884.679111 651.889778 873.642667 676.408889 860.842667 699.960889L954.481778 793.6 793.6 954.481778 699.562667 860.444444C676.124444 873.016889 651.719111 883.939556 625.777778 891.733333L625.777778 1024 398.222222 1024 398.222222 891.733333C373.361778 884.280889 349.980444 873.870222 327.452444 861.980444L222.492444 966.940444 57.059556 801.507556 161.621333 696.945778C149.560889 674.304 138.979556 650.752 131.413333 625.777778L0 625.777778 0 398.222222 131.413333 398.222222C139.320889 372.110222 150.357333 347.534222 163.157333 324.039111L69.518222 230.4 230.4 69.518222 324.437333 163.555556C347.875556 150.983111 372.280889 140.060444 398.222222 132.266667L398.222222 0 625.777778 0 625.777778 132.266667C650.638222 139.719111 674.019556 150.129778 696.547556 162.019556L801.507556 57.059556 966.940444 222.492444 862.378667 327.054222C874.439111 349.639111 885.020444 373.248 892.586667 398.222222L1024 398.222222ZM512 284.444444C386.332444 284.444444 284.444444 386.332444 284.444444 512 284.444444 637.667556 386.332444 739.555556 512 739.555556 637.667556 739.555556 739.555556 637.667556 739.555556 512 739.555556 386.332444 637.667556 284.444444 512 284.444444Z" /></svg>