<?xml version="1.0" standalone="no"?><!DOCTYPE svg PUBLIC "-//W3C//DTD SVG 1.1//EN" "http://www.w3.org/Graphics/SVG/1.1/DTD/svg11.dtd"><svg class="icon" width="300px" height="300.00px" viewBox="0 0 1024 1024" version="1.1" xmlns="http://www.w3.org/2000/svg"><path fill="#222222" d="M232.832 775.893333C143.274667 711.552 85.333333 614.4 85.333333 508.074667 85.333333 312.448 276.266667 153.6 512 153.6s426.666667 158.848 426.666667 354.474667c0 195.584-190.933333 354.432-426.666667 354.432a484.693333 484.693333 0 0 1-139.605333-19.669334c-3.925333-1.28-9.216-1.28-13.141334-1.28-7.893333 0-15.786667 2.56-22.4 6.528l-93.482666 53.802667a18.773333 18.773333 0 0 1-7.893334 2.645333 14.592 14.592 0 0 1-14.506666-14.421333c0-3.968 1.28-6.570667 2.645333-10.538667 1.28-1.28 13.141333-44.629333 19.754667-70.869333 0-2.645333 1.28-6.570667 1.28-9.216 0-10.496-3.925333-18.346667-11.818667-23.594667z m136.96-327.424c30.592 0 54.826667-24.234667 54.826667-54.826666 0-30.634667-24.234667-54.869333-54.826667-54.869334-30.634667 0-54.826667 24.234667-54.826667 54.869334 0 30.592 24.192 54.826667 54.826667 54.826666z m284.416 0c30.634667 0 54.826667-24.234667 54.826667-54.826666 0-30.634667-24.192-54.869333-54.826667-54.869334-30.592 0-54.826667 24.234667-54.826667 54.869334 0 30.592 24.234667 54.826667 54.826667 54.826666z" /></svg>