<?xml version="1.0" standalone="no"?><!DOCTYPE svg PUBLIC "-//W3C//DTD SVG 1.1//EN" "http://www.w3.org/Graphics/SVG/1.1/DTD/svg11.dtd"><svg class="icon" width="300px" height="300.00px" viewBox="0 0 1024 1024" version="1.1" xmlns="http://www.w3.org/2000/svg"><path fill="#222222" d="M152.576 353.152l-50.901333 78.592 93.866666 58.496s62.464 32.170667 32.554667 92.544c-27.733333 57.088-164.096 182.186667-164.096 182.186667l122.112 76.714666c84.650667-184.576 78.933333-160 100.138667-226.389333 21.845333-67.413333 26.624-119.210667-10.325334-156.885333-47.488-48-52.821333-52.48-123.349333-105.258667z m66.730667-29.610667c44.373333 0 80.341333-32.341333 80.341333-72.234666 0-40.234667-35.968-72.576-80.341333-72.576-44.714667 0-80.512 32.512-80.512 72.576 0.213333 39.722667 35.84 72.234667 80.512 72.234666z m725.546666 8.96s-26.624-207.786667-478.165333-79.104c19.413333-33.92 28.544-55.765333 28.544-55.765333l-112.64-32s-45.653333 149.674667-126.805333 219.306667c0 0 78.762667 45.781333 77.909333 44.373333a728.32 728.32 0 0 0 60.032-68.096c18.090667-8.106667 35.413333-15.488 52.309333-22.357333-20.992 37.845333-54.528 94.634667-88.234666 130.389333l47.445333 41.984s32.512-31.488 67.797333-69.12h40.234667v69.802667H356.053333v55.722666h157.226667v133.674667l-5.973333-0.170667c-17.408-0.853333-44.245333-3.797333-54.912-20.650666-12.714667-20.650667-3.285333-57.984-2.730667-81.194667H341.12l-3.968 2.218667s-39.893333 179.413333 114.730667 175.488c144.469333 3.925333 227.413333-40.789333 267.306666-71.552l15.786667 59.477333 89.173333-37.632-60.416-148.650667-72.234666 22.869334 13.397333 50.773333c-18.218667 14.08-39.68 24.405333-62.592 32.170667v-116.821334h153.258667v-55.893333h-153.258667v-69.845333h153.770667V386.176h-273.493334c19.797333-24.277333 35.072-46.464 39.253334-60.373333l-47.872-13.098667c204.714667-73.941333 318.72-61.226667 317.866666 59.861333v318.933334s12.074667 109.397333-112.469333 101.674666l-67.413333-14.634666-15.658667 64.512s290.858667 83.925333 314.624-141.397334c23.552-225.365333-6.058667-369.152-6.058667-369.152z" /></svg>