<?xml version="1.0" standalone="no"?><!DOCTYPE svg PUBLIC "-//W3C//DTD SVG 1.1//EN" "http://www.w3.org/Graphics/SVG/1.1/DTD/svg11.dtd"><svg class="icon" width="300px" height="300.00px" viewBox="0 0 1024 1024" version="1.1" xmlns="http://www.w3.org/2000/svg"><path fill="#222222" d="M511.936 0C229.184 0 0 229.248 0 512c0 282.752 229.248 512 512 512C794.752 1024 1024 794.816 1024 512 1024 229.248 794.752 0 511.936 0zM276.16 246.144c35.264 0 63.808 25.728 63.808 57.28 0 31.488-28.544 57.216-63.808 57.216S212.352 334.912 212.352 303.424C212.352 271.872 240.96 246.144 276.16 246.144zM329.408 589.888C312.576 642.112 316.8 622.72 249.92 768l-96.896-60.352c0 0 108.032-98.368 130.24-143.232 23.424-47.36-25.92-72.64-25.92-72.64L183.168 445.44l40.064-61.76c55.936 41.536 60.16 45.056 97.92 82.88C350.4 495.872 346.688 536.576 329.408 589.888zM855.872 657.6c-18.88 177.28-249.344 111.36-249.344 111.36l12.48-50.688 44.672 11.456c98.816 6.336 80.512-80 80.512-80L744.192 398.912c0-95.232-80.896-105.088-243.072-47.04l42.112 4.8C539.968 367.808 532.032 398.848 516.416 398.848l200.512 0 0 54.464L608 453.312l0 54.464 108.928 0 0 27.2L608 534.976l0 109.376c0-6.144 36.8-14.336 51.584-25.28L649.6 578.944l57.856-17.856 47.936 117.184L684.8 707.648l-12.416-46.72c-31.552 24.256-97.216 59.136-211.648 56.064-122.432 3.136-91.008-145.536-91.008-145.536l3.136-9.152L458.88 562.304C458.304 589.504 450.88 617.536 461.056 633.6c8.32 13.248 24.704 19.264 38.4 19.904 1.536 0.256-0.384 4.032-0.384 4.032L499.072 534.976 362.944 534.976 362.944 507.776l136.128 0L499.072 453.312l-21.76 0C449.28 480.512 423.68 507.84 423.68 507.84L385.984 474.944C412.736 446.784 439.488 402.304 456 372.48c-13.44 5.44-27.328 11.328-41.472 17.6C400.448 407.68 384.576 425.792 366.784 443.648 367.424 444.608 305.28 408.768 305.28 408.768c64.256-54.912 100.288-172.48 100.288-172.48l89.472 25.024c0 0-7.488 17.408-22.656 44.032 358.016-101.312 378.752 62.144 378.752 62.144S874.752 480.448 855.872 657.6z" /></svg>