<?xml version="1.0" standalone="no"?><!DOCTYPE svg PUBLIC "-//W3C//DTD SVG 1.1//EN" "http://www.w3.org/Graphics/SVG/1.1/DTD/svg11.dtd"><svg class="icon" width="300px" height="300.00px" viewBox="0 0 1024 1024" version="1.1" xmlns="http://www.w3.org/2000/svg"><path fill="#222222" d="M512 85.333333C276.48 85.333333 85.333333 276.48 85.333333 512s191.146667 426.666667 426.666667 426.666667c235.093333 0 426.666667-191.146667 426.666667-426.666667S747.093333 85.333333 512 85.333333z m281.813333 196.693334a362.752 362.752 0 0 1 82.346667 226.730666c-11.989333-2.304-132.309333-26.837333-253.568-11.562666-2.773333-6.016-5.12-12.501333-7.850667-18.986667a1084.757333 1084.757333 0 0 0-24.064-52.736c134.186667-54.613333 195.285333-133.290667 203.136-143.445333zM512 148.266667c92.586667 0 177.237333 34.730667 241.578667 91.648-6.485333 9.216-61.568 82.816-191.146667 131.413333-59.690667-109.653333-125.866667-199.466667-136.064-213.333333A370.602667 370.602667 0 0 1 512 148.266667z m-155.008 34.261333a2299.861333 2299.861333 0 0 1 135.125333 210.56c-170.325333 45.354667-320.725333 44.373333-336.896 44.373333a366.122667 366.122667 0 0 1 201.770667-254.933333zM147.328 512.426667v-11.093334c15.786667 0.426667 192.512 2.773333 374.4-51.84 10.666667 20.352 20.352 41.173333 29.610667 61.994667-4.650667 1.408-9.728 2.773333-14.336 4.181333-187.904 60.586667-287.872 226.261333-296.192 240.170667a363.605333 363.605333 0 0 1-93.44-243.413333zM512 876.672a361.898667 361.898667 0 0 1-223.530667-76.8c6.485333-13.44 80.554667-155.989333 285.994667-227.712 0.938667-0.426667 1.408-0.426667 2.304-0.938667a1506.517333 1506.517333 0 0 1 77.781333 276.266667 358.4 358.4 0 0 1-142.549333 29.184z m203.136-62.506667c-3.669333-22.186667-23.125333-128.64-70.826667-259.584 114.346667-18.048 214.314667 11.562667 226.773334 15.744a361.301333 361.301333 0 0 1-155.946667 243.84z" /></svg>