<?xml version="1.0" encoding="iso-8859-1"?>
<!-- Generator: Adobe Illustrator 19.0.0, SVG Export Plug-In . SVG Version: 6.00 Build 0)  -->
<svg version="1.1" id="Layer_1" xmlns="http://www.w3.org/2000/svg" xmlns:xlink="http://www.w3.org/1999/xlink" x="0px" y="0px"
	 viewBox="0 0 330 330" style="enable-background:new 0 0 330 330;" xml:space="preserve">
<path id="XMLID_21_" d="M315,0H15C6.716,0,0,6.716,0,15v300c0,8.284,6.716,15,15,15h300c8.284,0,15-6.716,15-15V15
	C330,6.716,323.284,0,315,0z M255.606,215.606C252.678,218.535,248.839,220,245,220s-7.678-1.464-10.606-4.394l-69.396-69.393
	l-69.392,69.393c-5.857,5.858-15.355,5.858-21.213,0c-5.858-5.857-5.858-15.355,0-21.213l79.998-80
	c2.813-2.813,6.628-4.394,10.606-4.394c3.979,0,7.793,1.58,10.607,4.394l80.002,80C261.465,200.251,261.465,209.749,255.606,215.606
	z"/>
<g>
</g>
<g>
</g>
<g>
</g>
<g>
</g>
<g>
</g>
<g>
</g>
<g>
</g>
<g>
</g>
<g>
</g>
<g>
</g>
<g>
</g>
<g>
</g>
<g>
</g>
<g>
</g>
<g>
</g>
</svg>
