<?xml version="1.0" encoding="iso-8859-1"?>
<!-- Generator: Adobe Illustrator 19.0.0, SVG Export Plug-In . SVG Version: 6.00 Build 0)  -->
<svg version="1.1" id="Layer_1" xmlns="http://www.w3.org/2000/svg" xmlns:xlink="http://www.w3.org/1999/xlink" x="0px" y="0px"
	 viewBox="0 0 242.133 242.133" style="enable-background:new 0 0 242.133 242.133;" xml:space="preserve">
<path id="XMLID_108_" d="M227.132,0H121.067C115,0,109.531,3.655,107.209,9.26c-2.321,5.605-1.038,12.057,3.252,16.347
	l42.426,42.427L4.394,216.526c-5.857,5.857-5.857,15.355,0,21.213c2.929,2.929,6.768,4.393,10.607,4.393
	c3.839,0,7.678-1.465,10.606-4.393L174.099,89.246l42.426,42.426c2.869,2.87,6.706,4.393,10.609,4.393
	c1.933,0,3.882-0.373,5.737-1.142c5.605-2.322,9.26-7.792,9.26-13.858V15C242.132,6.716,235.416,0,227.132,0z"/>
<g>
</g>
<g>
</g>
<g>
</g>
<g>
</g>
<g>
</g>
<g>
</g>
<g>
</g>
<g>
</g>
<g>
</g>
<g>
</g>
<g>
</g>
<g>
</g>
<g>
</g>
<g>
</g>
<g>
</g>
</svg>
