<?xml version="1.0" encoding="iso-8859-1"?>
<!-- Generator: Adobe Illustrator 19.0.0, SVG Export Plug-In . SVG Version: 6.00 Build 0)  -->
<svg version="1.1" id="Layer_1" xmlns="http://www.w3.org/2000/svg" xmlns:xlink="http://www.w3.org/1999/xlink" x="0px" y="0px"
	 viewBox="0 0 242.132 242.132" style="enable-background:new 0 0 242.132 242.132;" xml:space="preserve">
<path id="XMLID_169_" d="M237.738,216.525L89.246,68.033l42.426-42.426c4.291-4.29,5.574-10.742,3.252-16.347
	c-2.321-5.605-7.791-9.26-13.857-9.26H15c-8.283,0-15,6.716-15,15v106.066c0,6.066,3.655,11.536,9.26,13.858
	c1.856,0.769,3.805,1.142,5.737,1.142c3.903,0,7.741-1.524,10.61-4.394l42.426-42.427l148.492,148.491
	c2.93,2.93,6.768,4.394,10.607,4.394c3.838,0,7.678-1.464,10.605-4.394C243.597,231.881,243.597,222.383,237.738,216.525z"/>
<g>
</g>
<g>
</g>
<g>
</g>
<g>
</g>
<g>
</g>
<g>
</g>
<g>
</g>
<g>
</g>
<g>
</g>
<g>
</g>
<g>
</g>
<g>
</g>
<g>
</g>
<g>
</g>
<g>
</g>
</svg>
