<?xml version="1.0" encoding="iso-8859-1"?>
<!-- Generator: Adobe Illustrator 19.0.0, SVG Export Plug-In . SVG Version: 6.00 Build 0)  -->
<svg version="1.1" id="Layer_1" xmlns="http://www.w3.org/2000/svg" xmlns:xlink="http://www.w3.org/1999/xlink" x="0px" y="0px"
	 viewBox="0 0 512.016 512.016" style="enable-background:new 0 0 512.016 512.016;" xml:space="preserve">
<path style="fill:#414752;" d="M401.808,10.808H110.192C49.44,10.808,0,61.256,0,123.256v155.76
	c0,52.192,35.008,96.752,83.472,109.04v113.152l134.016-109.744h184.32c60.768,0,110.208-50.448,110.208-112.448v-155.76
	C512,61.256,462.56,10.808,401.808,10.808z M480,279.032c0,44.352-35.072,80.448-78.208,80.448H206.048l-90.576,74.192v-73.104
	l-14.144-1.664C61.824,354.28,32,319.928,32,279.032V123.256c0-44.352,35.088-80.448,78.192-80.448h291.616
	c43.12,0,78.192,36.096,78.192,80.448V279.032z"/>
<g>
</g>
<g>
</g>
<g>
</g>
<g>
</g>
<g>
</g>
<g>
</g>
<g>
</g>
<g>
</g>
<g>
</g>
<g>
</g>
<g>
</g>
<g>
</g>
<g>
</g>
<g>
</g>
<g>
</g>
</svg>
